<svg width="95" height="95" viewBox="0 0 95 95" fill="none" xmlns="http://www.w3.org/2000/svg">
<g filter="url(#filter0_bi_124_1056)">
<rect y="-0.000976562" width="95" height="95" rx="47.5" fill="white" fill-opacity="0.18"/>
</g>
<path fill-rule="evenodd" clip-rule="evenodd" d="M89.0625 47.499C89.0625 36.476 84.6836 25.9044 76.8891 18.1099C69.0946 10.3154 58.5231 5.93653 47.5 5.93654C36.4769 5.93654 25.9054 10.3154 18.1109 18.1099C10.3164 25.9044 5.93752 36.476 5.93752 47.499C5.93752 58.5221 10.3164 69.0937 18.1109 76.8882C25.9054 84.6826 36.477 89.0615 47.5 89.0615C58.5231 89.0615 69.0947 84.6826 76.8891 76.8882C84.6836 69.0937 89.0625 58.5221 89.0625 47.499ZM1.89524e-05 47.499C1.79085e-05 34.9013 5.00446 22.8194 13.9124 13.9115C22.8204 5.00349 34.9022 -0.00096339 47.5 -0.000964552C60.0978 -0.000965714 72.1796 5.00348 81.0876 13.9115C89.9955 22.8194 95 34.9012 95 47.499C95 60.0968 89.9955 72.1786 81.0876 81.0866C72.1796 89.9946 60.0978 94.999 47.5 94.999C34.9022 94.999 22.8204 89.9946 13.9124 81.0866C5.00447 72.1786 1.99962e-05 60.0968 1.89524e-05 47.499ZM44.5313 68.2803C44.5313 69.0676 44.844 69.8228 45.4008 70.3795C45.9575 70.9363 46.7126 71.249 47.5 71.249C48.2874 71.249 49.0425 70.9363 49.5992 70.3795C50.156 69.8228 50.4688 69.0676 50.4688 68.2803L50.4688 33.8843L63.2106 46.6322C63.7681 47.1896 64.5241 47.5028 65.3125 47.5028C66.1009 47.5028 66.8569 47.1896 67.4144 46.6322C67.9718 46.0747 68.285 45.3186 68.285 44.5303C68.285 43.7419 67.9718 42.9859 67.4144 42.4284L49.6019 24.6159C49.3261 24.3394 48.9985 24.1201 48.6378 23.9704C48.2772 23.8208 47.8905 23.7437 47.5 23.7437C47.1095 23.7437 46.7229 23.8208 46.3622 23.9704C46.0015 24.1201 45.6739 24.3394 45.3981 24.6159L27.5856 42.4284C27.0282 42.9859 26.715 43.7419 26.715 44.5303C26.715 45.3186 27.0282 46.0747 27.5856 46.6322C28.1431 47.1896 28.8992 47.5028 29.6875 47.5028C30.4759 47.5028 31.2319 47.1896 31.7894 46.6322L44.5313 33.8843L44.5313 68.2803Z" fill="url(#paint0_linear_124_1056)"/>
<defs>
<filter id="filter0_bi_124_1056" x="-15" y="-15.001" width="125" height="125" filterUnits="userSpaceOnUse" color-interpolation-filters="sRGB">
<feFlood flood-opacity="0" result="BackgroundImageFix"/>
<feGaussianBlur in="BackgroundImage" stdDeviation="7.5"/>
<feComposite in2="SourceAlpha" operator="in" result="effect1_backgroundBlur_124_1056"/>
<feBlend mode="normal" in="SourceGraphic" in2="effect1_backgroundBlur_124_1056" result="shape"/>
<feColorMatrix in="SourceAlpha" type="matrix" values="0 0 0 0 0 0 0 0 0 0 0 0 0 0 0 0 0 0 127 0" result="hardAlpha"/>
<feOffset/>
<feGaussianBlur stdDeviation="18"/>
<feComposite in2="hardAlpha" operator="arithmetic" k2="-1" k3="1"/>
<feColorMatrix type="matrix" values="0 0 0 0 1 0 0 0 0 1 0 0 0 0 1 0 0 0 0.5 0"/>
<feBlend mode="normal" in2="shape" result="effect2_innerShadow_124_1056"/>
</filter>
<linearGradient id="paint0_linear_124_1056" x1="47.5" y1="94.999" x2="47.5" y2="-0.000964552" gradientUnits="userSpaceOnUse">
<stop stop-color="#9DB3FF"/>
<stop offset="1" stop-color="#BBFFFF"/>
</linearGradient>
</defs>
</svg>
