<svg width="25" height="25" viewBox="0 0 25 25" fill="none" xmlns="http://www.w3.org/2000/svg">
<path fill-rule="evenodd" clip-rule="evenodd" d="M15.4961 0.0445208C14.0981 0.265924 13.1162 0.745679 12.3106 1.60079C11.6324 2.32077 11.2092 3.16547 10.9697 4.27708C10.8792 4.69696 10.8677 4.95072 10.849 6.92854L10.8283 9.11568L8.91415 9.11568L7 9.11568L7 11.3389L7 13.5622L8.90556 13.5749L10.8111 13.5877L10.8234 19.2939L10.8358 25L13.1174 25L15.399 25L15.399 19.2816L15.399 13.5633L17.2924 13.5633C18.3338 13.5633 19.1866 13.5578 19.1876 13.5511C19.3147 12.661 19.747 9.1778 19.7335 9.15234C19.7229 9.13216 18.7418 9.11568 17.5534 9.11568L15.3927 9.11568L15.409 7.2951C15.425 5.51449 15.4279 5.46816 15.5401 5.18522C15.7675 4.61207 16.246 4.27341 16.9604 4.18006C17.1564 4.15445 17.9014 4.1328 18.6159 4.13197L19.9152 4.13045L19.9025 2.13881L19.8898 0.147158L19.2587 0.0894367C18.2239 -0.00523377 15.9794 -0.0320172 15.4961 0.0445208Z" fill="white" fill-opacity="0.78"/>
</svg>
