<svg width="25" height="25" viewBox="0 0 25 25" fill="none" xmlns="http://www.w3.org/2000/svg">
<path d="M23.75 4.00798C23.6435 3.99734 23.5362 3.99734 23.4297 4.00798L1.55469 4.00798C1.41449 4.01007 1.27522 4.03045 1.14062 4.06856L12.4297 14.9666L23.75 4.00798Z" fill="white" fill-opacity="0.78"/>
<path d="M24.9063 5.06055L13.5312 16.0419C13.2385 16.324 12.8425 16.4823 12.4297 16.4823C12.0169 16.4823 11.6209 16.324 11.3281 16.0419L0.0546875 5.14385C0.0200308 5.26733 0.00165516 5.39457 -8.07734e-08 5.52252L-2.72908e-06 20.6692C-2.79932e-06 21.0709 0.164617 21.4562 0.457643 21.7402C0.750668 22.0243 1.1481 22.1839 1.5625 22.1839L23.4375 22.1839C23.8519 22.1839 24.2493 22.0243 24.5424 21.7402C24.8354 21.4562 25 21.0709 25 20.6692L25 5.52253C24.9938 5.36474 24.9622 5.20886 24.9063 5.06055V5.06055ZM2.63281 20.6692L1.54687 20.6692L1.54687 19.5862L7.22656 14.1258L8.32812 15.1937L2.63281 20.6692ZM23.4219 20.6692L22.3281 20.6692L16.6328 15.1937L17.7344 14.1258L23.4141 19.5862L23.4219 20.6692Z" fill="white" fill-opacity="0.78"/>
</svg>
