<svg width="25" height="25" viewBox="0 0 25 25" fill="none" xmlns="http://www.w3.org/2000/svg">
<path d="M12.7203 25C10.9664 23.5039 9.3407 21.8638 7.86016 20.0968C5.63838 17.4431 3 13.4911 3 9.7252C2.99904 7.80191 3.56865 5.92156 4.63676 4.32212C5.70486 2.72269 7.22344 1.47606 9.00031 0.740005C10.7772 0.003953 12.7325 -0.188435 14.6187 0.187188C16.505 0.562811 18.2374 1.48956 19.5968 2.85015C20.5018 3.75117 21.2192 4.82274 21.7073 6.00283C22.1955 7.18293 22.4447 8.44813 22.4407 9.7252C22.4407 13.4911 19.8023 17.4431 17.5805 20.0968C16.1 21.8638 14.4742 23.5039 12.7203 25ZM12.7203 5.55935C11.6155 5.55935 10.5559 5.99825 9.77462 6.7795C8.99337 7.56075 8.55447 8.62035 8.55447 9.7252C8.55447 10.8301 8.99337 11.8897 9.77462 12.6709C10.5559 13.4522 11.6155 13.8911 12.7203 13.8911C13.8252 13.8911 14.8848 13.4522 15.666 12.6709C16.4473 11.8897 16.8862 10.8301 16.8862 9.7252C16.8862 8.62035 16.4473 7.56075 15.666 6.7795C14.8848 5.99825 13.8252 5.55935 12.7203 5.55935Z" fill="white" fill-opacity="0.78"/>
</svg>
