<svg width="25" height="25" viewBox="0 0 25 25" fill="none" xmlns="http://www.w3.org/2000/svg">
<path d="M15.1921 17.2462L17.0576 15.9518C17.3084 15.7801 17.6037 15.6849 17.9075 15.6777C18.2114 15.6706 18.5108 15.7518 18.7694 15.9115L20.556 17.0284C20.8167 17.1935 21.0226 17.432 21.148 17.7139C21.2733 17.9958 21.3124 18.3085 21.2603 18.6125L20.6228 22.1393C20.5839 22.3455 20.5036 22.5417 20.3868 22.7161C20.27 22.8905 20.1191 23.0394 19.9433 23.1539C19.7674 23.2685 19.5702 23.3462 19.3635 23.3825C19.1568 23.4188 18.9449 23.4129 18.7405 23.3651C5.3988 20.0868 4.74152 8.1679 5.01707 3.70163C5.03199 3.48256 5.09312 3.26912 5.19644 3.07537C5.29977 2.88162 5.44295 2.71194 5.61656 2.57749C5.79017 2.44305 5.99028 2.34689 6.20373 2.29534C6.41717 2.24378 6.63911 2.23801 6.85495 2.27839L10.2618 2.89419C10.5657 2.95004 10.8459 3.09552 11.0664 3.31191C11.2869 3.52831 11.4376 3.80572 11.4991 4.10847L11.9199 6.17306C11.9828 6.47074 11.9566 6.78036 11.8446 7.06325C11.7326 7.34614 11.5397 7.58976 11.2901 7.76366L9.42448 9.05807C9.42448 9.05807 9.22137 15.3803 15.1921 17.2462Z" fill="white" fill-opacity="0.78"/>
</svg>
