<svg width="38" height="38" viewBox="0 0 38 38" fill="none" xmlns="http://www.w3.org/2000/svg">
<g filter="url(#filter0_bi_124_1414)">
<rect x="0.845703" y="36.9395" width="36.4175" height="36.4175" rx="18.2088" transform="rotate(-90 0.845703 36.9395)" fill="white" fill-opacity="0.18"/>
</g>
<path fill-rule="evenodd" clip-rule="evenodd" d="M19.0544 3.39411C14.8288 3.39411 10.7763 5.07117 7.78833 8.05636C4.80037 11.0415 3.12176 15.0903 3.12176 19.312C3.12176 23.5337 4.80037 27.5825 7.78833 30.5677C10.7763 33.5529 14.8288 35.23 19.0544 35.23C23.28 35.23 27.3326 33.5529 30.3205 30.5677C33.3085 27.5825 34.9871 23.5337 34.9871 19.312C34.9871 15.0903 33.3085 11.0415 30.3205 8.05636C27.3326 5.07117 23.28 3.39411 19.0544 3.39411ZM19.0544 37.5039C14.2252 37.5039 9.59369 35.5873 6.17888 32.1757C2.76408 28.764 0.845664 24.1368 0.845664 19.312C0.845664 14.4872 2.76408 9.86005 6.17888 6.4484C9.59369 3.03676 14.2252 1.12012 19.0544 1.12012C23.8837 1.12012 28.5152 3.03676 31.93 6.44841C35.3448 9.86005 37.2632 14.4872 37.2632 19.312C37.2632 24.1368 35.3448 28.764 31.93 32.1757C28.5152 35.5873 23.8837 37.5039 19.0544 37.5039Z" fill="url(#paint0_linear_124_1414)"/>
<path d="M21.6218 26.8872C21.8436 26.6712 21.9683 26.3782 21.9683 26.0727C21.9683 25.7672 21.8436 25.4742 21.6218 25.2581L15.7631 19.5549L21.6218 13.8518C21.8374 13.6345 21.9567 13.3434 21.954 13.0413C21.9513 12.7392 21.8268 12.4503 21.6073 12.2366C21.3879 12.023 21.091 11.9019 20.7807 11.8992C20.4704 11.8966 20.1714 12.0127 19.9482 12.2226L13.2527 18.7404C13.0309 18.9564 12.9062 19.2494 12.9062 19.5549C12.9062 19.8604 13.0309 20.1534 13.2527 20.3695L19.9482 26.8872C20.1701 27.1032 20.4711 27.2246 20.785 27.2246C21.0988 27.2246 21.3998 27.1032 21.6218 26.8872Z" fill="url(#paint1_linear_124_1414)"/>
<defs>
<filter id="filter0_bi_124_1414" x="-11.2935" y="-11.6177" width="60.6958" height="60.6963" filterUnits="userSpaceOnUse" color-interpolation-filters="sRGB">
<feFlood flood-opacity="0" result="BackgroundImageFix"/>
<feGaussianBlur in="BackgroundImage" stdDeviation="6.06959"/>
<feComposite in2="SourceAlpha" operator="in" result="effect1_backgroundBlur_124_1414"/>
<feBlend mode="normal" in="SourceGraphic" in2="effect1_backgroundBlur_124_1414" result="shape"/>
<feColorMatrix in="SourceAlpha" type="matrix" values="0 0 0 0 0 0 0 0 0 0 0 0 0 0 0 0 0 0 127 0" result="hardAlpha"/>
<feOffset/>
<feGaussianBlur stdDeviation="14.567"/>
<feComposite in2="hardAlpha" operator="arithmetic" k2="-1" k3="1"/>
<feColorMatrix type="matrix" values="0 0 0 0 1 0 0 0 0 1 0 0 0 0 1 0 0 0 0.5 0"/>
<feBlend mode="normal" in2="shape" result="effect2_innerShadow_124_1414"/>
</filter>
<linearGradient id="paint0_linear_124_1414" x1="37.2632" y1="19.312" x2="0.845664" y2="19.312" gradientUnits="userSpaceOnUse">
<stop stop-color="white" stop-opacity="0.46"/>
<stop offset="1" stop-color="white"/>
</linearGradient>
<linearGradient id="paint1_linear_124_1414" x1="37.2632" y1="19.312" x2="0.845664" y2="19.312" gradientUnits="userSpaceOnUse">
<stop stop-color="white" stop-opacity="0.46"/>
<stop offset="1" stop-color="white"/>
</linearGradient>
</defs>
</svg>
