<svg width="147" height="33" viewBox="0 0 147 33" fill="none" xmlns="http://www.w3.org/2000/svg">
<path d="M14.4102 9.625L15.1719 9.68359C15.6927 9.72266 16.3242 9.76823 17.0664 9.82031C17.8216 9.8724 18.6354 9.91797 19.5078 9.95703C19.9766 9.97005 20.5495 9.94401 21.2266 9.87891C21.2135 9.20182 21.194 8.5638 21.168 7.96484C21.1159 6.54557 21.0378 5.6862 20.9336 5.38672C20.8424 5.13932 20.7839 4.8724 20.7578 4.58594C20.7448 4.29948 20.7513 4.02604 20.7773 3.76563C20.8164 3.50521 20.849 3.29036 20.875 3.12109L20.9336 2.86719C21.832 3.08854 22.6849 3.19271 23.4922 3.17969C24.3385 3.16667 25.1068 3.28385 25.7969 3.53125C26.2786 3.77865 26.526 4.23438 26.5391 4.89844C26.5521 5.5625 26.4935 6.28516 26.3633 7.06641C26.2852 7.5612 26.2266 8.02995 26.1875 8.47266C26.1745 8.64193 26.1615 8.83724 26.1484 9.05859C26.487 8.99349 26.8255 8.92839 27.1641 8.86328C28.7917 8.55078 29.8333 8.38151 30.2891 8.35547C30.5495 8.38151 30.8034 8.65495 31.0508 9.17578C31.2982 9.68359 31.4544 10.263 31.5195 10.9141C31.5846 11.5521 31.474 12.0794 31.1875 12.4961C30.901 12.9128 30.3542 13.043 29.5469 12.8867C28.5703 12.7305 27.3854 12.737 25.9922 12.9063C25.9401 14.0781 25.901 15.237 25.875 16.3828C25.849 17.8672 25.8555 18.8503 25.8945 19.332C25.9206 19.6055 25.8229 19.8919 25.6016 20.1914C26.1745 20.1654 26.7734 20.1328 27.3984 20.0938C31.2396 19.9375 33.5313 20.2044 34.2734 20.8945C34.4948 21.3633 34.4167 21.9492 34.0391 22.6523C33.6745 23.3424 33.069 23.8828 32.2227 24.2734C31.3763 24.6641 30.3672 24.638 29.1953 24.1953C27.6198 23.6875 26.2135 23.5117 24.9766 23.668C23.7396 23.8112 21.8451 24.0716 19.293 24.4492C18.0039 24.6185 17.099 24.7227 16.5781 24.7617C15.7969 24.7617 15.2956 24.3841 15.0742 23.6289C14.8529 22.8737 14.7292 22.099 14.7031 21.3047C14.6771 20.7057 14.612 20.2956 14.5078 20.0742L14.7031 20.2109C14.8203 20.2891 14.9701 20.3867 15.1523 20.5039C15.3346 20.6081 15.5104 20.7188 15.6797 20.8359C16.0182 20.9661 17.099 20.9141 18.9219 20.6797C19.5599 20.6016 20.3281 20.5299 21.2266 20.4648C21.2266 20.4518 21.2266 20.4388 21.2266 20.4258C21.2656 20.0482 21.2917 19.1302 21.3047 17.6719C21.3177 16.513 21.3177 15.2305 21.3047 13.8242C20.4063 14.0326 19.5729 14.2409 18.8047 14.4492C17.8021 14.7227 17.125 14.8854 16.7734 14.9375C16.7083 14.9375 16.6432 14.931 16.5781 14.918C16.3698 15.5299 16.2526 16.1549 16.2266 16.793C16.2135 17.2878 15.9206 17.4896 15.3477 17.3984C14.7878 17.3073 14.1172 17.0599 13.3359 16.6563C13.1797 16.5651 13.0299 16.4805 12.8867 16.4023C12.8867 16.4284 12.8932 16.4609 12.9063 16.5C13.0885 18.2448 13.1862 20.2174 13.1992 22.418C13.2122 24.6055 13.1536 26.5521 13.0234 28.2578C12.9063 29.9635 12.75 30.9596 12.5547 31.2461C12.3203 31.4674 11.9167 31.6953 11.3438 31.9297C10.7708 32.1771 10.1784 32.3073 9.56641 32.3203C8.95443 32.3464 8.48568 32.1445 8.16016 31.7148C7.84766 31.2982 7.82161 30.5365 8.08203 29.4297C8.66797 27.0208 9.01302 24.4948 9.11719 21.8516C9.13021 21.6172 9.13672 21.3893 9.13672 21.168C8.8112 21.7799 8.49219 22.2747 8.17969 22.6523C7.09896 23.7982 6.20703 24.4362 5.50391 24.5664C4.8138 24.6836 4.30599 24.6185 3.98047 24.3711C3.79818 24.2669 3.51823 24.2083 3.14063 24.1953C2.77604 24.1823 2.39193 24.1888 1.98828 24.2148C1.58464 24.2409 1.23958 24.2734 0.953125 24.3125L0.503906 24.3711L1.38281 23.8828C1.95573 23.5573 2.8151 22.8737 3.96094 21.832C4.54688 21.2591 5.1849 20.3411 5.875 19.0781C6.5651 17.8021 7.21615 16.4479 7.82813 15.0156C8.07552 14.4557 8.30339 13.9284 8.51172 13.4336C8.44661 13.069 8.39453 12.75 8.35547 12.4766L8.27734 11.9492C8.44661 12.0924 8.66797 12.2096 8.94141 12.3008C9.08464 11.9362 9.21484 11.5911 9.33203 11.2656C9.70964 10.2109 9.87891 9.59896 9.83984 9.42969C9.77474 9.3125 9.61198 9.3125 9.35156 9.42969C9.10417 9.54688 8.79818 9.71615 8.43359 9.9375C8.04297 10.1719 7.6263 10.3997 7.18359 10.6211C6.75391 10.8424 6.33073 10.9922 5.91406 11.0703C5.51042 11.1224 5.13281 10.9271 4.78125 10.4844C4.44271 10.0286 4.15625 9.49479 3.92188 8.88281C3.70052 8.25781 3.55078 7.71094 3.47266 7.24219C3.39453 6.77344 3.42708 6.54557 3.57031 6.55859C3.81771 6.61068 4.36458 6.58464 5.21094 6.48047C6.05729 6.36328 7.02734 6.22656 8.12109 6.07031C9.26693 5.90104 10.3411 5.75781 11.3438 5.64063C12.3594 5.51042 13.1016 5.45182 13.5703 5.46484C14.1953 5.55599 14.8073 5.86849 15.4063 6.40234C16.0052 6.92318 16.2917 7.44401 16.2656 7.96484C16.2396 8.48568 15.6016 8.78516 14.3516 8.86328C14.1432 8.90234 13.8307 9.41667 13.4141 10.4063C13.1536 11.0573 12.8672 11.7995 12.5547 12.6328C12.5938 12.6458 12.6328 12.6589 12.6719 12.6719C13.2578 12.763 13.8698 12.8281 14.5078 12.8672C14.8203 12.8802 15.1198 12.8802 15.4063 12.8672C15.3151 12.5547 15.2305 12.2292 15.1523 11.8906C14.944 10.888 14.6966 10.1328 14.4102 9.625ZM8.16016 0.328125C8.5638 0.354167 8.98047 0.354167 9.41016 0.328125C9.91797 0.276042 10.4128 0.289063 10.8945 0.367188C11.3763 0.432292 11.8125 0.666667 12.2031 1.07031C12.5547 1.51302 12.6849 2.02734 12.5938 2.61328C12.5026 3.19922 12.3073 3.74609 12.0078 4.25391C11.7083 4.76172 11.4349 5.10677 11.1875 5.28906C10.9401 5.43229 10.5951 5.35417 10.1523 5.05469C9.72266 4.75521 9.26693 4.38411 8.78516 3.94141C8.38151 3.57682 8.00391 3.27083 7.65234 3.02344C7.43099 2.86719 7.30078 2.67839 7.26172 2.45703C7.23568 2.22266 7.26172 1.98828 7.33984 1.75391C7.43099 1.50651 7.53516 1.27865 7.65234 1.07031C7.78255 0.848958 7.89974 0.666667 8.00391 0.523438L8.16016 0.328125ZM64.2539 14.293L64.293 14.293C66.5586 16.3763 67.7956 17.7109 68.0039 18.2969C68.0299 18.6745 67.5677 19.5404 66.6172 20.8945L66.6367 20.9727C66.9622 21.3503 67.151 21.819 67.2031 22.3789C67.2943 23.2383 66.8971 23.8242 66.0117 24.1367C65.7383 24.2539 64.7292 24.2734 62.9844 24.1953C62.2161 24.2734 61.4154 24.4297 60.582 24.6641C60.0742 24.9115 59.6576 25.0156 59.332 24.9766C58.9154 24.9375 58.349 24.0651 57.6328 22.3594L57.6133 22.0859L57.6328 22.0078L57.8281 22.0664L58.0625 22.0859C57.8802 21.3438 57.6719 20.3672 57.4375 19.1563C57.2813 19.612 56.8906 20.3151 56.2656 21.2656L56.2852 21.3438C56.5846 21.6693 56.7604 22.099 56.8125 22.6328C56.8776 23.4271 56.513 24 55.7188 24.3516C55.4714 24.4818 54.5534 24.5729 52.9648 24.625C52.2617 24.7552 51.5326 24.9635 50.7773 25.25C50.3086 25.5104 49.931 25.6406 49.6445 25.6406C49.2669 25.6276 48.7461 24.8464 48.082 23.2969L48.0625 23.0234L48.082 22.9648L48.2578 23.0039L48.4727 23.0039C48.1471 21.7148 47.7695 19.6576 47.3398 16.832C48.8763 17.431 49.7096 17.7695 49.8398 17.8477C51.6237 17.2487 52.9583 16.819 53.8438 16.5586L53.8633 16.4219C53.4727 16.5781 53.1341 16.6563 52.8477 16.6563C52.3398 16.6563 51.6432 15.7969 50.7578 14.0781L50.7188 13.7852L50.7578 13.6875L50.9922 13.7266L51.2656 13.7266C50.8359 12.2943 50.3281 10.0026 49.7422 6.85156C51.8125 7.48958 52.9323 7.85417 53.1016 7.94531C55.5104 7.21615 57.3138 6.70182 58.5117 6.40234L58.8047 5.17188C56.1875 5.51042 52.1901 6.1875 46.8125 7.20313C46.9688 8.59635 47.0924 10.0872 47.1836 11.6758C47.3268 17.7305 47.3008 23.0365 47.1055 27.5938C47.0664 27.5938 47.0469 27.6133 47.0469 27.6523L47.1641 27.6523L61.4414 25.3672L62.0273 25.3672C64.4753 25.3672 66.3503 26.0247 67.6523 27.3398C67.9388 27.7174 68.0885 28.0104 68.1016 28.2188L68.1211 28.5703C68.1471 29.3255 67.2943 29.9245 65.5625 30.3672C65.0026 30.4844 64.4362 30.543 63.8633 30.543C63.4596 30.543 62.0664 30.3672 59.6836 30.0156L58.1797 30.0156C53.0885 30.6016 48.9805 31.1094 45.8555 31.5391C45.2565 31.8125 44.5339 31.9492 43.6875 31.9492C42.5417 31.9492 41.832 31.4609 41.5586 30.4844L41.5391 30.0938C41.526 29.8073 41.7539 28.7005 42.2227 26.7734C42.8737 22.0859 43.1016 16.0833 42.9063 8.76563C42.8802 7.85417 42.6719 7.02083 42.2813 6.26563C41.7995 4.39063 41.4219 3.23177 41.1484 2.78906L41.1484 2.73047C43.401 2.88672 45.4323 3.00391 47.2422 3.08203C48.3359 3.08203 53.8958 2.28125 63.9219 0.679688L64.3516 0.679688C64.7031 0.861979 65.0221 1.33073 65.3086 2.08594C65.4258 2.48958 65.5104 2.89323 65.5625 3.29688C65.4844 4.49479 65.0091 5.09375 64.1367 5.09375C64.0716 5.13281 64 5.15234 63.9219 5.15234C62.9974 4.99609 62.2487 4.91797 61.6758 4.91797C61.1289 4.91797 60.3086 4.98307 59.2148 5.11328C61.793 6.94922 63.2057 8.15365 63.4531 8.72656C63.5052 9.11719 62.9453 10.0807 61.7734 11.6172L61.793 11.6953C62.1966 12.0469 62.431 12.5156 62.4961 13.1016C62.5872 14 62.099 14.6576 61.0313 15.0742C60.6927 15.2305 59.4557 15.3542 57.3203 15.4453C57.2161 15.4714 57.1055 15.4909 56.9883 15.5039C58.5508 16.2331 59.4036 16.6432 59.5469 16.7344C61.513 16.2396 62.9844 15.8945 63.9609 15.6992L64.2539 14.293ZM60.4648 20.4648L60.5625 21.6172C62.2161 21.3177 63.043 21.1354 63.043 21.0703C63.0299 20.9661 63.1146 20.263 63.2969 18.9609L63.2578 18.9414C62.3333 18.8633 61.3828 19.0391 60.4063 19.4688C60.4193 19.8984 60.4388 20.2305 60.4648 20.4648ZM50.6602 21.3047L50.7578 22.3789C52.2552 21.9883 53.0039 21.7604 53.0039 21.6953C52.9909 21.5911 53.069 20.9206 53.2383 19.6836L53.1992 19.6836C52.3659 19.6576 51.5 19.8854 50.6016 20.3672C50.6276 20.7839 50.6471 21.0964 50.6602 21.3047ZM54.2148 11.7734L54.3516 12.9844C56.3698 12.5026 57.3789 12.2227 57.3789 12.1445C57.3659 12.0404 57.4701 11.2917 57.6914 9.89844L57.6328 9.89844C56.513 9.89844 55.3542 10.1784 54.1563 10.7383C54.1693 11.194 54.1888 11.5391 54.2148 11.7734ZM57.3008 18.2969C57.1445 17.4766 56.9883 16.5586 56.832 15.543C56.2331 15.6602 55.6276 15.8099 55.0156 15.9922C56.1615 17.0208 56.9232 17.7891 57.3008 18.2969ZM97.2813 20.8164L98.7656 21.4805C99.2604 21.7018 99.8073 21.9492 100.406 22.2227C100.732 21.3633 100.986 20.556 101.168 19.8008C101.376 18.9154 101.448 18.349 101.383 18.1016C101.331 17.9714 101.233 17.9453 101.09 18.0234C100.947 18.0885 100.758 18.2122 100.523 18.3945C100.25 18.6159 99.931 18.8372 99.5664 19.0586C99.2018 19.2799 98.7917 19.4362 98.3359 19.5273C97.8281 19.5924 97.3789 19.4492 96.9883 19.0977C96.5977 18.7331 96.2656 18.3099 95.9922 17.8281C95.8229 17.5286 95.6797 17.2617 95.5625 17.0273C95.5755 17.7305 95.5755 18.4596 95.5625 19.2148C95.5625 19.8789 95.556 20.5299 95.543 21.168C95.7383 21.1159 95.9401 21.0703 96.1484 21.0313C96.4479 20.9661 96.7083 20.9141 96.9297 20.875L97.2813 20.8164ZM90.4453 4.17578L91.9688 3.70703C92.9714 3.39453 94.1823 3.04948 95.6016 2.67188C97.0208 2.28125 98.3945 1.96875 99.7227 1.73438C101.051 1.48698 102.066 1.40885 102.77 1.5C104.111 1.79948 105.074 2.22917 105.66 2.78906C106.246 3.33594 106.448 3.72005 106.266 3.94141C106.122 4.09766 105.862 4.55339 105.484 5.30859C105.107 6.0638 104.775 6.89714 104.488 7.80859C104.215 8.70703 104.137 9.45573 104.254 10.0547C104.514 10.9531 104.482 11.8776 104.156 12.8281C103.844 13.7786 103.049 14.4232 101.773 14.7617C101.682 14.7878 101.591 14.8073 101.5 14.8203C100.354 15.1068 99.6055 15.2109 99.2539 15.1328C98.9154 15.0417 98.7461 14.625 98.7461 13.8828C98.707 13.4922 98.5182 13.1211 98.1797 12.7695C97.8411 12.418 97.457 12.1055 97.0273 11.832C96.5977 11.5456 96.2135 11.3242 95.875 11.168L95.3867 10.9336L95.9727 10.875C96.3633 10.8359 96.819 10.7904 97.3398 10.7383C97.8737 10.6732 98.375 10.5951 98.8438 10.5039C99.3255 10.4128 99.6771 10.3216 99.8984 10.2305C100.172 10.0612 100.413 9.61849 100.621 8.90234C100.829 8.17318 100.947 7.43099 100.973 6.67578C100.999 5.90755 100.862 5.36719 100.563 5.05469C100.211 4.82031 99.5859 4.84635 98.6875 5.13281C97.7891 5.40625 96.8711 5.74479 95.9336 6.14844C95.1133 6.48698 94.4427 6.73438 93.9219 6.89063C93.7786 6.91667 93.6419 6.92318 93.5117 6.91016C93.8503 7.06641 94.2083 7.26172 94.5859 7.49609C94.9635 7.86068 95.224 9.18229 95.3672 11.4609C95.4714 12.9453 95.5365 14.5729 95.5625 16.3438L96.2266 16.2656C96.8646 16.2005 97.6523 16.0703 98.5898 15.875C99.5404 15.6797 100.517 15.3997 101.52 15.0352C101.923 14.918 102.444 14.9961 103.082 15.2695C103.733 15.5299 104.365 15.8945 104.977 16.3633C105.589 16.819 106.044 17.2813 106.344 17.75C106.656 18.2188 106.676 18.5833 106.402 18.8438C105.986 19.2604 105.478 20.1393 104.879 21.4805C104.553 22.2227 104.182 22.9714 103.766 23.7266L105.895 24.6836C107.027 25.1914 107.783 25.5299 108.16 25.6992C108.486 25.8685 108.629 26.207 108.59 26.7148C108.564 27.2227 108.421 27.763 108.16 28.3359C107.9 28.9089 107.6 29.3906 107.262 29.7813C106.923 30.1719 106.611 30.3281 106.324 30.25C105.999 30.1198 105.296 29.638 104.215 28.8047C103.447 28.2188 102.62 27.5807 101.734 26.8906C101.253 27.4375 100.732 27.9128 100.172 28.3164C99.4557 28.7591 98.7331 29.0456 98.0039 29.1758C97.2747 29.319 96.6042 29.3646 95.9922 29.3125C95.6797 29.2865 95.3932 29.2539 95.1328 29.2148C95.0417 30.0352 94.9375 30.5299 94.8203 30.6992C94.612 30.8945 94.2409 31.0833 93.707 31.2656C93.1732 31.4609 92.6263 31.5521 92.0664 31.5391C91.5065 31.5391 91.0768 31.3372 90.7773 30.9336C90.4909 30.543 90.4844 29.8464 90.7578 28.8438C91.1484 27.3724 91.4349 25.2695 91.6172 22.5352C91.7995 19.7878 91.8971 17.2031 91.9102 14.7813C91.9362 12.3464 91.9102 10.849 91.832 10.2891C91.7799 9.96354 91.7148 9.56641 91.6367 9.09766C91.5716 8.61589 91.5065 8.14063 91.4414 7.67188C91.3763 7.20313 91.3177 6.8125 91.2656 6.5L91.207 6.01172C91.4674 6.24609 91.8581 6.42188 92.3789 6.53906C92.4701 6.55208 92.5677 6.57161 92.6719 6.59766C92.5938 6.54557 92.5156 6.48698 92.4375 6.42188C91.9948 6.00521 91.6042 5.55599 91.2656 5.07422C90.9271 4.59245 90.6536 4.29297 90.4453 4.17578ZM77.3789 2.53516L78.3359 2.16406C78.9609 1.92969 79.7357 1.66927 80.6602 1.38281C81.5977 1.08333 82.5482 0.848958 83.5117 0.679688C84.4883 0.510417 85.3411 0.484375 86.0703 0.601563C87.4635 0.927083 88.4661 1.40234 89.0781 2.02734C89.7031 2.63932 89.918 3.06901 89.7227 3.31641C89.6315 3.51172 89.5469 4.68359 89.4688 6.83203C89.3906 8.96745 89.332 11.4674 89.293 14.332C89.2669 17.1836 89.2669 19.7747 89.293 22.1055C89.332 24.4362 89.4102 25.888 89.5273 26.4609C89.8008 27.4635 89.7682 28.4922 89.4297 29.5469C89.1042 30.6016 88.2708 31.3112 86.9297 31.6758C86.8255 31.7018 86.7279 31.7279 86.6367 31.7539C85.4388 32.0534 84.6576 32.1576 84.293 32.0664C83.9284 31.9753 83.7461 31.526 83.7461 30.7188C83.707 30.276 83.5768 29.8659 83.3555 29.4883C83.1341 29.1237 82.8802 28.8047 82.5938 28.5313C82.3203 28.2448 82.0729 28.0234 81.8516 27.8672L81.5195 27.6328L81.9297 27.5547C82.2031 27.4896 82.5352 27.4115 82.9258 27.3203C83.3164 27.2161 83.694 27.112 84.0586 27.0078C84.4362 26.8906 84.7357 26.7734 84.957 26.6563C85.1523 26.4479 85.2695 25.2435 85.3086 23.043C85.3346 21.7018 85.3346 20.237 85.3086 18.6484C85.1784 18.6484 85.0417 18.6419 84.8984 18.6289C84.1953 18.5508 83.401 18.6159 82.5156 18.8242C82.125 18.9154 81.7474 19.013 81.3828 19.1172C81.2786 20.2109 81.1419 21.2526 80.9727 22.2422C80.2956 26.3828 79.2799 28.8633 77.9258 29.6836C77.6654 29.8138 77.3594 29.8919 77.0078 29.918C76.6693 29.957 76.3372 29.9701 76.0117 29.957C75.6992 29.944 75.4323 29.9245 75.2109 29.8984L74.8984 29.8594L76.1094 24.1563C76.8385 20.7057 77.3008 16.2201 77.4961 10.6992C77.457 10.5951 77.4245 10.5104 77.3984 10.4453C77.3464 10.237 77.3398 10.1654 77.3789 10.2305C77.4049 10.2565 77.444 10.2695 77.4961 10.2695C77.5091 9.83984 77.5221 9.40365 77.5352 8.96094C77.457 8.47917 77.3724 7.91927 77.2813 7.28125C77.2031 6.63021 77.125 6.01823 77.0469 5.44531C76.9818 4.8724 76.9492 4.44271 76.9492 4.15625C76.9492 3.86979 76.9948 3.83724 77.0859 4.05859C77.1901 4.29297 77.3854 4.44271 77.6719 4.50781C77.9583 4.57292 78.2904 4.61198 78.668 4.625C79.3711 4.59896 80.0352 4.7487 80.6602 5.07422C81.2852 5.38672 81.6432 6.20052 81.7344 7.51563C81.7604 8.17969 81.7734 8.83724 81.7734 9.48828C82.6979 9.27995 83.5508 9.10417 84.332 8.96094C84.5404 8.9349 84.7357 8.90885 84.918 8.88281C84.8789 8.47917 84.8464 8.08854 84.8203 7.71094C84.638 5.45833 84.4232 4.16927 84.1758 3.84375C83.9023 3.59635 83.6549 3.51172 83.4336 3.58984C83.2122 3.65495 82.9648 3.79818 82.6914 4.01953C82.3268 4.34505 81.8125 4.625 81.1484 4.85938C80.5625 4.98958 80.0221 4.8724 79.5273 4.50781C79.0326 4.13021 78.5964 3.72005 78.2188 3.27734C77.8672 2.88672 77.5872 2.63932 77.3789 2.53516ZM99.0586 24.7617C98.3685 24.2148 97.7174 23.707 97.1055 23.2383C96.4414 22.7305 95.9141 22.3464 95.5234 22.0859C95.4844 23.8438 95.4193 25.4583 95.3281 26.9297C95.3021 27.3333 95.276 27.7109 95.25 28.0625L95.3281 28.0234C96.2917 27.4115 97.444 26.4349 98.7852 25.0938C98.8763 24.9896 98.9674 24.8789 99.0586 24.7617ZM85.2305 15.3867C85.1914 14.2539 85.1458 13.1667 85.0938 12.125C84.9245 12.151 84.7357 12.151 84.5273 12.125C83.8372 12.0469 83.0495 12.112 82.1641 12.3203C82.0339 12.3464 81.9036 12.3789 81.7734 12.418C81.7474 13.694 81.7018 14.918 81.6367 16.0898C82.7435 15.8424 83.7656 15.6406 84.7031 15.4844C84.8984 15.4453 85.0742 15.4128 85.2305 15.3867ZM115.797 8.12109L116.305 8.14063C116.656 8.15365 117.086 8.19271 117.594 8.25781C118.115 8.3099 118.648 8.40755 119.195 8.55078C119.247 8.5638 119.293 8.57682 119.332 8.58984C119.54 8.02995 119.84 7.39193 120.23 6.67578C119.098 6.70182 118.18 6.8125 117.477 7.00781C116.656 7.22917 116.018 7.45052 115.563 7.67188C115.224 7.8151 114.938 7.91276 114.703 7.96484C114.482 8.01693 114.273 7.97786 114.078 7.84766C113.831 7.66536 113.57 7.38542 113.297 7.00781C113.036 6.61719 112.802 6.22005 112.594 5.81641C112.385 5.41276 112.255 5.08724 112.203 4.83984C112.151 4.57943 112.21 4.49479 112.379 4.58594C112.561 4.65104 113.036 4.59245 113.805 4.41016C114.573 4.22786 115.484 3.98698 116.539 3.6875C118.128 3.24479 119.638 2.86719 121.07 2.55469C121.63 2.4375 122.105 2.35938 122.496 2.32031L122.965 1.22656C123.173 1.40885 123.564 1.76693 124.137 2.30078C124.71 2.82161 125.263 3.36849 125.797 3.94141C126.344 4.51432 126.676 4.94401 126.793 5.23047C126.832 5.45182 126.591 5.84896 126.07 6.42188C125.549 6.99479 124.677 7.8151 123.453 8.88281C122.685 9.53385 122.027 10.0547 121.48 10.4453C121.48 10.4583 121.48 10.4779 121.48 10.5039C121.91 10.4388 122.34 10.3672 122.77 10.2891C124.944 9.96354 126.201 10.0026 126.539 10.4063C126.552 10.4323 126.578 10.4844 126.617 10.5625C126.813 10.849 127.099 11.3958 127.477 12.2031C127.854 13.0104 128.128 13.974 128.297 15.0938C128.492 14.9635 128.694 14.8268 128.902 14.6836C129.801 13.8633 130.628 13.056 131.383 12.2617C130.732 11.8581 130.094 11.474 129.469 11.1094C128.063 10.2891 127.164 9.78125 126.773 9.58594C126.682 9.54688 126.611 9.50781 126.559 9.46875C126.285 9.45573 126.005 9.44271 125.719 9.42969C125.263 9.40365 124.872 9.3776 124.547 9.35156L124.078 9.29297L124.742 8.72656C125.172 8.34896 125.673 7.86068 126.246 7.26172C126.819 6.66276 127.327 6.00521 127.77 5.28906C127.835 5.19792 127.893 5.10026 127.945 4.99609C128.284 4.39714 128.473 3.8112 128.512 3.23828C128.525 3.06901 128.544 2.80859 128.57 2.45703C128.596 2.10547 128.635 1.7474 128.688 1.38281C128.74 1.00521 128.792 0.705729 128.844 0.484375C128.909 0.263021 128.98 0.204427 129.059 0.308594C129.254 0.529948 129.664 0.699219 130.289 0.816406C130.771 0.920573 131.272 1.07682 131.793 1.28516C132.327 1.49349 132.796 1.84505 133.199 2.33984C133.395 2.61328 133.499 2.91276 133.512 3.23828C134.176 3.04297 134.827 2.89323 135.465 2.78906C136.676 2.56771 138.056 2.73047 139.605 3.27734C140.243 3.70703 140.738 4.19531 141.09 4.74219C141.454 5.28906 141.402 5.78385 140.934 6.22656C140.53 6.63021 139.169 8.08203 136.852 10.582C137.125 10.6602 137.405 10.7383 137.691 10.8164C140.087 11.4935 142.216 12.0859 144.078 12.5938L146.891 13.3555C146.904 13.3555 146.897 13.3685 146.871 13.3945C146.858 13.4206 146.826 13.4596 146.773 13.5117C146.721 13.5508 146.643 13.6029 146.539 13.668C146.448 13.7201 146.318 13.7786 146.148 13.8438C145.992 13.8958 145.803 13.9479 145.582 14C145.23 14.1042 144.911 14.319 144.625 14.6445C144.352 14.957 144.091 15.3086 143.844 15.6992C143.531 16.207 143.212 16.6107 142.887 16.9102C142.47 17.2357 141.832 17.4049 140.973 17.418C141.233 17.5482 141.474 17.7109 141.695 17.9063C142.359 18.4401 142.854 18.9805 143.18 19.5273C143.505 20.0612 143.609 20.3672 143.492 20.4453C143.401 20.5104 143.277 20.888 143.121 21.5781C142.965 22.2552 142.789 23.0885 142.594 24.0781C142.346 25.3542 142.086 26.5781 141.813 27.75C141.539 28.9219 141.279 29.7096 141.031 30.1133C140.523 30.7513 139.69 31.2982 138.531 31.7539C137.372 32.2227 136.415 32.4701 135.66 32.4961C135.022 32.457 134.605 32.0924 134.41 31.4023C134.228 30.7253 134.13 29.9635 134.117 29.1172C134.117 28.6875 134.059 28.3359 133.941 28.0625C133.837 27.7891 133.714 27.5807 133.57 27.4375C133.44 27.2813 133.323 27.1771 133.219 27.125L133.063 27.0273L133.688 27.125C134.091 27.2031 134.417 27.2747 134.664 27.3398C134.911 27.4049 135.302 27.4115 135.836 27.3594C136.37 27.2943 136.773 27.1445 137.047 26.9102C137.398 26.5456 137.73 25.8945 138.043 24.957C138.368 24.0065 138.609 23.0885 138.766 22.2031C138.922 21.3047 138.935 20.7448 138.805 20.5234C138.323 19.9505 136.806 20.0938 134.254 20.9531C132.77 26.9688 130.836 30.5234 128.453 31.6172C128.18 31.7214 127.743 31.793 127.145 31.832C126.546 31.8841 125.914 31.9167 125.25 31.9297C124.586 31.9427 124.013 31.9427 123.531 31.9297L122.809 31.9297L123.883 31.3438C124.586 30.9401 125.419 30.224 126.383 29.1953C127.359 28.1797 128.284 26.7604 129.156 24.9375C129.508 24.1953 129.82 23.3685 130.094 22.457C127.88 23.1081 126.728 22.9193 126.637 21.8906C126.546 21.4089 126.389 20.9336 126.168 20.4648C125.96 19.9831 125.771 19.5924 125.602 19.293C125.458 19.0065 125.4 18.8698 125.426 18.8828C125.543 18.9219 126.025 18.8763 126.871 18.7461C127.717 18.6159 128.766 18.4401 130.016 18.2188C130.341 18.1667 130.667 18.1081 130.992 18.043C130.992 17.6784 131.005 17.2552 131.031 16.7734C131.031 16.6693 131.031 16.5586 131.031 16.4414C130.419 16.8711 129.781 17.1706 129.117 17.3398C128.349 17.5352 127.626 17.6328 126.949 17.6328C126.272 17.6198 125.712 17.5677 125.27 17.4766L124.605 17.3594L124.859 17.2422C124.495 17.138 124.189 17.0013 123.941 16.832C123.668 16.6628 123.271 16.513 122.75 16.3828C122.438 16.3047 122.118 16.2331 121.793 16.168C121.767 16.3893 121.747 16.6237 121.734 16.8711C121.747 17.3268 121.819 19.2995 121.949 22.7891C122.079 26.2656 122.158 28.5703 122.184 29.7031C122.132 30.3151 121.741 30.8685 121.012 31.3633C120.283 31.8581 119.521 32.1315 118.727 32.1836C118.375 32.1836 118.128 32.099 117.984 31.9297C117.841 31.7604 117.724 31.5456 117.633 31.2852C117.542 31.0117 117.398 30.7318 117.203 30.4453C117.008 30.1719 116.669 29.9375 116.188 29.7422C115.237 29.3776 114.547 29.1432 114.117 29.0391L113.492 28.8828L114.078 28.7656C114.469 28.7005 114.924 28.5964 115.445 28.4531C115.979 28.2969 116.461 28.0951 116.891 27.8477C117.333 27.6003 117.613 27.2943 117.73 26.9297C117.887 26.3307 118.049 24.4948 118.219 21.4219C118.258 20.5625 118.284 19.8008 118.297 19.1367C117.932 19.5273 117.509 19.8984 117.027 20.25C116.376 20.7318 115.556 21.4023 114.566 22.2617C113.577 23.1211 112.854 23.6484 112.398 23.8438L111.715 24.1563L112.906 22.2813C113.714 21.0443 114.423 19.9375 115.035 18.9609C115.647 17.9714 116.181 17.0729 116.637 16.2656C117.092 15.4583 117.314 14.957 117.301 14.7617C117.288 14.6706 117.255 14.5273 117.203 14.332C117.203 14.332 117.203 14.3255 117.203 14.3125C116.904 14.4297 116.611 14.5404 116.324 14.6445C115.478 14.931 114.71 15.0156 114.02 14.8984C113.329 14.7813 112.737 14.5664 112.242 14.2539C111.76 13.9284 111.402 13.6224 111.168 13.3359C110.947 13.0365 110.882 12.8607 110.973 12.8086C112.757 12.1706 114.625 11.6758 116.578 11.3242C116.76 11.2982 116.936 11.2656 117.105 11.2266C116.962 10.9792 116.826 10.7253 116.695 10.4648C116.409 9.83984 116.188 9.29297 116.031 8.82422L115.797 8.12109ZM120.719 14.0195C120.992 14.1107 121.24 14.1888 121.461 14.2539C121.734 14.332 121.91 14.4557 121.988 14.625C122.223 14.5078 122.451 14.3906 122.672 14.2734C123.193 14.026 123.603 13.7852 123.902 13.5508C123.746 13.5378 123.59 13.5117 123.434 13.4727C122.21 13.2643 121.083 13.2383 120.055 13.3945C120.172 13.4857 120.296 13.5833 120.426 13.6875C120.543 13.7917 120.641 13.9023 120.719 14.0195ZM135.016 17.3984C135.146 17.3854 135.276 17.3659 135.406 17.3398C136.747 17.1315 137.828 17.0078 138.648 16.9688C138.18 16.7604 137.711 16.4805 137.242 16.1289C136.487 15.5169 135.354 14.7292 133.844 13.7656C133.831 13.7656 133.824 13.7656 133.824 13.7656C133.46 14.1563 133.128 14.5013 132.828 14.8008C133.206 14.8008 133.583 14.8333 133.961 14.8984C134.365 14.9635 134.677 15.1458 134.898 15.4453C135.133 15.7448 135.204 16.2266 135.113 16.8906C135.087 17.0599 135.055 17.2292 135.016 17.3984ZM133.609 9.625C134.781 8.07552 135.634 6.59115 136.168 5.17188C136.103 5.05469 135.764 5.11328 135.152 5.34766C134.553 5.58203 133.863 5.88151 133.082 6.24609C132.509 6.49349 131.969 6.72135 131.461 6.92969C131.344 6.98177 131.233 7.02734 131.129 7.06641C130.608 7.5612 130.1 7.9974 129.605 8.375C130.048 8.53125 130.634 8.72656 131.363 8.96094C132.066 9.16927 132.815 9.39063 133.609 9.625Z" fill="#436D9E"/>
</svg>
