<svg width="147" height="38" viewBox="0 0 147 38" fill="none" xmlns="http://www.w3.org/2000/svg">
<path d="M19.5859 16.6289C19.6641 16.8503 19.8073 16.9935 20.0156 17.0586C20.237 17.1107 20.4974 17.1432 20.7969 17.1563C21.3698 17.1432 21.9102 17.2995 22.418 17.625C22.9258 17.9375 23.1927 18.7578 23.2188 20.0859C23.2057 22.2734 22.9974 24.6693 22.5938 27.2734C22.1901 29.8776 21.487 31.6549 20.4844 32.6055C20.2891 32.7617 19.9635 32.8984 19.5078 33.0156C19.0521 33.1458 18.5703 33.25 18.0625 33.3281C17.5677 33.4063 17.138 33.4648 16.7734 33.5039L16.207 33.5625L17.4375 31.2969C18.0625 30.112 18.5768 28.862 18.9805 27.5469C18.2773 27.5078 17.6979 27.5599 17.2422 27.7031C16.7734 27.8594 16.3958 28.0156 16.1094 28.1719C15.9141 28.2891 15.7448 28.3672 15.6016 28.4063C15.4714 28.4323 15.3607 28.3867 15.2695 28.2695C15.1523 28.1133 15.0417 27.8724 14.9375 27.5469C14.8333 27.2083 14.7422 26.8633 14.6641 26.5117C14.599 26.1602 14.5664 25.8802 14.5664 25.6719C14.5664 25.4635 14.612 25.3984 14.7031 25.4766C14.7813 25.5417 15.0417 25.5156 15.4844 25.3984C15.5104 25.3854 15.5365 25.3789 15.5625 25.3789C15.5104 25.1706 15.4583 24.9557 15.4063 24.7344C15.3021 24.2135 15.2044 23.6732 15.1133 23.1133C14.9961 23.5039 14.6901 23.8424 14.1953 24.1289C13.8307 24.3372 13.4206 24.5 12.9648 24.6172C12.9518 25.0599 12.9453 25.5026 12.9453 25.9453C12.9193 27.7943 12.9193 29.0182 12.9453 29.6172C12.9583 30.0078 12.8607 30.4115 12.6523 30.8281C12.457 31.2448 12.2161 31.6354 11.9297 32C11.6432 32.3776 11.3828 32.6836 11.1484 32.918L10.8164 33.2695L10.6406 33.0938C10.5104 32.9635 10.3672 32.7813 10.2109 32.5469C10.0677 32.3255 9.94401 32.0586 9.83984 31.7461C9.73568 31.4206 9.69661 31.0625 9.72266 30.6719C9.7487 30.2161 9.76172 29.0833 9.76172 27.2734C9.76172 26.5313 9.76172 25.7565 9.76172 24.9492C9.1237 25.1055 8.4401 25.4115 7.71094 25.8672C6.60417 26.5833 5.61458 27.293 4.74219 27.9961C4.26042 28.3867 3.86979 28.6862 3.57031 28.8945C3.27083 29.0898 3.10807 29.1289 3.08203 29.0117C3.04297 28.8555 2.89323 28.5755 2.63281 28.1719C2.38542 27.7682 2.08594 27.332 1.73438 26.8633C1.39583 26.3945 1.07682 25.9909 0.777344 25.6523C0.582031 25.3919 0.516927 25.1185 0.582031 24.832C0.660156 24.5456 0.842448 24.3568 1.12891 24.2656C1.79297 24.0964 2.52214 23.901 3.31641 23.6797C3.48568 22.7422 3.60286 21.6354 3.66797 20.3594C3.75911 18.6536 3.79167 17.0651 3.76563 15.5938C3.7526 14.1094 3.71354 13.1654 3.64844 12.7617C3.59635 12.4883 3.54427 12.1628 3.49219 11.7852C3.4401 11.4596 3.38802 11.1406 3.33594 10.8281C2.54167 11.1536 2.00781 11.2643 1.73438 11.1602C1.5651 11.043 1.38281 10.7826 1.1875 10.3789C1.00521 9.96224 0.829427 9.51302 0.660156 9.03125C0.503906 8.54948 0.380208 8.13281 0.289063 7.78125C0.210938 7.42969 0.184896 7.2474 0.210938 7.23438C0.770833 7.32552 1.63021 7.26693 2.78906 7.05859C3.96094 6.83724 5.17839 6.5638 6.44141 6.23828C7.70443 5.91276 8.76563 5.63281 9.625 5.39844C10.1068 5.26823 10.4583 5.17057 10.6797 5.10547C11.2917 4.94922 11.8255 4.91016 12.2813 4.98828C12.737 5.06641 13.2318 5.26823 13.7656 5.59375C14.1042 5.82813 14.2995 6.15365 14.3516 6.57031C14.4036 6.98698 14.3841 7.39714 14.293 7.80078C14.2148 8.13932 14.1497 8.39974 14.0977 8.58203C14.1758 8.52995 14.2539 8.47135 14.332 8.40625C14.4753 8.28906 14.5924 8.1849 14.6836 8.09375C15.5169 7.18229 16.0443 6.19922 16.2656 5.14453C16.3177 4.87109 16.3438 4.59766 16.3438 4.32422C16.3307 3.97266 16.3763 3.69271 16.4805 3.48438C16.5846 3.26302 16.8711 3.19792 17.3398 3.28906C17.8607 3.41927 18.362 3.64714 18.8438 3.97266C19.3385 4.29818 19.7813 4.6237 20.1719 4.94922C20.1979 4.97526 20.2305 5.0013 20.2695 5.02734C20.3737 5.14453 20.2435 5.41146 19.8789 5.82813C19.5273 6.23177 19.0586 6.75911 18.4727 7.41016C17.8997 8.04818 17.3984 8.60807 16.9688 9.08984C16.5521 9.57161 16.3828 9.90365 16.4609 10.0859C16.5781 10.2552 16.6953 10.3398 16.8125 10.3398C16.9427 10.3398 17.099 10.2943 17.2813 10.2031C17.5807 10.0469 18.0299 9.95573 18.6289 9.92969C18.6419 9.92969 18.6615 9.92969 18.6875 9.92969C18.8438 9.76042 19 9.58464 19.1563 9.40234C19.4297 9.07682 19.6966 8.69271 19.957 8.25C20.0872 8.04167 20.2109 7.84635 20.3281 7.66406C20.7057 7.15625 20.9206 6.58333 20.9727 5.94531C20.9727 5.88021 20.9727 5.8151 20.9727 5.75C20.9596 5.51563 20.9922 5.29427 21.0703 5.08594C21.2005 4.85156 21.3893 4.73438 21.6367 4.73438C21.6888 4.73438 21.7409 4.74089 21.793 4.75391C21.8841 4.79297 21.9557 4.85156 22.0078 4.92969C22.0729 4.99479 22.1315 5.07943 22.1836 5.18359C22.2096 5.22266 22.2357 5.26172 22.2617 5.30078C22.3789 5.47005 22.5286 5.61979 22.7109 5.75C22.7891 5.8151 22.8672 5.88021 22.9453 5.94531C23.2708 6.25781 23.5964 6.5638 23.9219 6.86328C23.9479 6.88932 23.9674 6.91536 23.9805 6.94141C23.9935 6.95443 24 6.97396 24 7C24.013 7.02604 24.0065 7.05208 23.9805 7.07813C23.9674 7.10417 23.9544 7.13021 23.9414 7.15625C23.2383 7.97656 22.457 8.71875 21.5977 9.38281C21.3242 9.65625 21.0573 9.92318 20.7969 10.1836L20.9531 10.3984C21.0703 10.5677 21.2786 10.7565 21.5781 10.9648C21.8776 11.1602 22.3008 11.3424 22.8477 11.5117C23.6419 11.7461 24.1237 11.9935 24.293 12.2539C24.4622 12.5013 24.4427 12.8073 24.2344 13.1719C24.1693 13.3411 24.0977 13.5299 24.0195 13.7383C23.9935 13.7904 23.974 13.849 23.9609 13.9141C23.987 13.888 24.013 13.8685 24.0391 13.8555C24.0651 13.8555 24.0846 13.849 24.0977 13.8359C24.3971 13.6276 24.7161 13.4128 25.0547 13.1914C25.4063 12.9701 25.8034 12.6901 26.2461 12.3516C26.1289 12.3646 26.0182 12.3776 25.9141 12.3906C25.4323 12.4818 25.1458 12.5664 25.0547 12.6445C24.9896 12.6966 24.8659 12.612 24.6836 12.3906C24.5143 12.1563 24.3255 11.8633 24.1172 11.5117C23.9219 11.1602 23.7396 10.8281 23.5703 10.5156C23.4141 10.1901 23.3164 9.95573 23.2773 9.8125C23.1992 9.52604 23.2773 9.26563 23.5117 9.03125C23.7461 8.79688 24 8.59505 24.2734 8.42578C24.4167 8.33464 24.5339 8.25 24.625 8.17188C26.0052 6.6224 26.7734 5.36589 26.9297 4.40234C26.9557 4.15495 26.9622 3.90755 26.9492 3.66016C26.9102 3.32161 26.9362 3.0612 27.0273 2.87891C27.1185 2.68359 27.4049 2.65104 27.8867 2.78125C28.4206 2.9375 28.9479 3.19141 29.4688 3.54297C30.0026 3.89453 30.4714 4.23307 30.875 4.55859C30.9141 4.58464 30.9531 4.61068 30.9922 4.63672C31.1094 4.75391 30.9987 4.98828 30.6602 5.33984C30.3216 5.69141 29.7292 6.33594 28.8828 7.27344C28.0495 8.21094 27.431 8.88802 27.0273 9.30469C26.6367 9.70833 26.4935 10.0013 26.5977 10.1836C26.7148 10.3529 26.8385 10.444 26.9688 10.457C27.099 10.457 27.2552 10.4245 27.4375 10.3594C27.6979 10.2422 28.0885 10.1966 28.6094 10.2227C28.7396 10.0924 28.8698 9.96224 29 9.83203C29.2734 9.55859 29.5404 9.22656 29.8008 8.83594C29.931 8.64063 30.0547 8.46484 30.1719 8.30859C30.5495 7.86589 30.7643 7.34505 30.8164 6.74609C30.8164 6.69401 30.8164 6.63542 30.8164 6.57031C30.8034 6.34896 30.8359 6.14063 30.9141 5.94531C31.0443 5.73698 31.2331 5.64583 31.4805 5.67188C31.5326 5.67188 31.5781 5.6849 31.6172 5.71094C31.7214 5.75 31.7995 5.80859 31.8516 5.88672C31.9167 5.95182 31.9753 6.03646 32.0273 6.14063C32.0404 6.16667 32.0599 6.19922 32.0859 6.23828C32.2031 6.42057 32.3529 6.57682 32.5352 6.70703C32.6133 6.77214 32.6914 6.84375 32.7695 6.92188C33.0951 7.23438 33.4206 7.54688 33.7461 7.85938C33.7591 7.8724 33.7721 7.89193 33.7852 7.91797C33.8112 7.94401 33.8242 7.97005 33.8242 7.99609C33.8242 8.02214 33.8177 8.04818 33.8047 8.07422C33.7917 8.08724 33.7786 8.10677 33.7656 8.13281C33.0625 8.83594 32.2878 9.46745 31.4414 10.0273C30.8424 10.5352 30.3021 11.0039 29.8203 11.4336C29.8203 11.4857 29.8138 11.5313 29.8008 11.5703C29.7878 11.6354 29.7813 11.6875 29.7813 11.7266C29.7943 11.7656 29.6445 11.8177 29.332 11.8828C28.4987 12.651 27.8607 13.3086 27.418 13.8555C28.4727 13.569 29.1302 13.3346 29.3906 13.1523C29.6901 13.1133 29.9766 13.1393 30.25 13.2305C30.3021 13.2565 30.3542 13.2891 30.4063 13.3281C30.276 13.1068 30.1719 12.8984 30.0938 12.7031C30.0026 12.4948 29.9701 12.2865 29.9961 12.0781C30.0221 11.8568 30.0742 11.6549 30.1523 11.4727C30.2305 11.2904 30.3021 11.1406 30.3672 11.0234L30.4844 10.8672L30.6797 11.1406C30.8099 11.3229 31.0508 11.5378 31.4023 11.7852C31.7669 12.0195 32.2682 12.2474 32.9063 12.4688C33.8568 12.7943 34.4297 13.1003 34.625 13.3867C34.8203 13.6602 34.8008 13.9792 34.5664 14.3438C34.4753 14.513 34.3841 14.7018 34.293 14.9102C34.1367 15.3008 33.9479 15.6328 33.7266 15.9063C33.5052 16.1797 33.2057 16.2383 32.8281 16.082C32.3203 15.7826 31.7865 15.2682 31.2266 14.5391C31.2135 14.513 31.194 14.487 31.168 14.4609C31.2591 14.6693 31.3307 14.8906 31.3828 15.125C31.4219 15.2161 31.4284 15.3138 31.4023 15.418C31.3633 15.5352 31.2786 15.6068 31.1484 15.6328C31.0182 15.6589 30.888 15.6589 30.7578 15.6328C29.4688 15.5286 28.0755 15.9193 26.5781 16.8047C27.0208 16.9609 27.4245 17.1432 27.7891 17.3516C28.2448 17.612 28.4922 17.8398 28.5313 18.0352C28.5573 18.2305 28.5703 18.8555 28.5703 19.9102C28.5703 20.9648 28.5703 22.1823 28.5703 23.5625C28.5573 23.6276 28.5508 23.6927 28.5508 23.7578C29.1237 23.6276 29.6706 23.5234 30.1914 23.4453C30.2174 23.0938 30.25 22.7292 30.2891 22.3516C30.4323 20.9583 30.5755 19.7214 30.7188 18.6406L30.9336 17C31.1419 17.1042 31.5195 17.332 32.0664 17.6836C32.6263 18.0352 33.1667 18.4128 33.6875 18.8164C34.2214 19.2201 34.5599 19.5456 34.7031 19.793C34.7813 20.0143 34.7031 20.5677 34.4688 21.4531C34.2344 22.3385 33.9023 23.3086 33.4727 24.3633C33.043 25.418 32.5612 26.3099 32.0273 27.0391C31.5065 27.7552 30.9792 28.0612 30.4453 27.957C30.237 27.8529 30.1133 27.4557 30.0742 26.7656C30.0352 26.7656 29.9961 26.7591 29.957 26.7461C29.3711 26.5898 28.9023 26.5508 28.5508 26.6289C28.5378 27.1888 28.5313 27.7747 28.5313 28.3867C28.5182 30.2357 28.5117 31.3229 28.5117 31.6484C28.4987 31.9349 28.388 32.319 28.1797 32.8008C27.9714 33.2826 27.7305 33.7708 27.457 34.2656C27.1966 34.7604 26.9622 35.1771 26.7539 35.5156L26.4414 36.043L26.168 35.9844C25.9857 35.9453 25.7773 35.8281 25.543 35.6328C25.3216 35.4375 25.1263 35.112 24.957 34.6563C24.7878 34.2135 24.7161 33.6016 24.7422 32.8203C24.7682 31.974 24.7878 30.431 24.8008 28.1914C24.8138 25.9388 24.8268 24.0052 24.8398 22.3906C24.8529 20.776 24.8594 19.3958 24.8594 18.25L24.8789 16.8828C24.8398 16.8438 24.7943 16.8047 24.7422 16.7656C24.4818 16.5573 24.2409 16.3424 24.0195 16.1211C23.8112 15.8997 23.6615 15.6589 23.5703 15.3984C23.5052 15.2292 23.4661 15.0599 23.4531 14.8906C23.4401 14.8776 23.4336 14.8646 23.4336 14.8516C23.2643 15.0339 23.0495 15.0729 22.7891 14.9688C22.3464 14.7344 21.8906 14.2917 21.4219 13.6406C20.9661 12.9766 20.6471 12.4167 20.4648 11.9609C20.3997 11.7656 20.3737 11.5638 20.3867 11.3555C20.4128 11.1471 20.4583 10.9583 20.5234 10.7891C20.5885 10.6068 20.6536 10.457 20.7188 10.3398L20.7773 10.2031C19.2799 11.7135 18.1992 12.9245 17.5352 13.8359C18.6029 13.4453 19.2734 13.1393 19.5469 12.918C19.8333 12.8398 20.1198 12.8398 20.4063 12.918C20.7188 13.0742 20.9596 13.3346 21.1289 13.6992C21.3112 14.0508 21.4544 14.4284 21.5586 14.832C21.5846 14.9362 21.5911 15.0404 21.5781 15.1445C21.526 15.2747 21.4349 15.3594 21.3047 15.3984C21.1745 15.4375 21.0443 15.4505 20.9141 15.4375C19.2995 15.4375 17.5352 16.2578 15.6211 17.8984C15.3997 17.651 15.1393 17.4102 14.8398 17.1758C14.5794 16.9805 14.3385 16.7786 14.1172 16.5703C13.9089 16.349 13.7591 16.1016 13.668 15.8281C13.6029 15.6589 13.5573 15.4831 13.5313 15.3008C13.5182 15.1055 13.5443 14.9232 13.6094 14.7539C13.7396 14.5065 13.9219 14.3047 14.1563 14.1484C14.1693 14.1354 14.1823 14.1224 14.1953 14.1094C14.4948 13.862 14.8138 13.6081 15.1523 13.3477C15.4909 13.1003 15.875 12.7813 16.3047 12.3906C16.0703 12.4557 15.849 12.5208 15.6406 12.5859C15.1458 12.7161 14.8529 12.8203 14.7617 12.8984C14.6966 12.9635 14.5859 12.8854 14.4297 12.6641C14.2734 12.4297 14.1042 12.1302 13.9219 11.7656C13.7526 11.401 13.6029 11.056 13.4727 10.7305C13.3424 10.3919 13.2578 10.151 13.2188 10.0078C13.1797 9.69531 13.2839 9.40234 13.5313 9.12891C13.5833 9.07682 13.6289 9.02474 13.668 8.97266C13.1471 9.15495 12.0599 9.2526 10.4063 9.26563C10.7057 9.35677 10.9922 9.40885 11.2656 9.42188C11.8516 9.44792 12.3854 9.64323 12.8672 10.0078C13.2057 10.3464 13.375 10.9258 13.375 11.7461C13.388 12.5664 13.349 13.4583 13.2578 14.4219C13.2057 15.0339 13.1667 15.6198 13.1406 16.1797C13.1146 17 13.082 18.3672 13.043 20.2813C13.043 20.4245 13.043 20.5612 13.043 20.6914C13.8763 20.8216 14.4948 21.2122 14.8984 21.8633C14.8854 21.7852 14.8724 21.7135 14.8594 21.6484C14.7031 20.5677 14.5729 19.6367 14.4688 18.8555L14.3125 17.6836L18.2188 18.6016L18.1797 19.5C18.1667 20.112 18.1667 20.8281 18.1797 21.6484C18.1927 22.4688 18.2318 23.25 18.2969 23.9922C18.3229 24.1615 18.349 24.3242 18.375 24.4805C18.8307 24.3503 19.2734 24.2331 19.7031 24.1289C19.8073 23.2174 19.8398 22.332 19.8008 21.4727C19.7487 20.9909 19.6966 20.4375 19.6445 19.8125C19.6055 19.1875 19.5664 18.5951 19.5273 18.0352C19.5013 17.4622 19.4883 17.0326 19.4883 16.7461C19.5013 16.4596 19.5339 16.4206 19.5859 16.6289ZM6.5 16.6094C6.79948 16.6875 7.11198 16.7461 7.4375 16.7852C7.80208 16.8112 8.16016 16.8828 8.51172 17C8.86328 17.1172 9.17578 17.3516 9.44922 17.7031C9.57943 17.8984 9.67057 18.0938 9.72266 18.2891C9.70964 17.1953 9.6901 16.1667 9.66406 15.2031C9.625 13.4453 9.56641 12.3711 9.48828 11.9805C9.41016 11.5508 9.37109 11.1081 9.37109 10.6523C9.37109 10.1836 9.39063 9.77344 9.42969 9.42188L9.44922 9.26563C9.27995 9.26563 9.11068 9.26563 8.94141 9.26563C7.41797 9.40885 6.04427 9.71484 4.82031 10.1836C5.06771 10.3268 5.34115 10.5091 5.64063 10.7305C5.8099 10.8997 5.95313 11.2839 6.07031 11.8828C6.08333 11.8568 6.10286 11.8307 6.12891 11.8047L6.24609 11.6875C6.54557 11.7656 6.85156 11.8242 7.16406 11.8633C7.54167 11.8893 7.89974 11.9609 8.23828 12.0781C8.58984 12.1953 8.90885 12.4297 9.19531 12.7813C9.44271 13.1458 9.52734 13.5365 9.44922 13.9531C9.37109 14.3568 9.21484 14.7214 8.98047 15.0469C8.75911 15.3724 8.55078 15.5872 8.35547 15.6914C8.17318 15.7565 7.92578 15.6523 7.61328 15.3789C7.30078 15.0924 6.97526 14.7669 6.63672 14.4023C6.53255 14.2852 6.4349 14.181 6.34375 14.0898C6.40885 14.8841 6.45443 15.7305 6.48047 16.6289L6.5 16.6094ZM9.72266 18.8164C9.72266 18.8294 9.71615 18.849 9.70313 18.875C9.625 19.2786 9.46875 19.6432 9.23438 19.9688C9.01302 20.2943 8.8112 20.5091 8.62891 20.6133C8.44661 20.6784 8.19271 20.5742 7.86719 20.3008C7.55469 20.0143 7.22917 19.6888 6.89063 19.3242C6.77344 19.194 6.65625 19.0703 6.53906 18.9531C6.55208 20.3203 6.54557 21.5768 6.51953 22.7227C7.91276 22.2669 8.98698 21.8438 9.74219 21.4531C9.74219 21.375 9.74219 21.2969 9.74219 21.2188C9.74219 20.3854 9.73568 19.5846 9.72266 18.8164ZM45.6992 0.90625C46.3242 1.07552 46.9167 1.13411 47.4766 1.08203C47.776 1.06901 48.056 1.07552 48.3164 1.10156C48.5898 1.11458 48.8503 1.17969 49.0977 1.29688C49.319 1.4401 49.4688 1.66797 49.5469 1.98047C49.8594 1.90234 50.1719 1.83073 50.4844 1.76563C51.8255 1.46615 52.6914 1.29036 53.082 1.23828C53.2904 1.22526 53.4987 1.34896 53.707 1.60938C53.9154 1.86979 54.0456 2.17578 54.0977 2.52734C54.1497 2.86589 54.0586 3.16536 53.8242 3.42578C53.5898 3.67318 53.1341 3.78385 52.457 3.75781C51.6497 3.74479 50.6797 3.84245 49.5469 4.05078C49.5339 4.22005 49.5143 4.38932 49.4883 4.55859C49.4753 4.6237 49.4688 4.6888 49.4688 4.75391C49.599 4.72786 49.7227 4.70182 49.8398 4.67578C50.5299 4.54557 51.0833 4.46745 51.5 4.44141L51.5977 3.97266C51.806 4.02474 52.1966 4.13542 52.7695 4.30469C53.3555 4.47396 53.9284 4.66276 54.4883 4.87109C55.0612 5.07943 55.4258 5.26172 55.582 5.41797C55.6602 5.5612 55.5234 5.91927 55.1719 6.49219C54.8333 7.05208 54.3906 7.67708 53.8438 8.36719C53.6094 8.67969 53.375 8.96615 53.1406 9.22656C53.5573 9.20052 53.8438 9.21354 54 9.26563C54.3255 9.44792 54.5143 9.72786 54.5664 10.1055C54.6315 10.4701 54.3581 10.8281 53.7461 11.1797C53.1341 11.5313 51.9948 11.7721 50.3281 11.9023C49.9766 11.9414 49.638 11.974 49.3125 12C49.3125 12.1563 49.3125 12.306 49.3125 12.4492C50.6276 12.2799 51.7995 12.1563 52.8281 12.0781C54.1563 11.974 54.8919 12 55.0352 12.1563C55.0352 12.1693 55.0352 12.1758 55.0352 12.1758C55.0872 12.1367 55.1328 12.0977 55.1719 12.0586L55.2695 11.9609C55.4518 11.987 55.6602 12.0391 55.8945 12.1172C55.8034 12.0521 55.7122 11.974 55.6211 11.8828C55.2435 11.5052 54.9701 11.1471 54.8008 10.8086C54.7357 10.7174 54.6836 10.6393 54.6445 10.5742L55.6406 10.418C56.3047 10.3138 57.0924 10.1836 58.0039 10.0273C58.9284 9.85807 59.8203 9.67578 60.6797 9.48047C61.3568 9.3112 61.8776 9.21354 62.2422 9.1875C62.6198 9.16146 62.9258 9.19401 63.1602 9.28516C63.3945 9.3763 63.6549 9.51302 63.9414 9.69531C64.1107 9.78646 64.2995 9.89714 64.5078 10.0273C65.237 10.4701 65.7253 11.0169 65.9727 11.668C66.2201 12.319 66.1224 12.8203 65.6797 13.1719C65.3151 13.4323 64.7096 13.9531 63.8633 14.7344C63.6549 14.9167 63.4401 15.1055 63.2188 15.3008C64.5599 15.9388 65.5169 16.3685 66.0898 16.5898C66.6367 16.7982 67.2031 16.9414 67.7891 17.0195C68.375 17.0977 68.8828 17.1432 69.3125 17.1563L69.9375 17.1758L69.4297 17.625C69.0911 17.9115 68.681 18.2435 68.1992 18.6211C67.7305 18.9857 67.2682 19.3047 66.8125 19.5781C66.1094 19.9818 65.3477 20.2422 64.5273 20.3594C63.707 20.4635 63.069 20.2161 62.6133 19.6172C62.2747 19.1615 61.5846 18.4844 60.543 17.5859C59.9831 18.0156 59.4427 18.4063 58.9219 18.7578C58.4792 19.0182 58.0104 19.2266 57.5156 19.3828C57.7109 19.4479 57.9388 19.513 58.1992 19.5781C58.7201 19.7214 59.2148 19.8971 59.6836 20.1055C60.1654 20.3138 60.4388 20.5742 60.5039 20.8867C60.4258 21.4857 59.3906 22.4102 57.3984 23.6602C55.4193 24.8971 53.2448 25.9779 50.875 26.9023C51.0052 26.9935 51.4089 27 52.0859 26.9219C52.763 26.8438 53.5182 26.7266 54.3516 26.5703C55.1979 26.4141 55.9401 26.2708 56.5781 26.1406L57.5352 25.9453L57.3203 26.1797C57.1771 26.3229 57.0143 26.4987 56.832 26.707C56.6628 26.9154 56.5065 27.1302 56.3633 27.3516C56.2331 27.5729 56.1615 27.7552 56.1484 27.8984C56.1354 27.9245 56.1159 27.957 56.0898 27.9961C56.3503 28.0742 56.4935 28.1979 56.5195 28.3672C56.5456 28.5365 56.513 28.7448 56.4219 28.9922C56.3307 29.2786 56.2852 29.6042 56.2852 29.9688C56.3112 30.4766 56.3307 31.2448 56.3438 32.2734C56.3698 33.4583 56.4089 34.6367 56.4609 35.8086C56.4219 36.2773 56.0768 36.7005 55.4258 37.0781C54.7878 37.4557 54.1172 37.6706 53.4141 37.7227C53.1016 37.7357 52.8802 37.6771 52.75 37.5469C52.6198 37.4167 52.5156 37.2539 52.4375 37.0586C52.3464 36.8633 52.2096 36.6549 52.0273 36.4336C51.8581 36.2253 51.5586 36.0495 51.1289 35.9063C50.2695 35.6458 49.651 35.4766 49.2734 35.3984L48.707 35.3008L49.2344 35.2031C49.5859 35.151 49.9896 35.0599 50.4453 34.9297C50.9141 34.8125 51.3372 34.6563 51.7148 34.4609C52.1055 34.2786 52.3529 34.0508 52.457 33.7773C52.6523 33.1523 52.7695 32.3646 52.8086 31.4141C52.8477 30.5547 52.7044 29.8711 52.3789 29.3633C51.6497 29.5586 50.9727 29.7409 50.3477 29.9102C49.8659 30.0404 49.4818 30.1445 49.1953 30.2227C48.8307 30.3008 48.4531 30.1706 48.0625 29.832C47.6719 29.4805 47.3268 29.0573 47.0273 28.5625C46.7409 28.0547 46.5586 27.6055 46.4805 27.2148C46.4154 26.8112 46.5065 26.5898 46.7539 26.5508C47.0534 26.5247 47.5091 26.375 48.1211 26.1016C48.7331 25.8151 49.3711 25.4896 50.0352 25.125C50.7122 24.7474 51.2917 24.4154 51.7734 24.1289C52.2552 23.8424 52.5091 23.6797 52.5352 23.6406C52.5221 23.6276 52.3203 23.6602 51.9297 23.7383C51.5391 23.8034 51.0768 23.901 50.543 24.0313C50.0091 24.1484 49.5143 24.2721 49.0586 24.4023C48.6029 24.5326 48.3034 24.6367 48.1602 24.7148C48.0169 24.7669 47.8021 24.6563 47.5156 24.3828C47.2422 24.1094 46.9622 23.7708 46.6758 23.3672C46.4023 22.9505 46.207 22.5664 46.0898 22.2148C45.9727 21.8633 46.0052 21.6354 46.1875 21.5313C46.5 21.375 47.0534 21.0169 47.8477 20.457C47.9128 20.418 47.9779 20.3724 48.043 20.3203C46.4935 20.4505 45.2826 20.6849 44.4102 21.0234C43.5247 21.3229 42.9258 21.3945 42.6133 21.2383C42.418 21.1081 42.2292 20.8997 42.0469 20.6133C41.8646 20.3268 41.7148 20.0339 41.5977 19.7344C41.4805 19.4219 41.4219 19.181 41.4219 19.0117C41.4219 18.8424 41.5 18.7839 41.6563 18.8359C41.6953 18.849 41.7474 18.8555 41.8125 18.8555C41.6823 18.5039 41.5586 18.1328 41.4414 17.7422C41.2982 17.2604 41.1875 16.8438 41.1094 16.4922L40.9727 15.9648L45.0352 16.1406L44.9766 16.5703C44.9375 16.8438 44.9115 17.1693 44.8984 17.5469C44.8854 17.8594 44.8984 18.1523 44.9375 18.4258C45.3151 18.3607 45.7188 18.2891 46.1484 18.2109C46.1354 18.0807 46.1289 17.944 46.1289 17.8008C46.1549 17.4492 46.1615 16.5703 46.1484 15.1641C46.1484 15.112 46.1484 15.0599 46.1484 15.0078C46.1224 15.0078 46.1029 15.0078 46.0898 15.0078C44.6706 15.2813 43.6289 15.5221 42.9648 15.7305C42.5221 15.8737 42.0794 15.8867 41.6367 15.7695C41.207 15.6523 40.8164 15.4766 40.4648 15.2422C40.1263 15.0078 39.8594 14.793 39.6641 14.5977C39.4818 14.4023 39.4167 14.2852 39.4688 14.2461C40.1849 14.0247 41.3503 13.7643 42.9648 13.4648C43.9805 13.2826 45.0286 13.1003 46.1094 12.918C46.1094 12.7747 46.1094 12.625 46.1094 12.4688C45.3802 12.612 44.7813 12.7617 44.3125 12.918C43.401 13.1914 42.7565 13.276 42.3789 13.1719C42.1445 13.0938 41.8971 12.957 41.6367 12.7617C41.3893 12.5534 41.1745 12.3385 40.9922 12.1172C40.8099 11.8958 40.6992 11.7201 40.6602 11.5898C40.6341 11.4466 40.7122 11.3945 40.8945 11.4336C41.0378 11.4596 41.4023 11.4206 41.9883 11.3164C41.8971 11.082 41.7995 10.8021 41.6953 10.4766C41.513 9.83854 41.3438 9.16797 41.1875 8.46484C41.0313 7.7487 40.901 7.13021 40.7969 6.60938L40.6602 5.84766L42.4961 6.23828C42.6914 6.19922 42.9323 6.15365 43.2188 6.10156C43.9089 5.95833 44.7422 5.77604 45.7188 5.55469C45.7839 5.54167 45.8424 5.52865 45.8945 5.51563C45.8815 5.28125 45.8685 5.06641 45.8555 4.87109C45.0352 5.07943 44.2669 5.28125 43.5508 5.47656C42.7305 5.69792 42.1706 5.84115 41.8711 5.90625C41.5326 5.94531 41.2591 5.80859 41.0508 5.49609C40.8555 5.17057 40.6862 4.79297 40.543 4.36328C40.3737 3.84245 40.1654 3.45182 39.918 3.19141L40.5625 3.17188C40.9792 3.14583 41.5 3.11979 42.125 3.09375C42.75 3.05469 43.4206 3.01563 44.1367 2.97656C44.5404 2.9375 45.0352 2.8724 45.6211 2.78125C45.5951 2.61198 45.582 2.44271 45.582 2.27344C45.582 1.92188 45.6016 1.60938 45.6406 1.33594L45.6992 0.90625ZM51.0703 14.3828C51.2786 14.4219 51.6563 14.513 52.2031 14.6563C52.763 14.7995 53.3099 14.9557 53.8438 15.125C54.3906 15.2813 54.7422 15.418 54.8984 15.5352C54.9896 15.6393 54.8984 15.8997 54.625 16.3164C54.4427 16.6029 54.2279 16.9089 53.9805 17.2344C54.0195 17.2474 54.0586 17.2669 54.0977 17.293C54.319 17.5273 54.4362 17.8268 54.4492 18.1914C54.6966 18.2956 54.931 18.3802 55.1523 18.4453C55.5951 18.237 56.0964 17.9831 56.6563 17.6836C57.4245 17.2539 58.1536 16.7526 58.8438 16.1797C58.2578 15.6979 57.6654 15.2292 57.0664 14.7734C55.9596 13.9141 55.2435 13.4063 54.918 13.25C54.918 13.25 54.9115 13.25 54.8984 13.25C54.7422 13.5755 54.5143 13.862 54.2148 14.1094C53.8763 14.3698 53.4922 14.4479 53.0625 14.3438C52.5677 14.2135 51.6367 14.2266 50.2695 14.3828C49.957 14.4219 49.6445 14.4609 49.332 14.5C49.3451 15.5156 49.3646 16.2057 49.3906 16.5703C49.4036 16.8568 49.306 17.1693 49.0977 17.5078C49.0586 17.5729 49.0195 17.638 48.9805 17.7031C49.5794 17.599 50.1589 17.5078 50.7188 17.4297C50.7318 17.2604 50.7448 17.0846 50.7578 16.9023C50.8099 16.2383 50.875 15.6523 50.9531 15.1445L51.0703 14.3828ZM56.0508 1.72656C56.181 1.81771 56.5651 1.82422 57.2031 1.74609C57.8542 1.65495 58.5964 1.54427 59.4297 1.41406C60.276 1.27083 61.0443 1.16016 61.7344 1.08203C62.4245 0.990885 62.8542 0.984375 63.0234 1.0625C63.1797 1.15365 63.3555 1.27083 63.5508 1.41406C63.7461 1.54427 63.9349 1.68099 64.1172 1.82422C64.2995 1.95443 64.4427 2.0651 64.5469 2.15625C64.651 2.2474 64.6836 2.30599 64.6445 2.33203C64.5404 2.33203 64.4036 2.47526 64.2344 2.76172C64.0781 3.04818 63.9219 3.53646 63.7656 4.22656C63.4792 5.75 63.8893 6.47917 64.9961 6.41406C65.2826 6.375 65.6471 6.34245 66.0898 6.31641C66.5456 6.29036 67.0013 6.27734 67.457 6.27734C67.9128 6.26432 68.2969 6.25781 68.6094 6.25781L69.0977 6.25781C68.6419 6.33594 68.3164 6.50521 68.1211 6.76563C67.9388 7.01302 67.8021 7.29297 67.7109 7.60547C67.6068 7.90495 67.4635 8.1849 67.2813 8.44531C67.112 8.69271 66.819 8.875 66.4023 8.99219C65.7773 9.13542 65.1133 9.1875 64.4102 9.14844C63.707 9.10938 63.0755 9.03125 62.5156 8.91406C61.9688 8.79688 61.6042 8.6862 61.4219 8.58203C61.2786 8.45182 61.1745 8.10026 61.1094 7.52734C61.0443 6.95443 61.0182 6.34896 61.0313 5.71094C61.0573 5.0599 61.1029 4.55859 61.168 4.20703C61.181 4.18099 61.1875 4.15495 61.1875 4.12891C61.3177 3.6862 61.3242 3.41927 61.207 3.32813C61.1029 3.22396 60.7318 3.20443 60.0938 3.26953C59.3776 3.3737 58.7786 3.53646 58.2969 3.75781C58.2578 3.77083 58.2122 3.79036 58.1602 3.81641C58.2643 3.97266 58.349 4.18099 58.4141 4.44141C58.5833 5.02734 58.681 5.69792 58.707 6.45313C58.7331 7.19531 58.707 7.85938 58.6289 8.44531C58.5508 9.01823 58.4336 9.35026 58.2773 9.44141C58.1081 9.50651 57.8021 9.57161 57.3594 9.63672C56.9297 9.70182 56.4805 9.74089 56.0117 9.75391C55.556 9.76693 55.2044 9.71484 54.957 9.59766C54.7096 9.48047 54.6901 9.26563 54.8984 8.95313C55.1979 8.51042 55.3997 7.95703 55.5039 7.29297C55.6081 6.61589 55.6471 5.99089 55.6211 5.41797C55.6081 4.84505 55.5625 4.48047 55.4844 4.32422C55.4323 4.23307 55.3737 4.11589 55.3086 3.97266C55.2435 3.82943 55.1784 3.6862 55.1133 3.54297C55.0482 3.39974 54.9961 3.27604 54.957 3.17188L54.8984 3.03516C55.1198 3.10026 55.4453 3.14583 55.875 3.17188C56.2656 3.19792 56.7214 3.25 57.2422 3.32813C57.2161 3.27604 57.1836 3.22396 57.1445 3.17188C56.8971 2.84635 56.6497 2.53385 56.4023 2.23438C56.2461 2.03906 56.1289 1.89583 56.0508 1.80469C55.9857 1.70052 55.9857 1.67448 56.0508 1.72656ZM46.3828 29.6953C46.3307 29.6172 46.4154 29.6302 46.6367 29.7344C46.8711 29.8255 47.1576 29.9818 47.4961 30.2031C47.8346 30.4115 48.1536 30.6523 48.4531 30.9258C48.7656 31.1992 48.987 31.4727 49.1172 31.7461C49.2344 32.1237 49.0521 32.5794 48.5703 33.1133C48.0885 33.6471 47.4831 34.1094 46.7539 34.5C46.0378 34.8906 45.3932 35.0534 44.8203 34.9883L42.418 34.4414L43.0234 33.7578C43.4401 33.2891 43.9089 32.7487 44.4297 32.1367C44.9635 31.5378 45.4193 30.9974 45.7969 30.5156C46.1875 30.0339 46.3828 29.7604 46.3828 29.6953ZM59.3125 29.8125L60.1523 30.1836C60.7122 30.431 61.3698 30.7305 62.125 31.082C62.8802 31.4206 63.5964 31.7591 64.2734 32.0977C64.9505 32.4362 65.4323 32.7096 65.7188 32.918C66.0182 33.2174 65.9466 33.6146 65.5039 34.1094C65.0742 34.6042 64.5273 35.0339 63.8633 35.3984C63.1992 35.776 62.6719 35.9193 62.2813 35.8281C62.0078 35.7109 61.7018 35.3464 61.3633 34.7344C61.0378 34.1354 60.7188 33.4518 60.4063 32.6836C60.0938 31.9284 59.8333 31.2578 59.625 30.6719L59.3125 29.8125ZM58.2188 25.0664C58.8958 25.2227 59.6315 25.4961 60.4258 25.8867C61.2201 26.2773 61.8581 26.707 62.3398 27.1758C62.6003 27.5013 62.6328 27.8398 62.4375 28.1914C62.2552 28.5299 61.9818 28.8359 61.6172 29.1094C61.2656 29.3698 60.9531 29.5391 60.6797 29.6172C60.4193 29.6693 60.1068 29.5716 59.7422 29.3242C59.3776 29.0638 59.0065 28.7643 58.6289 28.4258C58.2904 28.1393 57.9779 27.8984 57.6914 27.7031C57.4701 27.5339 57.3659 27.306 57.3789 27.0195C57.3919 26.7331 57.4635 26.4401 57.5938 26.1406C57.737 25.8411 57.8802 25.5872 58.0234 25.3789L58.2188 25.0664ZM45.9727 7.37109C45.3737 7.5013 44.9115 7.63151 44.5859 7.76172C44.5729 7.94401 44.5664 8.13281 44.5664 8.32813C44.6315 8.3151 44.6901 8.30208 44.7422 8.28906C45.1198 8.22396 45.5365 8.13932 45.9922 8.03516C45.9792 7.8138 45.9727 7.59245 45.9727 7.37109ZM51.0313 6.70703C50.5755 6.8112 50.0156 6.88932 49.3516 6.94141C49.3385 7.07161 49.332 7.20833 49.332 7.35156C49.9831 7.23438 50.3542 7.20833 50.4453 7.27344C50.4974 7.35156 50.543 7.49479 50.582 7.70313C50.6341 7.91146 50.6341 8.13281 50.582 8.36719C50.543 8.60156 50.4258 8.79688 50.2305 8.95313C50.0482 9.10938 49.7552 9.18099 49.3516 9.16797C49.3385 9.16797 49.3255 9.16797 49.3125 9.16797C49.3125 9.38932 49.3125 9.61719 49.3125 9.85156C49.7813 9.76042 50.237 9.67578 50.6797 9.59766C50.6797 9.23307 50.7057 8.82292 50.7578 8.36719C50.8359 7.82031 50.9271 7.26693 51.0313 6.70703ZM46.0703 10.4961C46.0703 10.4701 46.0703 10.4505 46.0703 10.4375C46.0573 10.2031 46.0508 9.96875 46.0508 9.73438C45.9206 9.77344 45.7969 9.8125 45.6797 9.85156C45.3672 9.94271 45.1068 10.0078 44.8984 10.0469C44.7943 10.0729 44.7161 10.0924 44.6641 10.1055C44.6641 10.1315 44.6641 10.151 44.6641 10.1641C44.7031 10.3984 44.7487 10.5938 44.8008 10.75C45.0872 10.6979 45.3802 10.6393 45.6797 10.5742C45.8099 10.5482 45.9401 10.5221 46.0703 10.4961ZM60.9141 14.207C61.3047 13.8034 61.6432 13.4063 61.9297 13.0156C62.4896 12.2734 62.737 11.8177 62.6719 11.6484C62.5677 11.5313 62.1901 11.5247 61.5391 11.6289C60.888 11.7201 60.1589 11.8503 59.3516 12.0195C58.4141 12.2148 57.6654 12.3451 57.1055 12.4102C56.9883 12.4102 56.8776 12.4102 56.7734 12.4102C57.2943 12.5924 57.8932 12.8333 58.5703 13.1328C59.3516 13.4844 60.1328 13.8424 60.9141 14.207ZM56.6758 19.5781C56.0117 19.6953 55.3867 19.7474 54.8008 19.7344C54.5534 19.7344 54.319 19.7279 54.0977 19.7148C53.6159 20.0013 53.1016 20.2813 52.5547 20.5547C51.9427 20.8672 51.4284 21.1471 51.0117 21.3945C50.6081 21.6289 50.4323 21.7917 50.4844 21.8828C50.6536 22.0651 50.9987 22.1497 51.5195 22.1367C52.0404 22.1107 52.5612 22.0521 53.082 21.9609C53.6029 21.8698 53.9544 21.7852 54.1367 21.707C54.944 21.3685 55.5495 20.9714 55.9531 20.5156C56.2656 20.151 56.5065 19.8385 56.6758 19.5781ZM98.668 11.9414L99.4688 12.2734C100.003 12.4818 100.634 12.7487 101.363 13.0742C102.105 13.3867 102.809 13.6992 103.473 14.0117C104.137 14.3242 104.632 14.5911 104.957 14.8125C105.322 15.138 105.263 15.5807 104.781 16.1406C104.299 16.7005 103.681 17.1953 102.926 17.625C102.171 18.0417 101.572 18.2044 101.129 18.1133C100.829 17.9961 100.53 17.625 100.23 17C99.944 16.375 99.6836 15.6719 99.4492 14.8906C99.2148 14.1094 99.026 13.4193 98.8828 12.8203L98.668 11.9414ZM79.4883 13.2305C79.4102 13.1393 79.5078 13.1068 79.7813 13.1328C80.0677 13.1458 80.4388 13.2109 80.8945 13.3281C81.3633 13.4453 81.819 13.6081 82.2617 13.8164C82.7174 14.0247 83.0755 14.2786 83.3359 14.5781C83.6354 14.9948 83.6354 15.5482 83.3359 16.2383C83.0365 16.9154 82.5807 17.5599 81.9688 18.1719C81.3568 18.7708 80.7318 19.1615 80.0938 19.3438C79.638 19.4609 79.2474 19.5195 78.9219 19.5195C78.5964 19.5195 78.3359 19.4935 78.1406 19.4414C77.9453 19.3763 77.8021 19.3112 77.7109 19.2461L77.5742 19.1484L77.9063 18.2695C78.1146 17.6836 78.349 17.013 78.6094 16.2578C78.8698 15.5026 79.0911 14.832 79.2734 14.2461C79.4557 13.6471 79.5273 13.3086 79.4883 13.2305ZM88.1797 1.14063C88.7526 1.19271 89.3385 1.20573 89.9375 1.17969C90.6276 1.14063 91.2982 1.16016 91.9492 1.23828C92.6133 1.31641 93.2188 1.5638 93.7656 1.98047C94.2344 2.41016 94.3906 2.91797 94.2344 3.50391C94.0911 4.07682 93.8047 4.61068 93.375 5.10547C92.9583 5.60026 92.5807 5.9388 92.2422 6.12109C91.8906 6.2513 91.4154 6.16667 90.8164 5.86719C90.2305 5.55469 89.612 5.18359 88.9609 4.75391C88.4141 4.3763 87.9063 4.0638 87.4375 3.81641C87.138 3.66016 86.9688 3.47135 86.9297 3.25C86.8906 3.01563 86.9297 2.78125 87.0469 2.54688C87.1641 2.29948 87.3073 2.07161 87.4766 1.86328C87.6589 1.65495 87.8216 1.47917 87.9648 1.33594L88.1797 1.14063ZM74.7813 8.91406C76.1875 8.52344 78.4531 8.08724 81.5781 7.60547C84.7161 7.11068 88.0495 6.66146 91.5781 6.25781C95.1068 5.84115 98.1602 5.55469 100.738 5.39844C103.316 5.24219 104.749 5.30729 105.035 5.59375C105.257 6.02344 105.211 6.58333 104.898 7.27344C104.586 7.95052 104.098 8.52344 103.434 8.99219C102.77 9.46094 102.021 9.59115 101.188 9.38281C100.289 9.17448 98.6549 9.16797 96.2852 9.36328C96.2721 9.48047 96.1875 9.88411 96.0313 10.5742C96.0313 10.6133 96.0247 10.6784 96.0117 10.7695C96.0247 10.9779 96.1224 12.7422 96.3047 16.0625L96.2656 16.0625L96.3047 16.1016C96.3047 16.2969 96.3177 17.2083 96.3438 18.8359C96.3438 18.849 96.3503 18.8815 96.3633 18.9336C96.3633 19.5195 95.7904 20.1315 94.6445 20.7695C94.0586 21.0299 93.5378 21.1732 93.082 21.1992C92.6003 21.2122 92.2682 20.9128 92.0859 20.3008C91.8516 19.8581 91.4935 19.5391 91.0117 19.3438C89.7357 18.9792 88.8893 18.7773 88.4727 18.7383C88.3815 18.9857 88.2839 19.2135 88.1797 19.4219C88.4922 19.5521 88.9414 19.7148 89.5273 19.9102C90.2305 20.1445 91.0052 20.4245 91.8516 20.75C92.3464 21.0365 92.5612 21.7396 92.4961 22.8594C92.4961 22.8594 92.5026 22.8594 92.5156 22.8594C95.8099 22.4818 98.668 22.2279 101.09 22.0977C103.512 21.9544 104.859 22.0195 105.133 22.293C105.354 22.7096 105.335 23.2435 105.074 23.8945C104.827 24.5456 104.404 25.0924 103.805 25.5352C103.206 25.9779 102.509 26.0951 101.715 25.8867C100.803 25.6654 99.1042 25.6654 96.6172 25.8867C95.224 26.0039 93.8242 26.1536 92.418 26.3359C92.418 26.362 92.418 26.3945 92.418 26.4336C92.418 26.6159 93.2513 27.0977 94.918 27.8789C96.5977 28.6602 98.5052 29.5065 100.641 30.418C102.789 31.3294 104.703 32.1302 106.383 32.8203L108.883 33.8555L108.844 33.8945C108.818 33.9206 108.772 33.9531 108.707 33.9922C108.642 34.0313 108.544 34.0703 108.414 34.1094C108.297 34.1484 108.141 34.1745 107.945 34.1875C107.75 34.2135 107.503 34.2201 107.203 34.207C106.773 34.207 106.383 34.3698 106.031 34.6953C105.68 35.0208 105.354 35.3919 105.055 35.8086C104.664 36.3685 104.26 36.7852 103.844 37.0586C103.245 37.3711 102.242 37.2995 100.836 36.8438C99.4427 36.388 98.0495 35.4115 96.6563 33.9141C94.2734 31.401 92.3724 29.6302 90.9531 28.6016C90.862 28.8359 90.7578 29.0703 90.6406 29.3047C89.8073 31.1927 88.8958 32.5534 87.9063 33.3867C87.151 33.9336 86.2461 34.3893 85.1914 34.7539C84.1367 35.1185 83.0885 35.4115 82.0469 35.6328C81.0182 35.8542 80.1523 36.0104 79.4492 36.1016L78.3945 36.2383L79.5859 35.3008C80.3672 34.6758 81.2852 33.8555 82.3398 32.8398C83.4076 31.8242 84.3906 30.7174 85.2891 29.5195C85.862 28.7513 86.3112 27.9831 86.6367 27.2148C85.2435 27.4753 84.1563 27.7161 83.375 27.9375C82.5677 28.1458 81.7604 28.1458 80.9531 27.9375C80.1589 27.7161 79.4362 27.4036 78.7852 27C78.1471 26.5964 77.6458 26.2253 77.2813 25.8867C76.9297 25.5352 76.793 25.3398 76.8711 25.3008C78.1602 24.9362 80.263 24.526 83.1797 24.0703C84.5859 23.862 86.0247 23.6602 87.4961 23.4648C87.6654 22.3451 87.75 21.4596 87.75 20.8086L87.75 20.1836C87.138 21.043 86.4479 21.1602 85.6797 20.5352C85.1849 20.2096 84.6315 19.9818 84.0195 19.8516L83.1016 19.6367L83.7656 19.3242C84.1953 19.1159 84.6706 18.3086 85.1914 16.9023C85.7253 15.4961 86.0117 13.6471 86.0508 11.3555C85.9987 11.1602 85.9466 10.9453 85.8945 10.7109C84.0195 11.0365 82.5872 11.3359 81.5977 11.6094C80.7253 11.8438 79.8659 11.8503 79.0195 11.6289C78.1732 11.4076 77.4115 11.0951 76.7344 10.6914C76.0703 10.2747 75.556 9.89063 75.1914 9.53906C74.8398 9.17448 74.7031 8.96615 74.7813 8.91406ZM88.4922 18.6602C89.2083 18.5039 89.9115 18.3021 90.6016 18.0547C91.2266 17.7813 91.6693 17.5143 91.9297 17.2539C92.151 17.0065 92.2617 16.7135 92.2617 16.375C92.3919 15.5156 92.4961 14.2526 92.5742 12.5859C92.5742 11.4661 92.4245 10.6589 92.125 10.1641C92.0339 10.0599 91.9492 9.94922 91.8711 9.83203C91.2721 9.91016 90.6667 9.98828 90.0547 10.0664C90.0677 10.1055 90.0742 10.138 90.0742 10.1641C89.6706 14.0443 89.1432 16.8763 88.4922 18.6602ZM137.359 14.8125L137.398 15.8086C138.974 15.5612 139.762 15.4115 139.762 15.3594C139.749 15.2682 139.859 14.6693 140.094 13.5625L140.055 13.543C139.195 13.4648 138.29 13.6081 137.34 13.9727C137.34 14.3372 137.346 14.6172 137.359 14.8125ZM141.207 9.59766L141.246 9.59766C143.29 11.3815 144.397 12.5273 144.566 13.0352C144.579 13.3607 144.111 14.0964 143.16 15.2422L143.16 15.3008C143.46 15.6263 143.622 16.0299 143.648 16.5117C143.688 17.2409 143.284 17.7292 142.438 17.9766C142.177 18.0807 141.22 18.0938 139.566 18.0156C139.15 18.0547 138.727 18.1133 138.297 18.1914C138.362 18.3607 138.368 18.5495 138.316 18.7578C138.238 19.0964 138.089 19.4154 137.867 19.7148C138.987 19.5846 140.042 19.4609 141.031 19.3438C142.555 19.1875 143.414 19.168 143.609 19.2852C143.727 19.4023 143.824 19.6302 143.902 19.9688C143.993 20.2943 143.993 20.6458 143.902 21.0234C143.824 21.401 143.59 21.7135 143.199 21.9609C142.809 22.1953 142.197 22.2799 141.363 22.2148C140.699 22.1758 139.983 22.1823 139.215 22.2344C139.202 22.5469 139.163 22.8659 139.098 23.1914C139.059 23.4388 139.033 23.6797 139.02 23.9141C139.449 23.862 139.859 23.8099 140.25 23.7578C141.552 23.6146 142.288 23.5951 142.457 23.6992C142.561 23.8164 142.646 24.0313 142.711 24.3438C142.789 24.6563 142.789 24.9883 142.711 25.3398C142.646 25.6784 142.444 25.9583 142.105 26.1797C141.78 26.401 141.259 26.4857 140.543 26.4336C140.022 26.3945 139.469 26.3945 138.883 26.4336C138.883 26.5117 138.883 26.5898 138.883 26.668C138.857 27.0716 138.837 27.4753 138.824 27.8789C139.358 27.8138 139.872 27.7552 140.367 27.7031C141.669 27.5469 142.405 27.5208 142.574 27.625C142.678 27.7422 142.763 27.957 142.828 28.2695C142.906 28.569 142.906 28.8945 142.828 29.2461C142.763 29.5846 142.561 29.8711 142.223 30.1055C141.884 30.3268 141.363 30.4115 140.66 30.3594C140.074 30.3203 139.443 30.3268 138.766 30.3789C138.74 31.2122 138.74 31.7917 138.766 32.1172C139.703 32 140.4 31.8893 140.855 31.7852C141.923 31.5378 142.939 31.5443 143.902 31.8047C144.879 32.0651 145.549 32.5339 145.914 33.2109C146.174 33.901 145.882 34.4544 145.035 34.8711C144.189 35.2878 143.082 35.3594 141.715 35.0859C140.882 34.9297 139.736 34.9297 138.277 35.0859C136.819 35.2422 135.4 35.431 134.02 35.6523C133.056 35.7956 132.255 35.8997 131.617 35.9648C130.992 36.043 130.667 36.0365 130.641 35.9453C130.589 35.763 130.406 35.4701 130.094 35.0664C130.107 35.1445 130.113 35.2031 130.113 35.2422C130.126 35.4115 130.029 35.5872 129.82 35.7695C129.612 35.9648 129.358 36.1471 129.059 36.3164C128.759 36.4987 128.492 36.6484 128.258 36.7656L127.926 36.9219L127.73 36.8438C127.6 36.8047 127.457 36.7331 127.301 36.6289C127.145 36.5378 127.014 36.4206 126.91 36.2773C126.806 36.1471 126.76 35.9974 126.773 35.8281C126.799 35.5938 126.819 34.832 126.832 33.543C126.845 32.2539 126.852 30.7891 126.852 29.1484C126.839 27.9896 126.826 26.9154 126.813 25.9258C126.253 26.3424 125.875 26.5898 125.68 26.668C125.471 26.7201 125.172 26.7656 124.781 26.8047C124.391 26.8307 123.98 26.8503 123.551 26.8633C123.134 26.8763 122.776 26.8828 122.477 26.8828L122.027 26.8828L122.945 26.0039C123.557 25.418 124.247 24.6953 125.016 23.8359C125.563 23.25 126.051 22.6641 126.48 22.0781C126.48 21.9479 126.487 21.8242 126.5 21.707C126.526 21.5638 126.552 21.4466 126.578 21.3555L126.617 21.2188C126.76 21.2448 126.904 21.2708 127.047 21.2969C127.594 20.4896 127.88 19.819 127.906 19.2852C127.854 19.2982 127.809 19.3112 127.77 19.3242C127.275 19.5716 126.878 19.6953 126.578 19.6953C126.422 19.6953 126.253 19.5911 126.07 19.3828C126.07 19.3958 126.07 19.4089 126.07 19.4219C125.901 20.0339 125.628 20.6328 125.25 21.2188C124.872 21.8047 124.456 22.1628 124 22.293C123.635 22.3451 123.264 22.1823 122.887 21.8047C122.522 21.4271 122.158 20.9844 121.793 20.4766C121.741 20.4115 121.695 20.3464 121.656 20.2813C121.617 22.5208 121.591 24.7344 121.578 26.9219C121.539 29.9167 121.539 31.7721 121.578 32.4883C121.604 32.9049 121.493 33.3477 121.246 33.8164C120.999 34.2852 120.706 34.7279 120.367 35.1445C120.029 35.5742 119.729 35.9258 119.469 36.1992L119.059 36.6094L118.844 36.4141C118.701 36.2969 118.538 36.1211 118.355 35.8867C118.173 35.6654 118.017 35.3854 117.887 35.0469C117.77 34.7214 117.724 34.3503 117.75 33.9336C117.776 33.3997 117.789 31.8568 117.789 29.3047C117.802 27.612 117.809 25.7695 117.809 23.7773C117.418 24.5065 116.956 25.1836 116.422 25.8086C115.706 26.6549 115.022 27.0781 114.371 27.0781C113.902 27.0391 113.531 27.013 113.258 27C112.984 26.987 112.776 26.987 112.633 27C112.503 27 112.418 27 112.379 27L112.32 27.0195L112.828 26.1406C113.18 25.5547 113.564 24.7995 113.98 23.875C114.41 22.9375 114.768 21.9414 115.055 20.8867C115.341 19.832 115.445 18.8294 115.367 17.8789C115.367 17.6576 115.569 17.6445 115.973 17.8398C116.389 18.0221 116.852 18.3477 117.359 18.8164C117.503 18.9596 117.646 19.1094 117.789 19.2656C117.776 18.0026 117.763 16.7917 117.75 15.6328C117.281 15.8281 116.832 16.0234 116.402 16.2188C115.777 16.4922 115.27 16.7005 114.879 16.8438C114.501 16.987 114.286 17 114.234 16.8828C114.156 16.6615 113.909 16.3164 113.492 15.8477C113.089 15.3659 112.672 14.9167 112.242 14.5C111.826 14.0703 111.559 13.8099 111.441 13.7188L112.594 13.3867C113.375 13.1654 114.299 12.8854 115.367 12.5469C116.161 12.3125 116.936 12.0651 117.691 11.8047C117.639 9.47396 117.574 8.10026 117.496 7.68359C117.405 7.21484 117.359 6.73307 117.359 6.23828C117.359 5.74349 117.385 5.30729 117.438 4.92969L117.496 4.34375C118.238 4.64323 118.941 4.77995 119.605 4.75391C120.296 4.72786 120.927 4.88411 121.5 5.22266C121.891 5.54818 122.092 6.15365 122.105 7.03906C122.118 7.92448 122.073 8.88151 121.969 9.91016C121.956 9.97526 121.949 10.0469 121.949 10.125C122.561 9.95573 123.173 9.91667 123.785 10.0078C123.837 10.0078 123.896 10.0143 123.961 10.0273C123.505 9.70182 123.147 9.40234 122.887 9.12891C122.613 8.82943 122.509 8.66016 122.574 8.62109C123.499 8.33464 124.938 8.0026 126.891 7.625C126.669 6.64844 126.5 5.78906 126.383 5.04688L126.227 3.91406L126.715 3.99219C127.04 4.03125 127.444 4.1224 127.926 4.26563C128.408 4.40885 128.902 4.61719 129.41 4.89063C129.931 5.16406 130.387 5.52214 130.777 5.96484C130.986 6.23828 131.142 6.54427 131.246 6.88281C132.483 6.6875 133.766 6.4987 135.094 6.31641C135.198 6.30339 135.302 6.29036 135.406 6.27734C135.419 6.14714 135.426 6.04297 135.426 5.96484C135.413 5.83464 135.393 5.64583 135.367 5.39844C135.315 5.0599 135.263 4.66927 135.211 4.22656C135.159 3.78385 135.113 3.36719 135.074 2.97656C135.048 2.57292 135.042 2.26693 135.055 2.05859C135.081 1.83724 135.152 1.78516 135.27 1.90234C135.582 2.20182 136.077 2.44922 136.754 2.64453C137.796 2.86589 139 3.54297 140.367 4.67578C140.615 4.9362 140.79 5.20313 140.895 5.47656C140.934 5.47656 140.979 5.47005 141.031 5.45703C142.346 5.2487 143.421 5.39844 144.254 5.90625C145.1 6.41406 145.387 6.88932 145.113 7.33203C144.853 7.76172 144.482 8.17839 144 8.58203C143.518 8.97266 142.958 9.08333 142.32 8.91406C141.734 8.77083 140.758 8.7513 139.391 8.85547C139.313 8.93359 139.234 9.00521 139.156 9.07031C138.414 9.68229 137.835 10.0664 137.418 10.2227C137.132 10.3398 136.786 10.4635 136.383 10.5938C135.992 10.724 135.602 10.8477 135.211 10.9648C136.083 11.3555 136.565 11.5768 136.656 11.6289C138.544 11.2253 139.951 10.9453 140.875 10.7891L141.207 9.59766ZM131.051 28.7773C131.142 28.8294 131.669 28.7969 132.633 28.6797C133.414 28.6016 134.313 28.4909 135.328 28.3477C135.328 28.0352 135.328 27.7096 135.328 27.3711C135.315 27.2279 135.309 27.0846 135.309 26.9414C134.905 27.0065 134.514 27.0781 134.137 27.1563C133.577 27.2734 133.128 27.3581 132.789 27.4102C132.451 27.4622 132.262 27.4688 132.223 27.4297C132.21 27.4036 132.177 27.3451 132.125 27.2539C132.034 27.0846 131.91 26.8568 131.754 26.5703C131.611 26.2839 131.467 25.9974 131.324 25.7109C131.181 25.4245 131.064 25.1966 130.973 25.0273C130.895 24.8451 130.882 24.7865 130.934 24.8516C131.025 24.9167 131.552 24.8906 132.516 24.7734C133.297 24.6823 134.208 24.5651 135.25 24.4219C135.237 24.2266 135.224 24.0313 135.211 23.8359C135.198 23.4193 135.178 23.0677 135.152 22.7813C134.723 22.8594 134.306 22.9375 133.902 23.0156C133.251 23.1328 132.724 23.224 132.32 23.2891C131.917 23.3411 131.695 23.3411 131.656 23.2891C131.643 23.263 131.604 23.1979 131.539 23.0938C131.435 22.9115 131.292 22.6641 131.109 22.3516C131.057 22.2474 131.005 22.1432 130.953 22.0391C130.849 22.1693 130.738 22.2995 130.621 22.4297C130.621 22.7552 130.582 23.1068 130.504 23.4844C130.452 23.7578 130.413 24.0182 130.387 24.2656C130.361 24.5521 130.328 25.2292 130.289 26.2969C130.263 27.3646 130.23 28.556 130.191 29.8711C130.152 30.9909 130.126 32 130.113 32.8984C131.168 32.8333 132.405 32.7357 133.824 32.6055C134.332 32.5664 134.827 32.5208 135.309 32.4688C135.322 32.1172 135.328 31.6094 135.328 30.9453C135.341 30.9193 135.348 30.8932 135.348 30.8672C134.97 30.9453 134.605 31.0169 134.254 31.082C133.694 31.1992 133.238 31.2839 132.887 31.3359C132.548 31.388 132.359 31.3945 132.32 31.3555C132.307 31.3164 132.275 31.2513 132.223 31.1602C132.132 30.9909 132.008 30.763 131.852 30.4766C131.708 30.1901 131.565 29.9036 131.422 29.6172C131.279 29.3307 131.168 29.1029 131.09 28.9336C131.012 28.7643 130.999 28.7122 131.051 28.7773ZM127.828 15.7305L127.887 16.707C129.449 16.3164 130.23 16.0885 130.23 16.0234C130.23 15.9453 130.341 15.3398 130.563 14.207L130.523 14.207C129.664 14.207 128.766 14.4284 127.828 14.8711C127.815 15.2487 127.815 15.5352 127.828 15.7305ZM131.676 10.125L131.715 10.125C132.926 11.0625 133.811 11.8112 134.371 12.3711C134.319 12.0326 134.267 11.668 134.215 11.2773C134.189 11.2904 134.156 11.2969 134.117 11.2969L133.707 11.4336L133.98 10.7109C134.124 10.3464 134.273 9.9362 134.43 9.48047C133.701 9.58464 132.958 9.70833 132.203 9.85156C131.839 9.91667 131.487 9.98177 131.148 10.0469C131.018 10.4766 130.849 10.8672 130.641 11.2188C130.536 11.388 130.432 11.5313 130.328 11.6484C130.719 11.5313 131.057 11.4336 131.344 11.3555L131.676 10.125ZM131.988 20.4375C132.001 20.4375 132.008 20.4375 132.008 20.4375C133.063 20.3203 134.286 20.1706 135.68 19.9883C135.471 19.8581 135.263 19.7214 135.055 19.5781C134.716 19.3307 134.404 19.1289 134.117 18.9727C133.935 18.8555 133.831 18.7253 133.805 18.582C133.779 18.4388 133.798 18.2891 133.863 18.1328C133.941 17.9635 134.033 17.8138 134.137 17.6836C134.254 17.5404 134.358 17.4297 134.449 17.3516L134.586 17.2148C134.716 17.2279 134.846 17.2344 134.977 17.2344C134.859 16.987 134.736 16.7135 134.605 16.4141L134.586 16.1797L134.625 16.1211L134.801 16.1602L135.016 16.1797C134.898 15.6458 134.775 14.9818 134.645 14.1875C134.41 14.5651 134.072 15.0339 133.629 15.5938L133.629 15.6523C133.928 15.9518 134.091 16.3359 134.117 16.8047C134.156 17.5469 133.759 18.0807 132.926 18.4063C132.743 18.4974 132.242 18.5755 131.422 18.6406C131.565 18.7318 131.702 18.8359 131.832 18.9531C132.184 19.3307 132.236 19.8255 131.988 20.4375ZM127.945 10.7891C127.867 10.8151 127.789 10.8411 127.711 10.8672C127.06 11.0625 126.415 11.069 125.777 10.8867C125.712 10.8737 125.654 10.8542 125.602 10.8281C125.758 10.9844 125.895 11.1602 126.012 11.3555C126.168 11.668 126.233 11.974 126.207 12.2734C126.754 12.4557 127.066 12.5664 127.145 12.6055C127.835 12.3841 128.46 12.1888 129.02 12.0195C129.02 12.0195 129.013 12.0195 129 12.0195C128.609 11.8242 128.258 11.4141 127.945 10.7891ZM124.898 13.9922C124.195 14.3958 123.29 14.5781 122.184 14.5391C122.04 14.5391 121.897 14.5391 121.754 14.5391C121.741 15.2422 121.728 16.056 121.715 16.9805C122.275 17.1758 122.945 17.332 123.727 17.4492C124.234 17.5273 124.703 17.6185 125.133 17.7227C125.12 17.6836 125.1 17.638 125.074 17.5859L125.055 17.3516L125.094 17.293L125.27 17.3125L125.484 17.3125C125.302 16.5313 125.107 15.4245 124.898 13.9922Z" fill="white"/>
</svg>
