<svg width="218" height="56" viewBox="0 0 218 56" fill="none" xmlns="http://www.w3.org/2000/svg">
<g filter="url(#filter0_i_3_1738)">
<path fill-rule="evenodd" clip-rule="evenodd" d="M41.1719 17.049L0 0.0483398L-5.85822e-10 7.92896L30.146 20.3418L21.3666 24.5057L21.3666 32.5296L41.1719 23.1707L41.1719 17.049Z" fill="#29517F"/>
<path fill-rule="evenodd" clip-rule="evenodd" d="M6.72168 18.4382L6.72168 53.0475L41.2324 53.0475L41.2324 45.9883L14.0439 45.9883L14.0439 21.4529L6.72168 18.4382Z" fill="#29517F"/>
</g>
<path d="M91.8814 42.2812L92.3497 42.2598V41.7891C92.0375 41.8462 91.8814 42.0102 91.8814 42.2812ZM75.9374 42.0672L75.7032 42.5593L77.3636 42.7733L77.5977 42.7519V42.5165L75.9374 42.0672ZM91.1789 41.5752V41.8105L91.6472 41.7891V41.5538L91.1789 41.5752ZM90.221 41.1045V41.3398H90.6893V41.1045H90.221ZM102.12 38.9864V41.6179H102.355V38.9864H102.12ZM85.4527 37.5957V40.7194L85.6868 40.698V37.5957H85.4527ZM92.6051 42.4951C94.5068 43.0942 95.933 43.3866 96.8838 43.3723H97.118C97.7566 43.3581 98.0759 40.9618 98.0759 36.1837C96.0182 39.2075 94.1946 41.3113 92.6051 42.4951ZM81.4081 35.9911C81.4081 36.3762 79.9038 38.1591 76.8953 41.3398C77.1507 41.9103 78.4989 42.2883 80.9398 42.4737C81.4081 41.6179 81.6423 39.6995 81.6423 36.7185V35.9911H81.4081ZM97.8418 34.9855C97.8418 35.1995 97.4444 35.9269 96.6497 37.1678H96.8838L98.0759 35.2209V34.9855H97.8418ZM101.631 34.2153V36.3548C101.631 37.6385 101.553 39.1575 101.397 40.9119V41.1473H101.631C101.957 39.3501 102.12 37.2748 102.12 34.9214C101.964 34.6076 101.886 34.3651 101.886 34.1939L101.631 34.2153ZM85.2185 34.2581C85.0624 35.0569 84.9063 36.9753 84.7502 40.0133V40.2487H84.9844C85.2966 38.0379 85.4527 36.1195 85.4527 34.4935V34.2581H85.2185ZM92.1155 31.9903C92.2716 32.5751 92.3497 33.2882 92.3497 34.1298H92.6051L92.8393 32.9316C92.598 32.2898 92.3568 31.976 92.1155 31.9903ZM86.8789 26.8127V29.915L89.0289 29.4015C89.923 29.3872 90.8738 30.0077 91.8814 31.2628C92.1226 31.2628 93.0735 30.3714 94.7338 28.5885L98.0759 30.2145V28.289L97.8418 26.6202C96.2523 27.1336 94.2655 28.1249 91.8814 29.594L91.4131 29.6154C89.8236 29.3444 89.0289 28.0821 89.0289 25.8286C87.5956 26.1281 86.8789 26.4561 86.8789 26.8127ZM78.3215 21.6994H78.7898V21.9347H78.3215V21.6994ZM97.3521 4.86162C102.12 5.98841 104.505 7.78558 104.505 10.2531L103.547 11.2159V19.5813H103.781C104.945 18.7683 105.973 18.1906 106.867 17.8483C109.564 19.2461 110.912 21.0575 110.912 23.2826C110.373 24.5663 109.982 25.2152 109.741 25.2295L108.294 25.2509C107.272 25.2652 105.69 25.3721 103.547 25.5718V27.968C110.231 33.7446 115.702 37.1536 119.959 38.1948V38.4301L117.596 38.4729V38.7082C118.76 38.694 119.391 38.9222 119.491 39.3929L118.064 39.4143C117.397 39.4285 116.525 39.3644 115.446 39.2217H115.212V39.4785L116.638 39.6924V39.9278L114.02 39.9705C114.02 40.2843 114.573 40.4341 115.68 40.4198V40.6552C114.9 40.6694 113.949 40.7693 112.828 40.9547V41.19L114.488 41.1473C114.474 41.3755 113.523 41.8747 111.636 42.6449C111.636 42.9587 111.238 43.1227 110.444 43.137C109.11 42.8375 106.811 40.5696 103.547 36.3334V36.5688C103.703 40.6053 103.781 43.5506 103.781 45.4048C103.781 47.6442 102.191 49.4271 99.0125 50.7535L98.0759 50.7749L95.2234 46.988C93.7901 45.7471 92.9173 45.1267 92.6051 45.1267V44.8914H92.8393C93.1373 44.8771 93.6908 45.0269 94.4997 45.3406V45.1053C92.6406 44.5348 91.3705 43.9143 90.6893 43.244C92.4916 43.7004 93.5205 43.9215 93.7759 43.9072H94.0314V43.6719C91.335 42.6592 89.9868 41.8818 89.9868 41.3398L88.7947 41.6179L87.6027 41.3826L91.1789 36.312C88.9083 35.8699 87.475 35.4919 86.8789 35.1781V43.8002C86.8789 46.2963 85.2966 48.0721 82.1319 49.1275L81.6423 49.1489L77.8319 44.6774C77.1081 44.3779 76.7179 44.0641 76.6611 43.736C76.9591 43.736 77.5126 43.8858 78.3215 44.1853V43.95L75.2136 42.7947C74.2202 43.9357 73.1913 44.5134 72.127 44.5276C70.8639 43.8715 70.2324 42.7661 70.2324 41.2114C76.874 34.6932 80.4431 30.4855 80.9398 28.5885H80.7057C78.9175 30.0576 77.5694 30.7993 76.6611 30.8136C75.3839 30.8421 73.9506 29.594 72.3611 27.0695C72.3611 25.5148 74.1067 23.7319 77.5977 21.7207C78.1228 22.0345 78.5202 22.1843 78.7898 22.17V22.4054C78.3215 22.4196 78.0874 22.5837 78.0874 22.8975V23.1542C80.4573 22.5694 81.6423 22.1486 81.6423 21.8919C81.6423 15.0313 81.0888 11.6081 79.9819 11.6224C79.9819 11.3942 79.7406 11.166 79.2581 10.9378L78.5557 11.4084V10.7024L77.5977 11.6652V11.4298C77.5977 10.3173 78.9459 8.9409 81.6423 7.30063C85.9281 8.28479 88.071 9.91793 88.071 12.2L87.1131 13.1842V18.212L86.8789 19.8808C87.5175 19.8665 88.7096 20.2445 90.4551 21.0147C90.4551 20.8578 90.5332 20.7794 90.6893 20.7794V21.4854L91.1789 21.2501V21.7207H91.4131L92.1155 21.2287V21.6994L91.8814 22.8975L97.8418 20.8864C97.6715 20.5726 97.5863 20.3372 97.5863 20.1803C97.5863 13.7904 97.0328 10.2888 95.9259 9.67546C95.7698 9.20477 95.2944 8.97656 94.4997 8.99082C94.4997 9.30461 94.3436 9.46864 94.0314 9.4829V9.22616C94.1875 8.95516 94.2655 8.63424 94.2655 8.2634L93.0734 9.71825V9.24756C93.0734 8.09224 94.4216 6.71584 97.118 5.11836C97.118 4.96146 97.196 4.87588 97.3521 4.86162ZM93.0734 9.71825V10.2103H92.8393V9.73964L93.0734 9.71825ZM77.5977 11.6652V12.1573H77.3636V11.6866L77.5977 11.6652Z" fill="#29517F"/>
<path d="M128.129 51.4168H128.619V51.6735H128.129V51.4168ZM163.21 50.561H163.7V50.7963L163.21 50.8177V50.561ZM128.619 41.0617H128.874C129.186 41.0617 131.719 40.5268 136.474 39.4571V39.2003C131.237 39.885 128.619 40.5054 128.619 41.0617ZM139.901 26.5774V29.2945C140.497 28.9522 141.15 28.7739 141.859 28.7596L142.349 28.995V28.7596C141.213 27.9324 140.646 27.4474 140.646 27.3048H140.88C140.965 27.3048 141.291 27.3832 141.859 27.5401L142.115 27.5187V27.2834C141.817 27.2834 141.079 27.0481 139.901 26.5774ZM136.474 27.1336V29.3587C136.516 29.6868 136.679 29.8437 136.963 29.8294L137.197 28.5885V27.8611L136.963 26.6416C136.637 26.6986 136.474 26.8626 136.474 27.1336ZM139.901 25.5932V26.0853L141.625 26.2992C141.625 25.9141 141.05 25.6788 139.901 25.5932ZM137.687 25.636V27.1122C137.744 27.4403 137.907 27.6043 138.176 27.6043L138.687 26.8555V26.3634C138.687 26.121 138.439 25.8785 137.942 25.636H137.687ZM150.204 23.4323V23.9244C150.26 24.2525 150.424 24.4165 150.693 24.4165L151.673 24.3951C151.673 24.1241 151.183 23.8032 150.204 23.4323ZM148.969 22.9616V23.9458H149.224V22.9616H148.969ZM150.204 21.9561C150.204 22.1273 150.282 22.2128 150.438 22.2128L150.204 22.7049V23.197C150.743 23.1827 151.155 23.254 151.438 23.4109V23.1756C150.771 22.9331 150.438 22.6906 150.438 22.4482H150.949L151.438 22.6835V22.4268C150.899 22.113 150.488 21.9561 150.204 21.9561ZM148.479 20.0306C148.479 21.5995 148.401 22.6693 148.245 23.2398L148.735 23.2184V20.0092L148.479 20.0306ZM150.438 19.4957H150.949V19.731H151.438C155.355 20.3016 157.314 21.3356 157.314 22.8333C157.541 22.819 157.789 23.468 158.059 24.7802C157.207 27.262 156.143 28.51 154.866 28.5243C152.297 26.8983 150.906 25.8571 150.693 25.4007H150.949L152.162 25.6146V25.3793C152.162 25.0512 151.587 24.8159 150.438 24.6732V24.9086C150.438 25.0797 150.523 25.1653 150.693 25.1653L150.438 25.6574V26.8769C150.438 27.0481 150.523 27.1336 150.693 27.1336C149.657 30.7565 148.103 32.5893 146.031 32.6321V32.8889L145.542 32.6321L145.308 32.6535V33.1456C146.94 33.1171 150.204 32.732 155.1 31.9903V31.4768L154.61 31.4982V31.2415H155.1L154.866 30.7494H155.1C159.357 31.3342 161.486 32.2827 161.486 33.5949C161.812 33.5806 161.975 34.2367 161.975 35.5632C161.181 37.0466 159.953 37.8025 158.293 37.8311L154.61 37.8952C150.849 37.9666 148.969 38.2447 148.969 38.7296L165.658 50.2829H165.403C163.345 49.9833 161.876 49.6767 160.996 49.3629L160.741 49.3843V49.6196C162.032 50.0903 162.77 50.3256 162.955 50.3256V50.561L162.465 50.5824C162.096 50.5824 160.627 50.3613 158.059 49.9191H157.803V50.1759L159.527 50.6252V50.8819H159.038C157.051 50.5824 155.902 50.3542 155.589 50.1973V50.454C156.242 50.6822 156.569 50.9247 156.569 51.1814L155.355 51.2028C154.759 51.2028 154.021 51.2955 153.141 51.481C152.006 51.4952 149.146 48.4215 144.563 42.2598L142.838 40.5696H142.604C140.844 45.0483 138.716 47.9651 136.218 49.3201C133.678 50.832 131.556 51.6093 129.853 51.6521C129.569 51.6521 129.08 51.4952 128.384 51.1814C127.632 51.5238 126.809 51.702 125.915 51.7163H125.681V51.4596C130.478 49.206 134.238 45.5261 136.963 40.4198L136.708 40.4412C131.471 41.3541 128.122 41.8176 126.66 41.8319C125.511 40.5625 124.936 39.2645 124.936 37.938V37.1892C125.787 36.1195 127.178 35.0283 129.108 33.9158C129.435 34.0727 129.683 34.1511 129.853 34.1511L129.598 34.6432C129.768 34.6432 129.853 34.7217 129.853 34.8786C129.683 34.8928 129.598 34.9784 129.598 35.1353L130.087 35.3707C135.821 34.6718 138.687 34.1298 138.687 33.7446C138.843 33.1741 138.922 32.8461 138.922 32.7605H138.687C137.509 32.7747 136.119 32.3896 134.515 31.6052V25.1867L134.26 25.2081C132.997 29.1733 131.854 31.163 130.832 31.1773H130.087C129.023 31.2058 127.966 29.7509 126.916 26.8127C126.916 26.3278 128.221 24.823 130.832 22.2984C131.315 21.7564 131.556 21.3428 131.556 21.0575H131.812V21.7849L133.046 21.5282C133.302 22.3412 133.791 22.7406 134.515 22.7263V19.5385C131.748 20.3372 128.966 21.3713 126.171 22.6407C125.149 22.655 123.758 21.0361 121.998 17.7841C121.998 16.7001 123.552 15.4378 126.66 13.9972L126.916 14.9814C126.745 14.9814 126.66 15.067 126.66 15.2381L126.916 15.2167L140.88 12.521V12.2642L140.156 12.2856L140.39 11.7935V11.5368L139.901 11.7935H139.667L139.901 10.574H139.177L139.411 9.33314C136.956 8.03519 135.728 7.32202 135.728 7.19366V6.93692C136.381 6.92265 136.708 6.7515 136.708 6.42344L136.218 6.44484V6.1881H136.708V5.93136L136.474 5.43928C137.737 4.9258 138.879 4.66193 139.901 4.64767L141.859 4.62627C146.117 4.5407 148.245 5.56765 148.245 7.70713C148.401 7.70713 148.479 7.94961 148.479 8.43456V9.41872C148.479 9.54709 147.827 10.139 146.521 11.1945H145.797C145.627 11.1945 145.542 11.116 145.542 10.9591C144.066 11.4726 143.328 11.8934 143.328 12.2214H143.583C151.46 11.2658 156.285 10.6097 158.059 10.2531C160.343 11.0946 161.486 11.979 161.486 12.9061C161.486 15.6874 160.585 17.0995 158.782 17.1423C157.15 16.8285 155.682 16.6858 154.376 16.7144L151.928 16.7571C151.928 16.9854 151.431 17.5702 150.438 18.5115C150.282 18.7968 150.204 19.1248 150.204 19.4957V21.2287L151.438 21.4426H151.673C151.999 21.4426 152.162 21.2786 152.162 20.9505C151.822 20.2944 151.417 19.9735 150.949 19.9878V19.731L150.438 19.7524V19.4957ZM140.39 18.1906C140.39 18.6898 140.476 18.9323 140.646 18.918C140.319 21.2001 140.156 23.1756 140.156 24.8444C142.058 25.472 143.527 25.7786 144.563 25.7644C145.215 25.4221 145.542 24.9228 145.542 24.2667C145.386 21.8277 145.308 20.1875 145.308 19.3459C144.981 19.3459 144.648 18.6898 144.307 17.3776L140.39 18.1906Z" fill="#29517F"/>
<path d="M184.599 39.1361C184.926 40.919 185.089 42.2313 185.089 43.0728L185.6 43.0514V41.5752L184.855 39.1361H184.599ZM185.344 37.1464L185.089 38.3873L185.344 39.8636L185.834 39.8422C185.678 38.3873 185.6 37.4887 185.6 37.1464H185.344ZM198.095 34.4507L197.606 42.3454C197.776 43.0015 197.861 43.5791 197.861 44.0784C198.911 43.0657 199.479 42.5593 199.564 42.5593V42.8161L199.33 43.3081H199.564C199.621 42.9801 199.784 42.8089 200.054 42.7947V43.2867L200.799 42.7947H201.033L200.543 43.7788H201.033C203.006 43.5791 203.992 43.1512 203.992 42.4951V42.2384C203.736 42.2384 202.998 42.4167 201.778 42.7733C199.933 42.8018 198.791 41.5894 198.351 39.1361H198.585C198.869 39.293 199.195 39.3715 199.564 39.3715L198.585 38.3873H198.84L199.33 38.6227V38.3873C199.004 38.3873 198.84 38.2233 198.84 37.8952L200.309 38.1092C202.92 38.0664 204.226 37.8025 204.226 37.3176V36.3334H203.992L201.288 37.1036C199.33 36.8184 198.351 35.9341 198.351 34.4507H198.095ZM198.351 33.2312V33.7233L199.33 33.9372C199.33 33.709 199.082 33.4665 198.585 33.2098L198.351 33.2312ZM198.84 30.0005C198.84 30.6709 198.677 31.6622 198.351 32.9744L199.075 32.953V32.7177H198.585V32.4824L199.075 32.461C199.245 32.461 199.493 32.5394 199.82 32.6963C202.19 32.3255 203.58 32.14 203.992 32.14V31.8833L203.736 30.6638L201.288 31.6907C200.565 31.4197 199.749 30.8563 198.84 30.0005ZM187.303 29.7224V29.9578C187.303 30.785 187.388 32.0188 187.558 33.6591H187.792L188.048 32.4182H188.282V33.1456C188.608 33.1456 188.772 32.9816 188.772 32.6535L189.261 32.8889C189.517 32.8889 190.169 32.0545 191.22 30.3857C190.907 30.5568 190.666 30.6424 190.496 30.6424L187.303 29.7224ZM202.012 25.529L202.502 26.2565H202.012V26.5132L202.757 26.4918C204.716 26.3777 205.695 26.1138 205.695 25.7002C205.539 25.7002 205.461 25.7858 205.461 25.9569C204.325 25.6431 203.339 25.4934 202.502 25.5076L202.012 25.529ZM190.24 18.0836C190.24 19.7382 189.261 20.9077 187.303 21.5924L187.069 22.0845V23.5607L188.282 23.5393C189.9 23.5108 190.964 24.7232 191.475 27.1764C191.305 28.346 191.22 29.3373 191.22 30.1503C191.943 29.4229 193.334 27.426 195.392 24.1598V23.903C193.661 24.4308 192.44 24.7018 191.731 24.716C190.553 24.7303 189.566 23.7604 188.772 21.8063H189.027C190.985 21.2786 191.965 20.8507 191.965 20.5226C191.142 19.3103 190.73 18.4973 190.73 18.0836H190.24ZM194.902 17.998C195.073 18.9109 195.158 19.567 195.158 19.9664H196.137L197.861 19.6882V17.4632C197.549 17.4632 196.563 17.6415 194.902 17.998ZM201.778 16.9069C201.608 18.1763 201.359 19.1676 201.033 19.8808L201.523 20.8436C201.352 22.17 200.863 22.8404 200.054 22.8547C200.55 24.3951 200.799 25.3721 200.799 25.7858C200.302 25.9569 199.564 26.5488 198.585 27.5615L198.84 27.5401C200.472 26.3706 201.452 25.7786 201.778 25.7644L201.523 25.2723C203.651 24.7873 204.716 23.9529 204.716 22.7691C204.716 22.441 204.063 21.8776 202.757 21.0789L202.502 19.3459L203.481 19.3245C202.672 18.1122 202.268 17.2991 202.268 16.8855L201.778 16.9069ZM206.44 16.8213L206.674 18.5329L209.612 18.2334H209.867V16.7571L209.612 16.2651C208.15 16.6216 207.093 16.8071 206.44 16.8213ZM202.012 13.933V14.4251C202.339 14.4251 202.502 14.2611 202.502 13.933H202.012ZM187.792 11.7294L187.303 15.1739H187.558L188.537 14.9172C189.006 15.0028 189.659 15.4021 190.496 16.1153C191.064 15.1169 191.801 14.6105 192.71 14.5963L193.689 14.5749L194.413 15.067L195.647 15.0456C194.824 14.5036 194.413 14.0186 194.413 13.5907V13.334C192.937 14.1755 191.872 14.6034 191.22 14.6177C190.638 14.6319 189.495 13.6692 187.792 11.7294ZM202.012 9.5043C202.012 10.0748 201.445 10.7452 200.309 11.5154H200.054V11.0233C198.592 11.0519 197.861 12.0503 197.861 14.0186C198.386 13.5194 198.791 13.2627 199.075 13.2484C200.139 13.5622 200.877 13.7119 201.288 13.6977C202.594 12.5138 203.247 11.8506 203.247 11.708C202.75 10.8236 202.502 10.0891 202.502 9.5043H202.012ZM207.164 3.00027C208.583 2.986 209.647 3.54227 210.357 4.66906V5.90997L209.377 7.15087L213.294 6.35926C215.749 7.08668 216.977 8.21348 216.977 9.73964C216.594 10.895 216.267 11.4726 215.998 11.4726L214.529 11.494C213.706 11.5083 212.727 11.6937 211.591 12.0503H211.336V11.8149C211.833 11.8007 212.322 11.4584 212.805 10.788L212.315 10.5526L210.846 11.5582L210.612 11.5796C210.612 11.166 210.939 10.9092 211.591 10.8094V10.574H211.336C209.576 10.6026 207.944 11.6153 206.44 13.6121C206.113 13.6692 205.95 13.8403 205.95 14.1256C207.923 14.0828 209.555 13.391 210.846 12.0503C211.896 12.036 213.202 12.6707 214.763 13.9544C213.784 15.7944 213.294 17.5274 213.294 19.1534H213.55L212.805 21.1431L210.846 21.1859L211.336 21.9133C211.336 23.0544 210.357 23.6463 208.398 23.6891L207.653 24.6732H207.909C208.647 24.0029 209.214 23.6677 209.612 23.6677C208.618 24.8373 207.802 25.4221 207.164 25.4221V25.6788L207.653 25.6574C210.364 25.1297 211.918 24.8587 212.315 24.8444C214.117 25.6717 215.019 26.7271 215.019 28.0108C215.019 28.995 214.366 29.5798 213.06 29.7652C212.762 29.7652 211.286 29.7082 208.632 29.594V31.327C210.108 31.1273 210.846 30.9491 210.846 30.7922C211.3 30.7779 212.443 31.6622 214.274 33.4451C214.274 33.9871 212.89 34.8286 210.123 35.9697C210.123 36.1409 210.037 36.2264 209.867 36.2264H209.612L209.867 35.7344V35.2423L208.632 35.2637V36.9753L211.591 36.6971L211.826 36.6757C212.748 36.6615 213.89 37.5458 215.253 39.3287V39.5854C215.253 40.4412 213.046 40.969 208.632 41.1687V42.6449C210.548 42.6164 212.429 42.1742 214.274 41.3184C215.366 41.3042 216.353 42.6021 217.232 45.2123C216.736 45.9825 216.487 46.4817 216.487 46.7099C213.465 46.5958 211.258 46.553 209.867 46.5815H209.122C204.694 46.6671 201.757 47.3803 200.309 48.721H199.564C198.755 48.7353 198.351 48.5 198.351 48.015H198.095V48.2503C198.266 49.3771 198.351 50.2829 198.351 50.9675V51.4596C198.351 52.0586 197.201 52.5721 194.902 53C194.505 52.4295 193.774 51.0459 192.71 48.8494C193.036 48.3074 193.199 47.8938 193.199 47.6085C193.199 44.328 193.441 39.7209 193.923 33.7874V33.5521H193.689C192.738 35.5347 191.674 36.5402 190.496 36.5688C189.488 36.583 188.587 35.6916 187.792 33.8944H187.558V37.5957C187.558 39.4214 187.721 42.3739 188.048 46.4532C187.125 48.7781 185.813 49.9548 184.11 49.9833C182.478 49.1561 181.662 47.8581 181.662 46.0895C182.158 44.3351 182.407 43.2582 182.407 42.8588V38.1734C179.654 42.1671 177.61 44.1782 176.276 44.2067C175.084 44.221 173.935 42.8446 172.828 40.0775C177.866 34.358 180.895 29.6226 181.917 25.8713V25.636C179.221 27.3191 177.504 28.1677 176.766 28.182C174.311 27.7684 173.083 26.884 173.083 25.529C173.083 23.033 173.984 21.4569 175.786 20.8008C175.829 20.487 176.319 20.2302 177.255 20.0306L176.766 20.7794H177.255L177 21.2715V21.5282C179.952 19.8309 181.428 18.7326 181.428 18.2334C181.257 13.1557 180.931 10.6168 180.448 10.6168H180.193L179.703 10.8736V10.3815L179.214 10.6382H178.958V10.4029C179.37 9.53282 180.519 8.11363 182.407 6.14531L184.365 6.12391C186.678 6.08112 188.069 6.87273 188.537 8.49874C188.864 9.04074 189.027 9.45438 189.027 9.73964L189.261 9.71825C189.815 9.71825 190.389 9.46864 190.985 8.96943L191.22 8.94803L190.985 9.46151C191.142 9.44724 191.22 9.52569 191.22 9.69685C191.064 9.69685 190.985 9.78243 190.985 9.95359L191.22 9.93219C192.823 9.41872 193.81 9.15485 194.179 9.14059V8.41316C193.355 7.52884 192.944 7.04389 192.944 6.95831V6.70157L193.923 6.44484L193.689 5.95275C194.171 5.93849 194.413 5.76733 194.413 5.43928L195.647 5.41788C196.797 5.40362 197.698 6.20949 198.351 7.8355L200.054 7.55737H200.309C200.934 7.55737 201.664 7.95674 202.502 8.75548L203.247 8.73408V8.49874C202.75 8.513 202.502 8.35611 202.502 8.02805L202.991 8.00666L202.757 7.51458L203.992 7.74992L205.205 7.72853C205.532 7.71426 205.695 7.5431 205.695 7.21505V6.72297C205.695 5.53912 205.127 4.8117 203.992 4.5407V4.30535C205.808 3.44956 206.866 3.01453 207.164 3.00027Z" fill="#29517F"/>
<defs>
<filter id="filter0_i_3_1738" x="0" y="0.0483398" width="41.2324" height="52.9991" filterUnits="userSpaceOnUse" color-interpolation-filters="sRGB">
<feFlood flood-opacity="0" result="BackgroundImageFix"/>
<feBlend mode="normal" in="SourceGraphic" in2="BackgroundImageFix" result="shape"/>
<feColorMatrix in="SourceAlpha" type="matrix" values="0 0 0 0 0 0 0 0 0 0 0 0 0 0 0 0 0 0 127 0" result="hardAlpha"/>
<feOffset/>
<feGaussianBlur stdDeviation="1.45205"/>
<feComposite in2="hardAlpha" operator="arithmetic" k2="-1" k3="1"/>
<feColorMatrix type="matrix" values="0 0 0 0 0.079132 0 0 0 0 0.17406 0 0 0 0 0.358333 0 0 0 0.3 0"/>
<feBlend mode="normal" in2="shape" result="effect1_innerShadow_3_1738"/>
</filter>
</defs>
</svg>
