<svg width="28" height="56" viewBox="0 0 28 56" fill="none" xmlns="http://www.w3.org/2000/svg">
<path fill-rule="evenodd" clip-rule="evenodd" d="M13.7838 24C15.8735 24 17.5676 25.7298 17.5676 27.8637L17.5676 42.0822C17.5676 44.2161 15.8735 45.9459 13.7838 45.9459C11.6941 45.9459 10 44.2161 10 42.0822L10 27.8637C10 25.7298 11.6941 24 13.7838 24Z" fill="black" fill-opacity="0.3"/>
<path fill-rule="evenodd" clip-rule="evenodd" d="M23.3846 42L23.3846 14C23.3846 8.81702 19.183 4.61538 14 4.61538C8.81702 4.61538 4.61538 8.81702 4.61538 14L4.61538 42C4.61538 47.183 8.81702 51.3846 14 51.3846C19.183 51.3846 23.3846 47.183 23.3846 42ZM14 -1.04161e-09C6.26801 -4.66346e-10 -4.65945e-10 6.26801 -1.04072e-09 14L-3.12215e-09 42C-3.69693e-09 49.732 6.26801 56 14 56C21.732 56 28 49.732 28 42L28 14C28 6.26801 21.732 -1.61688e-09 14 -1.04161e-09Z" fill="black" fill-opacity="0.3"/>
</svg>
