<svg width="28" height="56" viewBox="0 0 28 56" fill="none" xmlns="http://www.w3.org/2000/svg">
<path fill-rule="evenodd" clip-rule="evenodd" d="M13.7838 10.5947C15.8735 10.5947 17.5676 12.3246 17.5676 14.4585L17.5676 18.501C17.5676 20.6349 15.8735 22.3647 13.7838 22.3647C11.6941 22.3647 10 20.6349 10 18.501L10 14.4584C10 12.3246 11.6941 10.5947 13.7838 10.5947Z" fill="black" fill-opacity="0.3"/>
<path fill-rule="evenodd" clip-rule="evenodd" d="M23.3846 42L23.3846 14C23.3846 8.81702 19.183 4.61538 14 4.61538C8.81702 4.61538 4.61538 8.81702 4.61538 14L4.61538 42C4.61538 47.183 8.81702 51.3846 14 51.3846C19.183 51.3846 23.3846 47.183 23.3846 42ZM14 -1.04161e-09C6.26801 -4.66346e-10 -4.65945e-10 6.26801 -1.04072e-09 14L-3.12215e-09 42C-3.69693e-09 49.732 6.26801 56 14 56C21.732 56 28 49.732 28 42L28 14C28 6.26801 21.732 -1.61688e-09 14 -1.04161e-09Z" fill="black" fill-opacity="0.3"/>
</svg>
