<svg width="292" height="288" viewBox="0 0 292 288" fill="none" xmlns="http://www.w3.org/2000/svg">
<g filter="url(#filter0_d_124_1009)">
<path fill-rule="evenodd" clip-rule="evenodd" d="M166.72 105.309C178.905 98.2861 187.108 85.1274 187.108 70.053C187.108 67.9704 186.951 65.9244 186.649 63.926C184.898 64.9359 183.201 66.0893 181.573 67.3879C169.787 76.7865 164.613 91.4036 166.72 105.309ZM153.96 110.023C151.524 110.479 149.012 110.717 146.444 110.717C143.876 110.717 141.363 110.479 138.927 110.023C142.855 90.7543 136.092 70.0221 119.662 56.9196C116.759 54.604 113.69 52.6358 110.506 51.0093C117.336 38.1481 130.867 29.3893 146.444 29.3893C162.021 29.3893 175.552 38.1479 182.382 51.0089C179.198 52.6355 176.129 54.6039 173.225 56.9198C156.794 70.0223 150.031 90.7545 153.96 110.023ZM195.075 46.4296C186.308 28.415 167.826 16 146.444 16C125.062 16 106.58 28.415 97.8129 46.4297C78.2621 42.052 57.032 48.7613 43.7005 65.4784C30.3691 82.1955 28.5521 104.386 37.1704 122.473C21.5579 135.029 13.5666 155.81 18.3246 176.656C23.0824 197.502 39.2983 212.758 58.8117 217.297C58.8945 237.331 70.1596 256.536 89.4239 265.813C108.688 275.09 130.727 271.924 146.442 259.497C162.157 271.924 184.196 275.09 203.461 265.813C222.725 256.536 233.991 237.331 234.073 217.296C253.587 212.757 269.803 197.501 274.561 176.655C279.319 155.809 271.328 135.028 255.717 122.472C264.335 104.386 262.518 82.1954 249.186 65.4786C235.855 48.7618 214.626 42.0525 195.075 46.4296ZM199.409 59.2089C200.123 62.7123 200.497 66.3389 200.497 70.053C200.497 91.0681 188.504 109.282 170.989 118.225C172.152 120.413 173.533 122.526 175.134 124.533C176.735 126.541 178.487 128.357 180.362 129.978C192.978 114.892 213.403 107.253 233.892 111.929C237.513 112.756 240.965 113.928 244.222 115.403C250.019 102.045 248.43 86.0051 238.718 73.8267C229.006 61.6483 213.722 56.53 199.409 59.2089ZM236.784 126.793C234.903 126.054 232.943 125.446 230.912 124.983C216.216 121.628 201.562 126.697 192.003 137.014C205.092 142.162 220.494 140.371 232.279 130.972C233.908 129.674 235.41 128.276 236.784 126.793ZM173.074 141.335C171.393 144.863 170.072 148.63 169.166 152.599C168.26 156.569 167.816 160.536 167.799 164.445C163.993 165.331 160.224 166.646 156.555 168.413C152.887 170.179 149.509 172.306 146.442 174.73C143.376 172.306 139.998 170.179 136.329 168.413C132.661 166.646 128.893 165.331 125.087 164.445C125.07 160.537 124.626 156.57 123.72 152.6C122.814 148.631 121.493 144.864 119.812 141.335C122.857 138.885 125.682 136.065 128.221 132.881C130.76 129.698 132.881 126.317 134.592 122.802C138.406 123.656 142.372 124.106 146.444 124.106C150.515 124.106 154.481 123.656 158.295 122.803C160.006 126.317 162.127 129.698 164.666 132.882C167.204 136.065 170.029 138.885 173.074 141.335ZM184.568 148.405C202.48 156.523 224.197 154.543 240.627 141.44C243.531 139.125 246.133 136.571 248.428 133.828C259.446 143.348 264.974 158.489 261.508 173.675C258.042 188.862 246.491 200.105 232.432 203.902C231.555 200.436 230.319 197.006 228.708 193.66C219.59 174.727 200.883 163.52 181.223 163.062C181.321 160.585 181.648 158.083 182.219 155.578C182.791 153.075 183.582 150.678 184.568 148.405ZM111.314 67.3878C109.686 66.0895 107.989 64.9363 106.239 63.9266C105.937 65.9248 105.78 67.9706 105.78 70.053C105.78 85.1269 113.982 98.2851 126.167 105.308C128.273 91.403 123.1 76.7862 111.314 67.3878ZM92.3911 70.053C92.3911 66.3389 92.7657 62.7124 93.4791 59.209C79.1656 56.5295 63.8809 61.6477 54.1687 73.8265C44.4564 86.0053 42.8677 102.046 48.6651 115.404C51.9216 113.929 55.3737 112.757 58.9945 111.931C79.4823 107.254 99.908 114.893 112.524 129.978C114.399 128.358 116.152 126.541 117.753 124.533C119.354 122.525 120.735 120.412 121.898 118.224C104.383 109.281 92.3911 91.0676 92.3911 70.053ZM216.645 199.47C210.104 185.889 197.006 177.592 182.98 176.551C187.116 189.993 198.119 200.917 212.815 204.271C214.845 204.734 216.874 205.037 218.889 205.187C218.294 203.256 217.548 201.346 216.645 199.47ZM209.836 217.325C189.348 212.648 174.26 196.904 169.438 177.839C167.046 178.486 164.679 179.362 162.365 180.476C160.051 181.591 157.89 182.895 155.893 184.363C167.793 200.019 170.695 221.632 161.577 240.566C159.965 243.912 158.054 247.017 155.891 249.864C167.625 258.488 183.617 260.508 197.651 253.75C211.686 246.991 220.077 233.228 220.65 218.677C217.075 218.593 213.457 218.151 209.836 217.325ZM136.992 184.362C134.995 182.895 132.834 181.59 130.52 180.476C128.207 179.362 125.84 178.486 123.448 177.84C118.627 196.905 103.538 212.65 83.0503 217.326C79.429 218.153 75.8096 218.594 72.235 218.678C72.808 233.229 81.199 246.991 95.2333 253.75C109.268 260.508 125.26 258.488 136.993 249.863C134.83 247.017 132.919 243.912 131.308 240.566C122.19 221.632 125.092 200.019 136.992 184.362ZM146.442 240.077C145.303 238.408 144.275 236.632 143.371 234.756C136.831 221.175 138.511 205.761 146.442 194.147C154.373 205.761 156.054 221.175 149.513 234.756C148.61 236.632 147.581 238.408 146.442 240.077ZM80.0709 204.273C94.7673 200.918 105.771 189.993 109.906 176.551C95.8803 177.591 82.7805 185.888 76.2399 199.47C75.3363 201.346 74.5896 203.257 73.9946 205.189C76.0103 205.039 78.0402 204.736 80.0709 204.273ZM64.1766 193.66C73.2948 174.726 92.0028 163.519 111.663 163.062C111.565 160.586 111.238 158.083 110.667 155.58C110.095 153.076 109.304 150.679 108.318 148.405C90.4062 156.523 68.6892 154.543 52.2593 141.44C49.3556 139.125 46.7539 136.571 44.4597 133.829C33.4402 143.349 27.9119 158.49 31.3782 173.677C34.8443 188.863 46.3939 200.106 60.4518 203.902C61.3291 200.436 62.5651 197.006 64.1766 193.66ZM100.882 137.015C91.3233 126.698 76.6698 121.63 61.9738 124.984C59.9439 125.447 57.9843 126.055 56.1036 126.794C57.4776 128.276 58.9794 129.674 60.6074 130.972C72.3926 140.37 87.7938 142.162 100.882 137.015Z" fill="#152F63" fill-opacity="0.1"/>
</g>
<defs>
<filter id="filter0_d_124_1009" x="0.991523" y="0.0340033" width="290.903" height="287.11" filterUnits="userSpaceOnUse" color-interpolation-filters="sRGB">
<feFlood flood-opacity="0" result="BackgroundImageFix"/>
<feColorMatrix in="SourceAlpha" type="matrix" values="0 0 0 0 0 0 0 0 0 0 0 0 0 0 0 0 0 0 127 0" result="hardAlpha"/>
<feOffset/>
<feGaussianBlur stdDeviation="7.983"/>
<feComposite in2="hardAlpha" operator="out"/>
<feColorMatrix type="matrix" values="0 0 0 0 1 0 0 0 0 1 0 0 0 0 1 0 0 0 0.2 0"/>
<feBlend mode="normal" in2="BackgroundImageFix" result="effect1_dropShadow_124_1009"/>
<feBlend mode="normal" in="SourceGraphic" in2="effect1_dropShadow_124_1009" result="shape"/>
</filter>
</defs>
</svg>
