<svg width="195" height="66" viewBox="0 0 195 66" fill="none" xmlns="http://www.w3.org/2000/svg">
<path d="M29.0153 51.6608L29.6341 51.6327V51.0136C29.2216 51.0887 29.0153 51.3044 29.0153 51.6608ZM7.94603 51.3794L7.6366 52.0266L9.83073 52.308L10.1402 52.2798V51.9703L7.94603 51.3794ZM28.087 50.7323V51.0418L28.7059 51.0136V50.7041L28.087 50.7323ZM26.8212 50.1132V50.4227H27.44V50.1132H26.8212ZM42.5458 47.3276V50.7885H42.8552V47.3276H42.5458ZM20.5201 45.4987V49.6068L20.8295 49.5786V45.4987H20.5201ZM29.9717 51.9422C32.4846 52.73 34.3693 53.1146 35.6258 53.0958H35.9352C36.7791 53.077 37.2011 49.9256 37.2011 43.6416C34.4819 47.6184 32.0721 50.3852 29.9717 51.9422ZM15.1754 43.3884C15.1754 43.8948 13.1876 46.2396 9.21187 50.4227C9.54943 51.1731 11.331 51.6702 14.5565 51.914C15.1754 50.7885 15.4848 48.2655 15.4848 44.345V43.3884H15.1754ZM36.8917 42.0659C36.8917 42.3473 36.3666 43.304 35.3164 44.9359H35.6258L37.2011 42.3754V42.0659H36.8917ZM41.8988 41.053V43.8667C41.8988 45.555 41.7956 47.5527 41.5893 49.86V50.1695H41.8988C42.3301 47.806 42.5458 45.0766 42.5458 41.9815C42.3395 41.5688 42.2363 41.2499 42.2363 41.0248L41.8988 41.053ZM20.2106 41.1092C20.0044 42.1597 19.7981 44.6827 19.5918 48.6782V48.9877H19.9012C20.3138 46.0802 20.5201 43.5572 20.5201 41.4187V41.1092H20.2106ZM29.3247 38.1267C29.531 38.8957 29.6341 39.8337 29.6341 40.9404H29.9717L30.2811 39.3647C29.9623 38.5206 29.6435 38.1079 29.3247 38.1267ZM22.4048 31.3174V35.3973L25.2459 34.722C26.4273 34.7033 27.6838 35.5192 29.0153 37.17C29.3341 37.17 30.5906 35.9976 32.7847 33.6528L37.2011 35.7912V33.2589L36.8917 31.0641C34.7913 31.7394 32.1658 33.0431 29.0153 34.9753L28.3964 35.0034C26.2961 34.647 25.2459 32.9869 25.2459 30.0231C23.3518 30.417 22.4048 30.8484 22.4048 31.3174ZM11.0966 24.5925H11.7154V24.902H11.0966V24.5925ZM36.2447 2.44831C42.5458 3.93022 45.6963 6.29377 45.6963 9.53896L44.4305 10.8051V21.8069H44.7399C46.2776 20.7377 47.6373 19.978 48.8187 19.5278C52.3818 21.3661 54.1634 23.7484 54.1634 26.6747C53.4508 28.3629 52.9351 29.2164 52.6162 29.2352L50.7034 29.2633C49.3532 29.2821 47.2622 29.4228 44.4305 29.6854V32.8368C53.2632 40.4339 60.4926 44.9172 66.1186 46.2865V46.596L62.9962 46.6523V46.9618C64.5339 46.9431 65.3684 47.2432 65.4997 47.8622L63.615 47.8904C62.7336 47.9091 61.5803 47.8247 60.155 47.6371H59.8456V47.9748L61.7303 48.2562V48.5657L58.2703 48.6219C58.2703 49.0346 59.0017 49.2316 60.4645 49.2128V49.5223C59.433 49.5411 58.1766 49.6724 56.6951 49.9163V50.2258L58.8892 50.1695C58.8704 50.4696 57.614 51.1262 55.1198 52.1391C55.1198 52.5518 54.5947 52.7675 53.5445 52.7863C51.7817 52.3924 48.7437 49.4098 44.4305 43.8386V44.1481C44.6367 49.4567 44.7399 53.3303 44.7399 55.7689C44.7399 58.7139 42.6395 61.0587 38.4388 62.8032L37.2011 62.8314L33.4317 57.851C31.5376 56.2191 30.3843 55.4031 29.9717 55.4031V55.0936H30.2811C30.675 55.0748 31.4063 55.2718 32.4753 55.6845V55.3749C30.0186 54.6246 28.3402 53.8086 27.44 52.927C29.8217 53.5272 31.1813 53.818 31.5189 53.7992H31.8564V53.4897C28.2933 52.1579 26.5117 51.1356 26.5117 50.4227L24.9365 50.7885L23.3612 50.479L28.087 43.8104C25.0865 43.2289 23.1924 42.7318 22.4048 42.3191V53.6586C22.4048 56.9413 20.3138 59.2767 16.1318 60.6648L15.4848 60.6929L10.4496 54.8122C9.49317 54.4183 8.97746 54.0056 8.90244 53.5741C9.29626 53.5741 10.0276 53.7711 11.0966 54.165V53.8555L6.98961 52.3361C5.67689 53.8368 4.31728 54.5965 2.91078 54.6152C1.24175 53.7523 0.407227 52.2986 0.407227 50.2539C9.18374 41.6814 13.9002 36.1477 14.5565 33.6528H14.2471C11.8842 35.5849 10.1027 36.5603 8.90244 36.5791C7.21465 36.6166 5.32058 34.9753 3.22021 31.655C3.22021 29.6104 5.52686 27.2656 10.1402 24.6207C10.834 25.0333 11.3591 25.2303 11.7154 25.2115V25.5211C11.0966 25.5398 10.7871 25.7555 10.7871 26.1682V26.5059C13.9189 25.7368 15.4848 25.1834 15.4848 24.8458C15.4848 15.823 14.7535 11.321 13.2907 11.3398C13.2907 11.0396 12.9719 10.7395 12.3343 10.4394L11.406 11.0584V10.1298L10.1402 11.396V11.0865C10.1402 9.62337 11.9217 7.8132 15.4848 5.65599C21.1483 6.95031 23.98 9.09814 23.98 12.0995L22.7142 13.3938V20.0061L22.4048 22.2008C23.2487 22.1821 24.8239 22.6792 27.1306 23.6921C27.1306 23.4858 27.2337 23.3826 27.44 23.3826V24.3111L28.087 24.0016V24.6207H28.3964L29.3247 23.9735V24.5925L29.0153 26.1682L36.8917 23.5233C36.6666 23.1106 36.5541 22.8011 36.5541 22.5948C36.5541 14.191 35.8227 9.58586 34.36 8.77925C34.1537 8.16022 33.5254 7.86009 32.4753 7.87885C32.4753 8.29153 32.269 8.50725 31.8564 8.52601V8.18836C32.0627 7.83195 32.1658 7.40989 32.1658 6.92217L30.5906 8.83552V8.2165C30.5906 6.69708 32.3721 4.8869 35.9352 2.78596C35.9352 2.57962 36.0384 2.46707 36.2447 2.44831ZM30.5906 8.83552V9.48269H30.2811V8.86366L30.5906 8.83552ZM10.1402 11.396V12.0432H9.83073V11.4242L10.1402 11.396Z" fill="white"/>
<path d="M76.9148 63.6755H77.5618V64.0132H76.9148V63.6755ZM123.273 62.55H123.92V62.8595L123.273 62.8876V62.55ZM77.5618 50.057H77.8994C78.3119 50.057 81.6594 49.3535 87.9417 47.9466V47.609C81.0218 48.5094 77.5618 49.3254 77.5618 50.057ZM92.4706 31.0079V34.5813C93.2583 34.1311 94.1209 33.8967 95.0586 33.8779L95.7056 34.1874V33.8779C94.2053 32.7899 93.4552 32.1521 93.4552 31.9645H93.7646C93.8771 31.9645 94.3084 32.0677 95.0586 32.2741L95.3961 32.2459V31.9364C95.0023 31.9364 94.0271 31.6269 92.4706 31.0079ZM87.9417 31.7394V34.6657C87.998 35.0972 88.2136 35.3035 88.5887 35.2848L88.8981 33.6528V32.6961L88.5887 31.0923C88.1574 31.1673 87.9417 31.383 87.9417 31.7394ZM92.4706 29.7135V30.3607L94.7491 30.6421C94.7491 30.1356 93.9896 29.8261 92.4706 29.7135ZM89.5451 29.7698V31.7113C89.6201 32.1427 89.8358 32.3585 90.1921 32.3585L90.8672 31.3737V30.7265C90.8672 30.4076 90.539 30.0887 89.8827 29.7698H89.5451ZM106.085 26.8717V27.5188C106.16 27.9503 106.376 28.166 106.732 28.166L108.026 28.1378C108.026 27.7814 107.379 27.3594 106.085 26.8717ZM104.454 26.2526V27.547H104.792V26.2526H104.454ZM106.085 24.9302C106.085 25.1553 106.189 25.2678 106.395 25.2678L106.085 25.915V26.5621C106.798 26.5434 107.342 26.6372 107.717 26.8435V26.534C106.836 26.2151 106.395 25.8962 106.395 25.5773H107.07L107.717 25.8868V25.5492C107.004 25.1365 106.461 24.9302 106.085 24.9302ZM103.807 22.3978C103.807 24.4612 103.704 25.8681 103.498 26.6184L104.145 26.5903V22.3697L103.807 22.3978ZM106.395 21.6944H107.07V22.0039H107.717C112.893 22.7542 115.481 24.1142 115.481 26.0838C115.781 26.0651 116.109 26.9186 116.465 28.6443C115.34 31.9083 113.934 33.5496 112.246 33.5684C108.852 31.4299 107.014 30.0606 106.732 29.4603H107.07L108.673 29.7417V29.4322C108.673 29.0007 107.914 28.6912 106.395 28.5036V28.8131C106.395 29.0382 106.507 29.1508 106.732 29.1508L106.395 29.798V31.4018C106.395 31.6269 106.507 31.7394 106.732 31.7394C105.363 36.5041 103.31 38.9145 100.572 38.9708V39.3084L99.925 38.9708L99.6156 38.9989V39.6461C101.772 39.6086 106.085 39.1021 112.555 38.1267V37.4514L111.908 37.4795V37.1418H112.555L112.246 36.4947H112.555C118.181 37.2638 120.994 38.5112 120.994 40.237C121.426 40.2182 121.641 41.0811 121.641 42.8256C120.591 44.7765 118.969 45.7707 116.775 45.8082L111.908 45.8926C106.939 45.9864 104.454 46.3522 104.454 46.99L126.508 62.1842H126.17C123.451 61.7903 121.51 61.387 120.347 60.9743L120.01 61.0024V61.312C121.716 61.931 122.691 62.2405 122.935 62.2405V62.55L122.288 62.5781C121.801 62.5781 119.86 62.2874 116.465 61.7059H116.128V62.0435L118.406 62.6344V62.9721H117.759C115.134 62.5781 113.615 62.278 113.202 62.0717V62.4093C114.065 62.7094 114.496 63.0283 114.496 63.366L112.893 63.3941C112.105 63.3941 111.13 63.5161 109.967 63.7599C108.467 63.7787 104.688 59.7363 98.6311 51.6327L96.3525 49.4098H96.0431C93.7177 55.2999 90.9047 59.136 87.6042 60.918C84.2473 62.9064 81.4437 63.9287 79.1933 63.985C78.8183 63.985 78.1713 63.7787 77.2524 63.366C76.2585 63.8162 75.1708 64.0507 73.9893 64.0694H73.6799V63.7318C80.0185 60.768 84.9881 55.9283 88.5887 49.2128L88.2512 49.241C81.3312 50.4415 76.9054 51.0511 74.9739 51.0699C73.4548 49.4004 72.6953 47.6934 72.6953 45.9489V44.9641C73.8205 43.5572 75.6583 42.1222 78.2088 40.659C78.6401 40.8654 78.9683 40.9685 79.1933 40.9685L78.8558 41.6157C79.0808 41.6157 79.1933 41.7189 79.1933 41.9252C78.9683 41.944 78.8558 42.0565 78.8558 42.2629L79.5028 42.5724C87.0791 41.6532 90.8672 40.9404 90.8672 40.4339C91.0735 39.6836 91.1767 39.2522 91.1767 39.1396H90.8672C89.3107 39.1584 87.4729 38.6519 85.3538 37.6202V29.1789L85.0162 29.2071C83.3472 34.4219 81.8375 37.0387 80.4873 37.0574H79.5028C78.0963 37.0949 76.6992 35.1816 75.3114 31.3174C75.3114 30.6796 77.0367 28.7006 80.4873 25.3804C81.1249 24.6676 81.4437 24.1236 81.4437 23.7484H81.7813V24.7051L83.4128 24.3674C83.7504 25.4366 84.3974 25.9619 85.3538 25.9431V21.7506C81.6969 22.8011 78.0213 24.1611 74.3269 25.8306C72.9766 25.8493 71.1388 23.7203 68.8134 19.4434C68.8134 18.0177 70.8669 16.3576 74.9739 14.463L75.3114 15.7573C75.0864 15.7573 74.9739 15.8699 74.9739 16.095L75.3114 16.0669L93.7646 12.5215V12.1839L92.8082 12.212L93.1176 11.5649V11.2272L92.4706 11.5649H92.1612L92.4706 9.96102H91.5142L91.8236 8.32905C88.5793 6.62204 86.9572 5.68413 86.9572 5.5153V5.17765C87.8198 5.15889 88.2512 4.93379 88.2512 4.50235L87.6042 4.53049V4.19284H88.2512V3.85519L87.9417 3.20803C89.6108 2.53273 91.1204 2.1857 92.4706 2.16694L95.0586 2.1388C100.685 2.02625 103.498 3.37685 103.498 6.1906C103.704 6.1906 103.807 6.50949 103.807 7.14727V8.4416C103.807 8.61042 102.944 9.3889 101.219 10.777H100.263C100.038 10.777 99.925 10.6738 99.925 10.4675C97.9747 11.1428 96.9995 11.6962 96.9995 12.1276H97.3371C107.745 10.8708 114.121 10.0079 116.465 9.53896C119.485 10.6457 120.994 11.8087 120.994 13.028C120.994 16.6859 119.803 18.543 117.422 18.5992C115.265 18.1866 113.324 17.999 111.599 18.0365L108.364 18.0928C108.364 18.3929 107.708 19.162 106.395 20.4C106.189 20.7752 106.085 21.2066 106.085 21.6944V23.9735L107.717 24.2549H108.026C108.458 24.2549 108.673 24.0392 108.673 23.6077C108.223 22.7448 107.689 22.3228 107.07 22.3415V22.0039L106.395 22.032V21.6944ZM93.1176 19.978C93.1176 20.6345 93.2301 20.9534 93.4552 20.9346C93.0238 23.936 92.8082 26.534 92.8082 28.7287C95.3211 29.5541 97.2621 29.9574 98.6311 29.9386C99.4937 29.4884 99.925 28.8319 99.925 27.969C99.7188 24.7613 99.6156 22.6041 99.6156 21.4974C99.1843 21.4974 98.7436 20.6345 98.2935 18.9087L93.1176 19.978Z" fill="white"/>
<path d="M151.538 47.5246C151.969 49.8694 152.185 51.5951 152.185 52.7019L152.86 52.6737V50.7323L151.875 47.5246H151.538ZM152.522 44.9078L152.185 46.5398L152.522 48.4813L153.169 48.4531C152.963 46.5398 152.86 45.358 152.86 44.9078H152.522ZM169.372 41.3625L168.725 51.7452C168.95 52.6081 169.063 53.3678 169.063 54.0243C170.45 52.6925 171.2 52.0266 171.313 52.0266V52.3642L171.004 53.0114H171.313C171.388 52.5799 171.604 52.3548 171.96 52.3361V52.9833L172.945 52.3361H173.254L172.607 53.6304H173.254C175.861 53.3678 177.164 52.805 177.164 51.9422V51.6045C176.826 51.6045 175.851 51.839 174.239 52.308C171.801 52.3455 170.291 50.751 169.71 47.5246H170.019C170.394 47.7309 170.825 47.8341 171.313 47.8341L170.019 46.5398H170.357L171.004 46.8493V46.5398C170.572 46.5398 170.357 46.324 170.357 45.8926L172.298 46.174C175.748 46.1177 177.473 45.7707 177.473 45.1329V43.8386H177.164L173.592 44.8515C171.004 44.4763 169.71 43.3133 169.71 41.3625H169.372ZM169.71 39.7586V40.4058L171.004 40.6872C171.004 40.387 170.675 40.0681 170.019 39.7305L169.71 39.7586ZM170.357 35.5099C170.357 36.3915 170.141 37.6952 169.71 39.421L170.666 39.3928V39.0833H170.019V38.7738L170.666 38.7457C170.891 38.7457 171.219 38.8489 171.651 39.0552C174.782 38.5675 176.62 38.3236 177.164 38.3236V37.986L176.826 36.3821L173.592 37.7327C172.635 37.3763 171.557 36.6354 170.357 35.5099ZM155.11 35.1441V35.4536C155.11 36.5416 155.223 38.1642 155.448 40.3214H155.757L156.095 38.6894H156.404V39.6461C156.835 39.6461 157.051 39.4304 157.051 38.9989L157.698 39.3084C158.036 39.3084 158.898 38.2111 160.286 36.0163C159.874 36.2414 159.555 36.354 159.33 36.354L155.11 35.1441ZM174.548 29.6291L175.195 30.5858H174.548V30.9235L175.532 30.8953C178.12 30.7453 179.414 30.3982 179.414 29.8542C179.208 29.8542 179.105 29.9668 179.105 30.1919C177.605 29.7792 176.301 29.5822 175.195 29.601L174.548 29.6291ZM158.992 19.8373C158.992 22.0133 157.698 23.5514 155.11 24.4518L154.801 25.099V27.0405L156.404 27.0123C158.542 26.9748 159.949 28.5693 160.624 31.7957C160.399 33.3339 160.286 34.6376 160.286 35.7068C161.243 34.7502 163.08 32.124 165.8 27.8283V27.4907C163.512 28.1847 161.899 28.5411 160.961 28.5599C159.405 28.5787 158.101 27.3031 157.051 24.7332H157.389C159.977 24.0392 161.271 23.4764 161.271 23.045C160.183 21.4505 159.639 20.3813 159.639 19.8373H158.992ZM165.153 19.7247C165.378 20.9253 165.49 21.7882 165.49 22.3134H166.784L169.063 21.9476V19.0213C168.65 19.0213 167.347 19.2558 165.153 19.7247ZM174.239 18.2897C174.013 19.9592 173.685 21.2629 173.254 22.2008L173.901 23.467C173.676 25.2115 173.029 26.0932 171.96 26.1119C172.616 28.1378 172.945 29.4228 172.945 29.9668C172.288 30.1919 171.313 30.9704 170.019 32.3022L170.357 32.2741C172.513 30.7359 173.807 29.9574 174.239 29.9386L173.901 29.2915C176.714 28.6537 178.12 27.5563 178.12 25.9994C178.12 25.568 177.258 24.827 175.532 23.7765L175.195 21.4974L176.489 21.4693C175.42 19.8748 174.885 18.8056 174.885 18.2616L174.239 18.2897ZM180.399 18.1772L180.708 20.4282L184.59 20.0342H184.928V18.0928L184.59 17.4456C182.659 17.9146 181.262 18.1584 180.399 18.1772ZM174.548 14.3786V15.0258C174.979 15.0258 175.195 14.8101 175.195 14.3786H174.548ZM155.757 11.4804L155.11 16.0106H155.448L156.742 15.6729C157.361 15.7855 158.223 16.3107 159.33 17.2486C160.08 15.9356 161.055 15.2696 162.255 15.2509L163.549 15.2227L164.506 15.8699L166.137 15.8418C165.049 15.1289 164.506 14.4912 164.506 13.9284V13.5908C162.555 14.6975 161.149 15.2603 160.286 15.279C159.517 15.2978 158.008 14.0316 155.757 11.4804ZM174.548 8.55415C174.548 9.30448 173.798 10.1861 172.298 11.1991H171.96V10.5519C170.028 10.5894 169.063 11.9025 169.063 14.4912C169.756 13.8346 170.291 13.497 170.666 13.4782C172.073 13.8909 173.048 14.0879 173.592 14.0691C175.317 12.5122 176.179 11.6399 176.179 11.4523C175.523 10.2893 175.195 9.32324 175.195 8.55415H174.548ZM181.355 0.000351719C183.231 -0.0184066 184.637 0.713168 185.575 2.19508V3.82705L184.281 5.45903L189.457 4.41794C192.701 5.37461 194.323 6.85652 194.323 8.86366C193.817 10.3831 193.386 11.1428 193.029 11.1428L191.088 11.1709C190.001 11.1897 188.707 11.4336 187.206 11.9025H186.869V11.593C187.525 11.5742 188.172 11.124 188.81 10.2424L188.163 9.93289L186.222 11.2553L185.912 11.2835C185.912 10.7395 186.344 10.4018 187.206 10.2705V9.96102H186.869C184.543 9.99854 182.387 11.3304 180.399 13.9565C179.968 14.0316 179.752 14.2567 179.752 14.6318C182.359 14.5756 184.515 13.6658 186.222 11.9025C187.61 11.8838 189.335 12.7185 191.398 14.4067C190.104 16.8266 189.457 19.1057 189.457 21.2442H189.794L188.81 23.8609L186.222 23.9172L186.869 24.8739C186.869 26.3746 185.575 27.153 182.987 27.2093L182.002 28.5036H182.34C183.315 27.622 184.065 27.1812 184.59 27.1812C183.278 28.7194 182.199 29.4884 181.355 29.4884V29.8261L182.002 29.798C185.584 29.1039 187.638 28.7475 188.163 28.7287C190.544 29.8167 191.735 31.2048 191.735 32.8931C191.735 34.1874 190.873 34.9565 189.147 35.2004C188.754 35.2004 186.803 35.1253 183.296 34.9753V37.2544C185.247 36.9918 186.222 36.7573 186.222 36.551C186.822 36.5322 188.332 37.6952 190.751 40.04C190.751 40.7528 188.922 41.8596 185.265 43.3602C185.265 43.5853 185.153 43.6979 184.928 43.6979H184.59L184.928 43.0507V42.4036L183.296 42.4317V44.6827L187.206 44.3169L187.516 44.2888C188.735 44.27 190.244 45.433 192.045 47.7778V48.1155C192.045 49.241 189.129 49.935 183.296 50.1976V52.1391C185.828 52.1016 188.313 51.5201 190.751 50.3946C192.195 50.3758 193.498 52.0829 194.661 55.5156C194.004 56.5286 193.676 57.1851 193.676 57.4853C189.682 57.3352 186.766 57.2789 184.928 57.3164H183.943C178.092 57.429 174.21 58.3669 172.298 60.1302H171.313C170.244 60.1489 169.71 59.8394 169.71 59.2016H169.372V59.5112C169.597 60.9931 169.71 62.1842 169.71 63.0846V63.7318C169.71 64.5196 168.191 65.1949 165.153 65.7577C164.627 65.0073 163.662 63.1878 162.255 60.299C162.687 59.5862 162.902 59.0422 162.902 58.667C162.902 54.3526 163.221 48.2937 163.859 40.4902V40.1807H163.549C162.293 42.7881 160.886 44.1106 159.33 44.1481C157.998 44.1668 156.807 42.9944 155.757 40.6309H155.448V45.4987C155.448 47.8997 155.663 51.7827 156.095 57.1476C154.876 60.2052 153.141 61.7528 150.891 61.7903C148.734 60.7023 147.656 58.9953 147.656 56.6693C148.312 54.362 148.64 52.9457 148.64 52.4205V46.2584C145.002 51.5107 142.302 54.1556 140.539 54.1932C138.964 54.2119 137.445 52.4017 135.982 48.7626C142.639 41.2405 146.643 35.0128 147.993 30.0793V29.7698C144.43 31.9833 142.161 33.0994 141.186 33.1182C137.942 32.5742 136.319 31.4112 136.319 29.6291C136.319 26.3464 137.51 24.2736 139.892 23.4107C139.948 22.9981 140.595 22.6604 141.833 22.3978L141.186 23.3826H141.833L141.495 24.0298V24.3674C145.396 22.1352 147.346 20.6908 147.346 20.0342C147.121 13.3563 146.69 10.0173 146.052 10.0173H145.715L145.068 10.3549V9.70779L144.421 10.0454H144.083V9.73592C144.627 8.59167 146.146 6.72521 148.64 4.13656L151.228 4.10843C154.285 4.05215 156.123 5.09324 156.742 7.23169C157.173 7.9445 157.389 8.4885 157.389 8.86366L157.698 8.83552C158.43 8.83552 159.189 8.50725 159.977 7.85071L160.286 7.82258L159.977 8.49788C160.183 8.47912 160.286 8.58229 160.286 8.80739C160.08 8.80739 159.977 8.91994 159.977 9.14504L160.286 9.1169C162.405 8.4416 163.709 8.09457 164.196 8.07581V7.11914C163.108 5.95612 162.565 5.31834 162.565 5.20579V4.86814L163.859 4.53049L163.549 3.88333C164.187 3.86457 164.506 3.63947 164.506 3.20803L166.137 3.17989C167.656 3.16113 168.847 4.22098 169.71 6.35943L171.96 5.99364H172.298C173.123 5.99364 174.088 6.51887 175.195 7.56934L176.179 7.5412V7.23169C175.523 7.25045 175.195 7.0441 175.195 6.61266L175.842 6.58453L175.532 5.93736L177.164 6.24688L178.767 6.21874C179.199 6.19998 179.414 5.97488 179.414 5.54344V4.89628C179.414 3.33933 178.664 2.38266 177.164 2.02625V1.71674C179.564 0.591239 180.962 0.01911 181.355 0.000351719Z" fill="white"/>
</svg>
