<svg width="157" height="37" viewBox="0 0 157 37" fill="none" xmlns="http://www.w3.org/2000/svg">
<path d="M11.9023 23.3633C11.9674 23.5065 12.0911 23.6042 12.2734 23.6563C12.4557 23.6953 12.6706 23.7148 12.918 23.7148C13.3997 23.7018 13.8555 23.806 14.2852 24.0273C14.7279 24.2357 14.9622 24.776 14.9883 25.6484C14.9622 27.0938 14.7799 28.6823 14.4414 30.4141C14.1029 32.1328 13.5104 33.3047 12.6641 33.9297C12.4948 34.0339 12.2148 34.125 11.8242 34.2031C11.4466 34.2943 11.043 34.3659 10.6133 34.418C10.1836 34.4701 9.8125 34.5091 9.5 34.5352L9.03125 34.5742L10.0664 33.0703C10.4961 32.4323 10.8672 31.7747 11.1797 31.0977C10.6719 31.0846 10.2487 31.1237 9.91016 31.2148C9.50651 31.319 9.1875 31.4297 8.95313 31.5469C8.78385 31.625 8.64063 31.6771 8.52344 31.7031C8.41927 31.7292 8.32813 31.7031 8.25 31.625C8.14583 31.5078 8.04818 31.332 7.95703 31.0977C7.86589 30.8633 7.78776 30.6224 7.72266 30.375C7.67057 30.1276 7.63802 29.9323 7.625 29.7891C7.625 29.6328 7.66406 29.5807 7.74219 29.6328C7.82031 29.6849 8.04818 29.6654 8.42578 29.5742C8.4388 29.5742 8.45182 29.5677 8.46484 29.5547C8.42578 29.4115 8.39323 29.2617 8.36719 29.1055C8.19792 28.4154 8.04167 27.6927 7.89844 26.9375C7.75521 26.1693 7.63802 25.5052 7.54688 24.9453L7.42969 24.1055L10.7305 24.7695L10.7109 25.4141C10.6979 25.8438 10.6914 26.3516 10.6914 26.9375C10.7044 27.5104 10.7435 28.0573 10.8086 28.5781C10.8216 28.7083 10.8411 28.8255 10.8672 28.9297C11.2318 28.8385 11.5833 28.7604 11.9219 28.6953C12.0651 27.9661 12.1172 27.2565 12.0781 26.5664C12.0391 26.2539 12 25.8893 11.9609 25.4727C11.9219 25.056 11.8828 24.6654 11.8438 24.3008C11.8177 23.9232 11.8047 23.6367 11.8047 23.4414C11.8177 23.2461 11.8503 23.2201 11.9023 23.3633ZM21.707 23.0703C21.8763 23.1484 22.1953 23.3112 22.6641 23.5586C23.1328 23.806 23.5885 24.0729 24.0313 24.3594C24.487 24.6458 24.7734 24.8802 24.8906 25.0625C24.9557 25.2188 24.8906 25.6094 24.6953 26.2344C24.5 26.8594 24.2201 27.5495 23.8555 28.3047C23.4909 29.0469 23.0807 29.6719 22.625 30.1797C22.1823 30.6875 21.7331 30.9089 21.2773 30.8438C21.1081 30.7786 21.0039 30.4987 20.9648 30.0039C20.9388 30.0039 20.9063 29.9974 20.8672 29.9844C20.3724 29.8672 19.9688 29.8411 19.6563 29.9063C19.6042 29.9063 19.5521 29.9128 19.5 29.9258C19.487 30.2773 19.4805 30.6094 19.4805 30.9219C19.4674 31.7292 19.4609 32.2435 19.4609 32.4648C19.4479 32.6732 19.3503 32.9466 19.168 33.2852C18.9987 33.6237 18.7969 33.9688 18.5625 34.3203C18.3411 34.6719 18.1458 34.9714 17.9766 35.2188L17.7031 35.5898L17.4688 35.5508C17.3255 35.5247 17.1563 35.4401 16.9609 35.2969C16.7656 35.1536 16.5964 34.9258 16.4531 34.6133C16.3099 34.3008 16.2448 33.8646 16.2578 33.3047C16.2839 32.7057 16.3034 31.8659 16.3164 30.7852C16.3294 29.7044 16.3424 28.5911 16.3555 27.4453C16.3685 26.2995 16.375 25.3229 16.375 24.5156L16.3945 23.5195C16.3815 23.5065 16.375 23.5 16.375 23.5C16.1667 23.3568 15.9714 23.207 15.7891 23.0508C15.6068 22.8945 15.4766 22.7253 15.3984 22.543C15.3464 22.4128 15.3138 22.2891 15.3008 22.1719C15.3008 22.1589 15.3008 22.1458 15.3008 22.1328C15.1445 22.276 14.9557 22.3086 14.7344 22.2305C14.3828 22.0612 14.0117 21.7487 13.6211 21.293C13.2305 20.8242 12.957 20.4271 12.8008 20.1016C12.7487 19.9583 12.7292 19.8151 12.7422 19.6719C12.7552 19.5286 12.7878 19.3919 12.8398 19.2617C12.9049 19.1315 12.9635 19.0273 13.0156 18.9492L13.0547 18.8711C11.8047 19.9388 10.8997 20.7917 10.3398 21.4297C11.2383 21.1432 11.7982 20.9284 12.0195 20.7852C12.2669 20.7201 12.5078 20.7201 12.7422 20.7852C13.0156 20.8893 13.2174 21.0716 13.3477 21.332C13.5039 21.5794 13.6276 21.8464 13.7188 22.1328C13.7448 22.2109 13.7513 22.2826 13.7383 22.3477C13.6992 22.4388 13.6211 22.5039 13.5039 22.543C13.3997 22.569 13.2891 22.5755 13.1719 22.5625C11.8307 22.5625 10.3594 23.1484 8.75781 24.3203C8.5625 24.138 8.34115 23.9622 8.09375 23.793C7.8724 23.6628 7.67057 23.5195 7.48828 23.3633C7.30599 23.207 7.17578 23.0378 7.09766 22.8555C7.04557 22.7253 7.01302 22.5951 7 22.4648C6.98698 22.3216 7.00651 22.1914 7.05859 22.0742C7.16276 21.9049 7.3125 21.7617 7.50781 21.6445C7.52083 21.6445 7.53385 21.638 7.54688 21.625C7.79427 21.4557 8.0612 21.2734 8.34766 21.0781C8.63411 20.9089 8.94661 20.6875 9.28516 20.4141C9.10286 20.4531 8.92708 20.4922 8.75781 20.5313C8.34115 20.6354 8.10026 20.7135 8.03516 20.7656C7.97005 20.8177 7.8724 20.7656 7.74219 20.6094C7.61198 20.4401 7.47526 20.2253 7.33203 19.9648C7.1888 19.7044 7.05859 19.457 6.94141 19.2227C6.82422 18.9883 6.7526 18.819 6.72656 18.7148C6.6875 18.4935 6.77214 18.2917 6.98047 18.1094C7.1888 17.9141 7.41016 17.7383 7.64453 17.582C7.77474 17.5039 7.87891 17.4323 7.95703 17.3672C8.64714 16.7161 9.08984 16.0195 9.28516 15.2773C9.29818 15.1862 9.3112 15.0951 9.32422 15.0039C8.30859 15.0299 7.50781 15.0885 6.92188 15.1797C6.3099 15.2839 5.86068 15.3945 5.57422 15.5117C5.60026 16.6445 5.61979 17.8229 5.63281 19.0469C5.67188 22.7448 5.63932 26.0195 5.53516 28.8711C5.44401 31.7096 5.29427 33.2917 5.08594 33.6172C4.86458 33.8125 4.46094 34.0078 3.875 34.2031C3.30208 34.3984 2.70964 34.4896 2.09766 34.4766C1.4987 34.4766 1.03646 34.2682 0.710938 33.8516C0.398438 33.4479 0.372396 32.7318 0.632813 31.7031C0.932292 30.5833 1.15365 28.7799 1.29688 26.293C1.4401 23.806 1.52474 21.1563 1.55078 18.3438C1.58984 15.5313 1.58984 13.0638 1.55078 10.9414C1.51172 8.80599 1.45964 7.53646 1.39453 7.13281C1.31641 6.79427 1.23177 6.38411 1.14063 5.90234C1.0625 5.40755 0.984375 4.91927 0.90625 4.4375C0.828125 3.95573 0.763021 3.55208 0.710938 3.22656L0.632813 2.71875C0.90625 2.95313 1.32943 3.12891 1.90234 3.24609C2.57943 3.3763 3.38672 3.70182 4.32422 4.22266C4.35026 4.2487 4.3763 4.27474 4.40234 4.30078C4.97526 4.18359 5.63932 4.02734 6.39453 3.83203C7.70964 3.49349 8.95964 3.20703 10.1445 2.97266C10.5221 2.89453 10.8542 2.84245 11.1406 2.81641L11.2383 2.23047C11.4596 2.32161 11.8828 2.53646 12.5078 2.875C13.1328 3.20052 13.7448 3.55208 14.3438 3.92969C14.9427 4.30729 15.3203 4.61979 15.4766 4.86719C15.5677 5.07552 15.4831 5.59635 15.2227 6.42969C14.9622 7.26302 14.5911 8.17448 14.1094 9.16406C13.7057 9.98438 13.263 10.694 12.7813 11.293C13.0026 11.319 13.1719 11.3646 13.2891 11.4297C13.6406 11.7292 13.8424 12.1523 13.8945 12.6992C13.9596 13.2461 13.6732 13.7539 13.0352 14.2227C12.7617 14.418 12.3906 14.5807 11.9219 14.7109C12.1432 14.8542 12.3516 14.9909 12.5469 15.1211C12.5729 15.1471 12.6055 15.1732 12.6445 15.1992C12.7357 15.2773 12.625 15.4661 12.3125 15.7656C12.013 16.0521 11.6159 16.4232 11.1211 16.8789C10.6393 17.3346 10.2227 17.7318 9.87109 18.0703C9.51953 18.4089 9.3763 18.6432 9.44141 18.7734C9.54557 18.9036 9.64974 18.9688 9.75391 18.9688C9.85807 18.9557 9.98828 18.9232 10.1445 18.8711C10.3919 18.7539 10.763 18.6823 11.2578 18.6563C11.2708 18.6563 11.2839 18.6563 11.2969 18.6563C11.4271 18.5391 11.5573 18.4154 11.6875 18.2852C11.9219 18.0638 12.1497 17.7969 12.3711 17.4844C12.4883 17.3281 12.5924 17.1849 12.6836 17.0547C12.9961 16.7031 13.1784 16.2995 13.2305 15.8438C13.2305 15.7917 13.2305 15.7461 13.2305 15.707C13.2174 15.5378 13.2435 15.3815 13.3086 15.2383C13.4128 15.069 13.5755 14.9844 13.7969 14.9844C13.8359 14.9844 13.875 14.9909 13.9141 15.0039C13.9922 15.0299 14.0573 15.069 14.1094 15.1211C14.1615 15.1732 14.207 15.2318 14.2461 15.2969C14.2591 15.3229 14.2786 15.349 14.3047 15.375C14.4089 15.5052 14.5326 15.6159 14.6758 15.707C14.7539 15.7461 14.8255 15.7917 14.8906 15.8438C15.151 16.0651 15.418 16.2799 15.6914 16.4883C15.7174 16.5013 15.737 16.5208 15.75 16.5469C15.763 16.5599 15.7695 16.5729 15.7695 16.5859C15.7695 16.612 15.763 16.638 15.75 16.6641C15.737 16.6771 15.724 16.6901 15.7109 16.7031C15.112 17.2891 14.4544 17.8164 13.7383 18.2852C13.5039 18.4805 13.2826 18.6628 13.0742 18.832L13.2109 19.0078C13.3151 19.112 13.4909 19.2422 13.7383 19.3984C13.9857 19.5417 14.3372 19.6719 14.793 19.7891C15.457 19.9453 15.8607 20.1146 16.0039 20.2969C16.1471 20.4792 16.1341 20.7005 15.9648 20.9609C15.8997 21.0781 15.8346 21.2083 15.7695 21.3516C15.7565 21.4036 15.737 21.4557 15.7109 21.5078C15.737 21.4818 15.7695 21.4622 15.8086 21.4492C15.8216 21.4362 15.8346 21.4297 15.8477 21.4297C16.0951 21.2865 16.362 21.1367 16.6484 20.9805C16.9479 20.8242 17.2799 20.6224 17.6445 20.375C17.5404 20.401 17.4427 20.4141 17.3516 20.4141C16.9479 20.4792 16.7135 20.5378 16.6484 20.5898C16.5833 20.6159 16.4792 20.5508 16.3359 20.3945C16.1927 20.2383 16.0365 20.0365 15.8672 19.7891C15.6979 19.5417 15.5417 19.3073 15.3984 19.0859C15.2682 18.8516 15.1836 18.6823 15.1445 18.5781C15.0924 18.3828 15.1641 18.2005 15.3594 18.0313C15.5547 17.862 15.7695 17.7188 16.0039 17.6016C16.1211 17.5365 16.2188 17.4779 16.2969 17.4258C17.4427 16.319 18.0807 15.4271 18.2109 14.75C18.224 14.6328 18.2305 14.5156 18.2305 14.3984C17.7747 14.4896 17.4427 14.4635 17.2344 14.3203C17.0651 14.151 16.9023 13.8906 16.7461 13.5391C16.5898 13.1875 16.4661 12.8294 16.375 12.4648C16.2839 12.1003 16.2383 11.8073 16.2383 11.5859C16.2513 11.3646 16.3294 11.293 16.4727 11.3711C16.5898 11.4232 16.9349 11.4102 17.5078 11.332C17.4818 11.2539 17.4557 11.1693 17.4297 11.0781C17.2214 10.1927 17.026 9.26172 16.8438 8.28516C16.6615 7.29557 16.5182 6.44271 16.4141 5.72656L16.2383 4.67188L20.4766 5.51172L20.4375 6.33203C20.4375 6.48828 20.4375 6.65755 20.4375 6.83984C20.5547 6.8138 20.6719 6.78776 20.7891 6.76172C21.974 6.46224 23.0938 6.21484 24.1484 6.01953C24.6172 5.92839 25.0013 5.88281 25.3008 5.88281C25.1966 5.11458 25.0794 4.64583 24.9492 4.47656C24.6758 4.22917 24.4219 4.14453 24.1875 4.22266C23.9661 4.28776 23.7253 4.43099 23.4648 4.65234C23.0872 4.97786 22.5599 5.25781 21.8828 5.49219C21.2969 5.6224 20.75 5.50521 20.2422 5.14063C19.7474 4.76302 19.3112 4.35286 18.9336 3.91016C18.582 3.51953 18.3021 3.27214 18.0938 3.16797L19.0508 2.79688C19.6888 2.54948 20.4766 2.28255 21.4141 1.99609C22.3516 1.69661 23.3086 1.46224 24.2852 1.29297C25.2747 1.1237 26.1341 1.09766 26.8633 1.21484C28.2695 1.54036 29.2852 2.01563 29.9102 2.64063C30.5352 3.2526 30.75 3.6888 30.5547 3.94922C30.4635 4.15755 30.3789 5.45964 30.3008 7.85547C30.2227 10.2513 30.1641 13.0443 30.125 16.2344C30.099 19.4245 30.099 22.3151 30.125 24.9063C30.1641 27.4974 30.2422 29.0859 30.3594 29.6719C30.6328 30.6875 30.6003 31.7227 30.2617 32.7773C29.9362 33.8451 29.0898 34.5612 27.7227 34.9258C27.6315 34.9518 27.5339 34.9779 27.4297 35.0039C26.2188 35.3164 25.431 35.4206 25.0664 35.3164C24.7018 35.2253 24.5195 34.776 24.5195 33.9688C24.4805 33.526 24.3503 33.1159 24.1289 32.7383C23.9076 32.3607 23.6536 32.0286 23.3672 31.7422C23.0807 31.4557 22.8268 31.2344 22.6055 31.0781L22.2734 30.8438L22.7031 30.7656C22.9766 30.7005 23.3086 30.6224 23.6992 30.5313C24.0898 30.4271 24.4674 30.3229 24.832 30.2188C25.2096 30.1016 25.5091 29.9844 25.7305 29.8672C25.9388 29.6328 26.0625 28.2917 26.1016 25.8438C26.1406 23.3828 26.1146 20.5443 26.0234 17.3281C25.9844 16 25.9388 14.7305 25.8867 13.5195C25.3789 13.6367 24.7539 13.6758 24.0117 13.6367C22.293 13.5977 20.9193 13.6888 19.8906 13.9102C20.0469 13.9753 20.2031 14.0534 20.3594 14.1445C20.8021 14.3919 21.1927 14.6263 21.5313 14.8477C21.5703 14.8737 21.6029 14.8997 21.6289 14.9258C21.7331 15.0039 21.6419 15.1667 21.3555 15.4141C21.069 15.6615 20.5677 16.1172 19.8516 16.7813C19.1484 17.4453 18.6341 17.9206 18.3086 18.207C17.9831 18.4935 17.8594 18.7018 17.9375 18.832C18.0417 18.9492 18.1458 19.0143 18.25 19.0273C18.3672 19.0273 18.4974 19.0078 18.6406 18.9688C18.862 18.8906 19.194 18.8581 19.6367 18.8711C19.7539 18.7799 19.8646 18.6888 19.9688 18.5977C20.1901 18.4023 20.4115 18.168 20.6328 17.8945C20.737 17.7513 20.8411 17.6276 20.9453 17.5234C21.2578 17.1979 21.4336 16.8268 21.4727 16.4102C21.4727 16.3711 21.4727 16.3255 21.4727 16.2734C21.4596 16.1172 21.4857 15.974 21.5508 15.8438C21.668 15.7005 21.8307 15.6354 22.0391 15.6484C22.0781 15.6484 22.1172 15.6549 22.1563 15.668C22.2344 15.694 22.2995 15.7331 22.3516 15.7852C22.4036 15.8372 22.4492 15.9023 22.4883 15.9805C22.5013 16.0065 22.5208 16.0326 22.5469 16.0586C22.651 16.1758 22.7747 16.2799 22.918 16.3711C22.9831 16.4232 23.0482 16.4753 23.1133 16.5273C23.3867 16.7487 23.6602 16.9701 23.9336 17.1914C23.9466 17.2044 23.9596 17.224 23.9727 17.25C23.9857 17.263 23.9922 17.276 23.9922 17.2891C23.9922 17.3151 23.9857 17.3346 23.9727 17.3477C23.9727 17.3607 23.9661 17.3737 23.9531 17.3867C23.3542 17.8945 22.7031 18.3438 22 18.7344C21.5052 19.0859 21.0495 19.418 20.6328 19.7305C20.6328 19.7695 20.6328 19.8021 20.6328 19.8281C20.6198 19.8672 20.6133 19.8997 20.6133 19.9258C20.6133 19.9518 20.4961 19.9844 20.2617 20.0234C19.5456 20.5833 18.9987 21.0586 18.6211 21.4492C19.5065 21.2409 20.0599 21.0781 20.2813 20.9609C20.5286 20.9219 20.7695 20.9349 21.0039 21C21.043 21.026 21.082 21.0521 21.1211 21.0781C21.0169 20.9089 20.9323 20.7591 20.8672 20.6289C20.8021 20.4727 20.776 20.3229 20.7891 20.1797C20.8151 20.0234 20.8607 19.8867 20.9258 19.7695C20.9909 19.6393 21.0495 19.5352 21.1016 19.457L21.1992 19.3398L21.375 19.5156C21.4792 19.6458 21.681 19.7956 21.9805 19.9648C22.2799 20.1341 22.6966 20.3034 23.2305 20.4727C24.0247 20.694 24.5065 20.9089 24.6758 21.1172C24.8451 21.3125 24.8255 21.5404 24.6172 21.8008C24.5391 21.918 24.4674 22.0482 24.4023 22.1914C24.2591 22.4648 24.0964 22.6992 23.9141 22.8945C23.7318 23.0898 23.4844 23.1289 23.1719 23.0117C22.7422 22.8034 22.293 22.4453 21.8242 21.9375C21.8112 21.9115 21.7982 21.8919 21.7852 21.8789C21.8633 22.0352 21.9219 22.1914 21.9609 22.3477C21.987 22.4128 21.9935 22.4779 21.9805 22.543C21.9414 22.6341 21.8633 22.6862 21.7461 22.6992C21.6419 22.7122 21.5378 22.7122 21.4336 22.6992C20.3398 22.6211 19.168 22.901 17.918 23.5391C18.2565 23.6432 18.5625 23.7604 18.8359 23.8906C19.2266 24.0729 19.4414 24.2357 19.4805 24.3789C19.4935 24.5091 19.5 24.9453 19.5 25.6875L19.5 27.9141C19.513 27.901 19.5326 27.8945 19.5586 27.8945C20.0794 27.7904 20.5807 27.7057 21.0625 27.6406C21.0885 27.3932 21.1146 27.1328 21.1406 26.8594C21.2708 25.8698 21.401 24.9909 21.5313 24.2227L21.707 23.0703ZM25.5938 8.59766C25.138 8.96224 24.3828 9.13151 23.3281 9.10547C22.3646 9.07943 21.5833 9.13802 20.9844 9.28125C20.8021 9.32031 20.6393 9.35938 20.4961 9.39844C20.5091 9.73698 20.5417 10.069 20.5938 10.3945C20.6068 10.5378 20.6263 10.6745 20.6523 10.8047C22.2409 10.5182 23.7318 10.2773 25.125 10.082C25.3333 10.056 25.5221 10.0365 25.6914 10.0234C25.6654 9.59375 25.6328 9.17057 25.5938 8.75391C25.5938 8.70182 25.5938 8.64974 25.5938 8.59766ZM5.33984 10.3555C5.39193 11.1107 5.43099 11.8854 5.45703 12.6797C5.82161 12.5885 6.20573 12.4974 6.60938 12.4063C7.88542 12.0807 9.10938 11.8073 10.2813 11.5859C10.2552 11.3646 10.2422 11.1042 10.2422 10.8047C10.2552 9.77604 10.3398 8.60417 10.4961 7.28906C10.5612 6.75521 10.6263 6.2474 10.6914 5.76563C10.4049 5.79167 10.0859 5.8112 9.73438 5.82422C7.70313 5.94141 6.27734 6.20182 5.45703 6.60547C5.30078 6.67057 5.15755 6.72266 5.02734 6.76172C5.07943 7.17839 5.13151 7.64063 5.18359 8.14844C5.2487 8.1224 5.32031 8.10286 5.39844 8.08984C6.33594 7.84245 7.19531 7.6276 7.97656 7.44531C8.75781 7.26302 9.22005 7.21094 9.36328 7.28906C9.46745 7.39323 9.5651 7.58203 9.65625 7.85547C9.7474 8.11589 9.77995 8.40234 9.75391 8.71484C9.72786 9.02734 9.57813 9.30078 9.30469 9.53516C9.03125 9.76953 8.58203 9.89323 7.95703 9.90625C7.09766 9.93229 6.36198 10.0365 5.75 10.2188C5.60677 10.2708 5.47005 10.3164 5.33984 10.3555ZM59.9844 25.3945C61.1042 25.6159 62.2956 25.9935 63.5586 26.5273C65.1341 27.2435 66.625 28.1289 68.0313 29.1836C68.5391 29.5482 68.793 29.9714 68.793 30.4531C68.793 31.3906 68.1159 32.543 66.7617 33.9102C66.5013 34.0794 66.3385 34.1641 66.2734 34.1641C65.9609 34.1641 64.8802 33.0508 63.0313 30.8242C61.5469 29.2747 60.3685 28.3503 59.4961 28.0508C59.0013 27.9336 58.7539 27.7383 58.7539 27.4648L58.7539 27.25C58.7669 26.8464 59.1771 26.2279 59.9844 25.3945ZM61.1563 17.3086L61.4492 17.3477L63.0703 17.3477C64.8932 17.3477 66.0326 17.7448 66.4883 18.5391C66.5924 18.7604 66.6445 18.9427 66.6445 19.0859L66.6445 19.3789C66.6445 20.1862 66.0586 21.0977 64.8867 22.1133L64.6133 22.1914L64.3203 22.1914C63.9297 22.1914 62.6992 21.4622 60.6289 20.0039C60.1992 19.7956 59.9844 19.5156 59.9844 19.1641C59.9844 18.6823 60.375 18.0638 61.1563 17.3086ZM45.9219 3.79297L46.4102 3.83203L46.6836 3.83203C47.2305 3.83203 47.8164 3.81901 48.4414 3.79297C49.8607 3.79297 50.8177 4.33984 51.3125 5.43359C51.3776 5.62891 51.4102 5.79818 51.4102 5.94141L51.4102 6.23438C51.4102 7.13281 50.9219 8.16797 49.9453 9.33984L49.9844 9.33984C50.8828 9.0013 51.7357 8.83203 52.543 8.83203L52.9141 8.83203C54.7891 8.92318 55.9544 9.52865 56.4102 10.6484L56.4102 10.8242C56.4102 11.9049 55.2969 12.6081 53.0703 12.9336L52.5039 12.9336C52.1133 12.9336 51.5859 12.901 50.9219 12.8359C50.349 12.8359 49.5091 12.9336 48.4023 13.1289L48.4023 13.1875C49.8346 13.1875 50.5508 13.6628 50.5508 14.6133C50.4987 15.1341 50.388 15.7656 50.2188 16.5078L50.2578 16.5078C51.0651 16.1693 51.7292 16 52.25 16L52.4258 16C52.8294 16 53.5716 16.3125 54.6523 16.9375C55.707 17.3151 56.2344 17.849 56.2344 18.5391L56.2344 18.832C56.2344 19.8477 55.8568 22.1198 55.1016 25.6484C53.3438 31.2995 51.7747 34.125 50.3945 34.125C50.3945 34.0859 50.375 34.0664 50.3359 34.0664L50.3359 34.125C49.8151 34.125 49.2096 33.6172 48.5195 32.6016C47.556 31.4557 46.931 30.8828 46.6445 30.8828L46.6445 30.8242C47.8034 30.8242 48.8581 30.4727 49.8086 29.7695C50.6419 28.7539 51.2539 27.3672 51.6445 25.6094C52.3737 23.0964 52.7383 21.4362 52.7383 20.6289C52.7383 19.9518 52.4128 19.5221 51.7617 19.3398C51.293 19.1315 50.6289 18.819 49.7695 18.4023C48.9362 21.3711 47.9922 23.9818 46.9375 26.2344C45.8307 28.5911 44.6784 30.362 43.4805 31.5469C42.9857 31.9375 42.3607 32.1328 41.6055 32.1328C41.5143 32.1328 41.3906 32.1458 41.2344 32.1719L39.9453 32.0938L39.9453 32.0547C41.3516 30.2839 42.4844 28.4284 43.3438 26.4883C44.1771 24.7044 44.8411 22.9792 45.3359 21.3125C46.1563 18.2005 46.5664 16.2734 46.5664 15.5313L46.5664 13.5977L46.5273 13.5977C44.1445 14.2487 42.7773 14.5742 42.4258 14.5742L42.3867 14.5742C42.1003 14.0924 41.5794 13.513 40.8242 12.8359C40.4857 12.4844 40.0039 12.0352 39.3789 11.4883L39.3789 11.4492L39.418 11.4492C42.6341 10.9414 45.7591 10.3555 48.793 9.69141L47.6602 8.92969C46.6576 8.08333 45.7656 7.35417 44.9844 6.74219C44.8281 6.57292 44.7435 6.34505 44.7305 6.05859C44.7305 5.47266 45.1276 4.71745 45.9219 3.79297ZM61.9766 2.48438C63.2786 3.38281 64.1576 4.02734 64.6133 4.41797C65.1602 5.00391 65.4336 5.4401 65.4336 5.72656C65.4336 6.11719 65.1992 6.77474 64.7305 7.69922C64.6784 7.69922 64.6523 7.78385 64.6523 7.95313C68.806 9.61979 71.8268 10.9414 73.7148 11.918C73.8581 12.0612 73.9297 12.2435 73.9297 12.4648C73.9297 13.2721 73.4219 14.2552 72.4063 15.4141C71.8594 15.8307 71.4557 16.0391 71.1953 16.0391C71.1953 16.013 71.1823 16 71.1563 16L71.1563 16.0391C70.4271 16.0391 68.0964 14.3529 64.1641 10.9805L63.1094 10.1992L63.0703 10.1992C62.1849 11.4102 60.707 13.0768 58.6367 15.1992C57.7904 16.0716 57.1523 16.5078 56.7227 16.5078L56.5273 16.5078C55.8633 16.5078 55.2122 16.3516 54.5742 16.0391C54.9909 15.3229 56.3841 13.2461 58.7539 9.80859C59.8346 8.16797 60.6484 6.63802 61.1953 5.21875C61.4948 4.46354 61.7552 3.55208 61.9766 2.48438ZM104.668 10.9414L105.469 11.2734C106.003 11.4818 106.634 11.7487 107.363 12.0742C108.105 12.3867 108.809 12.6992 109.473 13.0117C110.137 13.3242 110.632 13.5911 110.957 13.8125C111.322 14.138 111.263 14.5807 110.781 15.1406C110.299 15.7005 109.681 16.1953 108.926 16.625C108.171 17.0417 107.572 17.2044 107.129 17.1133C106.829 16.9961 106.53 16.625 106.23 16C105.944 15.375 105.684 14.6719 105.449 13.8906C105.215 13.1094 105.026 12.4193 104.883 11.8203L104.668 10.9414ZM85.4883 12.2305C85.4102 12.1393 85.5078 12.1068 85.7813 12.1328C86.0677 12.1458 86.4388 12.2109 86.8945 12.3281C87.3633 12.4453 87.819 12.6081 88.2617 12.8164C88.7174 13.0247 89.0755 13.2786 89.3359 13.5781C89.6354 13.9948 89.6354 14.5482 89.3359 15.2383C89.0365 15.9154 88.5807 16.5599 87.9688 17.1719C87.3568 17.7708 86.7318 18.1615 86.0938 18.3438C85.638 18.4609 85.2474 18.5195 84.9219 18.5195C84.5964 18.5195 84.3359 18.4935 84.1406 18.4414C83.9453 18.3763 83.8021 18.3112 83.7109 18.2461L83.5742 18.1484L83.9063 17.2695C84.1146 16.6836 84.349 16.013 84.6094 15.2578C84.8698 14.5026 85.0911 13.832 85.2734 13.2461C85.4557 12.6471 85.5273 12.3086 85.4883 12.2305ZM94.1797 0.140625C94.7526 0.192708 95.3385 0.205729 95.9375 0.179688C96.6276 0.140625 97.2982 0.160156 97.9492 0.238281C98.6133 0.316406 99.2188 0.563802 99.7656 0.980469C100.234 1.41016 100.391 1.91797 100.234 2.50391C100.091 3.07682 99.8047 3.61068 99.375 4.10547C98.9583 4.60026 98.5807 4.9388 98.2422 5.12109C97.8906 5.2513 97.4154 5.16667 96.8164 4.86719C96.2305 4.55469 95.612 4.18359 94.9609 3.75391C94.4141 3.3763 93.9063 3.0638 93.4375 2.81641C93.138 2.66016 92.9688 2.47135 92.9297 2.25C92.8906 2.01563 92.9297 1.78125 93.0469 1.54688C93.1641 1.29948 93.3073 1.07161 93.4766 0.863281C93.6589 0.654948 93.8216 0.479167 93.9648 0.335938L94.1797 0.140625ZM80.7813 7.91406C82.1875 7.52344 84.4531 7.08724 87.5781 6.60547C90.7161 6.11068 94.0495 5.66146 97.5781 5.25781C101.107 4.84115 104.16 4.55469 106.738 4.39844C109.316 4.24219 110.749 4.30729 111.035 4.59375C111.257 5.02344 111.211 5.58333 110.898 6.27344C110.586 6.95052 110.098 7.52344 109.434 7.99219C108.77 8.46094 108.021 8.59115 107.188 8.38281C106.289 8.17448 104.655 8.16797 102.285 8.36328C102.272 8.48047 102.188 8.88411 102.031 9.57422C102.031 9.61328 102.025 9.67839 102.012 9.76953C102.025 9.97786 102.122 11.7422 102.305 15.0625L102.266 15.0625L102.305 15.1016C102.305 15.2969 102.318 16.2083 102.344 17.8359C102.344 17.849 102.35 17.8815 102.363 17.9336C102.363 18.5195 101.79 19.1315 100.645 19.7695C100.059 20.0299 99.5378 20.1732 99.082 20.1992C98.6003 20.2122 98.2682 19.9128 98.0859 19.3008C97.8516 18.8581 97.4935 18.5391 97.0117 18.3438C95.7357 17.9792 94.8893 17.7773 94.4727 17.7383C94.3815 17.9857 94.2839 18.2135 94.1797 18.4219C94.4922 18.5521 94.9414 18.7148 95.5273 18.9102C96.2305 19.1445 97.0052 19.4245 97.8516 19.75C98.3464 20.0365 98.5612 20.7396 98.4961 21.8594C98.4961 21.8594 98.5026 21.8594 98.5156 21.8594C101.81 21.4818 104.668 21.2279 107.09 21.0977C109.512 20.9544 110.859 21.0195 111.133 21.293C111.354 21.7096 111.335 22.2435 111.074 22.8945C110.827 23.5456 110.404 24.0924 109.805 24.5352C109.206 24.9779 108.509 25.0951 107.715 24.8867C106.803 24.6654 105.104 24.6654 102.617 24.8867C101.224 25.0039 99.8242 25.1536 98.418 25.3359C98.418 25.362 98.418 25.3945 98.418 25.4336C98.418 25.6159 99.2513 26.0977 100.918 26.8789C102.598 27.6602 104.505 28.5065 106.641 29.418C108.789 30.3294 110.703 31.1302 112.383 31.8203L114.883 32.8555L114.844 32.8945C114.818 32.9206 114.772 32.9531 114.707 32.9922C114.642 33.0313 114.544 33.0703 114.414 33.1094C114.297 33.1484 114.141 33.1745 113.945 33.1875C113.75 33.2135 113.503 33.2201 113.203 33.207C112.773 33.207 112.383 33.3698 112.031 33.6953C111.68 34.0208 111.354 34.3919 111.055 34.8086C110.664 35.3685 110.26 35.7852 109.844 36.0586C109.245 36.3711 108.242 36.2995 106.836 35.8438C105.443 35.388 104.049 34.4115 102.656 32.9141C100.273 30.401 98.3724 28.6302 96.9531 27.6016C96.862 27.8359 96.7578 28.0703 96.6406 28.3047C95.8073 30.1927 94.8958 31.5534 93.9063 32.3867C93.151 32.9336 92.2461 33.3893 91.1914 33.7539C90.1367 34.1185 89.0885 34.4115 88.0469 34.6328C87.0182 34.8542 86.1523 35.0104 85.4492 35.1016L84.3945 35.2383L85.5859 34.3008C86.3672 33.6758 87.2852 32.8555 88.3398 31.8398C89.4076 30.8242 90.3906 29.7174 91.2891 28.5195C91.862 27.7513 92.3112 26.9831 92.6367 26.2148C91.2435 26.4753 90.1563 26.7161 89.375 26.9375C88.5677 27.1458 87.7604 27.1458 86.9531 26.9375C86.1589 26.7161 85.4362 26.4036 84.7852 26C84.1471 25.5964 83.6458 25.2253 83.2813 24.8867C82.9297 24.5352 82.793 24.3398 82.8711 24.3008C84.1602 23.9362 86.263 23.526 89.1797 23.0703C90.5859 22.862 92.0247 22.6602 93.4961 22.4648C93.6654 21.3451 93.75 20.4596 93.75 19.8086L93.75 19.1836C93.138 20.043 92.4479 20.1602 91.6797 19.5352C91.1849 19.2096 90.6315 18.9818 90.0195 18.8516L89.1016 18.6367L89.7656 18.3242C90.1953 18.1159 90.6706 17.3086 91.1914 15.9023C91.7253 14.4961 92.0117 12.6471 92.0508 10.3555C91.9987 10.1602 91.9466 9.94531 91.8945 9.71094C90.0195 10.0365 88.5872 10.3359 87.5977 10.6094C86.7253 10.8438 85.8659 10.8503 85.0195 10.6289C84.1732 10.4076 83.4115 10.0951 82.7344 9.69141C82.0703 9.27474 81.556 8.89063 81.1914 8.53906C80.8398 8.17448 80.7031 7.96615 80.7813 7.91406ZM94.4922 17.6602C95.2083 17.5039 95.9115 17.3021 96.6016 17.0547C97.2266 16.7813 97.6693 16.5143 97.9297 16.2539C98.151 16.0065 98.2617 15.7135 98.2617 15.375C98.3919 14.5156 98.4961 13.2526 98.5742 11.5859C98.5742 10.4661 98.4245 9.65885 98.125 9.16406C98.0339 9.0599 97.9492 8.94922 97.8711 8.83203C97.2721 8.91016 96.6667 8.98828 96.0547 9.06641C96.0677 9.10547 96.0742 9.13802 96.0742 9.16406C95.6706 13.0443 95.1432 15.8763 94.4922 17.6602ZM147.359 13.8125L147.398 14.8086C148.974 14.5612 149.762 14.4115 149.762 14.3594C149.749 14.2682 149.859 13.6693 150.094 12.5625L150.055 12.543C149.195 12.4648 148.29 12.6081 147.34 12.9727C147.34 13.3372 147.346 13.6172 147.359 13.8125ZM151.207 8.59766L151.246 8.59766C153.29 10.3815 154.397 11.5273 154.566 12.0352C154.579 12.3607 154.111 13.0964 153.16 14.2422L153.16 14.3008C153.46 14.6263 153.622 15.0299 153.648 15.5117C153.688 16.2409 153.284 16.7292 152.438 16.9766C152.177 17.0807 151.22 17.0938 149.566 17.0156C149.15 17.0547 148.727 17.1133 148.297 17.1914C148.362 17.3607 148.368 17.5495 148.316 17.7578C148.238 18.0964 148.089 18.4154 147.867 18.7148C148.987 18.5846 150.042 18.4609 151.031 18.3438C152.555 18.1875 153.414 18.168 153.609 18.2852C153.727 18.4023 153.824 18.6302 153.902 18.9688C153.993 19.2943 153.993 19.6458 153.902 20.0234C153.824 20.401 153.59 20.7135 153.199 20.9609C152.809 21.1953 152.197 21.2799 151.363 21.2148C150.699 21.1758 149.983 21.1823 149.215 21.2344C149.202 21.5469 149.163 21.8659 149.098 22.1914C149.059 22.4388 149.033 22.6797 149.02 22.9141C149.449 22.862 149.859 22.8099 150.25 22.7578C151.552 22.6146 152.288 22.5951 152.457 22.6992C152.561 22.8164 152.646 23.0313 152.711 23.3438C152.789 23.6563 152.789 23.9883 152.711 24.3398C152.646 24.6784 152.444 24.9583 152.105 25.1797C151.78 25.401 151.259 25.4857 150.543 25.4336C150.022 25.3945 149.469 25.3945 148.883 25.4336C148.883 25.5117 148.883 25.5898 148.883 25.668C148.857 26.0716 148.837 26.4753 148.824 26.8789C149.358 26.8138 149.872 26.7552 150.367 26.7031C151.669 26.5469 152.405 26.5208 152.574 26.625C152.678 26.7422 152.763 26.957 152.828 27.2695C152.906 27.569 152.906 27.8945 152.828 28.2461C152.763 28.5846 152.561 28.8711 152.223 29.1055C151.884 29.3268 151.363 29.4115 150.66 29.3594C150.074 29.3203 149.443 29.3268 148.766 29.3789C148.74 30.2122 148.74 30.7917 148.766 31.1172C149.703 31 150.4 30.8893 150.855 30.7852C151.923 30.5378 152.939 30.5443 153.902 30.8047C154.879 31.0651 155.549 31.5339 155.914 32.2109C156.174 32.901 155.882 33.4544 155.035 33.8711C154.189 34.2878 153.082 34.3594 151.715 34.0859C150.882 33.9297 149.736 33.9297 148.277 34.0859C146.819 34.2422 145.4 34.431 144.02 34.6523C143.056 34.7956 142.255 34.8997 141.617 34.9648C140.992 35.043 140.667 35.0365 140.641 34.9453C140.589 34.763 140.406 34.4701 140.094 34.0664C140.107 34.1445 140.113 34.2031 140.113 34.2422C140.126 34.4115 140.029 34.5872 139.82 34.7695C139.612 34.9648 139.358 35.1471 139.059 35.3164C138.759 35.4987 138.492 35.6484 138.258 35.7656L137.926 35.9219L137.73 35.8438C137.6 35.8047 137.457 35.7331 137.301 35.6289C137.145 35.5378 137.014 35.4206 136.91 35.2773C136.806 35.1471 136.76 34.9974 136.773 34.8281C136.799 34.5938 136.819 33.832 136.832 32.543C136.845 31.2539 136.852 29.7891 136.852 28.1484C136.839 26.9896 136.826 25.9154 136.813 24.9258C136.253 25.3424 135.875 25.5898 135.68 25.668C135.471 25.7201 135.172 25.7656 134.781 25.8047C134.391 25.8307 133.98 25.8503 133.551 25.8633C133.134 25.8763 132.776 25.8828 132.477 25.8828L132.027 25.8828L132.945 25.0039C133.557 24.418 134.247 23.6953 135.016 22.8359C135.563 22.25 136.051 21.6641 136.48 21.0781C136.48 20.9479 136.487 20.8242 136.5 20.707C136.526 20.5638 136.552 20.4466 136.578 20.3555L136.617 20.2188C136.76 20.2448 136.904 20.2708 137.047 20.2969C137.594 19.4896 137.88 18.819 137.906 18.2852C137.854 18.2982 137.809 18.3112 137.77 18.3242C137.275 18.5716 136.878 18.6953 136.578 18.6953C136.422 18.6953 136.253 18.5911 136.07 18.3828C136.07 18.3958 136.07 18.4089 136.07 18.4219C135.901 19.0339 135.628 19.6328 135.25 20.2188C134.872 20.8047 134.456 21.1628 134 21.293C133.635 21.3451 133.264 21.1823 132.887 20.8047C132.522 20.4271 132.158 19.9844 131.793 19.4766C131.741 19.4115 131.695 19.3464 131.656 19.2813C131.617 21.5208 131.591 23.7344 131.578 25.9219C131.539 28.9167 131.539 30.7721 131.578 31.4883C131.604 31.9049 131.493 32.3477 131.246 32.8164C130.999 33.2852 130.706 33.7279 130.367 34.1445C130.029 34.5742 129.729 34.9258 129.469 35.1992L129.059 35.6094L128.844 35.4141C128.701 35.2969 128.538 35.1211 128.355 34.8867C128.173 34.6654 128.017 34.3854 127.887 34.0469C127.77 33.7214 127.724 33.3503 127.75 32.9336C127.776 32.3997 127.789 30.8568 127.789 28.3047C127.802 26.612 127.809 24.7695 127.809 22.7773C127.418 23.5065 126.956 24.1836 126.422 24.8086C125.706 25.6549 125.022 26.0781 124.371 26.0781C123.902 26.0391 123.531 26.013 123.258 26C122.984 25.987 122.776 25.987 122.633 26C122.503 26 122.418 26 122.379 26L122.32 26.0195L122.828 25.1406C123.18 24.5547 123.564 23.7995 123.98 22.875C124.41 21.9375 124.768 20.9414 125.055 19.8867C125.341 18.832 125.445 17.8294 125.367 16.8789C125.367 16.6576 125.569 16.6445 125.973 16.8398C126.389 17.0221 126.852 17.3477 127.359 17.8164C127.503 17.9596 127.646 18.1094 127.789 18.2656C127.776 17.0026 127.763 15.7917 127.75 14.6328C127.281 14.8281 126.832 15.0234 126.402 15.2188C125.777 15.4922 125.27 15.7005 124.879 15.8438C124.501 15.987 124.286 16 124.234 15.8828C124.156 15.6615 123.909 15.3164 123.492 14.8477C123.089 14.3659 122.672 13.9167 122.242 13.5C121.826 13.0703 121.559 12.8099 121.441 12.7188L122.594 12.3867C123.375 12.1654 124.299 11.8854 125.367 11.5469C126.161 11.3125 126.936 11.0651 127.691 10.8047C127.639 8.47396 127.574 7.10026 127.496 6.68359C127.405 6.21484 127.359 5.73307 127.359 5.23828C127.359 4.74349 127.385 4.30729 127.438 3.92969L127.496 3.34375C128.238 3.64323 128.941 3.77995 129.605 3.75391C130.296 3.72786 130.927 3.88411 131.5 4.22266C131.891 4.54818 132.092 5.15365 132.105 6.03906C132.118 6.92448 132.073 7.88151 131.969 8.91016C131.956 8.97526 131.949 9.04688 131.949 9.125C132.561 8.95573 133.173 8.91667 133.785 9.00781C133.837 9.00781 133.896 9.01432 133.961 9.02734C133.505 8.70182 133.147 8.40234 132.887 8.12891C132.613 7.82943 132.509 7.66016 132.574 7.62109C133.499 7.33464 134.938 7.0026 136.891 6.625C136.669 5.64844 136.5 4.78906 136.383 4.04688L136.227 2.91406L136.715 2.99219C137.04 3.03125 137.444 3.1224 137.926 3.26563C138.408 3.40885 138.902 3.61719 139.41 3.89063C139.931 4.16406 140.387 4.52214 140.777 4.96484C140.986 5.23828 141.142 5.54427 141.246 5.88281C142.483 5.6875 143.766 5.4987 145.094 5.31641C145.198 5.30339 145.302 5.29036 145.406 5.27734C145.419 5.14714 145.426 5.04297 145.426 4.96484C145.413 4.83464 145.393 4.64583 145.367 4.39844C145.315 4.0599 145.263 3.66927 145.211 3.22656C145.159 2.78385 145.113 2.36719 145.074 1.97656C145.048 1.57292 145.042 1.26693 145.055 1.05859C145.081 0.83724 145.152 0.785156 145.27 0.902344C145.582 1.20182 146.077 1.44922 146.754 1.64453C147.796 1.86589 149 2.54297 150.367 3.67578C150.615 3.9362 150.79 4.20313 150.895 4.47656C150.934 4.47656 150.979 4.47005 151.031 4.45703C152.346 4.2487 153.421 4.39844 154.254 4.90625C155.1 5.41406 155.387 5.88932 155.113 6.33203C154.853 6.76172 154.482 7.17839 154 7.58203C153.518 7.97266 152.958 8.08333 152.32 7.91406C151.734 7.77083 150.758 7.7513 149.391 7.85547C149.313 7.93359 149.234 8.00521 149.156 8.07031C148.414 8.68229 147.835 9.06641 147.418 9.22266C147.132 9.33984 146.786 9.46354 146.383 9.59375C145.992 9.72396 145.602 9.84766 145.211 9.96484C146.083 10.3555 146.565 10.5768 146.656 10.6289C148.544 10.2253 149.951 9.94531 150.875 9.78906L151.207 8.59766ZM141.051 27.7773C141.142 27.8294 141.669 27.7969 142.633 27.6797C143.414 27.6016 144.313 27.4909 145.328 27.3477C145.328 27.0352 145.328 26.7096 145.328 26.3711C145.315 26.2279 145.309 26.0846 145.309 25.9414C144.905 26.0065 144.514 26.0781 144.137 26.1563C143.577 26.2734 143.128 26.3581 142.789 26.4102C142.451 26.4622 142.262 26.4688 142.223 26.4297C142.21 26.4036 142.177 26.3451 142.125 26.2539C142.034 26.0846 141.91 25.8568 141.754 25.5703C141.611 25.2839 141.467 24.9974 141.324 24.7109C141.181 24.4245 141.064 24.1966 140.973 24.0273C140.895 23.8451 140.882 23.7865 140.934 23.8516C141.025 23.9167 141.552 23.8906 142.516 23.7734C143.297 23.6823 144.208 23.5651 145.25 23.4219C145.237 23.2266 145.224 23.0313 145.211 22.8359C145.198 22.4193 145.178 22.0677 145.152 21.7813C144.723 21.8594 144.306 21.9375 143.902 22.0156C143.251 22.1328 142.724 22.224 142.32 22.2891C141.917 22.3411 141.695 22.3411 141.656 22.2891C141.643 22.263 141.604 22.1979 141.539 22.0938C141.435 21.9115 141.292 21.6641 141.109 21.3516C141.057 21.2474 141.005 21.1432 140.953 21.0391C140.849 21.1693 140.738 21.2995 140.621 21.4297C140.621 21.7552 140.582 22.1068 140.504 22.4844C140.452 22.7578 140.413 23.0182 140.387 23.2656C140.361 23.5521 140.328 24.2292 140.289 25.2969C140.263 26.3646 140.23 27.556 140.191 28.8711C140.152 29.9909 140.126 31 140.113 31.8984C141.168 31.8333 142.405 31.7357 143.824 31.6055C144.332 31.5664 144.827 31.5208 145.309 31.4688C145.322 31.1172 145.328 30.6094 145.328 29.9453C145.341 29.9193 145.348 29.8932 145.348 29.8672C144.97 29.9453 144.605 30.0169 144.254 30.082C143.694 30.1992 143.238 30.2839 142.887 30.3359C142.548 30.388 142.359 30.3945 142.32 30.3555C142.307 30.3164 142.275 30.2513 142.223 30.1602C142.132 29.9909 142.008 29.763 141.852 29.4766C141.708 29.1901 141.565 28.9036 141.422 28.6172C141.279 28.3307 141.168 28.1029 141.09 27.9336C141.012 27.7643 140.999 27.7122 141.051 27.7773ZM137.828 14.7305L137.887 15.707C139.449 15.3164 140.23 15.0885 140.23 15.0234C140.23 14.9453 140.341 14.3398 140.563 13.207L140.523 13.207C139.664 13.207 138.766 13.4284 137.828 13.8711C137.815 14.2487 137.815 14.5352 137.828 14.7305ZM141.676 9.125L141.715 9.125C142.926 10.0625 143.811 10.8112 144.371 11.3711C144.319 11.0326 144.267 10.668 144.215 10.2773C144.189 10.2904 144.156 10.2969 144.117 10.2969L143.707 10.4336L143.98 9.71094C144.124 9.34635 144.273 8.9362 144.43 8.48047C143.701 8.58464 142.958 8.70833 142.203 8.85156C141.839 8.91667 141.487 8.98177 141.148 9.04688C141.018 9.47656 140.849 9.86719 140.641 10.2188C140.536 10.388 140.432 10.5313 140.328 10.6484C140.719 10.5313 141.057 10.4336 141.344 10.3555L141.676 9.125ZM141.988 19.4375C142.001 19.4375 142.008 19.4375 142.008 19.4375C143.063 19.3203 144.286 19.1706 145.68 18.9883C145.471 18.8581 145.263 18.7214 145.055 18.5781C144.716 18.3307 144.404 18.1289 144.117 17.9727C143.935 17.8555 143.831 17.7253 143.805 17.582C143.779 17.4388 143.798 17.2891 143.863 17.1328C143.941 16.9635 144.033 16.8138 144.137 16.6836C144.254 16.5404 144.358 16.4297 144.449 16.3516L144.586 16.2148C144.716 16.2279 144.846 16.2344 144.977 16.2344C144.859 15.987 144.736 15.7135 144.605 15.4141L144.586 15.1797L144.625 15.1211L144.801 15.1602L145.016 15.1797C144.898 14.6458 144.775 13.9818 144.645 13.1875C144.41 13.5651 144.072 14.0339 143.629 14.5938L143.629 14.6523C143.928 14.9518 144.091 15.3359 144.117 15.8047C144.156 16.5469 143.759 17.0807 142.926 17.4063C142.743 17.4974 142.242 17.5755 141.422 17.6406C141.565 17.7318 141.702 17.8359 141.832 17.9531C142.184 18.3307 142.236 18.8255 141.988 19.4375ZM137.945 9.78906C137.867 9.8151 137.789 9.84115 137.711 9.86719C137.06 10.0625 136.415 10.069 135.777 9.88672C135.712 9.8737 135.654 9.85417 135.602 9.82813C135.758 9.98438 135.895 10.1602 136.012 10.3555C136.168 10.668 136.233 10.974 136.207 11.2734C136.754 11.4557 137.066 11.5664 137.145 11.6055C137.835 11.3841 138.46 11.1888 139.02 11.0195C139.02 11.0195 139.013 11.0195 139 11.0195C138.609 10.8242 138.258 10.4141 137.945 9.78906ZM134.898 12.9922C134.195 13.3958 133.29 13.5781 132.184 13.5391C132.04 13.5391 131.897 13.5391 131.754 13.5391C131.741 14.2422 131.728 15.056 131.715 15.9805C132.275 16.1758 132.945 16.332 133.727 16.4492C134.234 16.5273 134.703 16.6185 135.133 16.7227C135.12 16.6836 135.1 16.638 135.074 16.5859L135.055 16.3516L135.094 16.293L135.27 16.3125L135.484 16.3125C135.302 15.5313 135.107 14.4245 134.898 12.9922Z" fill="#2C5B90" fill-opacity="0.85"/>
</svg>
