<svg width="71" height="37" viewBox="0 0 71 37" fill="none" xmlns="http://www.w3.org/2000/svg">
<path d="M23.0586 8.38281C23.3581 8.57812 23.9049 8.98177 24.6992 9.59375C25.5065 10.2057 26.2878 10.8437 27.043 11.5078C27.8112 12.1589 28.2734 12.6602 28.4297 13.0117C28.4818 13.2852 28.1432 13.9297 27.4141 14.9453C26.6979 15.9609 25.8125 17.0547 24.7578 18.2266C24.7057 18.2917 24.6536 18.3503 24.6016 18.4023C25.1615 18.4284 25.513 18.4935 25.6562 18.5977C26.0208 18.9753 26.2096 19.4831 26.2227 20.1211C26.2487 20.7591 25.8776 21.319 25.1094 21.8008C24.3542 22.2826 22.9805 22.4779 20.9883 22.3867C19.3867 22.2956 17.5768 22.3542 15.5586 22.5625C15.5456 23.474 15.5326 24.3724 15.5195 25.2578C15.4805 28.2786 15.4805 30.2057 15.5195 31.0391C15.5456 31.5469 15.4089 32.0937 15.1094 32.6797C14.8229 33.2656 14.4779 33.819 14.0742 34.3398C13.6836 34.8607 13.332 35.2839 13.0195 35.6094L12.5508 36.1172L12.2969 35.8828C12.1276 35.7396 11.9323 35.5247 11.7109 35.2383C11.5026 34.9648 11.3268 34.6198 11.1836 34.2031C11.0404 33.7995 10.9818 33.3437 11.0078 32.8359C11.0469 32.1979 11.0729 30.5117 11.0859 27.7773C11.0859 26.319 11.0794 24.7565 11.0664 23.0898C10.3372 23.194 9.62109 23.2982 8.91797 23.4023C7.2513 23.6367 5.83854 23.819 4.67969 23.9492C3.52083 24.0664 2.80469 24.0469 2.53125 23.8906C2.24479 23.7083 1.96484 23.4219 1.69141 23.0312C1.43099 22.6406 1.20312 22.2435 1.00781 21.8398C0.825521 21.4362 0.721354 21.1172 0.695312 20.8828C0.669271 20.6354 0.760417 20.5573 0.96875 20.6484C1.0599 20.6745 1.26823 20.6875 1.59375 20.6875C1.55469 20.401 1.50911 20.0951 1.45703 19.7695C1.26172 18.4544 1.07943 17.0482 0.910156 15.5508C0.753906 14.0404 0.630208 12.7318 0.539062 11.625L0.382812 9.96484L4.83594 11.5664C4.86198 11.5664 4.88802 11.5664 4.91406 11.5664C6.38542 11.3971 8.16927 11.1693 10.2656 10.8828C10.5 10.8568 10.7344 10.8242 10.9687 10.7852C10.9557 10.3164 10.9427 9.85417 10.9297 9.39844C10.8776 6.72917 10.806 5.13411 10.7148 4.61328C10.5977 4.05339 10.5391 3.46745 10.5391 2.85547C10.5391 2.24349 10.5651 1.69661 10.6172 1.21484L10.7148 0.492187C11.5872 0.869792 12.4141 1.04557 13.1953 1.01953C14.0156 0.99349 14.7643 1.1888 15.4414 1.60547C15.8971 2.00911 16.1315 2.75781 16.1445 3.85156C16.1706 4.93229 16.112 6.10417 15.9687 7.36719C15.9036 8.20052 15.8516 8.97526 15.8125 9.69141C15.8125 9.83464 15.806 9.9974 15.793 10.1797C16.0013 10.1536 16.2031 10.1276 16.3984 10.1016C18.4427 9.85417 20.181 9.6849 21.6133 9.59375C21.9909 9.56771 22.3294 9.55469 22.6289 9.55469L23.0586 8.38281ZM21.2617 13.3437C20.9102 13.3568 20.526 13.3568 20.1094 13.3437C18.8333 13.2786 17.3685 13.3242 15.7148 13.4805C15.7018 14.2617 15.6823 15.1276 15.6562 16.0781C15.6432 17.1068 15.6302 18.1224 15.6172 19.125C16.0469 19.0859 16.4766 19.0404 16.9062 18.9883C17.8958 18.8711 18.8268 18.7734 19.6992 18.6953C19.9596 17.5365 20.3112 16.2734 20.7539 14.9062C20.9232 14.3724 21.0924 13.8516 21.2617 13.3437ZM5.77344 20.2969C7.01042 20.1536 8.39714 19.9844 9.93359 19.7891C10.3112 19.75 10.6888 19.7044 11.0664 19.6523C11.0664 19.2878 11.0599 18.9167 11.0469 18.5391C11.0469 16.9766 11.0339 15.4922 11.0078 14.0859C10.5 14.151 9.9987 14.2227 9.50391 14.3008C8.00651 14.5352 6.73047 14.7109 5.67578 14.8281C5.66276 15.3229 5.65625 15.8568 5.65625 16.4297C5.64323 17.6276 5.66927 18.7474 5.73437 19.7891C5.7474 19.9714 5.76042 20.1406 5.77344 20.2969ZM64.8906 1.74219L65.3984 1.72266C67.3646 1.69661 69.1029 2.73177 70.6133 4.82812C70.8477 5.21875 70.9714 5.51823 70.9844 5.72656L70.9844 5.94141C70.6979 6.16276 70.5352 6.33203 70.4961 6.44922C70.1966 7.10026 70.1185 12.556 70.2617 22.8164C70.3008 28.4284 70.2357 31.6901 70.0664 32.6016C70.0924 33.1094 69.8516 33.6497 69.3437 34.2227C68.8229 34.7565 68.25 35.0299 67.625 35.043C66.6094 35.056 65.7565 34.5091 65.0664 33.4023L65.0078 33.0703C65.2161 32.4062 65.2943 31.1562 65.2422 29.3203L65.2422 29.2031L65.1836 29.2031C65.2096 30.2318 64.6953 31.2474 63.6406 32.25C63.263 32.4062 62.9701 32.4844 62.7617 32.4844C61.7591 32.1719 60.7826 32.0221 59.832 32.0352L59.7734 32.0352C57.026 32.0742 53.8424 32.6081 50.2227 33.6367C50.0013 33.7799 49.6628 33.8581 49.207 33.8711C47.9831 33.8841 46.6224 33.0833 45.125 31.4687C44.9297 31.9115 44.1875 32.7448 42.8984 33.9687C41.8437 33.2396 41.3034 32.5039 41.2773 31.7617C41.2383 31.7617 41.2187 31.7227 41.2187 31.6445C41.1927 27.8685 41.1602 25.2643 41.1211 23.832C40.8216 12.8164 40.5286 7.30859 40.2422 7.30859C40.1901 6.98307 40.1641 6.70964 40.1641 6.48828L40.1445 5.80469C40.1315 5.27083 40.1706 4.73047 40.2617 4.18359C40.7174 4.43099 41.9674 4.60026 44.0117 4.69141C45.1706 4.86068 45.763 5.38802 45.7891 6.27344C45.8672 6.27344 45.9128 6.61198 45.9258 7.28906L45.7305 12.9531C45.7435 12.9141 45.7695 12.875 45.8086 12.8359C45.8737 12.7448 45.9714 12.6602 46.1016 12.582C46.2318 12.4909 46.401 12.4193 46.6094 12.3672C46.8307 12.3021 47.0977 12.263 47.4102 12.25C47.8529 12.237 48.7383 12.1133 50.0664 11.8789C51.4076 11.6445 52.8724 11.3646 54.4609 11.0391C54.5651 11.013 54.6758 10.987 54.793 10.9609C54.7018 10.5443 54.6107 10.1536 54.5195 9.78906L53.9141 7.17187C52.7161 7.39323 51.5898 7.67318 50.5352 8.01172L49.9297 8.01172C49.1875 8.02474 48.0742 6.99609 46.5898 4.92578C57.918 3.74089 63.5755 2.88802 63.5625 2.36719C64.0182 1.95052 64.4609 1.74219 64.8906 1.74219ZM60.3203 15.7461C60.3333 15.7331 60.3529 15.7201 60.3789 15.707C60.444 15.681 60.5482 15.6875 60.6914 15.7266C60.8346 15.7526 60.9844 15.7852 61.1406 15.8242C61.3099 15.8763 61.4401 15.9089 61.5312 15.9219C61.5443 15.9219 61.5638 15.9219 61.5898 15.9219C61.9935 15.9349 62.3711 16.0391 62.7227 16.2344C63.1914 16.5859 63.4974 17.0807 63.6406 17.7187C63.6797 17.8229 63.6927 17.9336 63.6797 18.0508C63.6667 18.181 63.6146 18.2917 63.5234 18.3828C63.4323 18.4609 63.3346 18.5326 63.2305 18.5977C63.2044 18.6107 63.1849 18.6237 63.1719 18.6367C62.9115 18.8451 62.651 19.1966 62.3906 19.6914C62.1302 20.1732 61.8828 20.668 61.6484 21.1758C61.4271 21.6706 61.2318 22.0612 61.0625 22.3477C60.9583 22.5169 60.8607 22.6797 60.7695 22.8359C60.8997 22.9661 61.0365 23.0833 61.1797 23.1875C61.7786 23.6302 62.2539 23.8385 62.6055 23.8125C62.9701 23.7865 63.3477 23.5781 63.7383 23.1875L64.3242 22.582L64.3047 24.0469C64.3047 25.0365 64.2786 25.7461 64.2266 26.1758C64.1354 26.7227 63.8229 27.0482 63.2891 27.1523C62.7682 27.2565 62.1888 27.2435 61.5508 27.1133C60.9258 26.9701 60.418 26.8008 60.0273 26.6055C59.5456 26.332 59.1029 25.9284 58.6992 25.3945C58.4388 25.6549 58.1719 25.9023 57.8984 26.1367C57.612 26.4362 57.2865 26.6055 56.9219 26.6445C56.7396 26.6315 56.5703 26.5924 56.4141 26.5273C56.3229 26.4883 56.2318 26.4557 56.1406 26.4297C55.6328 26.3125 55.1641 26.4427 54.7344 26.8203C55.2682 26.0521 55.8021 25.2773 56.3359 24.4961C56.6875 23.9883 57.0391 23.4805 57.3906 22.9727C56.974 21.8789 56.6354 20.5768 56.375 19.0664C56.2187 18.2461 56.069 17.4583 55.9258 16.7031C55.9128 16.7943 55.8932 16.8854 55.8672 16.9766C55.7109 17.5885 55.4896 18.2591 55.2031 18.9883C55.1771 19.0664 55.151 19.1445 55.125 19.2227C55.1771 19.431 55.2031 19.6719 55.2031 19.9453C55.2031 20.4271 55.0078 20.8828 54.6172 21.3125C54.2266 21.7422 53.5365 21.9961 52.5469 22.0742C50.8411 22.2565 49.6302 22.582 48.9141 23.0508C48.6276 23.181 48.3867 23.2786 48.1914 23.3437C48.0091 23.3958 47.8594 23.3763 47.7422 23.2852C47.612 23.1549 47.4818 22.9531 47.3516 22.6797C47.2214 22.3932 47.1107 22.1003 47.0195 21.8008C46.9284 21.5013 46.8763 21.2604 46.8633 21.0781C46.8633 20.8828 46.9154 20.8177 47.0195 20.8828C47.0716 20.9089 47.1888 20.9023 47.3711 20.8633C47.2279 20.2253 47.1042 19.5612 47 18.8711C46.8698 18.1289 46.7656 17.4844 46.6875 16.9375L46.5508 16.1367L48.9336 16.5664C49.2982 16.4232 49.7279 16.2344 50.2227 16C50.9648 15.6354 51.6745 15.3229 52.3516 15.0625C52.7812 14.8932 53.1068 14.8086 53.3281 14.8086L53.3477 14.2422C53.4779 14.2943 53.7383 14.418 54.1289 14.6133C54.5195 14.8086 54.9036 15.0234 55.2812 15.2578C55.4505 15.349 55.5937 15.4466 55.7109 15.5508C55.5417 14.6654 55.3854 13.8451 55.2422 13.0898C54.6302 13.181 54.0052 13.3112 53.3672 13.4805C52.0651 13.832 50.9128 14.1771 49.9102 14.5156C49.2852 14.7109 48.7773 14.8672 48.3867 14.9844C47.9961 15.0885 47.7682 15.1016 47.7031 15.0234C47.5599 14.8021 47.2865 14.4896 46.8828 14.0859C46.5052 13.7083 46.1146 13.4023 45.7109 13.168L45.7109 13.4219C45.6589 20.1536 45.6849 25.3294 45.7891 28.9492L45.8086 29.457C45.8086 29.5352 45.8281 29.6068 45.8672 29.6719C45.8281 29.737 45.8086 29.8151 45.8086 29.9062L45.8281 30.1211L45.8672 30.1211C52.4167 28.6758 57.8398 27.9206 62.1367 27.8555L62.8008 27.8555C64.3633 27.8294 65.151 28.0378 65.1641 28.4805L65.1641 28.6562L65.2227 28.6562C65.2487 28.0312 65.2552 27.5625 65.2422 27.25L65.2031 25.8633C65.0078 18.6628 64.8581 12.4453 64.7539 7.21094C63.9076 6.78125 62.4167 6.57943 60.2812 6.60547L59.9297 6.625C57.9766 6.65104 56.1602 6.80078 54.4805 7.07422C54.5977 7.1263 54.7474 7.16536 54.9297 7.19141C55.138 7.23047 55.3854 7.25651 55.6719 7.26953C56.1797 7.30859 56.5378 7.4388 56.7461 7.66016C56.9674 7.86849 57.1042 8.11589 57.1562 8.40234C57.2083 8.6888 57.2279 8.94922 57.2148 9.18359C57.2148 9.28776 57.2148 9.37891 57.2148 9.45703C57.2279 9.58724 57.2669 9.90625 57.332 10.4141C57.8138 10.2969 58.2695 10.1927 58.6992 10.1016C58.9727 10.0234 59.2266 9.95833 59.4609 9.90625C59.3047 9.76302 59.1484 9.60677 58.9922 9.4375C58.6276 9.03385 58.3281 8.66927 58.0937 8.34375L57.7227 7.85547L58.0547 7.71875C58.276 7.6276 58.556 7.52995 58.8945 7.42578C59.2461 7.32161 59.6172 7.25 60.0078 7.21094C60.3984 7.15885 60.7695 7.17187 61.1211 7.25C61.5898 7.38021 61.9154 7.71224 62.0977 8.24609C62.2018 8.53255 62.2539 8.81901 62.2539 9.10547C62.5013 9.09245 62.7292 9.09896 62.9375 9.125C63.237 9.15104 63.4193 9.21615 63.4844 9.32031C63.5234 9.39844 63.5365 9.55469 63.5234 9.78906C63.5104 10.0234 63.4844 10.2969 63.4453 10.6094C63.3932 11.1823 63.3672 11.6966 63.3672 12.1523C63.3802 12.5169 62.9831 12.7448 62.1758 12.8359C61.3685 12.9141 60.2617 12.9466 58.8555 12.9336L57.7227 12.9336C57.9831 14.5612 58.4844 16.931 59.2266 20.043C59.2656 19.9648 59.3047 19.8867 59.3437 19.8086C59.4219 19.6393 59.513 19.3659 59.6172 18.9883C59.7344 18.6107 59.8451 18.2331 59.9492 17.8555C60.0534 17.4779 60.1185 17.1979 60.1445 17.0156C60.1576 16.8984 60.1641 16.7552 60.1641 16.5859C60.1641 16.4167 60.1706 16.2539 60.1836 16.0977C60.1966 15.9414 60.2422 15.8242 60.3203 15.7461ZM46.0039 24.9062C46.2122 24.7891 46.5703 24.7305 47.0781 24.7305C47.4557 24.7305 47.8919 24.6914 48.3867 24.6133C48.7122 24.5612 49.3112 24.3789 50.1836 24.0664C51.056 23.7539 51.9935 23.4089 52.9961 23.0312C54.0117 22.6406 54.8906 22.3021 55.6328 22.0156L56.7656 21.5664C56.4922 21.6836 56.2383 21.9505 56.0039 22.3672C55.7695 22.7839 55.6198 23.2135 55.5547 23.6562C55.4635 23.9297 55.0273 24.2943 54.2461 24.75C53.4779 25.2057 52.6315 25.6745 51.707 26.1562C50.6003 26.7292 49.7995 27.1849 49.3047 27.5234C48.7187 27.9401 48.2305 28.1094 47.8398 28.0312C47.4492 27.9531 47.2409 27.7122 47.2148 27.3086C47.2018 27.1003 47.1172 26.8659 46.9609 26.6055C46.8047 26.332 46.6354 26.0716 46.4531 25.8242C46.2839 25.5898 46.1536 25.3945 46.0625 25.2383C45.9714 25.069 45.9518 24.9583 46.0039 24.9062ZM53.25 17.2695C52.9635 17.4909 52.5534 17.6341 52.0195 17.6992C51.3815 17.7643 50.8672 17.888 50.4766 18.0703C50.099 18.2526 49.7995 18.4219 49.5781 18.5781C49.4219 18.6953 49.2917 18.7734 49.1875 18.8125C49.1354 18.8255 49.0898 18.832 49.0508 18.832C49.0768 19.3398 49.1224 19.8281 49.1875 20.2969C49.4089 20.2187 49.6497 20.1341 49.9102 20.043C51.043 19.6263 52.1107 19.2682 53.1133 18.9687C53.1523 18.9557 53.1979 18.9492 53.25 18.9492C53.237 18.5977 53.237 18.2396 53.25 17.875C53.25 17.6667 53.25 17.4648 53.25 17.2695Z" fill="#D7E1EC"/>
</svg>
