<svg width="159" height="38" viewBox="0 0 159 38" fill="none" xmlns="http://www.w3.org/2000/svg">
<path d="M19.8672 16.6289C19.9453 16.8503 20.0885 16.9935 20.2969 17.0586C20.5182 17.1107 20.7786 17.1432 21.0781 17.1562C21.651 17.1432 22.1914 17.2995 22.6992 17.625C23.207 17.9375 23.474 18.7578 23.5 20.0859C23.487 22.2734 23.2786 24.6693 22.875 27.2734C22.4714 29.8776 21.7682 31.6549 20.7656 32.6055C20.5703 32.7617 20.2448 32.8984 19.7891 33.0156C19.3333 33.1458 18.8516 33.25 18.3437 33.3281C17.849 33.4062 17.4193 33.4648 17.0547 33.5039L16.4883 33.5625L17.7187 31.2969C18.3437 30.112 18.8581 28.862 19.2617 27.5469C18.5586 27.5078 17.9792 27.5599 17.5234 27.7031C17.0547 27.8594 16.6771 28.0156 16.3906 28.1719C16.1953 28.2891 16.026 28.3672 15.8828 28.4062C15.7526 28.4323 15.6419 28.3867 15.5508 28.2695C15.4336 28.1133 15.3229 27.8724 15.2187 27.5469C15.1146 27.2083 15.0234 26.8633 14.9453 26.5117C14.8802 26.1602 14.8477 25.8802 14.8477 25.6719C14.8477 25.4635 14.8932 25.3984 14.9844 25.4766C15.0625 25.5417 15.3229 25.5156 15.7656 25.3984C15.7917 25.3854 15.8177 25.3789 15.8437 25.3789C15.7917 25.1706 15.7396 24.9557 15.6875 24.7344C15.5833 24.2135 15.4857 23.6732 15.3945 23.1133C15.2773 23.5039 14.9714 23.8424 14.4766 24.1289C14.112 24.3372 13.7018 24.5 13.2461 24.6172C13.2331 25.0599 13.2266 25.5026 13.2266 25.9453C13.2005 27.7943 13.2005 29.0182 13.2266 29.6172C13.2396 30.0078 13.1419 30.4115 12.9336 30.8281C12.7383 31.2448 12.4974 31.6354 12.2109 32C11.9245 32.3776 11.6641 32.6836 11.4297 32.918L11.0977 33.2695L10.9219 33.0937C10.7917 32.9635 10.6484 32.7812 10.4922 32.5469C10.349 32.3255 10.2253 32.0586 10.1211 31.7461C10.0169 31.4206 9.97786 31.0625 10.0039 30.6719C10.0299 30.2161 10.043 29.0833 10.043 27.2734C10.043 26.5312 10.043 25.7565 10.043 24.9492C9.40495 25.1055 8.72135 25.4115 7.99219 25.8672C6.88542 26.5833 5.89583 27.293 5.02344 27.9961C4.54167 28.3867 4.15104 28.6862 3.85156 28.8945C3.55208 29.0898 3.38932 29.1289 3.36328 29.0117C3.32422 28.8555 3.17448 28.5755 2.91406 28.1719C2.66667 27.7682 2.36719 27.332 2.01562 26.8633C1.67708 26.3945 1.35807 25.9909 1.05859 25.6523C0.863281 25.3919 0.798177 25.1185 0.863281 24.832C0.941406 24.5456 1.1237 24.3568 1.41016 24.2656C2.07422 24.0964 2.80339 23.901 3.59766 23.6797C3.76693 22.7422 3.88411 21.6354 3.94922 20.3594C4.04036 18.6536 4.07292 17.0651 4.04687 15.5937C4.03385 14.1094 3.99479 13.1654 3.92969 12.7617C3.8776 12.4883 3.82552 12.1628 3.77344 11.7852C3.72135 11.4596 3.66927 11.1406 3.61719 10.8281C2.82292 11.1536 2.28906 11.2643 2.01562 11.1602C1.84635 11.043 1.66406 10.7826 1.46875 10.3789C1.28646 9.96224 1.11068 9.51302 0.941406 9.03125C0.785156 8.54948 0.661458 8.13281 0.570312 7.78125C0.492187 7.42969 0.466146 7.2474 0.492187 7.23437C1.05208 7.32552 1.91146 7.26693 3.07031 7.05859C4.24219 6.83724 5.45964 6.5638 6.72266 6.23828C7.98568 5.91276 9.04687 5.63281 9.90625 5.39844C10.388 5.26823 10.7396 5.17057 10.9609 5.10547C11.5729 4.94922 12.1068 4.91016 12.5625 4.98828C13.0182 5.06641 13.513 5.26823 14.0469 5.59375C14.3854 5.82812 14.5807 6.15365 14.6328 6.57031C14.6849 6.98698 14.6654 7.39714 14.5742 7.80078C14.4961 8.13932 14.431 8.39974 14.3789 8.58203C14.457 8.52995 14.5352 8.47135 14.6133 8.40625C14.7565 8.28906 14.8737 8.1849 14.9648 8.09375C15.7982 7.18229 16.3255 6.19922 16.5469 5.14453C16.599 4.87109 16.625 4.59766 16.625 4.32422C16.612 3.97266 16.6576 3.69271 16.7617 3.48437C16.8659 3.26302 17.1523 3.19792 17.6211 3.28906C18.1419 3.41927 18.6432 3.64714 19.125 3.97266C19.6198 4.29818 20.0625 4.6237 20.4531 4.94922C20.4792 4.97526 20.5117 5.0013 20.5508 5.02734C20.6549 5.14453 20.5247 5.41146 20.1602 5.82812C19.8086 6.23177 19.3398 6.75911 18.7539 7.41016C18.181 8.04818 17.6797 8.60807 17.25 9.08984C16.8333 9.57161 16.6641 9.90365 16.7422 10.0859C16.8594 10.2552 16.9766 10.3398 17.0937 10.3398C17.224 10.3398 17.3802 10.2943 17.5625 10.2031C17.862 10.0469 18.3112 9.95573 18.9102 9.92969C18.9232 9.92969 18.9427 9.92969 18.9687 9.92969C19.125 9.76042 19.2812 9.58464 19.4375 9.40234C19.7109 9.07682 19.9779 8.69271 20.2383 8.25C20.3685 8.04167 20.4922 7.84635 20.6094 7.66406C20.987 7.15625 21.2018 6.58333 21.2539 5.94531C21.2539 5.88021 21.2539 5.8151 21.2539 5.75C21.2409 5.51562 21.2734 5.29427 21.3516 5.08594C21.4818 4.85156 21.6706 4.73437 21.918 4.73437C21.9701 4.73437 22.0221 4.74089 22.0742 4.75391C22.1654 4.79297 22.237 4.85156 22.2891 4.92969C22.3542 4.99479 22.4128 5.07943 22.4648 5.18359C22.4909 5.22266 22.5169 5.26172 22.543 5.30078C22.6602 5.47005 22.8099 5.61979 22.9922 5.75C23.0703 5.8151 23.1484 5.88021 23.2266 5.94531C23.5521 6.25781 23.8776 6.5638 24.2031 6.86328C24.2292 6.88932 24.2487 6.91536 24.2617 6.94141C24.2747 6.95443 24.2812 6.97396 24.2812 7C24.2943 7.02604 24.2878 7.05208 24.2617 7.07812C24.2487 7.10417 24.2357 7.13021 24.2227 7.15625C23.5195 7.97656 22.7383 8.71875 21.8789 9.38281C21.6055 9.65625 21.3385 9.92318 21.0781 10.1836L21.2344 10.3984C21.3516 10.5677 21.5599 10.7565 21.8594 10.9648C22.1589 11.1602 22.582 11.3424 23.1289 11.5117C23.9232 11.7461 24.4049 11.9935 24.5742 12.2539C24.7435 12.5013 24.724 12.8073 24.5156 13.1719C24.4505 13.3411 24.3789 13.5299 24.3008 13.7383C24.2747 13.7904 24.2552 13.849 24.2422 13.9141C24.2682 13.888 24.2943 13.8685 24.3203 13.8555C24.3464 13.8555 24.3659 13.849 24.3789 13.8359C24.6784 13.6276 24.9974 13.4128 25.3359 13.1914C25.6875 12.9701 26.0846 12.6901 26.5273 12.3516C26.4102 12.3646 26.2995 12.3776 26.1953 12.3906C25.7135 12.4818 25.4271 12.5664 25.3359 12.6445C25.2708 12.6966 25.1471 12.612 24.9648 12.3906C24.7956 12.1562 24.6068 11.8633 24.3984 11.5117C24.2031 11.1602 24.0208 10.8281 23.8516 10.5156C23.6953 10.1901 23.5977 9.95573 23.5586 9.8125C23.4805 9.52604 23.5586 9.26562 23.793 9.03125C24.0273 8.79687 24.2812 8.59505 24.5547 8.42578C24.6979 8.33464 24.8151 8.25 24.9062 8.17187C26.2865 6.6224 27.0547 5.36589 27.2109 4.40234C27.237 4.15495 27.2435 3.90755 27.2305 3.66016C27.1914 3.32161 27.2174 3.0612 27.3086 2.87891C27.3997 2.68359 27.6862 2.65104 28.168 2.78125C28.7018 2.9375 29.2292 3.19141 29.75 3.54297C30.2839 3.89453 30.7526 4.23307 31.1562 4.55859C31.1953 4.58464 31.2344 4.61068 31.2734 4.63672C31.3906 4.75391 31.2799 4.98828 30.9414 5.33984C30.6029 5.69141 30.0104 6.33594 29.1641 7.27344C28.3307 8.21094 27.7122 8.88802 27.3086 9.30469C26.918 9.70833 26.7747 10.0013 26.8789 10.1836C26.9961 10.3529 27.1198 10.444 27.25 10.457C27.3802 10.457 27.5365 10.4245 27.7187 10.3594C27.9792 10.2422 28.3698 10.1966 28.8906 10.2227C29.0208 10.0924 29.151 9.96224 29.2812 9.83203C29.5547 9.55859 29.8216 9.22656 30.082 8.83594C30.2122 8.64062 30.3359 8.46484 30.4531 8.30859C30.8307 7.86589 31.0456 7.34505 31.0977 6.74609C31.0977 6.69401 31.0977 6.63542 31.0977 6.57031C31.0846 6.34896 31.1172 6.14062 31.1953 5.94531C31.3255 5.73698 31.5143 5.64583 31.7617 5.67187C31.8138 5.67187 31.8594 5.6849 31.8984 5.71094C32.0026 5.75 32.0807 5.80859 32.1328 5.88672C32.1979 5.95182 32.2565 6.03646 32.3086 6.14062C32.3216 6.16667 32.3411 6.19922 32.3672 6.23828C32.4844 6.42057 32.6341 6.57682 32.8164 6.70703C32.8945 6.77214 32.9727 6.84375 33.0508 6.92187C33.3763 7.23437 33.7018 7.54687 34.0273 7.85937C34.0404 7.8724 34.0534 7.89193 34.0664 7.91797C34.0924 7.94401 34.1055 7.97005 34.1055 7.99609C34.1055 8.02214 34.099 8.04818 34.0859 8.07422C34.0729 8.08724 34.0599 8.10677 34.0469 8.13281C33.3437 8.83594 32.569 9.46745 31.7227 10.0273C31.1237 10.5352 30.5833 11.0039 30.1016 11.4336C30.1016 11.4857 30.0951 11.5312 30.082 11.5703C30.069 11.6354 30.0625 11.6875 30.0625 11.7266C30.0755 11.7656 29.9258 11.8177 29.6133 11.8828C28.7799 12.651 28.1419 13.3086 27.6992 13.8555C28.7539 13.569 29.4115 13.3346 29.6719 13.1523C29.9714 13.1133 30.2578 13.1393 30.5312 13.2305C30.5833 13.2565 30.6354 13.2891 30.6875 13.3281C30.5573 13.1068 30.4531 12.8984 30.375 12.7031C30.2839 12.4948 30.2513 12.2865 30.2773 12.0781C30.3034 11.8568 30.3555 11.6549 30.4336 11.4727C30.5117 11.2904 30.5833 11.1406 30.6484 11.0234L30.7656 10.8672L30.9609 11.1406C31.0911 11.3229 31.332 11.5378 31.6836 11.7852C32.0482 12.0195 32.5495 12.2474 33.1875 12.4687C34.138 12.7943 34.7109 13.1003 34.9062 13.3867C35.1016 13.6602 35.082 13.9792 34.8477 14.3437C34.7565 14.513 34.6654 14.7018 34.5742 14.9102C34.418 15.3008 34.2292 15.6328 34.0078 15.9062C33.7865 16.1797 33.487 16.2383 33.1094 16.082C32.6016 15.7826 32.0677 15.2682 31.5078 14.5391C31.4948 14.513 31.4753 14.487 31.4492 14.4609C31.5404 14.6693 31.612 14.8906 31.6641 15.125C31.7031 15.2161 31.7096 15.3138 31.6836 15.418C31.6445 15.5352 31.5599 15.6068 31.4297 15.6328C31.2995 15.6589 31.1693 15.6589 31.0391 15.6328C29.75 15.5286 28.3568 15.9193 26.8594 16.8047C27.3021 16.9609 27.7057 17.1432 28.0703 17.3516C28.526 17.612 28.7734 17.8398 28.8125 18.0352C28.8385 18.2305 28.8516 18.8555 28.8516 19.9102C28.8516 20.9648 28.8516 22.1823 28.8516 23.5625C28.8385 23.6276 28.832 23.6927 28.832 23.7578C29.4049 23.6276 29.9518 23.5234 30.4727 23.4453C30.4987 23.0937 30.5312 22.7292 30.5703 22.3516C30.7135 20.9583 30.8568 19.7214 31 18.6406L31.2148 17C31.4232 17.1042 31.8008 17.332 32.3477 17.6836C32.9076 18.0352 33.4479 18.4128 33.9687 18.8164C34.5026 19.2201 34.8411 19.5456 34.9844 19.793C35.0625 20.0143 34.9844 20.5677 34.75 21.4531C34.5156 22.3385 34.1836 23.3086 33.7539 24.3633C33.3242 25.418 32.8424 26.3099 32.3086 27.0391C31.7878 27.7552 31.2604 28.0612 30.7266 27.957C30.5182 27.8529 30.3945 27.4557 30.3555 26.7656C30.3164 26.7656 30.2773 26.7591 30.2383 26.7461C29.6523 26.5898 29.1836 26.5508 28.832 26.6289C28.819 27.1888 28.8125 27.7747 28.8125 28.3867C28.7995 30.2357 28.793 31.3229 28.793 31.6484C28.7799 31.9349 28.6693 32.319 28.4609 32.8008C28.2526 33.2826 28.0117 33.7708 27.7383 34.2656C27.4779 34.7604 27.2435 35.1771 27.0352 35.5156L26.7227 36.043L26.4492 35.9844C26.2669 35.9453 26.0586 35.8281 25.8242 35.6328C25.6029 35.4375 25.4076 35.112 25.2383 34.6562C25.069 34.2135 24.9974 33.6016 25.0234 32.8203C25.0495 31.974 25.069 30.431 25.082 28.1914C25.0951 25.9388 25.1081 24.0052 25.1211 22.3906C25.1341 20.776 25.1406 19.3958 25.1406 18.25L25.1602 16.8828C25.1211 16.8437 25.0755 16.8047 25.0234 16.7656C24.763 16.5573 24.5221 16.3424 24.3008 16.1211C24.0924 15.8997 23.9427 15.6589 23.8516 15.3984C23.7865 15.2292 23.7474 15.0599 23.7344 14.8906C23.7214 14.8776 23.7148 14.8646 23.7148 14.8516C23.5456 15.0339 23.3307 15.0729 23.0703 14.9687C22.6276 14.7344 22.1719 14.2917 21.7031 13.6406C21.2474 12.9766 20.9284 12.4167 20.7461 11.9609C20.681 11.7656 20.6549 11.5638 20.668 11.3555C20.694 11.1471 20.7396 10.9583 20.8047 10.7891C20.8698 10.6068 20.9349 10.457 21 10.3398L21.0586 10.2031C19.5612 11.7135 18.4805 12.9245 17.8164 13.8359C18.8841 13.4453 19.5547 13.1393 19.8281 12.918C20.1146 12.8398 20.401 12.8398 20.6875 12.918C21 13.0742 21.2409 13.3346 21.4102 13.6992C21.5924 14.0508 21.7357 14.4284 21.8398 14.832C21.8659 14.9362 21.8724 15.0404 21.8594 15.1445C21.8073 15.2747 21.7161 15.3594 21.5859 15.3984C21.4557 15.4375 21.3255 15.4505 21.1953 15.4375C19.5807 15.4375 17.8164 16.2578 15.9023 17.8984C15.681 17.651 15.4206 17.4102 15.1211 17.1758C14.8607 16.9805 14.6198 16.7786 14.3984 16.5703C14.1901 16.349 14.0404 16.1016 13.9492 15.8281C13.8841 15.6589 13.8385 15.4831 13.8125 15.3008C13.7995 15.1055 13.8255 14.9232 13.8906 14.7539C14.0208 14.5065 14.2031 14.3047 14.4375 14.1484C14.4505 14.1354 14.4635 14.1224 14.4766 14.1094C14.776 13.862 15.0951 13.6081 15.4336 13.3477C15.7721 13.1003 16.1562 12.7812 16.5859 12.3906C16.3516 12.4557 16.1302 12.5208 15.9219 12.5859C15.4271 12.7161 15.1341 12.8203 15.043 12.8984C14.9779 12.9635 14.8672 12.8854 14.7109 12.6641C14.5547 12.4297 14.3854 12.1302 14.2031 11.7656C14.0339 11.401 13.8841 11.056 13.7539 10.7305C13.6237 10.3919 13.5391 10.151 13.5 10.0078C13.4609 9.69531 13.5651 9.40234 13.8125 9.12891C13.8646 9.07682 13.9102 9.02474 13.9492 8.97266C13.4284 9.15495 12.3411 9.2526 10.6875 9.26562C10.987 9.35677 11.2734 9.40885 11.5469 9.42187C12.1328 9.44792 12.6667 9.64323 13.1484 10.0078C13.487 10.3464 13.6562 10.9258 13.6562 11.7461C13.6693 12.5664 13.6302 13.4583 13.5391 14.4219C13.487 15.0339 13.4479 15.6198 13.4219 16.1797C13.3958 17 13.3633 18.3672 13.3242 20.2812C13.3242 20.4245 13.3242 20.5612 13.3242 20.6914C14.1576 20.8216 14.776 21.2122 15.1797 21.8633C15.1667 21.7852 15.1536 21.7135 15.1406 21.6484C14.9844 20.5677 14.8542 19.6367 14.75 18.8555L14.5937 17.6836L18.5 18.6016L18.4609 19.5C18.4479 20.112 18.4479 20.8281 18.4609 21.6484C18.474 22.4687 18.513 23.25 18.5781 23.9922C18.6042 24.1615 18.6302 24.3242 18.6562 24.4805C19.112 24.3503 19.5547 24.2331 19.9844 24.1289C20.0885 23.2174 20.1211 22.332 20.082 21.4727C20.0299 20.9909 19.9779 20.4375 19.9258 19.8125C19.8867 19.1875 19.8477 18.5951 19.8086 18.0352C19.7826 17.4622 19.7695 17.0326 19.7695 16.7461C19.7826 16.4596 19.8151 16.4206 19.8672 16.6289ZM6.78125 16.6094C7.08073 16.6875 7.39323 16.7461 7.71875 16.7852C8.08333 16.8112 8.44141 16.8828 8.79297 17C9.14453 17.1172 9.45703 17.3516 9.73047 17.7031C9.86068 17.8984 9.95182 18.0937 10.0039 18.2891C9.99089 17.1953 9.97135 16.1667 9.94531 15.2031C9.90625 13.4453 9.84766 12.3711 9.76953 11.9805C9.69141 11.5508 9.65234 11.1081 9.65234 10.6523C9.65234 10.1836 9.67187 9.77344 9.71094 9.42187L9.73047 9.26562C9.5612 9.26562 9.39193 9.26562 9.22266 9.26562C7.69922 9.40885 6.32552 9.71484 5.10156 10.1836C5.34896 10.3268 5.6224 10.5091 5.92187 10.7305C6.09115 10.8997 6.23437 11.2839 6.35156 11.8828C6.36458 11.8568 6.38411 11.8307 6.41016 11.8047L6.52734 11.6875C6.82682 11.7656 7.13281 11.8242 7.44531 11.8633C7.82292 11.8893 8.18099 11.9609 8.51953 12.0781C8.87109 12.1953 9.1901 12.4297 9.47656 12.7812C9.72396 13.1458 9.80859 13.5365 9.73047 13.9531C9.65234 14.3568 9.49609 14.7214 9.26172 15.0469C9.04036 15.3724 8.83203 15.5872 8.63672 15.6914C8.45443 15.7565 8.20703 15.6523 7.89453 15.3789C7.58203 15.0924 7.25651 14.7669 6.91797 14.4023C6.8138 14.2852 6.71615 14.181 6.625 14.0898C6.6901 14.8841 6.73568 15.7305 6.76172 16.6289L6.78125 16.6094ZM10.0039 18.8164C10.0039 18.8294 9.9974 18.849 9.98437 18.875C9.90625 19.2786 9.75 19.6432 9.51562 19.9687C9.29427 20.2943 9.09245 20.5091 8.91016 20.6133C8.72786 20.6784 8.47396 20.5742 8.14844 20.3008C7.83594 20.0143 7.51042 19.6888 7.17187 19.3242C7.05469 19.194 6.9375 19.0703 6.82031 18.9531C6.83333 20.3203 6.82682 21.5768 6.80078 22.7227C8.19401 22.2669 9.26823 21.8437 10.0234 21.4531C10.0234 21.375 10.0234 21.2969 10.0234 21.2187C10.0234 20.3854 10.0169 19.5846 10.0039 18.8164ZM49.9805 0.90625C50.6055 1.07552 51.1979 1.13411 51.7578 1.08203C52.0573 1.06901 52.3372 1.07552 52.5977 1.10156C52.8711 1.11458 53.1315 1.17969 53.3789 1.29687C53.6003 1.4401 53.75 1.66797 53.8281 1.98047C54.1406 1.90234 54.4531 1.83073 54.7656 1.76562C56.1068 1.46615 56.9727 1.29036 57.3633 1.23828C57.5716 1.22526 57.7799 1.34896 57.9883 1.60937C58.1966 1.86979 58.3268 2.17578 58.3789 2.52734C58.431 2.86589 58.3398 3.16536 58.1055 3.42578C57.8711 3.67318 57.4154 3.78385 56.7383 3.75781C55.931 3.74479 54.9609 3.84245 53.8281 4.05078C53.8151 4.22005 53.7956 4.38932 53.7695 4.55859C53.7565 4.6237 53.75 4.6888 53.75 4.75391C53.8802 4.72786 54.0039 4.70182 54.1211 4.67578C54.8112 4.54557 55.3646 4.46745 55.7812 4.44141L55.8789 3.97266C56.0872 4.02474 56.4779 4.13542 57.0508 4.30469C57.6367 4.47396 58.2096 4.66276 58.7695 4.87109C59.3424 5.07943 59.707 5.26172 59.8633 5.41797C59.9414 5.5612 59.8047 5.91927 59.4531 6.49219C59.1146 7.05208 58.6719 7.67708 58.125 8.36719C57.8906 8.67969 57.6562 8.96615 57.4219 9.22656C57.8385 9.20052 58.125 9.21354 58.2812 9.26562C58.6068 9.44792 58.7956 9.72786 58.8477 10.1055C58.9128 10.4701 58.6393 10.8281 58.0273 11.1797C57.4154 11.5312 56.276 11.7721 54.6094 11.9023C54.2578 11.9414 53.9193 11.974 53.5937 12C53.5937 12.1562 53.5937 12.306 53.5937 12.4492C54.9089 12.2799 56.0807 12.1562 57.1094 12.0781C58.4375 11.974 59.1732 12 59.3164 12.1562C59.3164 12.1693 59.3164 12.1758 59.3164 12.1758C59.3685 12.1367 59.4141 12.0977 59.4531 12.0586L59.5508 11.9609C59.7331 11.987 59.9414 12.0391 60.1758 12.1172C60.0846 12.0521 59.9935 11.974 59.9023 11.8828C59.5247 11.5052 59.2513 11.1471 59.082 10.8086C59.0169 10.7174 58.9648 10.6393 58.9258 10.5742L59.9219 10.418C60.5859 10.3138 61.3737 10.1836 62.2852 10.0273C63.2096 9.85807 64.1016 9.67578 64.9609 9.48047C65.638 9.3112 66.1589 9.21354 66.5234 9.1875C66.901 9.16146 67.207 9.19401 67.4414 9.28516C67.6758 9.3763 67.9362 9.51302 68.2227 9.69531C68.3919 9.78646 68.5807 9.89714 68.7891 10.0273C69.5182 10.4701 70.0065 11.0169 70.2539 11.668C70.5013 12.319 70.4036 12.8203 69.9609 13.1719C69.5964 13.4323 68.9909 13.9531 68.1445 14.7344C67.9362 14.9167 67.7214 15.1055 67.5 15.3008C68.8411 15.9388 69.7982 16.3685 70.3711 16.5898C70.918 16.7982 71.4844 16.9414 72.0703 17.0195C72.6562 17.0977 73.1641 17.1432 73.5937 17.1562L74.2187 17.1758L73.7109 17.625C73.3724 17.9115 72.9622 18.2435 72.4805 18.6211C72.0117 18.9857 71.5495 19.3047 71.0937 19.5781C70.3906 19.9818 69.6289 20.2422 68.8086 20.3594C67.9883 20.4635 67.3503 20.2161 66.8945 19.6172C66.556 19.1615 65.8659 18.4844 64.8242 17.5859C64.2643 18.0156 63.724 18.4062 63.2031 18.7578C62.7604 19.0182 62.2917 19.2266 61.7969 19.3828C61.9922 19.4479 62.2201 19.513 62.4805 19.5781C63.0013 19.7214 63.4961 19.8971 63.9648 20.1055C64.4466 20.3138 64.7201 20.5742 64.7852 20.8867C64.707 21.4857 63.6719 22.4102 61.6797 23.6602C59.7005 24.8971 57.526 25.9779 55.1562 26.9023C55.2865 26.9935 55.6901 27 56.3672 26.9219C57.0443 26.8437 57.7995 26.7266 58.6328 26.5703C59.4792 26.4141 60.2214 26.2708 60.8594 26.1406L61.8164 25.9453L61.6016 26.1797C61.4583 26.3229 61.2956 26.4987 61.1133 26.707C60.944 26.9154 60.7878 27.1302 60.6445 27.3516C60.5143 27.5729 60.4427 27.7552 60.4297 27.8984C60.4167 27.9245 60.3971 27.957 60.3711 27.9961C60.6315 28.0742 60.7747 28.1979 60.8008 28.3672C60.8268 28.5365 60.7943 28.7448 60.7031 28.9922C60.612 29.2786 60.5664 29.6042 60.5664 29.9687C60.5924 30.4766 60.612 31.2448 60.625 32.2734C60.651 33.4583 60.6901 34.6367 60.7422 35.8086C60.7031 36.2773 60.3581 36.7005 59.707 37.0781C59.069 37.4557 58.3984 37.6706 57.6953 37.7227C57.3828 37.7357 57.1615 37.6771 57.0312 37.5469C56.901 37.4167 56.7969 37.2539 56.7187 37.0586C56.6276 36.8633 56.4909 36.6549 56.3086 36.4336C56.1393 36.2253 55.8398 36.0495 55.4102 35.9062C54.5508 35.6458 53.9323 35.4766 53.5547 35.3984L52.9883 35.3008L53.5156 35.2031C53.8672 35.151 54.2708 35.0599 54.7266 34.9297C55.1953 34.8125 55.6185 34.6562 55.9961 34.4609C56.3867 34.2786 56.6341 34.0508 56.7383 33.7773C56.9336 33.1523 57.0508 32.3646 57.0898 31.4141C57.1289 30.5547 56.9857 29.8711 56.6602 29.3633C55.931 29.5586 55.2539 29.7409 54.6289 29.9102C54.1471 30.0404 53.763 30.1445 53.4766 30.2227C53.112 30.3008 52.7344 30.1706 52.3437 29.832C51.9531 29.4805 51.6081 29.0573 51.3086 28.5625C51.0221 28.0547 50.8398 27.6055 50.7617 27.2148C50.6966 26.8112 50.7878 26.5898 51.0352 26.5508C51.3346 26.5247 51.7904 26.375 52.4023 26.1016C53.0143 25.8151 53.6523 25.4896 54.3164 25.125C54.9935 24.7474 55.5729 24.4154 56.0547 24.1289C56.5365 23.8424 56.7904 23.6797 56.8164 23.6406C56.8034 23.6276 56.6016 23.6602 56.2109 23.7383C55.8203 23.8034 55.3581 23.901 54.8242 24.0312C54.2904 24.1484 53.7956 24.2721 53.3398 24.4023C52.8841 24.5326 52.5846 24.6367 52.4414 24.7148C52.2982 24.7669 52.0833 24.6562 51.7969 24.3828C51.5234 24.1094 51.2435 23.7708 50.957 23.3672C50.6836 22.9505 50.4883 22.5664 50.3711 22.2148C50.2539 21.8633 50.2865 21.6354 50.4687 21.5312C50.7812 21.375 51.3346 21.0169 52.1289 20.457C52.194 20.418 52.2591 20.3724 52.3242 20.3203C50.7747 20.4505 49.5638 20.6849 48.6914 21.0234C47.806 21.3229 47.207 21.3945 46.8945 21.2383C46.6992 21.1081 46.5104 20.8997 46.3281 20.6133C46.1458 20.3268 45.9961 20.0339 45.8789 19.7344C45.7617 19.4219 45.7031 19.181 45.7031 19.0117C45.7031 18.8424 45.7812 18.7839 45.9375 18.8359C45.9766 18.849 46.0286 18.8555 46.0937 18.8555C45.9635 18.5039 45.8398 18.1328 45.7227 17.7422C45.5794 17.2604 45.4687 16.8437 45.3906 16.4922L45.2539 15.9648L49.3164 16.1406L49.2578 16.5703C49.2187 16.8437 49.1927 17.1693 49.1797 17.5469C49.1667 17.8594 49.1797 18.1523 49.2187 18.4258C49.5964 18.3607 50 18.2891 50.4297 18.2109C50.4167 18.0807 50.4102 17.944 50.4102 17.8008C50.4362 17.4492 50.4427 16.5703 50.4297 15.1641C50.4297 15.112 50.4297 15.0599 50.4297 15.0078C50.4036 15.0078 50.3841 15.0078 50.3711 15.0078C48.9518 15.2812 47.9102 15.5221 47.2461 15.7305C46.8034 15.8737 46.3607 15.8867 45.918 15.7695C45.4883 15.6523 45.0977 15.4766 44.7461 15.2422C44.4076 15.0078 44.1406 14.793 43.9453 14.5977C43.763 14.4023 43.6979 14.2852 43.75 14.2461C44.4661 14.0247 45.6315 13.7643 47.2461 13.4648C48.2617 13.2826 49.3099 13.1003 50.3906 12.918C50.3906 12.7747 50.3906 12.625 50.3906 12.4687C49.6615 12.612 49.0625 12.7617 48.5937 12.918C47.6823 13.1914 47.0378 13.276 46.6602 13.1719C46.4258 13.0937 46.1784 12.957 45.918 12.7617C45.6706 12.5534 45.4557 12.3385 45.2734 12.1172C45.0911 11.8958 44.9805 11.7201 44.9414 11.5898C44.9154 11.4466 44.9935 11.3945 45.1758 11.4336C45.319 11.4596 45.6836 11.4206 46.2695 11.3164C46.1784 11.082 46.0807 10.8021 45.9766 10.4766C45.7943 9.83854 45.625 9.16797 45.4687 8.46484C45.3125 7.7487 45.1823 7.13021 45.0781 6.60937L44.9414 5.84766L46.7773 6.23828C46.9727 6.19922 47.2135 6.15365 47.5 6.10156C48.1901 5.95833 49.0234 5.77604 50 5.55469C50.0651 5.54167 50.1237 5.52865 50.1758 5.51562C50.1628 5.28125 50.1497 5.06641 50.1367 4.87109C49.3164 5.07943 48.5482 5.28125 47.832 5.47656C47.0117 5.69792 46.4518 5.84115 46.1523 5.90625C45.8138 5.94531 45.5404 5.80859 45.332 5.49609C45.1367 5.17057 44.9674 4.79297 44.8242 4.36328C44.6549 3.84245 44.4466 3.45182 44.1992 3.19141L44.8437 3.17187C45.2604 3.14583 45.7812 3.11979 46.4062 3.09375C47.0312 3.05469 47.7018 3.01562 48.418 2.97656C48.8216 2.9375 49.3164 2.8724 49.9023 2.78125C49.8763 2.61198 49.8633 2.44271 49.8633 2.27344C49.8633 1.92187 49.8828 1.60937 49.9219 1.33594L49.9805 0.90625ZM55.3516 14.3828C55.5599 14.4219 55.9375 14.513 56.4844 14.6562C57.0443 14.7995 57.5911 14.9557 58.125 15.125C58.6719 15.2812 59.0234 15.418 59.1797 15.5352C59.2708 15.6393 59.1797 15.8997 58.9062 16.3164C58.724 16.6029 58.5091 16.9089 58.2617 17.2344C58.3008 17.2474 58.3398 17.2669 58.3789 17.293C58.6003 17.5273 58.7174 17.8268 58.7305 18.1914C58.9779 18.2956 59.2122 18.3802 59.4336 18.4453C59.8763 18.237 60.3776 17.9831 60.9375 17.6836C61.7057 17.2539 62.4349 16.7526 63.125 16.1797C62.5391 15.6979 61.9466 15.2292 61.3477 14.7734C60.2409 13.9141 59.5247 13.4062 59.1992 13.25C59.1992 13.25 59.1927 13.25 59.1797 13.25C59.0234 13.5755 58.7956 13.862 58.4961 14.1094C58.1576 14.3698 57.7734 14.4479 57.3437 14.3437C56.849 14.2135 55.918 14.2266 54.5508 14.3828C54.2383 14.4219 53.9258 14.4609 53.6133 14.5C53.6263 15.5156 53.6458 16.2057 53.6719 16.5703C53.6849 16.8568 53.5872 17.1693 53.3789 17.5078C53.3398 17.5729 53.3008 17.638 53.2617 17.7031C53.8607 17.599 54.4401 17.5078 55 17.4297C55.013 17.2604 55.026 17.0846 55.0391 16.9023C55.0911 16.2383 55.1562 15.6523 55.2344 15.1445L55.3516 14.3828ZM60.332 1.72656C60.4622 1.81771 60.8464 1.82422 61.4844 1.74609C62.1354 1.65495 62.8776 1.54427 63.7109 1.41406C64.5573 1.27083 65.3255 1.16016 66.0156 1.08203C66.7057 0.990885 67.1354 0.984375 67.3047 1.0625C67.4609 1.15365 67.6367 1.27083 67.832 1.41406C68.0273 1.54427 68.2161 1.68099 68.3984 1.82422C68.5807 1.95443 68.724 2.0651 68.8281 2.15625C68.9323 2.2474 68.9648 2.30599 68.9258 2.33203C68.8216 2.33203 68.6849 2.47526 68.5156 2.76172C68.3594 3.04818 68.2031 3.53646 68.0469 4.22656C67.7604 5.75 68.1706 6.47917 69.2773 6.41406C69.5638 6.375 69.9284 6.34245 70.3711 6.31641C70.8268 6.29036 71.2826 6.27734 71.7383 6.27734C72.194 6.26432 72.5781 6.25781 72.8906 6.25781L73.3789 6.25781C72.9232 6.33594 72.5977 6.50521 72.4023 6.76562C72.2201 7.01302 72.0833 7.29297 71.9922 7.60547C71.888 7.90495 71.7448 8.1849 71.5625 8.44531C71.3932 8.69271 71.1003 8.875 70.6836 8.99219C70.0586 9.13542 69.3945 9.1875 68.6914 9.14844C67.9883 9.10937 67.3568 9.03125 66.7969 8.91406C66.25 8.79687 65.8854 8.6862 65.7031 8.58203C65.5599 8.45182 65.4557 8.10026 65.3906 7.52734C65.3255 6.95443 65.2995 6.34896 65.3125 5.71094C65.3385 5.0599 65.3841 4.55859 65.4492 4.20703C65.4622 4.18099 65.4687 4.15495 65.4687 4.12891C65.599 3.6862 65.6055 3.41927 65.4883 3.32812C65.3841 3.22396 65.013 3.20443 64.375 3.26953C63.6589 3.3737 63.0599 3.53646 62.5781 3.75781C62.5391 3.77083 62.4935 3.79036 62.4414 3.81641C62.5456 3.97266 62.6302 4.18099 62.6953 4.44141C62.8646 5.02734 62.9622 5.69792 62.9883 6.45312C63.0143 7.19531 62.9883 7.85937 62.9102 8.44531C62.832 9.01823 62.7148 9.35026 62.5586 9.44141C62.3893 9.50651 62.0833 9.57161 61.6406 9.63672C61.2109 9.70182 60.7617 9.74089 60.293 9.75391C59.8372 9.76693 59.4857 9.71484 59.2383 9.59766C58.9909 9.48047 58.9714 9.26562 59.1797 8.95312C59.4792 8.51042 59.681 7.95703 59.7852 7.29297C59.8893 6.61589 59.9284 5.99089 59.9023 5.41797C59.8893 4.84505 59.8437 4.48047 59.7656 4.32422C59.7135 4.23307 59.6549 4.11589 59.5898 3.97266C59.5247 3.82943 59.4596 3.6862 59.3945 3.54297C59.3294 3.39974 59.2773 3.27604 59.2383 3.17187L59.1797 3.03516C59.401 3.10026 59.7266 3.14583 60.1562 3.17187C60.5469 3.19792 61.0026 3.25 61.5234 3.32812C61.4974 3.27604 61.4648 3.22396 61.4258 3.17187C61.1784 2.84635 60.931 2.53385 60.6836 2.23437C60.5273 2.03906 60.4102 1.89583 60.332 1.80469C60.2669 1.70052 60.2669 1.67448 60.332 1.72656ZM50.6641 29.6953C50.612 29.6172 50.6966 29.6302 50.918 29.7344C51.1523 29.8255 51.4388 29.9818 51.7773 30.2031C52.1159 30.4115 52.4349 30.6523 52.7344 30.9258C53.0469 31.1992 53.2682 31.4727 53.3984 31.7461C53.5156 32.1237 53.3333 32.5794 52.8516 33.1133C52.3698 33.6471 51.7643 34.1094 51.0352 34.5C50.319 34.8906 49.6745 35.0534 49.1016 34.9883L46.6992 34.4414L47.3047 33.7578C47.7214 33.2891 48.1901 32.7487 48.7109 32.1367C49.2448 31.5378 49.7005 30.9974 50.0781 30.5156C50.4687 30.0339 50.6641 29.7604 50.6641 29.6953ZM63.5937 29.8125L64.4336 30.1836C64.9935 30.431 65.651 30.7305 66.4062 31.082C67.1615 31.4206 67.8776 31.7591 68.5547 32.0977C69.2318 32.4362 69.7135 32.7096 70 32.918C70.2995 33.2174 70.2279 33.6146 69.7852 34.1094C69.3555 34.6042 68.8086 35.0339 68.1445 35.3984C67.4805 35.776 66.9531 35.9193 66.5625 35.8281C66.2891 35.7109 65.9831 35.3464 65.6445 34.7344C65.319 34.1354 65 33.4518 64.6875 32.6836C64.375 31.9284 64.1146 31.2578 63.9062 30.6719L63.5937 29.8125ZM62.5 25.0664C63.1771 25.2227 63.9128 25.4961 64.707 25.8867C65.5013 26.2773 66.1393 26.707 66.6211 27.1758C66.8815 27.5013 66.9141 27.8398 66.7187 28.1914C66.5365 28.5299 66.263 28.8359 65.8984 29.1094C65.5469 29.3698 65.2344 29.5391 64.9609 29.6172C64.7005 29.6693 64.388 29.5716 64.0234 29.3242C63.6589 29.0638 63.2878 28.7643 62.9102 28.4258C62.5716 28.1393 62.2591 27.8984 61.9727 27.7031C61.7513 27.5339 61.6471 27.306 61.6602 27.0195C61.6732 26.7331 61.7448 26.4401 61.875 26.1406C62.0182 25.8411 62.1615 25.5872 62.3047 25.3789L62.5 25.0664ZM50.2539 7.37109C49.6549 7.5013 49.1927 7.63151 48.8672 7.76172C48.8542 7.94401 48.8477 8.13281 48.8477 8.32812C48.9128 8.3151 48.9714 8.30208 49.0234 8.28906C49.401 8.22396 49.8177 8.13932 50.2734 8.03516C50.2604 7.8138 50.2539 7.59245 50.2539 7.37109ZM55.3125 6.70703C54.8568 6.8112 54.2969 6.88932 53.6328 6.94141C53.6198 7.07161 53.6133 7.20833 53.6133 7.35156C54.2643 7.23437 54.6354 7.20833 54.7266 7.27344C54.7786 7.35156 54.8242 7.49479 54.8633 7.70312C54.9154 7.91146 54.9154 8.13281 54.8633 8.36719C54.8242 8.60156 54.707 8.79687 54.5117 8.95312C54.3294 9.10937 54.0365 9.18099 53.6328 9.16797C53.6198 9.16797 53.6068 9.16797 53.5937 9.16797C53.5937 9.38932 53.5937 9.61719 53.5937 9.85156C54.0625 9.76042 54.5182 9.67578 54.9609 9.59766C54.9609 9.23307 54.987 8.82292 55.0391 8.36719C55.1172 7.82031 55.2083 7.26693 55.3125 6.70703ZM50.3516 10.4961C50.3516 10.4701 50.3516 10.4505 50.3516 10.4375C50.3385 10.2031 50.332 9.96875 50.332 9.73437C50.2018 9.77344 50.0781 9.8125 49.9609 9.85156C49.6484 9.94271 49.388 10.0078 49.1797 10.0469C49.0755 10.0729 48.9974 10.0924 48.9453 10.1055C48.9453 10.1315 48.9453 10.151 48.9453 10.1641C48.9844 10.3984 49.0299 10.5937 49.082 10.75C49.3685 10.6979 49.6615 10.6393 49.9609 10.5742C50.0911 10.5482 50.2214 10.5221 50.3516 10.4961ZM65.1953 14.207C65.5859 13.8034 65.9245 13.4062 66.2109 13.0156C66.7708 12.2734 67.0182 11.8177 66.9531 11.6484C66.849 11.5312 66.4714 11.5247 65.8203 11.6289C65.1693 11.7201 64.4401 11.8503 63.6328 12.0195C62.6953 12.2148 61.9466 12.3451 61.3867 12.4102C61.2695 12.4102 61.1589 12.4102 61.0547 12.4102C61.5755 12.5924 62.1745 12.8333 62.8516 13.1328C63.6328 13.4844 64.4141 13.8424 65.1953 14.207ZM60.957 19.5781C60.293 19.6953 59.668 19.7474 59.082 19.7344C58.8346 19.7344 58.6003 19.7279 58.3789 19.7148C57.8971 20.0013 57.3828 20.2812 56.8359 20.5547C56.224 20.8672 55.7096 21.1471 55.293 21.3945C54.8893 21.6289 54.7135 21.7917 54.7656 21.8828C54.9349 22.0651 55.2799 22.1497 55.8008 22.1367C56.3216 22.1107 56.8424 22.0521 57.3633 21.9609C57.8841 21.8698 58.2357 21.7852 58.418 21.707C59.2253 21.3685 59.8307 20.9714 60.2344 20.5156C60.5469 20.151 60.7878 19.8385 60.957 19.5781ZM106.949 11.9414L107.75 12.2734C108.284 12.4818 108.915 12.7487 109.645 13.0742C110.387 13.3867 111.09 13.6992 111.754 14.0117C112.418 14.3242 112.913 14.5911 113.238 14.8125C113.603 15.138 113.544 15.5807 113.062 16.1406C112.581 16.7005 111.962 17.1953 111.207 17.625C110.452 18.0417 109.853 18.2044 109.41 18.1133C109.111 17.9961 108.811 17.625 108.512 17C108.225 16.375 107.965 15.6719 107.73 14.8906C107.496 14.1094 107.307 13.4193 107.164 12.8203L106.949 11.9414ZM87.7695 13.2305C87.6914 13.1393 87.7891 13.1068 88.0625 13.1328C88.349 13.1458 88.7201 13.2109 89.1758 13.3281C89.6445 13.4453 90.1003 13.6081 90.543 13.8164C90.9987 14.0247 91.3568 14.2786 91.6172 14.5781C91.9167 14.9948 91.9167 15.5482 91.6172 16.2383C91.3177 16.9154 90.862 17.5599 90.25 18.1719C89.638 18.7708 89.013 19.1615 88.375 19.3437C87.9193 19.4609 87.5286 19.5195 87.2031 19.5195C86.8776 19.5195 86.6172 19.4935 86.4219 19.4414C86.2266 19.3763 86.0833 19.3112 85.9922 19.2461L85.8555 19.1484L86.1875 18.2695C86.3958 17.6836 86.6302 17.013 86.8906 16.2578C87.151 15.5026 87.3724 14.832 87.5547 14.2461C87.737 13.6471 87.8086 13.3086 87.7695 13.2305ZM96.4609 1.14062C97.0339 1.19271 97.6198 1.20573 98.2187 1.17969C98.9089 1.14062 99.5794 1.16016 100.23 1.23828C100.895 1.31641 101.5 1.5638 102.047 1.98047C102.516 2.41016 102.672 2.91797 102.516 3.50391C102.372 4.07682 102.086 4.61068 101.656 5.10547C101.24 5.60026 100.862 5.9388 100.523 6.12109C100.172 6.2513 99.6966 6.16667 99.0977 5.86719C98.5117 5.55469 97.8932 5.18359 97.2422 4.75391C96.6953 4.3763 96.1875 4.0638 95.7187 3.81641C95.4193 3.66016 95.25 3.47135 95.2109 3.25C95.1719 3.01562 95.2109 2.78125 95.3281 2.54687C95.4453 2.29948 95.5885 2.07161 95.7578 1.86328C95.9401 1.65495 96.1029 1.47917 96.2461 1.33594L96.4609 1.14062ZM83.0625 8.91406C84.4687 8.52344 86.7344 8.08724 89.8594 7.60547C92.9974 7.11068 96.3307 6.66146 99.8594 6.25781C103.388 5.84115 106.441 5.55469 109.02 5.39844C111.598 5.24219 113.03 5.30729 113.316 5.59375C113.538 6.02344 113.492 6.58333 113.18 7.27344C112.867 7.95052 112.379 8.52344 111.715 8.99219C111.051 9.46094 110.302 9.59115 109.469 9.38281C108.57 9.17448 106.936 9.16797 104.566 9.36328C104.553 9.48047 104.469 9.88411 104.312 10.5742C104.312 10.6133 104.306 10.6784 104.293 10.7695C104.306 10.9779 104.404 12.7422 104.586 16.0625L104.547 16.0625L104.586 16.1016C104.586 16.2969 104.599 17.2083 104.625 18.8359C104.625 18.849 104.632 18.8815 104.645 18.9336C104.645 19.5195 104.072 20.1315 102.926 20.7695C102.34 21.0299 101.819 21.1732 101.363 21.1992C100.882 21.2122 100.549 20.9128 100.367 20.3008C100.133 19.8581 99.7747 19.5391 99.293 19.3437C98.0169 18.9792 97.1706 18.7773 96.7539 18.7383C96.6628 18.9857 96.5651 19.2135 96.4609 19.4219C96.7734 19.5521 97.2227 19.7148 97.8086 19.9102C98.5117 20.1445 99.2865 20.4245 100.133 20.75C100.628 21.0365 100.842 21.7396 100.777 22.8594C100.777 22.8594 100.784 22.8594 100.797 22.8594C104.091 22.4818 106.949 22.2279 109.371 22.0977C111.793 21.9544 113.141 22.0195 113.414 22.293C113.635 22.7096 113.616 23.2435 113.355 23.8945C113.108 24.5456 112.685 25.0924 112.086 25.5352C111.487 25.9779 110.79 26.0951 109.996 25.8867C109.085 25.6654 107.385 25.6654 104.898 25.8867C103.505 26.0039 102.105 26.1536 100.699 26.3359C100.699 26.362 100.699 26.3945 100.699 26.4336C100.699 26.6159 101.533 27.0977 103.199 27.8789C104.879 28.6602 106.786 29.5065 108.922 30.418C111.07 31.3294 112.984 32.1302 114.664 32.8203L117.164 33.8555L117.125 33.8945C117.099 33.9206 117.053 33.9531 116.988 33.9922C116.923 34.0312 116.826 34.0703 116.695 34.1094C116.578 34.1484 116.422 34.1745 116.227 34.1875C116.031 34.2135 115.784 34.2201 115.484 34.207C115.055 34.207 114.664 34.3698 114.312 34.6953C113.961 35.0208 113.635 35.3919 113.336 35.8086C112.945 36.3685 112.542 36.7852 112.125 37.0586C111.526 37.3711 110.523 37.2995 109.117 36.8437C107.724 36.388 106.331 35.4115 104.937 33.9141C102.555 31.401 100.654 29.6302 99.2344 28.6016C99.1432 28.8359 99.0391 29.0703 98.9219 29.3047C98.0885 31.1927 97.1771 32.5534 96.1875 33.3867C95.4323 33.9336 94.5273 34.3893 93.4727 34.7539C92.418 35.1185 91.3698 35.4115 90.3281 35.6328C89.2995 35.8542 88.4336 36.0104 87.7305 36.1016L86.6758 36.2383L87.8672 35.3008C88.6484 34.6758 89.5664 33.8555 90.6211 32.8398C91.6888 31.8242 92.6719 30.7174 93.5703 29.5195C94.1432 28.7513 94.5924 27.9831 94.918 27.2148C93.5247 27.4753 92.4375 27.7161 91.6562 27.9375C90.849 28.1458 90.0417 28.1458 89.2344 27.9375C88.4401 27.7161 87.7174 27.4036 87.0664 27C86.4284 26.5964 85.9271 26.2253 85.5625 25.8867C85.2109 25.5352 85.0742 25.3398 85.1523 25.3008C86.4414 24.9362 88.5443 24.526 91.4609 24.0703C92.8672 23.862 94.306 23.6602 95.7773 23.4648C95.9466 22.3451 96.0312 21.4596 96.0312 20.8086L96.0312 20.1836C95.4193 21.043 94.7292 21.1602 93.9609 20.5352C93.4661 20.2096 92.9128 19.9818 92.3008 19.8516L91.3828 19.6367L92.0469 19.3242C92.4766 19.1159 92.9518 18.3086 93.4727 16.9023C94.0065 15.4961 94.293 13.6471 94.332 11.3555C94.2799 11.1602 94.2279 10.9453 94.1758 10.7109C92.3008 11.0365 90.8685 11.3359 89.8789 11.6094C89.0065 11.8437 88.1471 11.8503 87.3008 11.6289C86.4544 11.4076 85.6927 11.0951 85.0156 10.6914C84.3516 10.2747 83.8372 9.89062 83.4727 9.53906C83.1211 9.17448 82.9844 8.96615 83.0625 8.91406ZM96.7734 18.6602C97.4896 18.5039 98.1927 18.3021 98.8828 18.0547C99.5078 17.7812 99.9505 17.5143 100.211 17.2539C100.432 17.0065 100.543 16.7135 100.543 16.375C100.673 15.5156 100.777 14.2526 100.855 12.5859C100.855 11.4661 100.706 10.6589 100.406 10.1641C100.315 10.0599 100.23 9.94922 100.152 9.83203C99.5534 9.91016 98.9479 9.98828 98.3359 10.0664C98.349 10.1055 98.3555 10.138 98.3555 10.1641C97.9518 14.0443 97.4245 16.8763 96.7734 18.6602ZM149.641 14.8125L149.68 15.8086C151.255 15.5612 152.043 15.4115 152.043 15.3594C152.03 15.2682 152.141 14.6693 152.375 13.5625L152.336 13.543C151.477 13.4648 150.572 13.6081 149.621 13.9727C149.621 14.3372 149.628 14.6172 149.641 14.8125ZM153.488 9.59766L153.527 9.59766C155.572 11.3815 156.678 12.5273 156.848 13.0352C156.861 13.3607 156.392 14.0964 155.441 15.2422L155.441 15.3008C155.741 15.6263 155.904 16.0299 155.93 16.5117C155.969 17.2409 155.565 17.7292 154.719 17.9766C154.458 18.0807 153.501 18.0937 151.848 18.0156C151.431 18.0547 151.008 18.1133 150.578 18.1914C150.643 18.3607 150.65 18.5495 150.598 18.7578C150.52 19.0964 150.37 19.4154 150.148 19.7148C151.268 19.5846 152.323 19.4609 153.312 19.3437C154.836 19.1875 155.695 19.168 155.891 19.2852C156.008 19.4023 156.105 19.6302 156.184 19.9687C156.275 20.2943 156.275 20.6458 156.184 21.0234C156.105 21.401 155.871 21.7135 155.48 21.9609C155.09 22.1953 154.478 22.2799 153.645 22.2148C152.98 22.1758 152.264 22.1823 151.496 22.2344C151.483 22.5469 151.444 22.8659 151.379 23.1914C151.34 23.4388 151.314 23.6797 151.301 23.9141C151.73 23.862 152.141 23.8099 152.531 23.7578C153.833 23.6146 154.569 23.5951 154.738 23.6992C154.842 23.8164 154.927 24.0312 154.992 24.3437C155.07 24.6562 155.07 24.9883 154.992 25.3398C154.927 25.6784 154.725 25.9583 154.387 26.1797C154.061 26.401 153.54 26.4857 152.824 26.4336C152.303 26.3945 151.75 26.3945 151.164 26.4336C151.164 26.5117 151.164 26.5898 151.164 26.668C151.138 27.0716 151.118 27.4753 151.105 27.8789C151.639 27.8138 152.154 27.7552 152.648 27.7031C153.951 27.5469 154.686 27.5208 154.855 27.625C154.96 27.7422 155.044 27.957 155.109 28.2695C155.187 28.569 155.187 28.8945 155.109 29.2461C155.044 29.5846 154.842 29.8711 154.504 30.1055C154.165 30.3268 153.645 30.4115 152.941 30.3594C152.355 30.3203 151.724 30.3268 151.047 30.3789C151.021 31.2122 151.021 31.7917 151.047 32.1172C151.984 32 152.681 31.8893 153.137 31.7852C154.204 31.5378 155.22 31.5443 156.184 31.8047C157.16 32.0651 157.831 32.5339 158.195 33.2109C158.456 33.901 158.163 34.4544 157.316 34.8711C156.47 35.2878 155.363 35.3594 153.996 35.0859C153.163 34.9297 152.017 34.9297 150.559 35.0859C149.1 35.2422 147.681 35.431 146.301 35.6523C145.337 35.7956 144.536 35.8997 143.898 35.9648C143.273 36.043 142.948 36.0365 142.922 35.9453C142.87 35.763 142.687 35.4701 142.375 35.0664C142.388 35.1445 142.395 35.2031 142.395 35.2422C142.408 35.4115 142.31 35.5872 142.102 35.7695C141.893 35.9648 141.639 36.1471 141.34 36.3164C141.04 36.4987 140.773 36.6484 140.539 36.7656L140.207 36.9219L140.012 36.8437C139.882 36.8047 139.738 36.7331 139.582 36.6289C139.426 36.5378 139.296 36.4206 139.191 36.2773C139.087 36.1471 139.042 35.9974 139.055 35.8281C139.081 35.5937 139.1 34.832 139.113 33.543C139.126 32.2539 139.133 30.7891 139.133 29.1484C139.12 27.9896 139.107 26.9154 139.094 25.9258C138.534 26.3424 138.156 26.5898 137.961 26.668C137.753 26.7201 137.453 26.7656 137.062 26.8047C136.672 26.8307 136.262 26.8503 135.832 26.8633C135.415 26.8763 135.057 26.8828 134.758 26.8828L134.309 26.8828L135.227 26.0039C135.839 25.418 136.529 24.6953 137.297 23.8359C137.844 23.25 138.332 22.6641 138.762 22.0781C138.762 21.9479 138.768 21.8242 138.781 21.707C138.807 21.5638 138.833 21.4466 138.859 21.3555L138.898 21.2187C139.042 21.2448 139.185 21.2708 139.328 21.2969C139.875 20.4896 140.161 19.819 140.187 19.2852C140.135 19.2982 140.09 19.3112 140.051 19.3242C139.556 19.5716 139.159 19.6953 138.859 19.6953C138.703 19.6953 138.534 19.5911 138.352 19.3828C138.352 19.3958 138.352 19.4089 138.352 19.4219C138.182 20.0339 137.909 20.6328 137.531 21.2187C137.154 21.8047 136.737 22.1628 136.281 22.293C135.917 22.3451 135.546 22.1823 135.168 21.8047C134.803 21.4271 134.439 20.9844 134.074 20.4766C134.022 20.4115 133.977 20.3464 133.937 20.2812C133.898 22.5208 133.872 24.7344 133.859 26.9219C133.82 29.9167 133.82 31.7721 133.859 32.4883C133.885 32.9049 133.775 33.3477 133.527 33.8164C133.28 34.2852 132.987 34.7279 132.648 35.1445C132.31 35.5742 132.01 35.9258 131.75 36.1992L131.34 36.6094L131.125 36.4141C130.982 36.2969 130.819 36.1211 130.637 35.8867C130.454 35.6654 130.298 35.3854 130.168 35.0469C130.051 34.7214 130.005 34.3503 130.031 33.9336C130.057 33.3997 130.07 31.8568 130.07 29.3047C130.083 27.612 130.09 25.7695 130.09 23.7773C129.699 24.5065 129.237 25.1836 128.703 25.8086C127.987 26.6549 127.303 27.0781 126.652 27.0781C126.184 27.0391 125.812 27.013 125.539 27C125.266 26.987 125.057 26.987 124.914 27C124.784 27 124.699 27 124.66 27L124.602 27.0195L125.109 26.1406C125.461 25.5547 125.845 24.7995 126.262 23.875C126.691 22.9375 127.049 21.9414 127.336 20.8867C127.622 19.832 127.727 18.8294 127.648 17.8789C127.648 17.6576 127.85 17.6445 128.254 17.8398C128.671 18.0221 129.133 18.3477 129.641 18.8164C129.784 18.9596 129.927 19.1094 130.07 19.2656C130.057 18.0026 130.044 16.7917 130.031 15.6328C129.562 15.8281 129.113 16.0234 128.684 16.2187C128.059 16.4922 127.551 16.7005 127.16 16.8437C126.783 16.987 126.568 17 126.516 16.8828C126.437 16.6615 126.19 16.3164 125.773 15.8477C125.37 15.3659 124.953 14.9167 124.523 14.5C124.107 14.0703 123.84 13.8099 123.723 13.7187L124.875 13.3867C125.656 13.1654 126.581 12.8854 127.648 12.5469C128.443 12.3125 129.217 12.0651 129.973 11.8047C129.921 9.47396 129.855 8.10026 129.777 7.68359C129.686 7.21484 129.641 6.73307 129.641 6.23828C129.641 5.74349 129.667 5.30729 129.719 4.92969L129.777 4.34375C130.52 4.64323 131.223 4.77995 131.887 4.75391C132.577 4.72786 133.208 4.88411 133.781 5.22266C134.172 5.54818 134.374 6.15365 134.387 7.03906C134.4 7.92448 134.354 8.88151 134.25 9.91016C134.237 9.97526 134.23 10.0469 134.23 10.125C134.842 9.95573 135.454 9.91667 136.066 10.0078C136.118 10.0078 136.177 10.0143 136.242 10.0273C135.786 9.70182 135.428 9.40234 135.168 9.12891C134.895 8.82943 134.79 8.66016 134.855 8.62109C135.78 8.33464 137.219 8.0026 139.172 7.625C138.951 6.64844 138.781 5.78906 138.664 5.04687L138.508 3.91406L138.996 3.99219C139.322 4.03125 139.725 4.1224 140.207 4.26562C140.689 4.40885 141.184 4.61719 141.691 4.89062C142.212 5.16406 142.668 5.52214 143.059 5.96484C143.267 6.23828 143.423 6.54427 143.527 6.88281C144.764 6.6875 146.047 6.4987 147.375 6.31641C147.479 6.30339 147.583 6.29036 147.687 6.27734C147.701 6.14714 147.707 6.04297 147.707 5.96484C147.694 5.83464 147.674 5.64583 147.648 5.39844C147.596 5.0599 147.544 4.66927 147.492 4.22656C147.44 3.78385 147.395 3.36719 147.355 2.97656C147.329 2.57292 147.323 2.26693 147.336 2.05859C147.362 1.83724 147.434 1.78516 147.551 1.90234C147.863 2.20182 148.358 2.44922 149.035 2.64453C150.077 2.86589 151.281 3.54297 152.648 4.67578C152.896 4.9362 153.072 5.20312 153.176 5.47656C153.215 5.47656 153.26 5.47005 153.312 5.45703C154.628 5.2487 155.702 5.39844 156.535 5.90625C157.382 6.41406 157.668 6.88932 157.395 7.33203C157.134 7.76172 156.763 8.17839 156.281 8.58203C155.799 8.97266 155.24 9.08333 154.602 8.91406C154.016 8.77083 153.039 8.7513 151.672 8.85547C151.594 8.93359 151.516 9.00521 151.437 9.07031C150.695 9.68229 150.116 10.0664 149.699 10.2227C149.413 10.3398 149.068 10.4635 148.664 10.5937C148.273 10.724 147.883 10.8477 147.492 10.9648C148.365 11.3555 148.846 11.5768 148.937 11.6289C150.826 11.2253 152.232 10.9453 153.156 10.7891L153.488 9.59766ZM143.332 28.7773C143.423 28.8294 143.951 28.7969 144.914 28.6797C145.695 28.6016 146.594 28.4909 147.609 28.3477C147.609 28.0352 147.609 27.7096 147.609 27.3711C147.596 27.2279 147.59 27.0846 147.59 26.9414C147.186 27.0065 146.796 27.0781 146.418 27.1562C145.858 27.2734 145.409 27.3581 145.07 27.4102C144.732 27.4622 144.543 27.4687 144.504 27.4297C144.491 27.4036 144.458 27.3451 144.406 27.2539C144.315 27.0846 144.191 26.8568 144.035 26.5703C143.892 26.2839 143.749 25.9974 143.605 25.7109C143.462 25.4245 143.345 25.1966 143.254 25.0273C143.176 24.8451 143.163 24.7865 143.215 24.8516C143.306 24.9167 143.833 24.8906 144.797 24.7734C145.578 24.6823 146.49 24.5651 147.531 24.4219C147.518 24.2266 147.505 24.0312 147.492 23.8359C147.479 23.4193 147.46 23.0677 147.434 22.7812C147.004 22.8594 146.587 22.9375 146.184 23.0156C145.533 23.1328 145.005 23.224 144.602 23.2891C144.198 23.3411 143.977 23.3411 143.937 23.2891C143.924 23.263 143.885 23.1979 143.82 23.0937C143.716 22.9115 143.573 22.6641 143.391 22.3516C143.339 22.2474 143.286 22.1432 143.234 22.0391C143.13 22.1693 143.02 22.2995 142.902 22.4297C142.902 22.7552 142.863 23.1068 142.785 23.4844C142.733 23.7578 142.694 24.0182 142.668 24.2656C142.642 24.5521 142.609 25.2292 142.57 26.2969C142.544 27.3646 142.512 28.556 142.473 29.8711C142.434 30.9909 142.408 32 142.395 32.8984C143.449 32.8333 144.686 32.7357 146.105 32.6055C146.613 32.5664 147.108 32.5208 147.59 32.4687C147.603 32.1172 147.609 31.6094 147.609 30.9453C147.622 30.9193 147.629 30.8932 147.629 30.8672C147.251 30.9453 146.887 31.0169 146.535 31.082C145.975 31.1992 145.52 31.2839 145.168 31.3359C144.829 31.388 144.641 31.3945 144.602 31.3555C144.589 31.3164 144.556 31.2513 144.504 31.1602C144.413 30.9909 144.289 30.763 144.133 30.4766C143.99 30.1901 143.846 29.9036 143.703 29.6172C143.56 29.3307 143.449 29.1029 143.371 28.9336C143.293 28.7643 143.28 28.7122 143.332 28.7773ZM140.109 15.7305L140.168 16.707C141.73 16.3164 142.512 16.0885 142.512 16.0234C142.512 15.9453 142.622 15.3398 142.844 14.207L142.805 14.207C141.945 14.207 141.047 14.4284 140.109 14.8711C140.096 15.2487 140.096 15.5352 140.109 15.7305ZM143.957 10.125L143.996 10.125C145.207 11.0625 146.092 11.8112 146.652 12.3711C146.6 12.0326 146.548 11.668 146.496 11.2773C146.47 11.2904 146.437 11.2969 146.398 11.2969L145.988 11.4336L146.262 10.7109C146.405 10.3464 146.555 9.9362 146.711 9.48047C145.982 9.58464 145.24 9.70833 144.484 9.85156C144.12 9.91667 143.768 9.98177 143.43 10.0469C143.299 10.4766 143.13 10.8672 142.922 11.2187C142.818 11.388 142.714 11.5312 142.609 11.6484C143 11.5312 143.339 11.4336 143.625 11.3555L143.957 10.125ZM144.27 20.4375C144.283 20.4375 144.289 20.4375 144.289 20.4375C145.344 20.3203 146.568 20.1706 147.961 19.9883C147.753 19.8581 147.544 19.7214 147.336 19.5781C146.997 19.3307 146.685 19.1289 146.398 18.9727C146.216 18.8555 146.112 18.7253 146.086 18.582C146.06 18.4388 146.079 18.2891 146.145 18.1328C146.223 17.9635 146.314 17.8138 146.418 17.6836C146.535 17.5404 146.639 17.4297 146.73 17.3516L146.867 17.2148C146.997 17.2279 147.128 17.2344 147.258 17.2344C147.141 16.987 147.017 16.7135 146.887 16.4141L146.867 16.1797L146.906 16.1211L147.082 16.1602L147.297 16.1797C147.18 15.6458 147.056 14.9818 146.926 14.1875C146.691 14.5651 146.353 15.0339 145.91 15.5937L145.91 15.6523C146.21 15.9518 146.372 16.3359 146.398 16.8047C146.437 17.5469 146.04 18.0807 145.207 18.4062C145.025 18.4974 144.523 18.5755 143.703 18.6406C143.846 18.7318 143.983 18.8359 144.113 18.9531C144.465 19.3307 144.517 19.8255 144.27 20.4375ZM140.227 10.7891C140.148 10.8151 140.07 10.8411 139.992 10.8672C139.341 11.0625 138.697 11.069 138.059 10.8867C137.993 10.8737 137.935 10.8542 137.883 10.8281C138.039 10.9844 138.176 11.1602 138.293 11.3555C138.449 11.668 138.514 11.974 138.488 12.2734C139.035 12.4557 139.348 12.5664 139.426 12.6055C140.116 12.3841 140.741 12.1888 141.301 12.0195C141.301 12.0195 141.294 12.0195 141.281 12.0195C140.891 11.8242 140.539 11.4141 140.227 10.7891ZM137.18 13.9922C136.477 14.3958 135.572 14.5781 134.465 14.5391C134.322 14.5391 134.178 14.5391 134.035 14.5391C134.022 15.2422 134.009 16.056 133.996 16.9805C134.556 17.1758 135.227 17.332 136.008 17.4492C136.516 17.5273 136.984 17.6185 137.414 17.7227C137.401 17.6836 137.382 17.638 137.355 17.5859L137.336 17.3516L137.375 17.293L137.551 17.3125L137.766 17.3125C137.583 16.5312 137.388 15.4245 137.18 13.9922Z" fill="white"/>
</svg>
