<svg width="156" height="37" viewBox="0 0 156 37" fill="none" xmlns="http://www.w3.org/2000/svg">
<path d="M22.9492 8.38281C23.2487 8.57812 23.7956 8.98177 24.5898 9.59375C25.3971 10.2057 26.1784 10.8437 26.9336 11.5078C27.7018 12.1589 28.1641 12.6602 28.3203 13.0117C28.3724 13.2852 28.0339 13.9297 27.3047 14.9453C26.5885 15.9609 25.7031 17.0547 24.6484 18.2266C24.5964 18.2917 24.5443 18.3503 24.4922 18.4023C25.0521 18.4284 25.4036 18.4935 25.5469 18.5977C25.9115 18.9753 26.1003 19.4831 26.1133 20.1211C26.1393 20.7591 25.7682 21.319 25 21.8008C24.2448 22.2826 22.8711 22.4779 20.8789 22.3867C19.2773 22.2956 17.4674 22.3542 15.4492 22.5625C15.4362 23.474 15.4232 24.3724 15.4102 25.2578C15.3711 28.2786 15.3711 30.2057 15.4102 31.0391C15.4362 31.5469 15.2995 32.0937 15 32.6797C14.7135 33.2656 14.3685 33.819 13.9648 34.3398C13.5742 34.8607 13.2227 35.2839 12.9102 35.6094L12.4414 36.1172L12.1875 35.8828C12.0182 35.7396 11.8229 35.5247 11.6016 35.2383C11.3932 34.9648 11.2174 34.6198 11.0742 34.2031C10.931 33.7995 10.8724 33.3437 10.8984 32.8359C10.9375 32.1979 10.9635 30.5117 10.9766 27.7773C10.9766 26.319 10.9701 24.7565 10.957 23.0898C10.2279 23.194 9.51172 23.2982 8.80859 23.4023C7.14193 23.6367 5.72917 23.819 4.57031 23.9492C3.41146 24.0664 2.69531 24.0469 2.42187 23.8906C2.13542 23.7083 1.85547 23.4219 1.58203 23.0312C1.32161 22.6406 1.09375 22.2435 0.898437 21.8398C0.716146 21.4362 0.611979 21.1172 0.585937 20.8828C0.559896 20.6354 0.651042 20.5573 0.859375 20.6484C0.950521 20.6745 1.15885 20.6875 1.48437 20.6875C1.44531 20.401 1.39974 20.0951 1.34766 19.7695C1.15234 18.4544 0.970052 17.0482 0.800781 15.5508C0.644531 14.0404 0.520833 12.7318 0.429687 11.625L0.273437 9.96484L4.72656 11.5664C4.7526 11.5664 4.77865 11.5664 4.80469 11.5664C6.27604 11.3971 8.0599 11.1693 10.1562 10.8828C10.3906 10.8568 10.625 10.8242 10.8594 10.7852C10.8464 10.3164 10.8333 9.85417 10.8203 9.39844C10.7682 6.72917 10.6966 5.13411 10.6055 4.61328C10.4883 4.05339 10.4297 3.46745 10.4297 2.85547C10.4297 2.24349 10.4557 1.69661 10.5078 1.21484L10.6055 0.492187C11.4779 0.869792 12.3047 1.04557 13.0859 1.01953C13.9062 0.99349 14.6549 1.1888 15.332 1.60547C15.7878 2.00911 16.0221 2.75781 16.0352 3.85156C16.0612 4.93229 16.0026 6.10417 15.8594 7.36719C15.7943 8.20052 15.7422 8.97526 15.7031 9.69141C15.7031 9.83464 15.6966 9.9974 15.6836 10.1797C15.8919 10.1536 16.0937 10.1276 16.2891 10.1016C18.3333 9.85417 20.0716 9.6849 21.5039 9.59375C21.8815 9.56771 22.2201 9.55469 22.5195 9.55469L22.9492 8.38281ZM21.1523 13.3437C20.8008 13.3568 20.4167 13.3568 20 13.3437C18.724 13.2786 17.2591 13.3242 15.6055 13.4805C15.5924 14.2617 15.5729 15.1276 15.5469 16.0781C15.5339 17.1068 15.5208 18.1224 15.5078 19.125C15.9375 19.0859 16.3672 19.0404 16.7969 18.9883C17.7865 18.8711 18.7174 18.7734 19.5898 18.6953C19.8503 17.5365 20.2018 16.2734 20.6445 14.9062C20.8138 14.3724 20.9831 13.8516 21.1523 13.3437ZM5.66406 20.2969C6.90104 20.1536 8.28776 19.9844 9.82422 19.7891C10.2018 19.75 10.5794 19.7044 10.957 19.6523C10.957 19.2878 10.9505 18.9167 10.9375 18.5391C10.9375 16.9766 10.9245 15.4922 10.8984 14.0859C10.3906 14.151 9.88932 14.2227 9.39453 14.3008C7.89714 14.5352 6.62109 14.7109 5.56641 14.8281C5.55339 15.3229 5.54687 15.8568 5.54687 16.4297C5.53385 17.6276 5.5599 18.7474 5.625 19.7891C5.63802 19.9714 5.65104 20.1406 5.66406 20.2969ZM64.7812 1.74219L65.2891 1.72266C67.2552 1.69661 68.9935 2.73177 70.5039 4.82812C70.7383 5.21875 70.862 5.51823 70.875 5.72656L70.875 5.94141C70.5885 6.16276 70.4258 6.33203 70.3867 6.44922C70.0872 7.10026 70.0091 12.556 70.1523 22.8164C70.1914 28.4284 70.1263 31.6901 69.957 32.6016C69.9831 33.1094 69.7422 33.6497 69.2344 34.2227C68.7135 34.7565 68.1406 35.0299 67.5156 35.043C66.5 35.056 65.6471 34.5091 64.957 33.4023L64.8984 33.0703C65.1068 32.4062 65.1849 31.1562 65.1328 29.3203L65.1328 29.2031L65.0742 29.2031C65.1003 30.2318 64.5859 31.2474 63.5312 32.25C63.1536 32.4062 62.8607 32.4844 62.6523 32.4844C61.6497 32.1719 60.6732 32.0221 59.7227 32.0352L59.6641 32.0352C56.9167 32.0742 53.7331 32.6081 50.1133 33.6367C49.8919 33.7799 49.5534 33.8581 49.0977 33.8711C47.8737 33.8841 46.513 33.0833 45.0156 31.4687C44.8203 31.9115 44.0781 32.7448 42.7891 33.9687C41.7344 33.2396 41.194 32.5039 41.168 31.7617C41.1289 31.7617 41.1094 31.7227 41.1094 31.6445C41.0833 27.8685 41.0508 25.2643 41.0117 23.832C40.7122 12.8164 40.4193 7.30859 40.1328 7.30859C40.0807 6.98307 40.0547 6.70964 40.0547 6.48828L40.0352 5.80469C40.0221 5.27083 40.0612 4.73047 40.1523 4.18359C40.6081 4.43099 41.8581 4.60026 43.9023 4.69141C45.0612 4.86068 45.6536 5.38802 45.6797 6.27344C45.7578 6.27344 45.8034 6.61198 45.8164 7.28906L45.6211 12.9531C45.6341 12.9141 45.6602 12.875 45.6992 12.8359C45.7643 12.7448 45.862 12.6602 45.9922 12.582C46.1224 12.4909 46.2917 12.4193 46.5 12.3672C46.7214 12.3021 46.9883 12.263 47.3008 12.25C47.7435 12.237 48.6289 12.1133 49.957 11.8789C51.2982 11.6445 52.763 11.3646 54.3516 11.0391C54.4557 11.013 54.5664 10.987 54.6836 10.9609C54.5924 10.5443 54.5013 10.1536 54.4102 9.78906L53.8047 7.17187C52.6068 7.39323 51.4805 7.67318 50.4258 8.01172L49.8203 8.01172C49.0781 8.02474 47.9648 6.99609 46.4805 4.92578C57.8086 3.74089 63.4661 2.88802 63.4531 2.36719C63.9089 1.95052 64.3516 1.74219 64.7812 1.74219ZM60.2109 15.7461C60.224 15.7331 60.2435 15.7201 60.2695 15.707C60.3346 15.681 60.4388 15.6875 60.582 15.7266C60.7253 15.7526 60.875 15.7852 61.0312 15.8242C61.2005 15.8763 61.3307 15.9089 61.4219 15.9219C61.4349 15.9219 61.4544 15.9219 61.4805 15.9219C61.8841 15.9349 62.2617 16.0391 62.6133 16.2344C63.082 16.5859 63.388 17.0807 63.5312 17.7187C63.5703 17.8229 63.5833 17.9336 63.5703 18.0508C63.5573 18.181 63.5052 18.2917 63.4141 18.3828C63.3229 18.4609 63.2253 18.5326 63.1211 18.5977C63.0951 18.6107 63.0755 18.6237 63.0625 18.6367C62.8021 18.8451 62.5417 19.1966 62.2812 19.6914C62.0208 20.1732 61.7734 20.668 61.5391 21.1758C61.3177 21.6706 61.1224 22.0612 60.9531 22.3477C60.849 22.5169 60.7513 22.6797 60.6602 22.8359C60.7904 22.9661 60.9271 23.0833 61.0703 23.1875C61.6693 23.6302 62.1445 23.8385 62.4961 23.8125C62.8607 23.7865 63.2383 23.5781 63.6289 23.1875L64.2148 22.582L64.1953 24.0469C64.1953 25.0365 64.1693 25.7461 64.1172 26.1758C64.026 26.7227 63.7135 27.0482 63.1797 27.1523C62.6589 27.2565 62.0794 27.2435 61.4414 27.1133C60.8164 26.9701 60.3086 26.8008 59.918 26.6055C59.4362 26.332 58.9935 25.9284 58.5898 25.3945C58.3294 25.6549 58.0625 25.9023 57.7891 26.1367C57.5026 26.4362 57.1771 26.6055 56.8125 26.6445C56.6302 26.6315 56.4609 26.5924 56.3047 26.5273C56.2135 26.4883 56.1224 26.4557 56.0312 26.4297C55.5234 26.3125 55.0547 26.4427 54.625 26.8203C55.1589 26.0521 55.6927 25.2773 56.2266 24.4961C56.5781 23.9883 56.9297 23.4805 57.2812 22.9727C56.8646 21.8789 56.526 20.5768 56.2656 19.0664C56.1094 18.2461 55.9596 17.4583 55.8164 16.7031C55.8034 16.7943 55.7839 16.8854 55.7578 16.9766C55.6016 17.5885 55.3802 18.2591 55.0937 18.9883C55.0677 19.0664 55.0417 19.1445 55.0156 19.2227C55.0677 19.431 55.0937 19.6719 55.0937 19.9453C55.0937 20.4271 54.8984 20.8828 54.5078 21.3125C54.1172 21.7422 53.4271 21.9961 52.4375 22.0742C50.7318 22.2565 49.5208 22.582 48.8047 23.0508C48.5182 23.181 48.2773 23.2786 48.082 23.3437C47.8997 23.3958 47.75 23.3763 47.6328 23.2852C47.5026 23.1549 47.3724 22.9531 47.2422 22.6797C47.112 22.3932 47.0013 22.1003 46.9102 21.8008C46.819 21.5013 46.7669 21.2604 46.7539 21.0781C46.7539 20.8828 46.806 20.8177 46.9102 20.8828C46.9622 20.9089 47.0794 20.9023 47.2617 20.8633C47.1185 20.2253 46.9948 19.5612 46.8906 18.8711C46.7604 18.1289 46.6562 17.4844 46.5781 16.9375L46.4414 16.1367L48.8242 16.5664C49.1888 16.4232 49.6185 16.2344 50.1133 16C50.8555 15.6354 51.5651 15.3229 52.2422 15.0625C52.6719 14.8932 52.9974 14.8086 53.2187 14.8086L53.2383 14.2422C53.3685 14.2943 53.6289 14.418 54.0195 14.6133C54.4102 14.8086 54.7943 15.0234 55.1719 15.2578C55.3411 15.349 55.4844 15.4466 55.6016 15.5508C55.4323 14.6654 55.276 13.8451 55.1328 13.0898C54.5208 13.181 53.8958 13.3112 53.2578 13.4805C51.9557 13.832 50.8034 14.1771 49.8008 14.5156C49.1758 14.7109 48.668 14.8672 48.2773 14.9844C47.8867 15.0885 47.6589 15.1016 47.5937 15.0234C47.4505 14.8021 47.1771 14.4896 46.7734 14.0859C46.3958 13.7083 46.0052 13.4023 45.6016 13.168L45.6016 13.4219C45.5495 20.1536 45.5755 25.3294 45.6797 28.9492L45.6992 29.457C45.6992 29.5352 45.7187 29.6068 45.7578 29.6719C45.7187 29.737 45.6992 29.8151 45.6992 29.9062L45.7187 30.1211L45.7578 30.1211C52.3073 28.6758 57.7305 27.9206 62.0273 27.8555L62.6914 27.8555C64.2539 27.8294 65.0417 28.0378 65.0547 28.4805L65.0547 28.6562L65.1133 28.6562C65.1393 28.0312 65.1458 27.5625 65.1328 27.25L65.0937 25.8633C64.8984 18.6628 64.7487 12.4453 64.6445 7.21094C63.7982 6.78125 62.3073 6.57943 60.1719 6.60547L59.8203 6.625C57.8672 6.65104 56.0508 6.80078 54.3711 7.07422C54.4883 7.1263 54.638 7.16536 54.8203 7.19141C55.0286 7.23047 55.276 7.25651 55.5625 7.26953C56.0703 7.30859 56.4284 7.4388 56.6367 7.66016C56.8581 7.86849 56.9948 8.11589 57.0469 8.40234C57.099 8.6888 57.1185 8.94922 57.1055 9.18359C57.1055 9.28776 57.1055 9.37891 57.1055 9.45703C57.1185 9.58724 57.1576 9.90625 57.2227 10.4141C57.7044 10.2969 58.1602 10.1927 58.5898 10.1016C58.8633 10.0234 59.1172 9.95833 59.3516 9.90625C59.1953 9.76302 59.0391 9.60677 58.8828 9.4375C58.5182 9.03385 58.2187 8.66927 57.9844 8.34375L57.6133 7.85547L57.9453 7.71875C58.1667 7.6276 58.4466 7.52995 58.7852 7.42578C59.1367 7.32161 59.5078 7.25 59.8984 7.21094C60.2891 7.15885 60.6602 7.17187 61.0117 7.25C61.4805 7.38021 61.806 7.71224 61.9883 8.24609C62.0924 8.53255 62.1445 8.81901 62.1445 9.10547C62.3919 9.09245 62.6198 9.09896 62.8281 9.125C63.1276 9.15104 63.3099 9.21615 63.375 9.32031C63.4141 9.39844 63.4271 9.55469 63.4141 9.78906C63.401 10.0234 63.375 10.2969 63.3359 10.6094C63.2839 11.1823 63.2578 11.6966 63.2578 12.1523C63.2708 12.5169 62.8737 12.7448 62.0664 12.8359C61.2591 12.9141 60.1523 12.9466 58.7461 12.9336L57.6133 12.9336C57.8737 14.5612 58.375 16.931 59.1172 20.043C59.1562 19.9648 59.1953 19.8867 59.2344 19.8086C59.3125 19.6393 59.4036 19.3659 59.5078 18.9883C59.625 18.6107 59.7357 18.2331 59.8398 17.8555C59.944 17.4779 60.0091 17.1979 60.0352 17.0156C60.0482 16.8984 60.0547 16.7552 60.0547 16.5859C60.0547 16.4167 60.0612 16.2539 60.0742 16.0977C60.0872 15.9414 60.1328 15.8242 60.2109 15.7461ZM45.8945 24.9062C46.1029 24.7891 46.4609 24.7305 46.9687 24.7305C47.3464 24.7305 47.7826 24.6914 48.2773 24.6133C48.6029 24.5612 49.2018 24.3789 50.0742 24.0664C50.9466 23.7539 51.8841 23.4089 52.8867 23.0312C53.9023 22.6406 54.7812 22.3021 55.5234 22.0156L56.6562 21.5664C56.3828 21.6836 56.1289 21.9505 55.8945 22.3672C55.6602 22.7839 55.5104 23.2135 55.4453 23.6562C55.3542 23.9297 54.918 24.2943 54.1367 24.75C53.3685 25.2057 52.5221 25.6745 51.5977 26.1562C50.4909 26.7292 49.6901 27.1849 49.1953 27.5234C48.6094 27.9401 48.1211 28.1094 47.7305 28.0312C47.3398 27.9531 47.1315 27.7122 47.1055 27.3086C47.0924 27.1003 47.0078 26.8659 46.8516 26.6055C46.6953 26.332 46.526 26.0716 46.3437 25.8242C46.1745 25.5898 46.0443 25.3945 45.9531 25.2383C45.862 25.069 45.8424 24.9583 45.8945 24.9062ZM53.1406 17.2695C52.8542 17.4909 52.444 17.6341 51.9102 17.6992C51.2721 17.7643 50.7578 17.888 50.3672 18.0703C49.9896 18.2526 49.6901 18.4219 49.4687 18.5781C49.3125 18.6953 49.1823 18.7734 49.0781 18.8125C49.026 18.8255 48.9805 18.832 48.9414 18.832C48.9674 19.3398 49.013 19.8281 49.0781 20.2969C49.2995 20.2187 49.5404 20.1341 49.8008 20.043C50.9336 19.6263 52.0013 19.2682 53.0039 18.9687C53.043 18.9557 53.0885 18.9492 53.1406 18.9492C53.1276 18.5977 53.1276 18.2396 53.1406 17.875C53.1406 17.6667 53.1406 17.4648 53.1406 17.2695ZM85.6953 2.79687L86.5156 2.79687C87.0755 2.8099 87.7656 2.81641 88.5859 2.81641C89.4062 2.81641 90.2852 2.8099 91.2227 2.79687C92.1341 2.75781 93.3776 2.57552 94.9531 2.25C96.5286 1.91146 98.0586 1.56641 99.543 1.21484C101.314 0.798177 102.447 0.557292 102.941 0.492187C103.228 0.505208 103.501 0.759115 103.762 1.25391C104.035 1.73568 104.204 2.28906 104.27 2.91406C104.348 3.52604 104.23 4.04687 103.918 4.47656C103.605 4.90625 103.013 5.06901 102.141 4.96484C100.812 4.86068 99.1523 5.02344 97.1602 5.45312C97.7331 5.46615 98.2669 5.54427 98.7617 5.6875C99.1914 5.86979 99.4128 6.21484 99.4258 6.72266C99.4388 7.15234 99.4062 7.61458 99.3281 8.10937C101.854 7.78385 104.094 7.53646 106.047 7.36719C108.456 7.15885 109.797 7.15885 110.07 7.36719C110.279 7.69271 110.246 8.12891 109.973 8.67578C109.699 9.20964 109.257 9.67187 108.645 10.0625C108.046 10.4531 107.342 10.5833 106.535 10.4531C105.637 10.3099 103.951 10.375 101.477 10.6484C100.669 10.7396 99.862 10.8437 99.0547 10.9609C99.0547 11.3125 99.0482 11.7161 99.0352 12.1719C99.0091 13.4349 98.9961 14.6784 98.9961 15.9023C99.0091 17.1133 99.0352 17.9076 99.0742 18.2852C99.0872 18.4674 99.0091 18.6693 98.8398 18.8906C98.944 18.8646 99.0417 18.8385 99.1328 18.8125C99.6146 18.6693 99.9661 18.526 100.187 18.3828C100.409 18.2266 100.578 18.0898 100.695 17.9727C100.786 17.8555 100.897 17.7578 101.027 17.6797C101.171 17.6016 101.372 17.5495 101.633 17.5234C101.906 17.4844 102.303 17.4779 102.824 17.5039C103.775 17.5951 104.569 17.9596 105.207 18.5977C105.845 19.2357 106.262 19.8802 106.457 20.5312C106.652 21.1823 106.561 21.5729 106.184 21.7031C105.871 21.8203 105.624 22.4974 105.441 23.7344C105.259 24.9714 105.103 26.3906 104.973 27.9922C104.842 29.3464 104.706 30.5898 104.562 31.7227C104.419 32.8555 104.237 33.6562 104.016 34.125C103.508 35.0495 103 35.6159 102.492 35.8242C101.997 36.0326 101.548 36.026 101.145 35.8047C100.754 35.5833 100.467 35.2773 100.285 34.8867C100.103 34.4961 100.09 34.1641 100.246 33.8906C100.35 33.6953 100.441 33.3372 100.52 32.8164C99.7773 33.168 98.8464 33.2786 97.7266 33.1484C96.9453 33.0703 96.0404 33.1419 95.0117 33.3633C93.9831 33.5846 93.026 33.832 92.1406 34.1055C92.1276 34.1055 92.1211 34.1055 92.1211 34.1055C92.0299 34.1966 91.9388 34.2812 91.8477 34.3594L91.4961 34.6719L91.1641 34.5156C91.112 34.4896 91.0469 34.457 90.9687 34.418C90.8646 34.444 90.7604 34.4701 90.6562 34.4961C90.2786 34.5872 90.0768 34.5807 90.0508 34.4766C90.0117 34.2943 89.8229 34.0013 89.4844 33.5977C89.1589 33.194 88.8203 32.8034 88.4687 32.4258C88.1172 32.0612 87.8893 31.8333 87.7852 31.7422L88.8984 31.5469C89.0547 31.5339 89.2174 31.5078 89.3867 31.4687C89.3867 30.7917 89.3672 29.75 89.3281 28.3437C89.276 26.9245 89.2174 25.4336 89.1523 23.8711C89.1003 22.2956 89.0547 20.9414 89.0156 19.8086L88.957 18.5195C88.4883 18.8581 88 19.1901 87.4922 19.5156C85.7604 20.6484 84.4388 21.1823 83.5273 21.1172C82.9284 21.013 82.4466 20.9349 82.082 20.8828C81.7305 20.8307 81.4635 20.7982 81.2812 20.7852C81.112 20.7591 80.9948 20.7461 80.9297 20.7461L80.8711 20.7461L82.2969 19.5742C83.2344 18.793 84.3151 17.8164 85.5391 16.6445C86.763 15.4727 87.8437 14.2747 88.7812 13.0508C88.8854 12.9206 88.9831 12.7904 89.0742 12.6602C88.7617 12.7383 88.4753 12.8099 88.2148 12.875C87.4076 13.0964 86.6003 13.1354 85.793 12.9922C84.9987 12.849 84.2826 12.6341 83.6445 12.3477C83.0065 12.0482 82.5117 11.7682 82.1602 11.5078C81.8086 11.2344 81.6784 11.0781 81.7695 11.0391C83.0716 10.6875 85.1875 10.2643 88.1172 9.76953C90.1745 9.41797 92.3164 9.07943 94.543 8.75391C94.4779 7.92057 94.4062 7.40625 94.3281 7.21094C94.237 7.01562 94.1849 6.80729 94.1719 6.58594C94.1589 6.44271 94.1589 6.30599 94.1719 6.17578C92.8177 6.52734 91.5807 6.8724 90.4609 7.21094C89.3802 7.52344 88.6445 7.72526 88.2539 7.81641C87.8112 7.85547 87.4531 7.58203 87.1797 6.99609C86.9193 6.41016 86.6979 5.72656 86.5156 4.94531C86.2812 3.99479 86.0078 3.27865 85.6953 2.79687ZM100.344 11.6836L101.867 12.2109C102.87 12.5625 104.055 12.9922 105.422 13.5C106.789 13.9948 108.052 14.4896 109.211 14.9844C110.383 15.4792 111.177 15.8828 111.594 16.1953C112.023 16.625 112.01 17.1914 111.555 17.8945C111.099 18.5977 110.48 19.2096 109.699 19.7305C108.918 20.2513 108.267 20.4466 107.746 20.3164C107.355 20.1471 106.763 19.6263 105.969 18.7539C105.187 17.8685 104.361 16.8854 103.488 15.8047C102.629 14.7109 101.893 13.7474 101.281 12.9141L100.344 11.6836ZM93.7422 30.668C94.0286 30.6029 94.3151 30.5443 94.6016 30.4922C95.5651 30.2708 96.3073 30.069 96.8281 29.8867C97.8307 29.5352 98.7943 29.4505 99.7187 29.6328C100.122 29.7109 100.474 29.8346 100.773 30.0039C100.826 29.1966 100.865 28.3372 100.891 27.4258C100.943 25.9154 100.982 24.5937 101.008 23.4609L101.047 21.7422C99.9401 21.1432 98.7422 20.9154 97.4531 21.0586C96.1641 21.1888 94.9336 21.4818 93.7617 21.9375C93.6315 21.9766 93.5078 22.0156 93.3906 22.0547C93.3906 22.1589 93.3906 22.276 93.3906 22.4062C93.4167 23.0052 93.4492 23.6628 93.4883 24.3789C93.7357 24.3268 93.9961 24.2812 94.2695 24.2422C95.5846 24.0208 96.7826 23.8451 97.8633 23.7148C98.944 23.5716 99.556 23.5586 99.6992 23.6758C99.7773 23.806 99.8424 24.0534 99.8945 24.418C99.9596 24.7826 99.9596 25.1667 99.8945 25.5703C99.8424 25.9609 99.6732 26.2865 99.3867 26.5469C99.1133 26.7943 98.6836 26.8789 98.0977 26.8008C97.3164 26.6966 96.431 26.7357 95.4414 26.918C94.7904 27.0352 94.1784 27.1589 93.6055 27.2891C93.6445 28.1875 93.6771 29.0208 93.7031 29.7891C93.7161 30.1276 93.7292 30.4206 93.7422 30.668ZM92.9219 20.1602C93.1823 20.1081 93.4557 20.056 93.7422 20.0039C94.1328 19.9258 94.5299 19.8477 94.9336 19.7695C94.8424 19.6003 94.8099 19.418 94.8359 19.2227C94.862 18.9362 94.8685 18.2135 94.8555 17.0547C94.8424 15.8828 94.8099 14.5742 94.7578 13.1289C94.7448 12.5951 94.7318 12.0872 94.7187 11.6055C94.4323 11.6445 94.1523 11.6901 93.8789 11.7422C93.7487 11.7682 93.625 11.7878 93.5078 11.8008C93.7292 12.1003 93.9049 12.4062 94.0352 12.7187C94.1654 13.3958 93.5404 14.418 92.1602 15.7852C91.2878 16.6445 90.3503 17.4518 89.3477 18.207C89.6992 18.3242 90.1029 18.5 90.5586 18.7344C91.2227 19.0599 91.8281 19.3984 92.375 19.75C92.5964 19.9062 92.7786 20.043 92.9219 20.1602ZM130.516 19.3789L131.277 19.5156C131.342 19.5286 131.408 19.5417 131.473 19.5547C131.967 18.9427 132.423 18.3698 132.84 17.8359C132.996 17.6276 133.139 17.4388 133.27 17.2695C132.788 17.3867 132.371 17.4974 132.02 17.6016C131.303 17.8099 130.594 17.7969 129.891 17.5625C129.201 17.3151 128.576 16.9766 128.016 16.5469C127.469 16.1042 127.046 15.7005 126.746 15.3359C126.46 14.9583 126.349 14.75 126.414 14.7109C127.573 14.3464 129.448 13.9557 132.039 13.5391C132.443 13.474 132.853 13.4089 133.27 13.3437C133.27 13.0182 133.263 12.6536 133.25 12.25C133.25 11.9245 133.25 11.5924 133.25 11.2539C132.404 11.4753 131.837 11.6055 131.551 11.6445C131.134 11.6706 130.802 11.3841 130.555 10.7852C130.32 10.1732 130.118 9.47005 129.949 8.67578C129.741 7.69922 129.493 6.95703 129.207 6.44922L129.969 6.50781C130.464 6.54687 131.089 6.58594 131.844 6.625C132.247 6.65104 132.651 6.67057 133.055 6.68359C133.003 5.95443 132.937 5.47917 132.859 5.25781C132.781 5.0625 132.736 4.85417 132.723 4.63281C132.71 4.41146 132.71 4.20312 132.723 4.00781C132.736 3.79948 132.755 3.63021 132.781 3.5L132.82 3.28516C133.549 3.46745 134.233 3.55208 134.871 3.53906C135.548 3.52604 136.167 3.61719 136.727 3.8125C137.117 4.00781 137.326 4.35937 137.352 4.86719C137.365 5.34896 137.332 5.8763 137.254 6.44922C137.54 6.41016 137.846 6.36458 138.172 6.3125C138.901 6.18229 139.63 6.05208 140.359 5.92187C140.307 4.67187 140.236 3.88411 140.145 3.55859C140.066 3.33724 140.021 3.10286 140.008 2.85547C139.995 2.59505 140.001 2.35417 140.027 2.13281C140.053 1.89844 140.079 1.70312 140.105 1.54687L140.145 1.33203C140.887 1.54036 141.59 1.63802 142.254 1.625C142.957 1.59896 143.595 1.70312 144.168 1.9375C144.572 2.14583 144.78 2.54297 144.793 3.12891C144.806 3.71484 144.754 4.35286 144.637 5.04297C144.637 5.06901 144.63 5.10156 144.617 5.14062C145.047 5.04948 145.437 4.97135 145.789 4.90625C146.466 4.78906 146.896 4.73047 147.078 4.73047C147.326 4.73047 147.573 4.99089 147.82 5.51172C148.081 6.03255 148.243 6.60547 148.309 7.23047C148.374 7.85547 148.263 8.3763 147.977 8.79297C147.69 9.20964 147.143 9.35286 146.336 9.22266C145.763 9.14453 145.099 9.11849 144.344 9.14453C144.318 9.63932 144.292 10.1536 144.266 10.6875C144.253 11.1953 144.24 11.6445 144.227 12.0352C145.529 11.931 146.727 11.8529 147.82 11.8008C149.943 11.7096 151.121 11.8073 151.355 12.0937C151.538 12.5365 151.499 13.1029 151.238 13.793C150.991 14.4701 150.594 15.0365 150.047 15.4922C149.5 15.9479 148.875 16.0586 148.172 15.8242C147.469 15.6029 146.186 15.5508 144.324 15.668C144.35 15.681 144.37 15.694 144.383 15.707C145.841 16.6966 147.28 17.7122 148.699 18.7539C150.079 19.7695 151.049 20.4531 151.609 20.8047C152.143 21.1042 152.69 21.3255 153.25 21.4687C153.823 21.612 154.311 21.7031 154.715 21.7422L155.32 21.7812L154.832 22.3672C154.507 22.7578 154.116 23.194 153.66 23.6758C153.204 24.1576 152.755 24.5742 152.312 24.9258C151.635 25.4466 150.9 25.7656 150.105 25.8828C149.324 25.987 148.712 25.6224 148.27 24.7891C147.931 24.138 147.234 23.1354 146.18 21.7812C145.802 22.3802 145.346 23.0182 144.812 23.6953C144.708 23.8385 144.604 23.9687 144.5 24.0859C145.503 24.0339 146.115 24.112 146.336 24.3203C146.583 24.724 146.714 25.2578 146.727 25.9219C146.74 26.5859 146.492 27.1523 145.984 27.6211C145.49 28.0898 144.585 28.2331 143.27 28.0508C140.874 27.8815 138.686 28.1224 136.707 28.7734C136.199 28.9167 135.757 29.0273 135.379 29.1055C135.613 29.7565 136.043 30.1797 136.668 30.375C137.723 30.6875 139.526 30.7656 142.078 30.6094C144.63 30.4401 146.186 30.2383 146.746 30.0039C147.124 29.8346 147.553 29.6133 148.035 29.3398C148.517 29.0664 148.979 28.793 149.422 28.5195C149.865 28.2331 150.236 27.9922 150.535 27.7969L150.984 27.5039L150.75 27.875C150.594 28.1094 150.418 28.4414 150.223 28.8711C150.04 29.2878 149.884 29.763 149.754 30.2969C149.624 30.8177 149.578 31.3711 149.617 31.957C149.786 34.0664 147.579 35.1536 142.996 35.2187C140.926 35.2578 138.758 35.0885 136.492 34.7109C134.24 34.3464 132.814 33.4935 132.215 32.1523C132.085 31.6576 131.987 30.7721 131.922 29.4961C131.87 28.207 131.824 26.8984 131.785 25.5703C131.759 24.724 131.74 24.0078 131.727 23.4219C131.714 23.2135 131.701 23.0312 131.687 22.875C131.102 23.2005 130.424 23.5977 129.656 24.0664C129.135 24.3789 128.686 24.6328 128.309 24.8281C127.371 29.8542 126.108 32.3672 124.52 32.3672C122.658 32.3672 121.564 30.3359 121.238 26.2734C121.238 26.1562 121.251 26.0977 121.277 26.0977C122.658 25.8242 124.064 25.4076 125.496 24.8477C125.822 24.7174 126.141 24.4766 126.453 24.125C126.753 23.7865 127.397 23.4544 128.387 23.1289C129.246 22.1523 130.021 21.2604 130.711 20.4531C130.75 20.401 130.796 20.349 130.848 20.2969C130.77 20.1016 130.704 19.9193 130.652 19.75L130.516 19.3789ZM121.277 14.5156L121.668 14.5742L123.27 14.5742C123.439 14.5742 123.621 14.5547 123.816 14.5156C125.34 14.5156 126.395 15.0885 126.98 16.2344C127.059 16.5859 127.098 16.8333 127.098 16.9766L127.098 17.0156C127.098 18.3568 126.492 19.6523 125.281 20.9023C125.138 21.0195 125.014 21.0781 124.91 21.0781L124.734 21.0781C124.266 21.0781 123.406 20.5117 122.156 19.3789C120.919 18.3503 120.301 17.7904 120.301 17.6992C120.105 17.5299 120.008 17.3281 120.008 17.0937C120.06 16.3255 120.483 15.4661 121.277 14.5156ZM122.762 5.21875C123.361 5.40104 124.936 5.74609 127.488 6.25391C128.022 6.46224 128.289 6.70964 128.289 6.99609L128.289 7.28906C128.289 8.38281 127.651 9.63281 126.375 11.0391C125.932 11.2995 125.6 11.4297 125.379 11.4297L125.223 11.4297C124.572 11.4297 123.549 10.4466 122.156 8.48047C121.518 7.71224 120.919 7.32812 120.359 7.32812L120.359 7.09375C120.841 6.49479 121.603 5.86979 122.645 5.21875L122.762 5.21875ZM143.387 18.3828C143.243 18.2005 143.094 18.0247 142.937 17.8555C142.143 16.957 141.557 16.3255 141.18 15.9609C140.008 16.0911 138.816 16.2539 137.605 16.4492C137.762 16.8789 137.762 17.3021 137.605 17.7187C137.384 18.3177 137.013 18.8711 136.492 19.3789C136.375 19.4961 136.258 19.6133 136.141 19.7305C136.284 19.7044 136.427 19.6719 136.57 19.6328C138.094 19.2943 139.539 19.0078 140.906 18.7734C141.245 18.7214 141.551 18.6823 141.824 18.6562L141.98 17.9141C142.228 17.9792 142.697 18.1354 143.387 18.3828ZM135.691 23.2461C135.691 23.2591 135.691 23.2656 135.691 23.2656C135.574 23.8646 135.464 24.5872 135.359 25.4336C136.089 25.3294 136.909 25.1927 137.82 25.0234C138.862 24.8411 139.871 24.6784 140.848 24.5352C140.874 24.2227 140.906 23.8906 140.945 23.5391C140.984 23.1745 141.03 22.8099 141.082 22.4453C141.069 22.4453 141.049 22.4453 141.023 22.4453C139.096 22.3021 137.358 22.556 135.809 23.207C135.77 23.2201 135.73 23.2331 135.691 23.2461ZM140.437 9.65234C140.424 9.66536 140.405 9.67187 140.379 9.67187C139.181 9.90625 138.055 10.1406 137 10.375C136.974 10.8177 136.954 11.2865 136.941 11.7812C136.928 12.1719 136.922 12.5234 136.922 12.8359C138.016 12.6927 139.135 12.556 140.281 12.4258C140.333 12.4128 140.392 12.4062 140.457 12.4062C140.457 12.0807 140.457 11.7161 140.457 11.3125C140.457 10.7786 140.451 10.2253 140.437 9.65234Z" fill="#D7E1EC"/>
</svg>
