<svg width="158" height="38" viewBox="0 0 158 38" fill="none" xmlns="http://www.w3.org/2000/svg">
<path d="M20.3867 21.918L20.4844 21.8594C20.5234 21.8464 20.5625 21.8333 20.6016 21.8203C20.4974 21.7552 20.3867 21.6836 20.2695 21.6055C19.8659 21.306 19.5143 20.9479 19.2148 20.5313C18.9154 20.1276 18.681 19.7826 18.5117 19.4961C18.4987 19.7305 18.4727 19.9648 18.4336 20.1992C18.3815 20.7591 18.3424 21.2799 18.3164 21.7617C18.2773 22.4909 18.2318 23.7083 18.1797 25.4141C18.1667 25.9349 18.1536 26.4557 18.1406 26.9766C18.9089 27.1198 19.4818 27.4518 19.8594 27.9727C20.237 28.6758 19.8854 29.2813 18.8047 29.7891C18.5833 29.9063 18.3359 30.0104 18.0625 30.1016C18.0625 30.2057 18.0625 30.3099 18.0625 30.4141C18.0495 31.1302 18.043 31.7422 18.043 32.25C18.2122 32.1458 18.401 32.0286 18.6094 31.8984C19.2344 31.5208 20.0807 30.9414 21.1484 30.1602C21.9167 29.5482 22.6784 28.7734 23.4336 27.8359C23.2122 27.5495 22.9844 27.2565 22.75 26.957C21.526 25.4206 20.5755 24.2682 19.8984 23.5C19.7813 23.3438 19.6836 23.2266 19.6055 23.1484C19.3841 22.862 19.3125 22.6602 19.3906 22.543C19.4688 22.4258 19.612 22.3346 19.8203 22.2695C20.0417 22.1914 20.2305 22.0742 20.3867 21.918ZM21.793 1.07813C22.1185 1.15625 22.737 1.33203 23.6484 1.60547C24.5599 1.87891 25.4583 2.17839 26.3438 2.50391C27.2292 2.81641 27.7956 3.08333 28.043 3.30469C28.1732 3.5 27.9909 3.96875 27.4961 4.71094C27.0013 5.45313 26.3568 6.26693 25.5625 7.15234C25.0026 7.76432 24.4492 8.31771 23.9023 8.8125C24.6836 8.77344 25.2044 8.8125 25.4648 8.92969C25.9076 9.21615 26.1615 9.6263 26.2266 10.1602C26.3047 10.681 25.9401 11.1628 25.1328 11.6055C24.3255 12.0482 22.8281 12.2891 20.6406 12.3281C16.8906 12.4714 14.2409 12.7773 12.6914 13.2461C11.5065 13.5586 10.6602 13.6302 10.1523 13.4609C9.83984 13.3177 9.51432 13.0964 9.17578 12.7969C8.85026 12.4844 8.5638 12.1719 8.31641 11.8594C8.08203 11.5339 7.9388 11.2734 7.88672 11.0781C7.84766 10.8698 7.94531 10.8047 8.17969 10.8828C8.32292 10.9089 8.63542 10.9023 9.11719 10.8633C8.89583 10.4206 8.66146 9.85417 8.41406 9.16406C8.08854 8.20052 7.77604 7.19792 7.47656 6.15625C7.1901 5.10156 6.95573 4.1901 6.77344 3.42188L6.48047 2.28906L10.0156 3.20703C10.1849 3.18099 10.3672 3.15495 10.5625 3.12891C11.5 2.98568 12.6263 2.80339 13.9414 2.58203C15.8815 2.24349 17.7305 1.95052 19.4883 1.70313C20.4128 1.58594 21.1484 1.52083 21.6953 1.50781L21.793 1.07813ZM1.03125 15.9414C2.5026 15.5898 4.89844 15.1862 8.21875 14.7305C11.5391 14.2747 15.0677 13.8451 18.8047 13.4414C22.5417 13.0378 25.7708 12.7513 28.4922 12.582C31.2266 12.3997 32.75 12.4258 33.0625 12.6602C33.2969 13.0117 33.2513 13.474 32.9258 14.0469C32.6133 14.6198 32.1055 15.1081 31.4023 15.5117C30.7122 15.9154 29.918 16.0391 29.0195 15.8828C28.0039 15.7005 26.0964 15.7331 23.2969 15.9805C21.6042 16.1237 19.8984 16.2995 18.1797 16.5078C18.4401 16.8073 18.5768 17.25 18.5898 17.8359C18.6029 18.2917 18.5833 18.7734 18.5313 19.2813L19.4492 19.125C20.1654 19.0078 21.168 18.7214 22.457 18.2656C23.7852 17.7839 25.1133 17.4583 26.4414 17.2891C27.7695 17.1068 28.8438 17.2305 29.6641 17.6602C30.4844 18.1289 31.1615 18.6693 31.6953 19.2813C32.2422 19.8802 32.3073 20.4076 31.8906 20.8633C31.5 21.293 30.7839 22.3867 29.7422 24.1445C29.1172 25.2122 28.4531 26.2865 27.75 27.3672C29.4167 28.6432 30.901 29.776 32.2031 30.7656L34.1953 32.25L34.1563 32.2891C34.1432 32.3021 34.1107 32.3216 34.0586 32.3477C34.0065 32.3867 33.9349 32.4128 33.8438 32.4258C33.7526 32.4518 33.6354 32.4583 33.4922 32.4453C33.362 32.4453 33.1927 32.4258 32.9844 32.3867C32.6849 32.3477 32.3919 32.4453 32.1055 32.6797C31.832 32.9141 31.5651 33.1875 31.3047 33.5C30.9661 33.9167 30.6406 34.2161 30.3281 34.3984C29.8594 34.5938 29.1693 34.444 28.2578 33.9492C27.3464 33.4544 26.4935 32.543 25.6992 31.2148C25.6081 31.0456 25.5104 30.8763 25.4063 30.707C25.0026 31.1888 24.6185 31.599 24.2539 31.9375C23.6159 32.4844 22.8802 32.8424 22.0469 33.0117C21.2135 33.181 20.4063 33.2461 19.625 33.207C19.026 33.181 18.5052 33.1289 18.0625 33.0508C18.0625 33.2982 18.069 33.5 18.082 33.6563C18.0951 33.9948 17.9779 34.3594 17.7305 34.75C17.4831 35.1406 17.1901 35.5117 16.8516 35.8633C16.513 36.2148 16.2135 36.5013 15.9531 36.7227L15.543 37.0547L15.3281 36.8984C15.1849 36.8073 15.0221 36.6641 14.8398 36.4688C14.6576 36.2865 14.5013 36.0586 14.3711 35.7852C14.2539 35.5117 14.2083 35.1992 14.2344 34.8477C14.2604 34.444 14.2734 33.4479 14.2734 31.8594C14.2865 31.4688 14.293 31.0716 14.293 30.668C13.3034 30.7852 12.2031 31.1563 10.9922 31.7813C9.65104 32.4714 8.44661 33.1615 7.37891 33.8516C6.79297 34.2161 6.31771 34.4961 5.95313 34.6914C5.60156 34.8867 5.40625 34.9388 5.36719 34.8477C5.32813 34.7174 5.15885 34.4831 4.85938 34.1445C4.5599 33.806 4.20182 33.4414 3.78516 33.0508C3.36849 32.6732 2.98438 32.3477 2.63281 32.0742C2.38542 31.8659 2.30729 31.6315 2.39844 31.3711C2.48958 31.1237 2.71745 30.9544 3.08203 30.8633C4.07161 30.6159 5.17839 30.3229 6.40234 29.9844C6.71484 28.9948 6.92969 27.7448 7.04688 26.2344C7.15104 24.724 7.1901 23.3177 7.16406 22.0156C7.13802 20.7135 7.08594 19.8802 7.00781 19.5156C6.95573 19.2943 6.89063 19.0208 6.8125 18.6953C6.78646 18.5391 6.76042 18.3893 6.73438 18.2461C6.33073 18.2461 5.9401 18.207 5.5625 18.1289C4.66406 17.9596 3.85026 17.7122 3.12109 17.3867C2.40495 17.0482 1.85156 16.7357 1.46094 16.4492C1.08333 16.1497 0.940104 15.9805 1.03125 15.9414ZM10.543 23.6172C10.8945 23.6563 11.2591 23.6823 11.6367 23.6953C12.0794 23.6953 12.5026 23.7344 12.9063 23.8125C13.3229 23.8776 13.7005 24.0534 14.0391 24.3398C14.1172 24.418 14.1823 24.5026 14.2344 24.5938C14.2214 23.3568 14.1953 22.224 14.1563 21.1953C14.1172 19.6328 14.0521 18.6888 13.9609 18.3633C13.8698 17.9857 13.8242 17.5885 13.8242 17.1719C13.8242 17.1458 13.8242 17.1198 13.8242 17.0938C12.1185 17.3411 10.7057 17.5755 9.58594 17.7969C9.76823 18.0703 9.91797 18.526 10.0352 19.1641L10.1719 19.0469C10.5234 19.0859 10.888 19.1055 11.2656 19.1055C11.7083 19.1185 12.1315 19.1641 12.5352 19.2422C12.9518 19.3073 13.3294 19.4831 13.668 19.7695C13.9674 20.069 14.0651 20.4076 13.9609 20.7852C13.8698 21.1497 13.6875 21.4883 13.4141 21.8008C13.1536 22.1003 12.9128 22.2956 12.6914 22.3867C12.4701 22.4648 12.1706 22.3997 11.793 22.1914C11.4284 21.9701 11.0378 21.7031 10.6211 21.3906C10.5039 21.2995 10.3932 21.2148 10.2891 21.1367C10.3542 21.944 10.3997 22.7969 10.4258 23.6953L10.543 23.6172ZM21.3047 21.9766C21.3438 22.1849 22.0013 22.8099 23.2773 23.8516C23.8633 24.3333 24.4883 24.8346 25.1523 25.3555C25.8424 24.2617 26.4349 23.2201 26.9297 22.2305C27.5807 20.8893 27.8802 20.1016 27.8281 19.8672C27.724 19.737 27.3529 19.7891 26.7148 20.0234C26.0898 20.2448 25.3672 20.5247 24.5469 20.8633C23.9479 21.1107 23.3815 21.3385 22.8477 21.5469C22.3268 21.7422 21.8971 21.8789 21.5586 21.957C21.4674 21.9701 21.3828 21.9766 21.3047 21.9766ZM21.0898 4.53516C20.4648 4.63932 19.7096 4.69792 18.8242 4.71094C15.6341 4.82813 13.5182 5.08854 12.4766 5.49219C12.4245 5.50521 12.3724 5.51823 12.3203 5.53125C12.3333 5.84375 12.3464 6.17578 12.3594 6.52734C12.8802 6.44922 13.4401 6.36458 14.0391 6.27344C15.3542 6.0651 16.5456 5.89583 17.6133 5.76563C18.694 5.6224 19.3125 5.59635 19.4688 5.6875C19.5599 5.80469 19.638 6.01302 19.7031 6.3125C19.7813 6.61198 19.7943 6.93099 19.7422 7.26953C19.7031 7.60807 19.5469 7.88802 19.2734 8.10938C19.013 8.31771 18.5833 8.39583 17.9844 8.34375C17.1901 8.27865 16.3047 8.33073 15.3281 8.5C14.3646 8.66927 13.4857 8.84505 12.6914 9.02734C12.8086 9.54818 12.9648 9.96484 13.1602 10.2773C13.5898 10.2122 14.0391 10.1406 14.5078 10.0625C16.6823 9.71094 18.7526 9.40495 20.7188 9.14453C20.6536 8.53255 20.6667 7.79688 20.7578 6.9375C20.8359 6.14323 20.9466 5.34245 21.0898 4.53516ZM14.2539 25.6094C14.1497 25.8828 14 26.1302 13.8047 26.3516C13.5313 26.6641 13.2839 26.8724 13.0625 26.9766C12.8411 27.0417 12.5417 26.9701 12.1641 26.7617C11.7995 26.5404 11.4089 26.2734 10.9922 25.9609C10.8099 25.8307 10.6341 25.707 10.4648 25.5898C10.4779 26.7878 10.4583 27.8815 10.4063 28.8711C11.7734 28.4544 12.8411 28.0768 13.6094 27.7383C13.8307 27.6341 14.0521 27.5365 14.2734 27.4453C14.2734 27.1328 14.2734 26.8138 14.2734 26.4883C14.2604 26.1888 14.2539 25.8958 14.2539 25.6094ZM55.8906 23.4219L56.4766 23.6563C56.8672 23.7995 57.3359 23.9883 57.8828 24.2227C58.4427 24.457 58.9896 24.7109 59.5234 24.9844C60.0573 25.2578 60.4805 25.5247 60.793 25.7852C61.1576 26.1497 61.0859 26.651 60.5781 27.2891C60.0703 27.9141 59.4258 28.4609 58.6445 28.9297C57.8633 29.3984 57.2383 29.5742 56.7695 29.457C56.4701 29.3268 56.2487 28.9557 56.1055 28.3438C55.9753 27.7188 55.8971 27.0286 55.8711 26.2734C55.8451 25.5182 55.8385 24.8542 55.8516 24.2813L55.8906 23.4219ZM42.6875 21.4492L44.3672 21.2539C45.5 21.1237 46.8411 20.9609 48.3906 20.7656C49.1328 20.6745 49.862 20.5768 50.5781 20.4727C50.5651 19.9779 50.5586 19.5156 50.5586 19.0859L50.5586 18.4805C50.1549 18.5586 49.7578 18.6432 49.3672 18.7344C47.4922 19.151 46.125 19.5482 45.2656 19.9258C44.6667 20.1602 44.0807 20.1471 43.5078 19.8867C42.9349 19.6133 42.4141 19.2357 41.9453 18.7539C41.4766 18.2721 41.112 17.8294 40.8516 17.4258C40.6042 17.0091 40.513 16.7747 40.5781 16.7227C41.5156 16.319 43.0456 15.8828 45.168 15.4141C46.3398 15.1536 47.5573 14.9063 48.8203 14.6719C48.7031 14.5807 48.5859 14.4766 48.4688 14.3594C48.0391 13.9297 47.6354 13.4284 47.2578 12.8555C46.8932 12.2826 46.6003 11.7813 46.3789 11.3516L46.125 10.8438C45.8906 10.8958 45.6823 10.9479 45.5 11C45.0052 11.1042 44.7383 11.1042 44.6992 11C44.6341 10.7917 44.3867 10.4727 43.957 10.043C43.5273 9.61328 43.0846 9.20313 42.6289 8.8125C42.1732 8.42188 41.8802 8.1875 41.75 8.10938L43.1953 7.875C44.1719 7.70573 45.3438 7.4974 46.7109 7.25C48.0781 7.0026 49.3932 6.7487 50.6563 6.48828C51.4375 6.33203 52.1016 6.18229 52.6484 6.03906C52.388 5.83073 52.1211 5.60286 51.8477 5.35547C51.3659 4.9388 50.9232 4.58724 50.5195 4.30078C50.2591 4.11849 50.1029 3.89714 50.0508 3.63672C50.0117 3.36328 50.0378 3.08333 50.1289 2.79688C50.2201 2.4974 50.3372 2.22396 50.4805 1.97656C50.6237 1.71615 50.7539 1.50781 50.8711 1.35156L51.0469 1.09766C51.5286 1.13672 52.0169 1.13021 52.5117 1.07813C53.0977 1.01302 53.6706 1.01953 54.2305 1.09766C54.7904 1.16276 55.3047 1.4362 55.7734 1.91797C56.2031 2.41276 56.3659 3.00521 56.2617 3.69531C56.1706 4.28125 56.0078 4.82813 55.7734 5.33594C56.3073 5.29688 56.8281 5.3099 57.3359 5.375C58.5469 5.54427 59.3867 5.97396 59.8555 6.66406C59.8945 6.72917 59.9206 6.79427 59.9336 6.85938L60.3047 6.82031C61.0859 6.6901 62.0234 6.52734 63.1172 6.33203C64.224 6.13672 65.2917 5.92839 66.3203 5.70703C67.349 5.48568 68.1302 5.27734 68.6641 5.08203C69.7188 4.70443 70.7409 4.6263 71.7305 4.84766C72.7331 5.05599 73.4427 5.52474 73.8594 6.25391C74.1849 7.02214 73.931 7.67969 73.0977 8.22656C72.2773 8.76042 71.1706 8.9362 69.7773 8.75391C68.944 8.64974 67.9805 8.71484 66.8867 8.94922C66.431 9.05339 65.9818 9.15755 65.5391 9.26172C65.5781 9.36589 65.6042 9.48307 65.6172 9.61328C65.7474 11.0195 65.8385 12.3867 65.8906 13.7148C66.9193 13.5716 67.9089 13.4219 68.8594 13.2656C69.901 13.0833 70.6953 12.9076 71.2422 12.7383C72.3099 12.4128 73.3385 12.3737 74.3281 12.6211C75.3177 12.8685 76.0013 13.3503 76.3789 14.0664C76.6784 14.8086 76.4049 15.4271 75.5586 15.9219C74.7253 16.4036 73.612 16.5273 72.2188 16.293C71.8411 16.2409 71.4375 16.2148 71.0078 16.2148C71.2161 16.3581 71.4115 16.5078 71.5938 16.6641C72.0755 17.0677 72.349 17.3802 72.4141 17.6016C72.4271 17.7969 72.4466 18.5651 72.4727 19.9063C72.5117 21.2474 72.5443 22.7904 72.5703 24.5352C72.5964 26.2669 72.6159 27.8359 72.6289 29.2422C72.6549 30.6484 72.668 31.5143 72.668 31.8398C72.668 32.1393 72.5638 32.4974 72.3555 32.9141C72.1471 33.3307 71.9063 33.7409 71.6328 34.1445C71.3594 34.5612 71.112 34.9128 70.8906 35.1992L70.5781 35.6289L70.3828 35.5313C70.2526 35.4792 70.0898 35.375 69.8945 35.2188C69.7122 35.0625 69.5299 34.8411 69.3477 34.5547C69.1654 34.2682 69.0091 33.9036 68.8789 33.4609C68.7617 33.0182 68.7031 32.4779 68.7031 31.8398C68.7161 30.9935 68.7096 29.6719 68.6836 27.875C68.6706 26.0651 68.651 24.1706 68.625 22.1914C68.599 20.2122 68.5729 18.5065 68.5469 17.0742L68.5273 16.5078C67.7201 16.6641 66.9583 16.8333 66.2422 17.0156C66.125 17.0417 66.0143 17.0677 65.9102 17.0938C65.8581 19.763 65.5911 22.2174 65.1094 24.457C64.237 28.6497 63.1693 31.0456 61.9063 31.6445C61.6719 31.7227 61.3984 31.7747 61.0859 31.8008C60.7734 31.8268 60.4674 31.8333 60.168 31.8203C59.8815 31.8073 59.6406 31.7943 59.4453 31.7813L59.1523 31.7422L60.2266 29.0859C60.9557 27.3021 61.5547 24.8281 62.0234 21.6641C62.3359 19.6589 62.4271 17.4323 62.2969 14.9844C61.9453 14.5807 61.7174 14.3333 61.6133 14.2422L62.2578 14.1641C62.1797 13.0052 62.056 11.8008 61.8867 10.5508C61.8607 10.4336 61.8281 10.3164 61.7891 10.1992C61.6979 10.1862 61.6458 10.1536 61.6328 10.1016C61.5807 9.89323 61.3659 9.5612 60.9883 9.10547C60.6237 8.63672 60.2461 8.19401 59.8555 7.77734C59.8555 7.77734 59.849 7.77083 59.8359 7.75781C59.6667 8.05729 59.3411 8.34375 58.8594 8.61719C58.2214 8.95573 57.4596 9.17057 56.5742 9.26172C56.8997 9.48307 57.2253 9.76302 57.5508 10.1016C57.9935 10.6615 58.0391 11.2539 57.6875 11.8789C57.3359 12.5039 56.8542 13.0573 56.2422 13.5391C56.2292 13.5521 56.2161 13.5651 56.2031 13.5781C56.8932 13.5 57.5443 13.4479 58.1563 13.4219C59.901 13.3047 60.8776 13.4089 61.0859 13.7344C61.2422 14.2292 61.2161 14.8542 61.0078 15.6094C60.8125 16.3646 60.4935 16.9961 60.0508 17.5039C59.6211 18.0117 59.1133 18.1419 58.5273 17.8945C57.8763 17.6211 56.6523 17.5885 54.8555 17.7969C54.0742 17.888 53.2865 17.9987 52.4922 18.1289C53.0651 18.4154 53.5924 18.7148 54.0742 19.0273C54.569 19.3529 54.8685 19.6003 54.9727 19.7695C55.2461 19.7044 55.4805 19.6458 55.6758 19.5938C56.7826 19.2682 57.8438 19.2357 58.8594 19.4961C59.875 19.7435 60.5781 20.2318 60.9688 20.9609C61.2682 21.7031 60.9818 22.3216 60.1094 22.8164C59.237 23.2982 58.0846 23.4219 56.6523 23.1875C56.2096 23.1094 55.6888 23.0833 55.0898 23.1094C55.0898 23.7995 55.0964 24.5417 55.1094 25.3359C55.1224 26.7161 55.1289 27.9661 55.1289 29.0859C55.1419 30.1927 55.1484 30.8828 55.1484 31.1563C55.1354 31.3776 55.0052 31.6445 54.7578 31.957C54.5104 32.2695 54.224 32.5755 53.8984 32.875C53.5859 33.1875 53.2995 33.4479 53.0391 33.6563L52.668 33.9688L52.3359 33.8125C52.1146 33.7214 51.8607 33.5586 51.5742 33.3242C51.3008 33.0898 51.0599 32.7643 50.8516 32.3477C50.6432 31.944 50.5456 31.4297 50.5586 30.8047C50.5846 30.1276 50.5977 29.0729 50.5977 27.6406C50.5977 26.4036 50.5977 25.1016 50.5977 23.7344C49.9466 23.8516 49.3021 23.9753 48.6641 24.1055C48.1302 24.2096 47.6419 24.3008 47.1992 24.3789C47.4206 24.5091 47.6875 24.6784 48 24.8867C48.4297 25.1862 48.8333 25.5247 49.2109 25.9023C49.6016 26.2669 49.8815 26.638 50.0508 27.0156C50.207 27.5104 50.0117 28.0052 49.4648 28.5C48.918 28.9818 48.2214 29.3659 47.375 29.6523C46.5417 29.9258 45.7604 30.0169 45.0313 29.9258C44.5104 29.8346 44.0872 29.724 43.7617 29.5938C43.4362 29.4505 43.1823 29.3138 43 29.1836C42.8177 29.0404 42.6875 28.9232 42.6094 28.832L42.5117 28.6953L43.1563 28.0313C43.5729 27.6016 44.0482 27.1068 44.582 26.5469C45.1289 25.974 45.6042 25.4661 46.0078 25.0234C46.1771 24.8151 46.3073 24.6458 46.3984 24.5156C46.3333 24.5286 46.2617 24.5417 46.1836 24.5547C45.5326 24.6589 45.1875 24.6589 45.1484 24.5547C45.0964 24.3464 44.888 24.0143 44.5234 23.5586C44.1589 23.1029 43.7878 22.6602 43.4102 22.2305C43.0326 21.8008 42.7917 21.5404 42.6875 21.4492ZM53.7031 9.28125C52.9479 9.30729 52.1146 9.41146 51.2031 9.59375C49.849 9.88021 48.5924 10.1862 47.4336 10.5117C47.4206 10.5117 47.401 10.5182 47.375 10.5313C47.4531 10.5182 47.5247 10.5117 47.5898 10.5117C48.0326 10.4857 48.4948 10.4987 48.9766 10.5508C49.4714 10.6029 49.9271 10.7201 50.3438 10.9023C50.8776 11.1888 51.2031 11.6706 51.3203 12.3477C51.4375 13.0117 51.3594 13.6302 51.0859 14.2031C51.0729 14.2292 51.0599 14.2552 51.0469 14.2813C51.3464 14.2422 51.6458 14.1966 51.9453 14.1445C52.1276 14.1185 52.3034 14.0924 52.4727 14.0664C52.6289 13.7799 52.7982 13.4414 52.9805 13.0508C53.1758 12.6471 53.3451 12.263 53.4883 11.8984C53.6445 11.5339 53.7227 11.2734 53.7227 11.1172C53.7227 11.013 53.7227 10.8633 53.7227 10.668C53.7096 10.4076 53.7031 10.1016 53.7031 9.75C53.7031 9.59375 53.7031 9.4375 53.7031 9.28125ZM96.1992 1.97656C96.3294 2.19792 96.6159 2.50391 97.0586 2.89453C97.7357 3.46745 98.6862 4.39193 99.9102 5.66797C100.158 6.16276 99.9362 6.61198 99.2461 7.01563C98.7773 7.30208 97.6641 7.58854 95.9063 7.875C96.1667 8.13542 96.3099 8.54557 96.3359 9.10547C97.638 8.96224 98.8099 8.85156 99.8516 8.77344C101.583 8.66927 102.547 8.73438 102.742 8.96875C102.898 9.34635 102.866 9.8151 102.645 10.375C102.423 10.9349 102.078 11.3971 101.609 11.7617C101.141 12.1263 100.607 12.2109 100.008 12.0156C99.3438 11.8073 98.1523 11.8073 96.4336 12.0156C96.3294 12.0286 96.2318 12.0417 96.1406 12.0547C96.0755 12.5885 96.0234 13.0964 95.9844 13.5781C96.362 13.526 96.7266 13.474 97.0781 13.4219C97.7813 13.3307 98.3607 13.2786 98.8164 13.2656L98.8555 12.9922C98.9727 13.0443 99.1549 13.1354 99.4023 13.2656C99.6237 13.2917 99.7799 13.3307 99.8711 13.3828C99.9232 13.4479 99.9688 13.513 100.008 13.5781C100.047 13.6042 100.086 13.6302 100.125 13.6563C100.763 13.9818 101.388 14.3398 102 14.7305C102.169 14.8477 102.326 14.9583 102.469 15.0625C103.367 14.9193 104.656 14.7044 106.336 14.418L106.336 14.3594C106.427 13.5911 106.525 11.5664 106.629 8.28516L106.805 7.17188L106.902 7.17188C106.902 7.73177 107.495 8.01172 108.68 8.01172C110.06 8.01172 110.75 8.76693 110.75 10.2773L110.75 10.4141C110.75 10.8047 110.626 11.931 110.379 13.793L110.457 13.793C111.069 13.7669 111.577 13.7539 111.98 13.7539L112.078 13.7539L112.176 13.793L112.176 13.7539C113.283 13.8711 114.428 14.3398 115.613 15.1602C116.772 16.1497 117.352 16.8333 117.352 17.2109C117.195 17.2109 116.863 18.9883 116.355 22.543C116.29 23.3372 116.225 23.7995 116.16 23.9297L116.199 23.9297C115.574 28.3047 115.073 31.1172 114.695 32.3672C114.396 32.875 113.589 33.3958 112.273 33.9297C110.698 34.4896 109.409 34.7695 108.406 34.7695L108.309 34.7695C107.553 34.7695 107.02 34.3789 106.707 33.5977C106.486 33.0768 106.284 32.1458 106.102 30.8047L105.242 32.3086C104.474 33.5716 103.439 34.2031 102.137 34.2031C101.863 34.2552 101.447 34.2813 100.887 34.2813L98.7969 34.2813C98.6146 34.2813 98.3151 34.2552 97.8984 34.2031L97.8984 34.1445C98.4323 33.832 98.9922 33.3633 99.5781 32.7383C98.9661 32.9206 98.2565 32.9531 97.4492 32.8359C96.7201 32.7318 95.6784 32.8034 94.3242 33.0508C92.9831 33.2982 91.6484 33.5846 90.3203 33.9102C89.3438 34.1315 88.5299 34.3008 87.8789 34.418C87.2409 34.5482 86.9089 34.5612 86.8828 34.457C86.8307 34.2487 86.6549 33.9167 86.3555 33.4609C86.056 33.0182 85.7435 32.5885 85.418 32.1719C85.1055 31.7682 84.9036 31.5208 84.8125 31.4297L86.375 31.1953C87.4167 31.0521 88.6406 30.8633 90.0469 30.6289C90.8411 30.4987 91.6029 30.3685 92.332 30.2383C92.3451 29.9648 92.3516 29.5612 92.3516 29.0273C91.5443 29.2227 90.7891 29.4115 90.0859 29.5938C89.2266 29.8151 88.6471 29.9518 88.3477 30.0039C87.9961 30.0299 87.7292 29.8216 87.5469 29.3789C87.3646 28.9232 87.2083 28.3958 87.0781 27.7969C86.9349 27.0677 86.7526 26.5143 86.5313 26.1367L87.1563 26.1563C87.5859 26.1823 88.1263 26.2083 88.7773 26.2344C89.4284 26.2474 90.112 26.2539 90.8281 26.2539C91.2448 26.2409 91.7526 26.2018 92.3516 26.1367C92.3385 25.5898 92.332 25.0299 92.332 24.457C91.8242 24.5352 91.3294 24.6263 90.8477 24.7305C89.0638 25.0951 87.944 25.1862 87.4883 25.0039C87.2799 24.8477 87.0716 24.6133 86.8633 24.3008C86.6549 23.9753 86.4727 23.6432 86.3164 23.3047C86.1732 22.9661 86.082 22.6992 86.043 22.5039C86.0169 22.2956 86.082 22.224 86.2383 22.2891C86.3555 22.3411 86.7135 22.3281 87.3125 22.25C87.2604 21.9896 87.2083 21.6966 87.1563 21.3711C86.9609 20.3034 86.7852 19.1836 86.6289 18.0117C86.4727 16.8398 86.349 15.8307 86.2578 14.9844L86.1602 13.9883C85.8607 13.9753 85.5677 13.9167 85.2813 13.8125C84.6823 13.6042 84.1419 13.3177 83.6602 12.9531C83.1914 12.5885 82.8268 12.25 82.5664 11.9375C82.319 11.625 82.2279 11.4492 82.293 11.4102C83.2826 11.1367 84.8385 10.8177 86.9609 10.4531C88.4974 10.1797 90.1055 9.92578 91.7852 9.69141C91.7331 9.39193 91.707 9.07943 91.707 8.75391C91.707 8.63672 91.707 8.52604 91.707 8.42188C89.1549 8.69531 87.638 8.72135 87.1563 8.5C86.5703 8.22656 85.9974 8.05729 85.4375 7.99219L84.6172 7.91406L85.75 7.62109C86.4922 7.42578 87.3516 7.16536 88.3281 6.83984C89.3177 6.5013 90.6719 5.99349 92.3906 5.31641C94.1224 4.63932 95.0729 4.09245 95.2422 3.67578C95.2813 3.57161 95.3398 3.41536 95.418 3.20703C95.5091 2.98568 95.6068 2.76432 95.7109 2.54297C95.8151 2.32161 95.9128 2.15234 96.0039 2.03516C96.0951 1.90495 96.1602 1.88542 96.1992 1.97656ZM106.629 29.6133C107.423 29.7044 108.12 29.75 108.719 29.75C109.786 29.75 110.496 29.5417 110.848 29.125C111.277 28.4349 111.753 26.6836 112.273 23.8711C112.729 21.2279 112.957 19.1966 112.957 17.7773C112.957 17.2826 112.755 17.0352 112.352 17.0352C112.352 17.0091 112.26 16.9961 112.078 16.9961C110.568 17.1263 109.813 17.276 109.813 17.4453C108.992 22.0156 108.068 25.7201 107.039 28.5586C106.766 29.1445 106.629 29.4961 106.629 29.6133ZM92.0586 12.7383C91.7591 12.7904 91.4596 12.849 91.1602 12.9141C89.3633 13.2917 88.0156 13.6172 87.1172 13.8906C86.987 13.9297 86.8503 13.9557 86.707 13.9688L88.5234 14.7891C88.6927 14.763 88.901 14.737 89.1484 14.7109C89.9557 14.5807 90.9388 14.418 92.0977 14.2227C92.0977 14.2227 92.1042 14.2227 92.1172 14.2227C92.1042 14.0013 92.0911 13.7865 92.0781 13.5781C92.0781 13.2786 92.0716 12.9987 92.0586 12.7383ZM95.9453 16.3125C95.9453 16.638 95.9453 16.9831 95.9453 17.3477C96.362 17.3086 96.7331 17.276 97.0586 17.25C97.5924 17.1979 97.8854 17.2044 97.9375 17.2695C97.9896 17.3867 98.0352 17.5885 98.0742 17.875C98.0872 18.0052 98.0938 18.1419 98.0938 18.2852C98.1589 17.7383 98.224 17.1979 98.2891 16.6641C98.3151 16.5078 98.3411 16.3581 98.3672 16.2148C98.0547 16.2539 97.7031 16.2734 97.3125 16.2734C96.8438 16.2734 96.388 16.2865 95.9453 16.3125ZM92.1953 16.7813C92.026 16.8073 91.8568 16.8398 91.6875 16.8789C91.0365 17.0221 90.4896 17.1133 90.0469 17.1523C90.0339 17.4648 90.0273 17.8034 90.0273 18.168C90.6654 18.0898 91.3945 17.9857 92.2148 17.8555C92.2018 17.4909 92.1953 17.1328 92.1953 16.7813ZM95.9844 24.0859C95.9974 24.3854 96.0039 24.6849 96.0039 24.9844C96.0039 25.1667 96.0039 25.3424 96.0039 25.5117C96.4727 25.4206 96.9284 25.3294 97.3711 25.2383C98.7643 24.9518 99.6563 24.7956 100.047 24.7695C100.268 24.7826 100.47 24.9779 100.652 25.3555C100.848 25.7201 100.958 26.1432 100.984 26.625C101.023 27.0938 100.913 27.4909 100.652 27.8164C100.392 28.1289 99.9232 28.2396 99.2461 28.1484C98.3867 28.0443 97.332 28.0898 96.082 28.2852C96.0951 28.6107 96.1081 28.8711 96.1211 29.0664C96.1211 29.1966 96.1146 29.3268 96.1016 29.457C96.3229 29.3919 96.5117 29.3268 96.668 29.2617C97.6055 28.8971 98.5039 28.8255 99.3633 29.0469C100.236 29.2552 100.835 29.7174 101.16 30.4336C101.186 30.5117 101.206 30.5833 101.219 30.6484C101.336 30.4922 101.453 30.3229 101.57 30.1406C102.716 28.1875 103.66 26.0977 104.402 23.8711C104.962 21.9701 105.411 20.1406 105.75 18.3828C104.695 18.6953 103.927 18.8516 103.445 18.8516L103.348 18.8516C102.944 18.8516 102.632 18.5586 102.41 17.9727C102.098 18.6367 101.727 19.3464 101.297 20.1016C101.102 20.4401 100.913 20.7591 100.73 21.0586C100.861 21.319 100.945 21.625 100.984 21.9766C101.023 22.5104 100.789 22.9922 100.281 23.4219C99.7734 23.8516 98.8294 24.0599 97.4492 24.0469C96.9544 24.0469 96.4661 24.0599 95.9844 24.0859ZM97.8984 20.6484C97.9115 20.375 97.931 20.082 97.957 19.7695C97.9831 19.5482 98.0026 19.3268 98.0156 19.1055C97.9635 19.3008 97.8789 19.4701 97.7617 19.6133C97.5924 19.8216 97.3255 19.8932 96.9609 19.8281C96.7005 19.7891 96.362 19.7826 95.9453 19.8086C95.9583 20.1732 95.9648 20.5378 95.9648 20.9023C96.3945 20.8503 96.8177 20.7917 97.2344 20.7266C97.4688 20.7005 97.6901 20.6745 97.8984 20.6484ZM92.293 21.4688C92.2799 21.0911 92.2734 20.7005 92.2734 20.2969C92.013 20.349 91.7526 20.3945 91.4922 20.4336C90.9583 20.5247 90.4896 20.6029 90.0859 20.668C90.099 20.8503 90.112 21.026 90.125 21.1953C90.151 21.4297 90.1771 21.638 90.2031 21.8203C90.5807 21.7552 90.9714 21.6901 91.375 21.625C91.6875 21.5729 91.9935 21.5208 92.293 21.4688ZM142.055 13.4023L142.68 13.4609C143.083 13.513 143.559 13.5651 144.105 13.6172C144.665 13.6693 145.18 13.7214 145.648 13.7734C146.117 13.8125 146.436 13.832 146.605 13.832C146.723 13.8451 146.768 13.9883 146.742 14.2617C146.716 14.5221 146.658 14.8867 146.566 15.3555C146.553 15.3945 146.54 15.4336 146.527 15.4727C146.944 15.3815 147.4 15.2708 147.895 15.1406C149.301 14.8021 150.622 14.5156 151.859 14.2813C153.109 14.0469 153.852 14.0469 154.086 14.2813C154.281 14.5938 154.379 15.0234 154.379 15.5703C154.392 16.1042 154.19 16.5859 153.773 17.0156C153.37 17.4323 152.634 17.6211 151.566 17.582C150.642 17.5299 149.789 17.5951 149.008 17.7773C148.24 17.9466 147.563 18.1289 146.977 18.3242C146.677 18.4154 146.41 18.4935 146.176 18.5586C146.176 18.9492 146.189 19.3594 146.215 19.7891C146.358 20.987 146.781 21.6836 147.484 21.8789C148.188 22.0742 149.099 22.0872 150.219 21.918C150.609 21.8789 151.02 21.8398 151.449 21.8008C152.217 21.7357 153.064 21.5924 153.988 21.3711C154.926 21.1367 155.74 20.9089 156.43 20.6875L157.484 20.375L157.152 20.6094C156.931 20.7786 156.677 21 156.391 21.2734C156.117 21.5339 155.863 21.8333 155.629 22.1719C155.408 22.4974 155.284 22.8294 155.258 23.168C155.258 23.8451 154.932 24.3464 154.281 24.6719C153.63 24.9844 152.504 25.1602 150.902 25.1992C149.132 25.2773 147.367 25.1992 145.609 24.9648C143.865 24.7305 142.927 24.1185 142.797 23.1289C142.797 22.4128 142.777 21.4883 142.738 20.3555C142.712 19.2096 142.654 18.1354 142.563 17.1328C142.484 16.1302 142.367 15.4531 142.211 15.1016C142.055 14.8021 141.964 14.5286 141.938 14.2813C141.924 14.0208 141.938 13.8125 141.977 13.6563L142.055 13.4023ZM134.77 8.67578L135.258 8.79297C135.531 8.85807 135.857 8.92969 136.234 9.00781C136.521 9.02083 136.729 9.06641 136.859 9.14453C137.211 9.22266 137.563 9.30078 137.914 9.37891C138.409 9.48307 138.832 9.56771 139.184 9.63281C139.6 9.71094 139.822 9.84115 139.848 10.0234C139.887 10.1927 139.854 10.4076 139.75 10.668C139.62 10.9544 139.555 11.2865 139.555 11.6641C139.581 12.1458 139.678 13.4023 139.848 15.4336C140.004 17.3086 140.154 19.2227 140.297 21.1758C140.453 23.1159 140.557 24.4831 140.609 25.2773C140.583 25.668 140.31 26.0195 139.789 26.332C142.328 26.9049 143.865 27.1849 144.398 27.1719C144.516 27.263 144.574 27.3867 144.574 27.543L144.574 27.6211C144.574 27.9076 144.49 28.2331 144.32 28.5977C144.503 28.8971 144.776 29.3789 145.141 30.043C145.362 30.3945 146.143 30.7135 147.484 31C149.138 31.3255 149.965 31.5924 149.965 31.8008C150.616 32.2826 150.941 32.9076 150.941 33.6758C150.941 34.8346 149.835 35.5898 147.621 35.9414C146.15 36.2409 144.77 36.4102 143.48 36.4492L142.328 36.4688C138.747 36.5729 136.182 35.9154 134.633 34.4961C133.917 33.7669 133.318 32.7643 132.836 31.4883C132.211 29.444 131.898 27.6016 131.898 25.9609L131.898 25.9219L131.957 25.9219C132.439 26.7161 133.409 27.4258 134.867 28.0508C135.622 28.5326 136 29.0924 136 29.7305C136.221 30.9674 136.508 31.7813 136.859 32.1719C137.536 32.9401 138.721 33.3047 140.414 33.2656C142.458 33.1224 143.48 32.9531 143.48 32.7578C143.91 32.3151 144.125 31.4297 144.125 30.1016L144.125 28.9688C143.813 29.4896 143.344 30.082 142.719 30.7461C142.315 31.0456 141.996 31.1953 141.762 31.1953C140.759 31.2214 139.398 30.362 137.68 28.6172C137.523 28.4349 137.374 27.9596 137.23 27.1914C137.061 27.2174 136.885 27.237 136.703 27.25C136.299 27.25 136.013 27.1849 135.844 27.0547C135.674 26.9245 135.538 26.7617 135.434 26.5664C135.329 26.3581 135.16 26.1432 134.926 25.9219C134.691 25.7005 134.301 25.5182 133.754 25.375L130.805 24.7695C130.727 25.2513 130.629 25.5638 130.512 25.707C130.277 25.9154 129.867 26.1432 129.281 26.3906C128.708 26.625 128.116 26.7617 127.504 26.8008C126.892 26.8398 126.423 26.6706 126.098 26.293C125.772 25.9023 125.746 25.1927 126.02 24.1641C126.605 21.9766 126.944 19.9323 127.035 18.0313C127.139 16.1302 127.113 14.8281 126.957 14.125C126.892 13.7995 126.814 13.4023 126.723 12.9336C126.645 12.4518 126.56 11.9766 126.469 11.5078C126.391 11.026 126.326 10.6224 126.273 10.2969L126.195 9.80859C126.482 10.0299 126.905 10.1797 127.465 10.2578C127.738 10.2839 128.031 10.3424 128.344 10.4336C128.409 10.4206 128.487 10.401 128.578 10.375C129.216 10.2578 129.978 10.1016 130.863 9.90625C132.178 9.60677 133.435 9.35938 134.633 9.16406C134.633 9.16406 134.639 9.16406 134.652 9.16406C134.665 9.0599 134.685 8.96875 134.711 8.89063L134.77 8.67578ZM131.352 17.4844L131.723 17.5039C131.97 17.5169 132.276 17.5495 132.641 17.6016C133.018 17.6406 133.396 17.7122 133.773 17.8164C134.164 17.9076 134.509 18.0378 134.809 18.207C135.186 18.4414 135.349 18.7669 135.297 19.1836C135.245 19.6003 135.043 19.9648 134.691 20.2773C134.353 20.5768 133.943 20.6875 133.461 20.6094C133.109 20.5313 132.797 20.3294 132.523 20.0039C132.263 19.6784 132.042 19.3268 131.859 18.9492C131.69 18.5586 131.56 18.2135 131.469 17.9141L131.352 17.4844ZM131.098 13.3047L131.469 13.3047C131.703 13.3177 132.003 13.3503 132.367 13.4023C132.745 13.4414 133.122 13.513 133.5 13.6172C133.891 13.7083 134.236 13.8385 134.535 14.0078C134.913 14.2552 135.076 14.5872 135.023 15.0039C134.971 15.4076 134.77 15.7656 134.418 16.0781C134.079 16.3776 133.669 16.4948 133.188 16.4297C132.836 16.3385 132.523 16.1367 132.25 15.8242C131.99 15.4987 131.775 15.1406 131.605 14.75C131.436 14.3594 131.313 14.0208 131.234 13.7344L131.098 13.3047ZM124.457 6.76172C124.6 6.82682 125.102 6.78125 125.961 6.625C126.404 6.53385 126.905 6.42969 127.465 6.3125C127.699 5.98698 127.953 5.62891 128.227 5.23828C128.617 4.70443 128.962 4.20313 129.262 3.73438C129.561 3.26563 129.711 2.96615 129.711 2.83594C129.711 2.75781 129.704 2.63411 129.691 2.46484C129.691 2.24349 129.685 1.98307 129.672 1.68359C129.672 1.38411 129.678 1.10417 129.691 0.84375C129.704 0.583333 129.73 0.38151 129.77 0.238281C129.822 0.0950521 129.887 0.0559896 129.965 0.121094C130.212 0.316406 130.629 0.472656 131.215 0.589844C132.113 0.707031 133.109 1.13021 134.203 1.85938C134.711 2.34115 134.665 2.96615 134.066 3.73438C133.65 4.25521 133.168 4.75651 132.621 5.23828C133.181 5.13411 133.734 5.03646 134.281 4.94531C135.909 4.65885 136.866 4.63281 137.152 4.86719C137.387 5.19271 137.504 5.64193 137.504 6.21484C137.517 6.77474 137.283 7.27604 136.801 7.71875C136.332 8.16146 135.479 8.35677 134.242 8.30469C133.174 8.26563 132.107 8.35026 131.039 8.55859C129.984 8.76693 129.014 9.0013 128.129 9.26172C127.439 9.44401 126.853 9.58073 126.371 9.67188C125.902 9.76302 125.583 9.75 125.414 9.63281C125.245 9.46354 125.076 9.20964 124.906 8.87109C124.737 8.53255 124.594 8.1875 124.477 7.83594C124.359 7.47135 124.294 7.1849 124.281 6.97656C124.268 6.75521 124.327 6.68359 124.457 6.76172ZM137.348 2.81641C137.738 2.82943 138.344 2.94661 139.164 3.16797C139.997 3.3763 140.701 3.65625 141.273 4.00781C141.612 4.25521 141.781 4.63281 141.781 5.14063C141.794 5.64844 141.651 6.13021 141.352 6.58594C141.052 7.02865 140.603 7.28255 140.004 7.34766C139.405 7.36068 138.923 7.13281 138.559 6.66406C138.194 6.18229 137.888 5.66146 137.641 5.10156C137.419 4.61979 137.204 4.24219 136.996 3.96875C136.853 3.8125 136.768 3.67578 136.742 3.55859C136.729 3.42839 136.749 3.31771 136.801 3.22656C136.853 3.13542 136.924 3.05729 137.016 2.99219C137.107 2.92708 137.185 2.88151 137.25 2.85547L137.348 2.81641ZM142.25 0.589844C142.51 0.68099 142.901 0.746094 143.422 0.785156C144.06 0.824219 144.815 0.941406 145.688 1.13672C146.078 1.26693 146.378 1.72917 146.586 2.52344C146.742 3.17448 146.846 3.90365 146.898 4.71094C147.042 4.67188 147.191 4.63932 147.348 4.61328C148.624 4.32682 149.828 4.08594 150.961 3.89063C152.107 3.68229 152.784 3.67578 152.992 3.87109C153.174 4.13151 153.272 4.48958 153.285 4.94531C153.298 5.40104 153.116 5.80469 152.738 6.15625C152.361 6.50781 151.677 6.66406 150.688 6.625C149.19 6.625 147.927 6.78776 146.898 7.11328C146.885 7.38672 146.859 7.64714 146.82 7.89453C146.781 8.24609 146.729 8.53255 146.664 8.75391C146.911 8.71484 147.172 8.66927 147.445 8.61719C148.552 8.4349 149.62 8.23958 150.648 8.03125C151.938 7.75781 152.725 7.61458 153.012 7.60156C153.207 7.60156 153.428 7.76432 153.676 8.08984C153.936 8.40234 154.125 8.76042 154.242 9.16406C154.359 9.55469 154.327 9.88672 154.145 10.1602C153.975 10.4336 153.572 10.5378 152.934 10.4727C151.866 10.3685 150.538 10.4792 148.949 10.8047C147.361 11.1302 145.967 11.4492 144.77 11.7617C144.027 11.957 143.52 12.0807 143.246 12.1328C142.934 12.1458 142.647 11.9635 142.387 11.5859C142.139 11.2083 141.905 10.7721 141.684 10.2773C141.41 9.65234 141.137 9.18359 140.863 8.87109L141.449 8.89063C141.632 8.89063 141.846 8.89714 142.094 8.91016C142.107 8.79297 142.159 8.66927 142.25 8.53906C142.615 7.9401 142.855 7.19792 142.973 6.3125C143.103 5.41406 143.155 4.58073 143.129 3.8125C143.103 3.04427 143.044 2.55599 142.953 2.34766C142.888 2.20443 142.816 2.04167 142.738 1.85938C142.66 1.66406 142.582 1.46875 142.504 1.27344C142.426 1.07813 142.367 0.915365 142.328 0.785156L142.25 0.589844ZM148.031 25.9805C149.034 26.2799 150.082 26.4167 151.176 26.3906C152.882 26.2214 153.884 26.1302 154.184 26.1172C155.212 26.0911 155.727 26.3581 155.727 26.918C155.375 29.1315 155.049 30.2448 154.75 30.2578C154.75 30.401 154.49 30.5182 153.969 30.6094C152.862 30.6484 151.111 30.0625 148.715 28.8516C148.064 28.4609 147.738 27.9271 147.738 27.25C147.738 26.8333 147.836 26.4102 148.031 25.9805ZM128.715 26.9766L128.754 26.957C128.754 27.2305 129.19 27.6016 130.063 28.0703C130.31 28.3438 130.434 28.6823 130.434 29.0859C130.251 32.5234 130.128 34.2422 130.063 34.2422C129.919 34.4505 129.698 34.5547 129.398 34.5547L129.086 34.5742C127.979 34.6003 126.71 34.099 125.277 33.0703C124.913 32.7188 124.73 32.3867 124.73 32.0742C124.835 31.6315 126.163 29.9388 128.715 26.9961L128.715 26.9766ZM135.707 11.9375C135.173 12.0677 134.496 12.1393 133.676 12.1523C132.335 12.1654 131.365 12.2435 130.766 12.3867C130.714 12.3997 130.661 12.4128 130.609 12.4258C130.701 12.7643 130.779 13.1615 130.844 13.6172C131.039 15.0365 131.143 16.6445 131.156 18.4414C131.169 20.2253 131.117 21.8203 131 23.2266C130.948 23.8255 130.889 24.3203 130.824 24.7109L131.313 24.6328C131.768 24.5807 132.296 24.4961 132.895 24.3789C133.493 24.2487 134.04 24.0859 134.535 23.8906C135.03 23.6953 135.342 23.4544 135.473 23.168C135.629 22.6862 135.759 21.5339 135.863 19.7109C135.967 17.875 135.987 16.0521 135.922 14.2422C135.883 13.2786 135.811 12.5104 135.707 11.9375Z" fill="#2C5B91"/>
</svg>
