<svg width="159" height="33" viewBox="0 0 159 33" fill="none" xmlns="http://www.w3.org/2000/svg">
<path d="M14.4102 9.625L15.1719 9.68359C15.6927 9.72266 16.3242 9.76823 17.0664 9.82031C17.8216 9.8724 18.6354 9.91797 19.5078 9.95703C19.9766 9.97005 20.5495 9.94401 21.2266 9.87891C21.2135 9.20182 21.194 8.5638 21.168 7.96484C21.1159 6.54557 21.0378 5.6862 20.9336 5.38672C20.8424 5.13932 20.7839 4.8724 20.7578 4.58594C20.7448 4.29948 20.7513 4.02604 20.7773 3.76563C20.8164 3.50521 20.849 3.29036 20.875 3.12109L20.9336 2.86719C21.832 3.08854 22.6849 3.19271 23.4922 3.17969C24.3385 3.16667 25.1068 3.28385 25.7969 3.53125C26.2786 3.77865 26.526 4.23438 26.5391 4.89844C26.5521 5.5625 26.4935 6.28516 26.3633 7.06641C26.2852 7.5612 26.2266 8.02995 26.1875 8.47266C26.1745 8.64193 26.1615 8.83724 26.1484 9.05859C26.487 8.99349 26.8255 8.92839 27.1641 8.86328C28.7917 8.55078 29.8333 8.38151 30.2891 8.35547C30.5495 8.38151 30.8034 8.65495 31.0508 9.17578C31.2982 9.68359 31.4544 10.263 31.5195 10.9141C31.5846 11.5521 31.474 12.0794 31.1875 12.4961C30.901 12.9128 30.3542 13.043 29.5469 12.8867C28.5703 12.7305 27.3854 12.737 25.9922 12.9063C25.9401 14.0781 25.901 15.237 25.875 16.3828C25.849 17.8672 25.8555 18.8503 25.8945 19.332C25.9206 19.6055 25.8229 19.8919 25.6016 20.1914C26.1745 20.1654 26.7734 20.1328 27.3984 20.0938C31.2396 19.9375 33.5313 20.2044 34.2734 20.8945C34.4948 21.3633 34.4167 21.9492 34.0391 22.6523C33.6745 23.3424 33.069 23.8828 32.2227 24.2734C31.3763 24.6641 30.3672 24.638 29.1953 24.1953C27.6198 23.6875 26.2135 23.5117 24.9766 23.668C23.7396 23.8112 21.8451 24.0716 19.293 24.4492C18.0039 24.6185 17.099 24.7227 16.5781 24.7617C15.7969 24.7617 15.2956 24.3841 15.0742 23.6289C14.8529 22.8737 14.7292 22.099 14.7031 21.3047C14.6771 20.7057 14.612 20.2956 14.5078 20.0742L14.7031 20.2109C14.8203 20.2891 14.9701 20.3867 15.1523 20.5039C15.3346 20.6081 15.5104 20.7188 15.6797 20.8359C16.0182 20.9661 17.099 20.9141 18.9219 20.6797C19.5599 20.6016 20.3281 20.5299 21.2266 20.4648C21.2266 20.4518 21.2266 20.4388 21.2266 20.4258C21.2656 20.0482 21.2917 19.1302 21.3047 17.6719C21.3177 16.513 21.3177 15.2305 21.3047 13.8242C20.4063 14.0326 19.5729 14.2409 18.8047 14.4492C17.8021 14.7227 17.125 14.8854 16.7734 14.9375C16.7083 14.9375 16.6432 14.931 16.5781 14.918C16.3698 15.5299 16.2526 16.1549 16.2266 16.793C16.2135 17.2878 15.9206 17.4896 15.3477 17.3984C14.7878 17.3073 14.1172 17.0599 13.3359 16.6563C13.1797 16.5651 13.0299 16.4805 12.8867 16.4023C12.8867 16.4284 12.8932 16.4609 12.9063 16.5C13.0885 18.2448 13.1862 20.2174 13.1992 22.418C13.2122 24.6055 13.1536 26.5521 13.0234 28.2578C12.9063 29.9635 12.75 30.9596 12.5547 31.2461C12.3203 31.4674 11.9167 31.6953 11.3438 31.9297C10.7708 32.1771 10.1784 32.3073 9.56641 32.3203C8.95443 32.3464 8.48568 32.1445 8.16016 31.7148C7.84766 31.2982 7.82161 30.5365 8.08203 29.4297C8.66797 27.0208 9.01302 24.4948 9.11719 21.8516C9.13021 21.6172 9.13672 21.3893 9.13672 21.168C8.8112 21.7799 8.49219 22.2747 8.17969 22.6523C7.09896 23.7982 6.20703 24.4362 5.50391 24.5664C4.8138 24.6836 4.30599 24.6185 3.98047 24.3711C3.79818 24.2669 3.51823 24.2083 3.14063 24.1953C2.77604 24.1823 2.39193 24.1888 1.98828 24.2148C1.58464 24.2409 1.23958 24.2734 0.953125 24.3125L0.503906 24.3711L1.38281 23.8828C1.95573 23.5573 2.8151 22.8737 3.96094 21.832C4.54688 21.2591 5.1849 20.3411 5.875 19.0781C6.5651 17.8021 7.21615 16.4479 7.82813 15.0156C8.07552 14.4557 8.30339 13.9284 8.51172 13.4336C8.44661 13.069 8.39453 12.75 8.35547 12.4766L8.27734 11.9492C8.44661 12.0924 8.66797 12.2096 8.94141 12.3008C9.08464 11.9362 9.21484 11.5911 9.33203 11.2656C9.70964 10.2109 9.87891 9.59896 9.83984 9.42969C9.77474 9.3125 9.61198 9.3125 9.35156 9.42969C9.10417 9.54688 8.79818 9.71615 8.43359 9.9375C8.04297 10.1719 7.6263 10.3997 7.18359 10.6211C6.75391 10.8424 6.33073 10.9922 5.91406 11.0703C5.51042 11.1224 5.13281 10.9271 4.78125 10.4844C4.44271 10.0286 4.15625 9.49479 3.92188 8.88281C3.70052 8.25781 3.55078 7.71094 3.47266 7.24219C3.39453 6.77344 3.42708 6.54557 3.57031 6.55859C3.81771 6.61068 4.36458 6.58464 5.21094 6.48047C6.05729 6.36328 7.02734 6.22656 8.12109 6.07031C9.26693 5.90104 10.3411 5.75781 11.3438 5.64063C12.3594 5.51042 13.1016 5.45182 13.5703 5.46484C14.1953 5.55599 14.8073 5.86849 15.4063 6.40234C16.0052 6.92318 16.2917 7.44401 16.2656 7.96484C16.2396 8.48568 15.6016 8.78516 14.3516 8.86328C14.1432 8.90234 13.8307 9.41667 13.4141 10.4063C13.1536 11.0573 12.8672 11.7995 12.5547 12.6328C12.5938 12.6458 12.6328 12.6589 12.6719 12.6719C13.2578 12.763 13.8698 12.8281 14.5078 12.8672C14.8203 12.8802 15.1198 12.8802 15.4063 12.8672C15.3151 12.5547 15.2305 12.2292 15.1523 11.8906C14.944 10.888 14.6966 10.1328 14.4102 9.625ZM8.16016 0.328125C8.5638 0.354167 8.98047 0.354167 9.41016 0.328125C9.91797 0.276042 10.4128 0.289063 10.8945 0.367188C11.3763 0.432292 11.8125 0.666667 12.2031 1.07031C12.5547 1.51302 12.6849 2.02734 12.5938 2.61328C12.5026 3.19922 12.3073 3.74609 12.0078 4.25391C11.7083 4.76172 11.4349 5.10677 11.1875 5.28906C10.9401 5.43229 10.5951 5.35417 10.1523 5.05469C9.72266 4.75521 9.26693 4.38411 8.78516 3.94141C8.38151 3.57682 8.00391 3.27083 7.65234 3.02344C7.43099 2.86719 7.30078 2.67839 7.26172 2.45703C7.23568 2.22266 7.26172 1.98828 7.33984 1.75391C7.43099 1.50651 7.53516 1.27865 7.65234 1.07031C7.78255 0.848958 7.89974 0.666667 8.00391 0.523438L8.16016 0.328125ZM68.2539 14.293L68.293 14.293C70.5586 16.3763 71.7956 17.7109 72.0039 18.2969C72.0299 18.6745 71.5677 19.5404 70.6172 20.8945L70.6367 20.9727C70.9622 21.3503 71.151 21.819 71.2031 22.3789C71.2943 23.2383 70.8971 23.8242 70.0117 24.1367C69.7383 24.2539 68.7292 24.2734 66.9844 24.1953C66.2161 24.2734 65.4154 24.4297 64.582 24.6641C64.0742 24.9115 63.6576 25.0156 63.332 24.9766C62.9154 24.9375 62.349 24.0651 61.6328 22.3594L61.6133 22.0859L61.6328 22.0078L61.8281 22.0664L62.0625 22.0859C61.8802 21.3438 61.6719 20.3672 61.4375 19.1563C61.2813 19.612 60.8906 20.3151 60.2656 21.2656L60.2852 21.3438C60.5846 21.6693 60.7604 22.099 60.8125 22.6328C60.8776 23.4271 60.513 24 59.7188 24.3516C59.4714 24.4818 58.5534 24.5729 56.9648 24.625C56.2617 24.7552 55.5326 24.9635 54.7773 25.25C54.3086 25.5104 53.931 25.6406 53.6445 25.6406C53.2669 25.6276 52.7461 24.8464 52.082 23.2969L52.0625 23.0234L52.082 22.9648L52.2578 23.0039L52.4727 23.0039C52.1471 21.7148 51.7695 19.6576 51.3398 16.832C52.8763 17.431 53.7096 17.7695 53.8398 17.8477C55.6237 17.2487 56.9583 16.819 57.8438 16.5586L57.8633 16.4219C57.4727 16.5781 57.1341 16.6563 56.8477 16.6563C56.3398 16.6563 55.6432 15.7969 54.7578 14.0781L54.7188 13.7852L54.7578 13.6875L54.9922 13.7266L55.2656 13.7266C54.8359 12.2943 54.3281 10.0026 53.7422 6.85156C55.8125 7.48958 56.9323 7.85417 57.1016 7.94531C59.5104 7.21615 61.3138 6.70182 62.5117 6.40234L62.8047 5.17188C60.1875 5.51042 56.1901 6.1875 50.8125 7.20313C50.9688 8.59635 51.0924 10.0872 51.1836 11.6758C51.3268 17.7305 51.3008 23.0365 51.1055 27.5938C51.0664 27.5938 51.0469 27.6133 51.0469 27.6523L51.1641 27.6523L65.4414 25.3672L66.0273 25.3672C68.4753 25.3672 70.3503 26.0247 71.6523 27.3398C71.9388 27.7174 72.0885 28.0104 72.1016 28.2188L72.1211 28.5703C72.1471 29.3255 71.2943 29.9245 69.5625 30.3672C69.0026 30.4844 68.4362 30.543 67.8633 30.543C67.4596 30.543 66.0664 30.3672 63.6836 30.0156L62.1797 30.0156C57.0885 30.6016 52.9805 31.1094 49.8555 31.5391C49.2565 31.8125 48.5339 31.9492 47.6875 31.9492C46.5417 31.9492 45.832 31.4609 45.5586 30.4844L45.5391 30.0938C45.526 29.8073 45.7539 28.7005 46.2227 26.7734C46.8737 22.0859 47.1016 16.0833 46.9063 8.76563C46.8802 7.85417 46.6719 7.02083 46.2813 6.26563C45.7995 4.39063 45.4219 3.23177 45.1484 2.78906L45.1484 2.73047C47.401 2.88672 49.4323 3.00391 51.2422 3.08203C52.3359 3.08203 57.8958 2.28125 67.9219 0.679688L68.3516 0.679688C68.7031 0.861979 69.0221 1.33073 69.3086 2.08594C69.4258 2.48958 69.5104 2.89323 69.5625 3.29688C69.4844 4.49479 69.0091 5.09375 68.1367 5.09375C68.0716 5.13281 68 5.15234 67.9219 5.15234C66.9974 4.99609 66.2487 4.91797 65.6758 4.91797C65.1289 4.91797 64.3086 4.98307 63.2148 5.11328C65.793 6.94922 67.2057 8.15365 67.4531 8.72656C67.5052 9.11719 66.9453 10.0807 65.7734 11.6172L65.793 11.6953C66.1966 12.0469 66.431 12.5156 66.4961 13.1016C66.5872 14 66.099 14.6576 65.0313 15.0742C64.6927 15.2305 63.4557 15.3542 61.3203 15.4453C61.2161 15.4714 61.1055 15.4909 60.9883 15.5039C62.5508 16.2331 63.4036 16.6432 63.5469 16.7344C65.513 16.2396 66.9844 15.8945 67.9609 15.6992L68.2539 14.293ZM64.4648 20.4648L64.5625 21.6172C66.2161 21.3177 67.043 21.1354 67.043 21.0703C67.0299 20.9661 67.1146 20.263 67.2969 18.9609L67.2578 18.9414C66.3333 18.8633 65.3828 19.0391 64.4063 19.4688C64.4193 19.8984 64.4388 20.2305 64.4648 20.4648ZM54.6602 21.3047L54.7578 22.3789C56.2552 21.9883 57.0039 21.7604 57.0039 21.6953C56.9909 21.5911 57.069 20.9206 57.2383 19.6836L57.1992 19.6836C56.3659 19.6576 55.5 19.8854 54.6016 20.3672C54.6276 20.7839 54.6471 21.0964 54.6602 21.3047ZM58.2148 11.7734L58.3516 12.9844C60.3698 12.5026 61.3789 12.2227 61.3789 12.1445C61.3659 12.0404 61.4701 11.2917 61.6914 9.89844L61.6328 9.89844C60.513 9.89844 59.3542 10.1784 58.1563 10.7383C58.1693 11.194 58.1888 11.5391 58.2148 11.7734ZM61.3008 18.2969C61.1445 17.4766 60.9883 16.5586 60.832 15.543C60.2331 15.6602 59.6276 15.8099 59.0156 15.9922C60.1615 17.0208 60.9232 17.7891 61.3008 18.2969ZM105.281 20.8164L106.766 21.4805C107.26 21.7018 107.807 21.9492 108.406 22.2227C108.732 21.3633 108.986 20.556 109.168 19.8008C109.376 18.9154 109.448 18.349 109.383 18.1016C109.331 17.9714 109.233 17.9453 109.09 18.0234C108.947 18.0885 108.758 18.2122 108.523 18.3945C108.25 18.6159 107.931 18.8372 107.566 19.0586C107.202 19.2799 106.792 19.4362 106.336 19.5273C105.828 19.5924 105.379 19.4492 104.988 19.0977C104.598 18.7331 104.266 18.3099 103.992 17.8281C103.823 17.5286 103.68 17.2617 103.563 17.0273C103.576 17.7305 103.576 18.4596 103.563 19.2148C103.563 19.8789 103.556 20.5299 103.543 21.168C103.738 21.1159 103.94 21.0703 104.148 21.0313C104.448 20.9661 104.708 20.9141 104.93 20.875L105.281 20.8164ZM98.4453 4.17578L99.9688 3.70703C100.971 3.39453 102.182 3.04948 103.602 2.67188C105.021 2.28125 106.395 1.96875 107.723 1.73438C109.051 1.48698 110.066 1.40885 110.77 1.5C112.111 1.79948 113.074 2.22917 113.66 2.78906C114.246 3.33594 114.448 3.72005 114.266 3.94141C114.122 4.09766 113.862 4.55339 113.484 5.30859C113.107 6.0638 112.775 6.89714 112.488 7.80859C112.215 8.70703 112.137 9.45573 112.254 10.0547C112.514 10.9531 112.482 11.8776 112.156 12.8281C111.844 13.7786 111.049 14.4232 109.773 14.7617C109.682 14.7878 109.591 14.8073 109.5 14.8203C108.354 15.1068 107.605 15.2109 107.254 15.1328C106.915 15.0417 106.746 14.625 106.746 13.8828C106.707 13.4922 106.518 13.1211 106.18 12.7695C105.841 12.418 105.457 12.1055 105.027 11.832C104.598 11.5456 104.214 11.3242 103.875 11.168L103.387 10.9336L103.973 10.875C104.363 10.8359 104.819 10.7904 105.34 10.7383C105.874 10.6732 106.375 10.5951 106.844 10.5039C107.326 10.4128 107.677 10.3216 107.898 10.2305C108.172 10.0612 108.413 9.61849 108.621 8.90234C108.829 8.17318 108.947 7.43099 108.973 6.67578C108.999 5.90755 108.862 5.36719 108.563 5.05469C108.211 4.82031 107.586 4.84635 106.688 5.13281C105.789 5.40625 104.871 5.74479 103.934 6.14844C103.113 6.48698 102.443 6.73438 101.922 6.89063C101.779 6.91667 101.642 6.92318 101.512 6.91016C101.85 7.06641 102.208 7.26172 102.586 7.49609C102.964 7.86068 103.224 9.18229 103.367 11.4609C103.471 12.9453 103.536 14.5729 103.563 16.3438L104.227 16.2656C104.865 16.2005 105.652 16.0703 106.59 15.875C107.54 15.6797 108.517 15.3997 109.52 15.0352C109.923 14.918 110.444 14.9961 111.082 15.2695C111.733 15.5299 112.365 15.8945 112.977 16.3633C113.589 16.819 114.044 17.2813 114.344 17.75C114.656 18.2188 114.676 18.5833 114.402 18.8438C113.986 19.2604 113.478 20.1393 112.879 21.4805C112.553 22.2227 112.182 22.9714 111.766 23.7266L113.895 24.6836C115.027 25.1914 115.783 25.5299 116.16 25.6992C116.486 25.8685 116.629 26.207 116.59 26.7148C116.564 27.2227 116.421 27.763 116.16 28.3359C115.9 28.9089 115.6 29.3906 115.262 29.7813C114.923 30.1719 114.611 30.3281 114.324 30.25C113.999 30.1198 113.296 29.638 112.215 28.8047C111.447 28.2188 110.62 27.5807 109.734 26.8906C109.253 27.4375 108.732 27.9128 108.172 28.3164C107.456 28.7591 106.733 29.0456 106.004 29.1758C105.275 29.319 104.604 29.3646 103.992 29.3125C103.68 29.2865 103.393 29.2539 103.133 29.2148C103.042 30.0352 102.938 30.5299 102.82 30.6992C102.612 30.8945 102.241 31.0833 101.707 31.2656C101.173 31.4609 100.626 31.5521 100.066 31.5391C99.5065 31.5391 99.0768 31.3372 98.7773 30.9336C98.4909 30.543 98.4844 29.8464 98.7578 28.8438C99.1484 27.3724 99.4349 25.2695 99.6172 22.5352C99.7995 19.7878 99.8971 17.2031 99.9102 14.7813C99.9362 12.3464 99.9102 10.849 99.832 10.2891C99.7799 9.96354 99.7148 9.56641 99.6367 9.09766C99.5716 8.61589 99.5065 8.14063 99.4414 7.67188C99.3763 7.20313 99.3177 6.8125 99.2656 6.5L99.207 6.01172C99.4674 6.24609 99.8581 6.42188 100.379 6.53906C100.47 6.55208 100.568 6.57161 100.672 6.59766C100.594 6.54557 100.516 6.48698 100.438 6.42188C99.9948 6.00521 99.6042 5.55599 99.2656 5.07422C98.9271 4.59245 98.6536 4.29297 98.4453 4.17578ZM85.3789 2.53516L86.3359 2.16406C86.9609 1.92969 87.7357 1.66927 88.6602 1.38281C89.5977 1.08333 90.5482 0.848958 91.5117 0.679688C92.4883 0.510417 93.3411 0.484375 94.0703 0.601563C95.4635 0.927083 96.4661 1.40234 97.0781 2.02734C97.7031 2.63932 97.918 3.06901 97.7227 3.31641C97.6315 3.51172 97.5469 4.68359 97.4688 6.83203C97.3906 8.96745 97.332 11.4674 97.293 14.332C97.2669 17.1836 97.2669 19.7747 97.293 22.1055C97.332 24.4362 97.4102 25.888 97.5273 26.4609C97.8008 27.4635 97.7682 28.4922 97.4297 29.5469C97.1042 30.6016 96.2708 31.3112 94.9297 31.6758C94.8255 31.7018 94.7279 31.7279 94.6367 31.7539C93.4388 32.0534 92.6576 32.1576 92.293 32.0664C91.9284 31.9753 91.7461 31.526 91.7461 30.7188C91.707 30.276 91.5768 29.8659 91.3555 29.4883C91.1341 29.1237 90.8802 28.8047 90.5938 28.5313C90.3203 28.2448 90.0729 28.0234 89.8516 27.8672L89.5195 27.6328L89.9297 27.5547C90.2031 27.4896 90.5352 27.4115 90.9258 27.3203C91.3164 27.2161 91.694 27.112 92.0586 27.0078C92.4362 26.8906 92.7357 26.7734 92.957 26.6563C93.1523 26.4479 93.2695 25.2435 93.3086 23.043C93.3346 21.7018 93.3346 20.237 93.3086 18.6484C93.1784 18.6484 93.0417 18.6419 92.8984 18.6289C92.1953 18.5508 91.401 18.6159 90.5156 18.8242C90.125 18.9154 89.7474 19.013 89.3828 19.1172C89.2786 20.2109 89.1419 21.2526 88.9727 22.2422C88.2956 26.3828 87.2799 28.8633 85.9258 29.6836C85.6654 29.8138 85.3594 29.8919 85.0078 29.918C84.6693 29.957 84.3372 29.9701 84.0117 29.957C83.6992 29.944 83.4323 29.9245 83.2109 29.8984L82.8984 29.8594L84.1094 24.1563C84.8385 20.7057 85.3008 16.2201 85.4961 10.6992C85.457 10.5951 85.4245 10.5104 85.3984 10.4453C85.3464 10.237 85.3398 10.1654 85.3789 10.2305C85.4049 10.2565 85.444 10.2695 85.4961 10.2695C85.5091 9.83984 85.5221 9.40365 85.5352 8.96094C85.457 8.47917 85.3724 7.91927 85.2813 7.28125C85.2031 6.63021 85.125 6.01823 85.0469 5.44531C84.9818 4.8724 84.9492 4.44271 84.9492 4.15625C84.9492 3.86979 84.9948 3.83724 85.0859 4.05859C85.1901 4.29297 85.3854 4.44271 85.6719 4.50781C85.9583 4.57292 86.2904 4.61198 86.668 4.625C87.3711 4.59896 88.0352 4.7487 88.6602 5.07422C89.2852 5.38672 89.6432 6.20052 89.7344 7.51563C89.7604 8.17969 89.7734 8.83724 89.7734 9.48828C90.6979 9.27995 91.5508 9.10417 92.332 8.96094C92.5404 8.9349 92.7357 8.90885 92.918 8.88281C92.8789 8.47917 92.8464 8.08854 92.8203 7.71094C92.638 5.45833 92.4232 4.16927 92.1758 3.84375C91.9023 3.59635 91.6549 3.51172 91.4336 3.58984C91.2122 3.65495 90.9648 3.79818 90.6914 4.01953C90.3268 4.34505 89.8125 4.625 89.1484 4.85938C88.5625 4.98958 88.0221 4.8724 87.5273 4.50781C87.0326 4.13021 86.5964 3.72005 86.2188 3.27734C85.8672 2.88672 85.5872 2.63932 85.3789 2.53516ZM107.059 24.7617C106.368 24.2148 105.717 23.707 105.105 23.2383C104.441 22.7305 103.914 22.3464 103.523 22.0859C103.484 23.8438 103.419 25.4583 103.328 26.9297C103.302 27.3333 103.276 27.7109 103.25 28.0625L103.328 28.0234C104.292 27.4115 105.444 26.4349 106.785 25.0938C106.876 24.9896 106.967 24.8789 107.059 24.7617ZM93.2305 15.3867C93.1914 14.2539 93.1458 13.1667 93.0938 12.125C92.9245 12.151 92.7357 12.151 92.5273 12.125C91.8372 12.0469 91.0495 12.112 90.1641 12.3203C90.0339 12.3464 89.9036 12.3789 89.7734 12.418C89.7474 13.694 89.7018 14.918 89.6367 16.0898C90.7435 15.8424 91.7656 15.6406 92.7031 15.4844C92.8984 15.4453 93.0742 15.4128 93.2305 15.3867ZM127.797 8.12109L128.305 8.14063C128.656 8.15365 129.086 8.19271 129.594 8.25781C130.115 8.3099 130.648 8.40755 131.195 8.55078C131.247 8.5638 131.293 8.57682 131.332 8.58984C131.54 8.02995 131.84 7.39193 132.23 6.67578C131.098 6.70182 130.18 6.8125 129.477 7.00781C128.656 7.22917 128.018 7.45052 127.563 7.67188C127.224 7.8151 126.938 7.91276 126.703 7.96484C126.482 8.01693 126.273 7.97786 126.078 7.84766C125.831 7.66536 125.57 7.38542 125.297 7.00781C125.036 6.61719 124.802 6.22005 124.594 5.81641C124.385 5.41276 124.255 5.08724 124.203 4.83984C124.151 4.57943 124.21 4.49479 124.379 4.58594C124.561 4.65104 125.036 4.59245 125.805 4.41016C126.573 4.22786 127.484 3.98698 128.539 3.6875C130.128 3.24479 131.638 2.86719 133.07 2.55469C133.63 2.4375 134.105 2.35938 134.496 2.32031L134.965 1.22656C135.173 1.40885 135.564 1.76693 136.137 2.30078C136.71 2.82161 137.263 3.36849 137.797 3.94141C138.344 4.51432 138.676 4.94401 138.793 5.23047C138.832 5.45182 138.591 5.84896 138.07 6.42188C137.549 6.99479 136.677 7.8151 135.453 8.88281C134.685 9.53385 134.027 10.0547 133.48 10.4453C133.48 10.4583 133.48 10.4779 133.48 10.5039C133.91 10.4388 134.34 10.3672 134.77 10.2891C136.944 9.96354 138.201 10.0026 138.539 10.4063C138.552 10.4323 138.578 10.4844 138.617 10.5625C138.813 10.849 139.099 11.3958 139.477 12.2031C139.854 13.0104 140.128 13.974 140.297 15.0938C140.492 14.9635 140.694 14.8268 140.902 14.6836C141.801 13.8633 142.628 13.056 143.383 12.2617C142.732 11.8581 142.094 11.474 141.469 11.1094C140.063 10.2891 139.164 9.78125 138.773 9.58594C138.682 9.54688 138.611 9.50781 138.559 9.46875C138.285 9.45573 138.005 9.44271 137.719 9.42969C137.263 9.40365 136.872 9.3776 136.547 9.35156L136.078 9.29297L136.742 8.72656C137.172 8.34896 137.673 7.86068 138.246 7.26172C138.819 6.66276 139.327 6.00521 139.77 5.28906C139.835 5.19792 139.893 5.10026 139.945 4.99609C140.284 4.39714 140.473 3.8112 140.512 3.23828C140.525 3.06901 140.544 2.80859 140.57 2.45703C140.596 2.10547 140.635 1.7474 140.688 1.38281C140.74 1.00521 140.792 0.705729 140.844 0.484375C140.909 0.263021 140.98 0.204427 141.059 0.308594C141.254 0.529948 141.664 0.699219 142.289 0.816406C142.771 0.920573 143.272 1.07682 143.793 1.28516C144.327 1.49349 144.796 1.84505 145.199 2.33984C145.395 2.61328 145.499 2.91276 145.512 3.23828C146.176 3.04297 146.827 2.89323 147.465 2.78906C148.676 2.56771 150.056 2.73047 151.605 3.27734C152.243 3.70703 152.738 4.19531 153.09 4.74219C153.454 5.28906 153.402 5.78385 152.934 6.22656C152.53 6.63021 151.169 8.08203 148.852 10.582C149.125 10.6602 149.405 10.7383 149.691 10.8164C152.087 11.4935 154.216 12.0859 156.078 12.5938L158.891 13.3555C158.904 13.3555 158.897 13.3685 158.871 13.3945C158.858 13.4206 158.826 13.4596 158.773 13.5117C158.721 13.5508 158.643 13.6029 158.539 13.668C158.448 13.7201 158.318 13.7786 158.148 13.8438C157.992 13.8958 157.803 13.9479 157.582 14C157.23 14.1042 156.911 14.319 156.625 14.6445C156.352 14.957 156.091 15.3086 155.844 15.6992C155.531 16.207 155.212 16.6107 154.887 16.9102C154.47 17.2357 153.832 17.4049 152.973 17.418C153.233 17.5482 153.474 17.7109 153.695 17.9063C154.359 18.4401 154.854 18.9805 155.18 19.5273C155.505 20.0612 155.609 20.3672 155.492 20.4453C155.401 20.5104 155.277 20.888 155.121 21.5781C154.965 22.2552 154.789 23.0885 154.594 24.0781C154.346 25.3542 154.086 26.5781 153.813 27.75C153.539 28.9219 153.279 29.7096 153.031 30.1133C152.523 30.7513 151.69 31.2982 150.531 31.7539C149.372 32.2227 148.415 32.4701 147.66 32.4961C147.022 32.457 146.605 32.0924 146.41 31.4023C146.228 30.7253 146.13 29.9635 146.117 29.1172C146.117 28.6875 146.059 28.3359 145.941 28.0625C145.837 27.7891 145.714 27.5807 145.57 27.4375C145.44 27.2813 145.323 27.1771 145.219 27.125L145.063 27.0273L145.688 27.125C146.091 27.2031 146.417 27.2747 146.664 27.3398C146.911 27.4049 147.302 27.4115 147.836 27.3594C148.37 27.2943 148.773 27.1445 149.047 26.9102C149.398 26.5456 149.73 25.8945 150.043 24.957C150.368 24.0065 150.609 23.0885 150.766 22.2031C150.922 21.3047 150.935 20.7448 150.805 20.5234C150.323 19.9505 148.806 20.0938 146.254 20.9531C144.77 26.9688 142.836 30.5234 140.453 31.6172C140.18 31.7214 139.743 31.793 139.145 31.832C138.546 31.8841 137.914 31.9167 137.25 31.9297C136.586 31.9427 136.013 31.9427 135.531 31.9297L134.809 31.9297L135.883 31.3438C136.586 30.9401 137.419 30.224 138.383 29.1953C139.359 28.1797 140.284 26.7604 141.156 24.9375C141.508 24.1953 141.82 23.3685 142.094 22.457C139.88 23.1081 138.728 22.9193 138.637 21.8906C138.546 21.4089 138.389 20.9336 138.168 20.4648C137.96 19.9831 137.771 19.5924 137.602 19.293C137.458 19.0065 137.4 18.8698 137.426 18.8828C137.543 18.9219 138.025 18.8763 138.871 18.7461C139.717 18.6159 140.766 18.4401 142.016 18.2188C142.341 18.1667 142.667 18.1081 142.992 18.043C142.992 17.6784 143.005 17.2552 143.031 16.7734C143.031 16.6693 143.031 16.5586 143.031 16.4414C142.419 16.8711 141.781 17.1706 141.117 17.3398C140.349 17.5352 139.626 17.6328 138.949 17.6328C138.272 17.6198 137.712 17.5677 137.27 17.4766L136.605 17.3594L136.859 17.2422C136.495 17.138 136.189 17.0013 135.941 16.832C135.668 16.6628 135.271 16.513 134.75 16.3828C134.438 16.3047 134.118 16.2331 133.793 16.168C133.767 16.3893 133.747 16.6237 133.734 16.8711C133.747 17.3268 133.819 19.2995 133.949 22.7891C134.079 26.2656 134.158 28.5703 134.184 29.7031C134.132 30.3151 133.741 30.8685 133.012 31.3633C132.283 31.8581 131.521 32.1315 130.727 32.1836C130.375 32.1836 130.128 32.099 129.984 31.9297C129.841 31.7604 129.724 31.5456 129.633 31.2852C129.542 31.0117 129.398 30.7318 129.203 30.4453C129.008 30.1719 128.669 29.9375 128.188 29.7422C127.237 29.3776 126.547 29.1432 126.117 29.0391L125.492 28.8828L126.078 28.7656C126.469 28.7005 126.924 28.5964 127.445 28.4531C127.979 28.2969 128.461 28.0951 128.891 27.8477C129.333 27.6003 129.613 27.2943 129.73 26.9297C129.887 26.3307 130.049 24.4948 130.219 21.4219C130.258 20.5625 130.284 19.8008 130.297 19.1367C129.932 19.5273 129.509 19.8984 129.027 20.25C128.376 20.7318 127.556 21.4023 126.566 22.2617C125.577 23.1211 124.854 23.6484 124.398 23.8438L123.715 24.1563L124.906 22.2813C125.714 21.0443 126.423 19.9375 127.035 18.9609C127.647 17.9714 128.181 17.0729 128.637 16.2656C129.092 15.4583 129.314 14.957 129.301 14.7617C129.288 14.6706 129.255 14.5273 129.203 14.332C129.203 14.332 129.203 14.3255 129.203 14.3125C128.904 14.4297 128.611 14.5404 128.324 14.6445C127.478 14.931 126.71 15.0156 126.02 14.8984C125.329 14.7813 124.737 14.5664 124.242 14.2539C123.76 13.9284 123.402 13.6224 123.168 13.3359C122.947 13.0365 122.882 12.8607 122.973 12.8086C124.757 12.1706 126.625 11.6758 128.578 11.3242C128.76 11.2982 128.936 11.2656 129.105 11.2266C128.962 10.9792 128.826 10.7253 128.695 10.4648C128.409 9.83984 128.188 9.29297 128.031 8.82422L127.797 8.12109ZM132.719 14.0195C132.992 14.1107 133.24 14.1888 133.461 14.2539C133.734 14.332 133.91 14.4557 133.988 14.625C134.223 14.5078 134.451 14.3906 134.672 14.2734C135.193 14.026 135.603 13.7852 135.902 13.5508C135.746 13.5378 135.59 13.5117 135.434 13.4727C134.21 13.2643 133.083 13.2383 132.055 13.3945C132.172 13.4857 132.296 13.5833 132.426 13.6875C132.543 13.7917 132.641 13.9023 132.719 14.0195ZM147.016 17.3984C147.146 17.3854 147.276 17.3659 147.406 17.3398C148.747 17.1315 149.828 17.0078 150.648 16.9688C150.18 16.7604 149.711 16.4805 149.242 16.1289C148.487 15.5169 147.354 14.7292 145.844 13.7656C145.831 13.7656 145.824 13.7656 145.824 13.7656C145.46 14.1563 145.128 14.5013 144.828 14.8008C145.206 14.8008 145.583 14.8333 145.961 14.8984C146.365 14.9635 146.677 15.1458 146.898 15.4453C147.133 15.7448 147.204 16.2266 147.113 16.8906C147.087 17.0599 147.055 17.2292 147.016 17.3984ZM145.609 9.625C146.781 8.07552 147.634 6.59115 148.168 5.17188C148.103 5.05469 147.764 5.11328 147.152 5.34766C146.553 5.58203 145.863 5.88151 145.082 6.24609C144.509 6.49349 143.969 6.72135 143.461 6.92969C143.344 6.98177 143.233 7.02734 143.129 7.06641C142.608 7.5612 142.1 7.9974 141.605 8.375C142.048 8.53125 142.634 8.72656 143.363 8.96094C144.066 9.16927 144.815 9.39063 145.609 9.625Z" fill="white" fill-opacity="0.85"/>
</svg>
