<svg width="74" height="35" viewBox="0 0 74 35" fill="none" xmlns="http://www.w3.org/2000/svg">
<path d="M19.8477 26.3281C20.0169 26.3802 20.4987 26.5169 21.293 26.7383C22.1523 26.9727 23.1354 27.2526 24.2422 27.5781C25.362 27.9036 26.3711 28.2292 27.2695 28.5547C28.168 28.8802 28.7279 29.1602 28.9492 29.3945C29.1836 29.7331 29.2161 30.3255 29.0469 31.1719C28.8776 32.0182 28.5456 32.7995 28.0508 33.5156C27.569 34.2448 26.957 34.5898 26.2148 34.5508C25.6549 34.4336 25.0169 33.9648 24.3008 33.1445C23.5846 32.3242 22.888 31.3867 22.2109 30.332C21.5339 29.2773 20.974 28.3464 20.5312 27.5391L19.8477 26.3281ZM14.1445 9.23828C14.6133 9.52474 15.375 9.7526 16.4297 9.92187C16.6901 9.96094 16.9505 10.013 17.2109 10.0781L17.3672 9.6875C17.5234 9.24479 17.7057 8.74349 17.9141 8.18359C16.9115 8.33984 15.8958 8.50911 14.8672 8.69141C14.5677 8.74349 14.2682 8.80208 13.9687 8.86719C13.8385 9.25781 13.6628 9.6224 13.4414 9.96094C12.9206 10.7682 12.2826 11.0547 11.5273 10.8203C11.0977 10.625 10.7201 10.2344 10.3945 9.64844C10.0951 9.71354 9.82812 9.78516 9.59375 9.86328C8.82552 10.0977 8.0638 10.1237 7.30859 9.94141C6.56641 9.75911 5.89583 9.48568 5.29687 9.12109C4.69792 8.75651 4.23568 8.41797 3.91016 8.10547C3.58464 7.77995 3.46094 7.59766 3.53906 7.55859C4.71094 7.19401 6.57943 6.77734 9.14453 6.30859C9.13151 6.24349 9.11198 6.1849 9.08594 6.13281C8.82552 5.05208 8.63021 4.10807 8.5 3.30078L8.30469 2.08984L8.87109 2.16797C9.2487 2.22005 9.71745 2.32422 10.2773 2.48047C10.8503 2.63672 11.4297 2.86458 12.0156 3.16406C12.6146 3.45052 13.1484 3.83464 13.6172 4.31641C13.8906 4.65495 14.0859 5.03906 14.2031 5.46875C15.5182 5.26042 16.8724 5.05859 18.2656 4.86328C18.474 4.83724 18.6888 4.80469 18.9102 4.76562C18.9102 4.6875 18.9102 4.6224 18.9102 4.57031C18.8971 4.4401 18.8711 4.23828 18.832 3.96484C18.7799 3.60026 18.7279 3.18359 18.6758 2.71484C18.6237 2.24609 18.5781 1.79687 18.5391 1.36719C18.5 0.9375 18.4935 0.611979 18.5195 0.390625C18.5456 0.15625 18.6172 0.0976562 18.7344 0.214844C19.0729 0.540365 19.6068 0.807292 20.3359 1.01562C21.4557 1.25 22.7448 1.97917 24.2031 3.20312C24.4245 3.4375 24.5937 3.67839 24.7109 3.92578C24.8932 3.89974 25.069 3.86719 25.2383 3.82812C26.8008 3.58073 28.0703 3.72396 29.0469 4.25781C30.0234 4.77865 30.3555 5.27995 30.043 5.76172C29.7435 6.24349 29.3073 6.69922 28.7344 7.12891C28.1615 7.55859 27.5039 7.6888 26.7617 7.51953C26.0977 7.3763 24.9648 7.36979 23.3633 7.5C23.2201 7.64323 23.0703 7.78646 22.9141 7.92969C22.1198 8.58073 21.4948 8.99089 21.0391 9.16016C20.7396 9.27734 20.3685 9.41406 19.9258 9.57031C19.4831 9.71354 19.0469 9.85677 18.6172 10C18.3307 10.0781 18.0833 10.1497 17.875 10.2148C18.2526 10.319 18.6432 10.4297 19.0469 10.5469C19.5547 10.7422 19.8086 11.0221 19.8086 11.3867C19.8086 11.7513 19.7305 12.1289 19.5742 12.5195C19.5352 12.6107 19.5026 12.6953 19.4766 12.7734C22.0286 12.1484 24.0013 12.1289 25.3945 12.7148C26.3451 13.1966 27.1784 13.7695 27.8945 14.4336C28.6107 15.0977 29.0859 15.7031 29.3203 16.25C29.5677 16.7839 29.4505 17.0964 28.9687 17.1875C28.6432 17.2526 28.2461 17.487 27.7773 17.8906C27.3086 18.2812 26.8073 18.75 26.2734 19.2969C25.9479 19.6224 25.6224 19.9349 25.2969 20.2344C26.6901 20.1562 27.9857 20.0911 29.1836 20.0391C32.0091 19.9479 33.5781 20.0456 33.8906 20.332C34.125 20.7487 34.0664 21.2826 33.7148 21.9336C33.3763 22.5846 32.8424 23.1315 32.1133 23.5742C31.3971 24.0169 30.5768 24.1276 29.6523 23.9062C28.6107 23.6719 26.638 23.6458 23.7344 23.8281C21.9375 23.9323 20.1211 24.0755 18.2852 24.2578C18.2461 24.401 18.2135 24.5508 18.1875 24.707C17.9531 25.8008 17.6016 26.9206 17.1328 28.0664C16.6641 29.1992 15.9349 30.1432 14.9453 30.8984C12.5885 32.6302 9.82812 33.4115 6.66406 33.2422C6.82031 33.2422 7.02865 33.151 7.28906 32.9687C7.5625 32.7865 7.83594 32.5716 8.10937 32.3242C8.39583 32.0768 8.64323 31.8555 8.85156 31.6602C8.98177 31.543 9.07943 31.4518 9.14453 31.3867C10.0169 30.6315 10.8047 29.8177 11.5078 28.9453C12.5625 27.6302 13.4089 26.224 14.0469 24.7266C11.4297 25.0521 9.48958 25.3646 8.22656 25.6641C7.26302 25.8594 6.31901 25.8464 5.39453 25.625C4.48307 25.3906 3.65625 25.0716 2.91406 24.668C2.1849 24.2513 1.61849 23.8672 1.21484 23.5156C0.824219 23.1641 0.68099 22.9622 0.785156 22.9102C2.29557 22.5716 4.73698 22.2005 8.10937 21.7969C8.01823 21.4453 7.92708 21.0286 7.83594 20.5469C7.6276 19.4922 7.44531 18.3724 7.28906 17.1875C7.14583 15.9896 7.02865 14.9544 6.9375 14.082L6.82031 12.7734L12.3672 14.082L12.3672 14.1797C13.474 14.0104 14.4961 13.8411 15.4336 13.6719C15.3164 13.2682 15.1732 12.8776 15.0039 12.5C14.7565 11.9922 14.5677 11.4909 14.4375 10.9961C14.3203 10.5013 14.2422 10.0846 14.2031 9.74609L14.1445 9.23828ZM15.8242 16.7187C15.4857 16.7969 15.1732 16.862 14.8867 16.9141C14.1315 17.0573 13.7083 17.0638 13.6172 16.9336C13.5391 16.7383 13.3307 16.5104 12.9922 16.25C12.7448 16.0417 12.4844 15.8333 12.2109 15.625C12.1589 16.2109 12.1198 16.862 12.0937 17.5781C12.0417 18.5286 12.0417 19.4141 12.0937 20.2344C12.1198 20.6771 12.1719 21.0417 12.25 21.3281C13.2266 21.224 14.2161 21.1263 15.2187 21.0352C15.4401 20.0716 15.6159 19.0495 15.7461 17.9687C15.7982 17.5391 15.8242 17.1224 15.8242 16.7187ZM19.0859 15.957C19.0339 16.6211 18.9948 17.2852 18.9687 17.9492C18.9427 18.8737 18.8841 19.7982 18.793 20.7227C18.9102 20.7096 19.0339 20.6966 19.1641 20.6836C20.0104 20.6055 20.8372 20.5404 21.6445 20.4883C21.7617 19.8503 21.9766 19.1536 22.2891 18.3984C22.6536 17.5781 22.9727 16.9076 23.2461 16.3867C23.3893 16.1133 23.4805 15.9375 23.5195 15.8594C23.6107 15.5208 23.3633 15.3581 22.7773 15.3711C22.2044 15.3711 21.4427 15.4687 20.4922 15.6641C20.0365 15.7552 19.5677 15.8529 19.0859 15.957ZM67.8906 0.742187L68.3984 0.722656C70.3646 0.696615 72.1029 1.73177 73.6133 3.82812C73.8477 4.21875 73.9714 4.51823 73.9844 4.72656L73.9844 4.94141C73.6979 5.16276 73.5352 5.33203 73.4961 5.44922C73.1966 6.10026 73.1185 11.556 73.2617 21.8164C73.3008 27.4284 73.2357 30.6901 73.0664 31.6016C73.0924 32.1094 72.8516 32.6497 72.3437 33.2227C71.8229 33.7565 71.25 34.0299 70.625 34.043C69.6094 34.056 68.7565 33.5091 68.0664 32.4023L68.0078 32.0703C68.2161 31.4062 68.2943 30.1562 68.2422 28.3203L68.2422 28.2031L68.1836 28.2031C68.2096 29.2318 67.6953 30.2474 66.6406 31.25C66.263 31.4062 65.9701 31.4844 65.7617 31.4844C64.7591 31.1719 63.7826 31.0221 62.832 31.0352L62.7734 31.0352C60.026 31.0742 56.8424 31.6081 53.2227 32.6367C53.0013 32.7799 52.6628 32.8581 52.207 32.8711C50.9831 32.8841 49.6224 32.0833 48.125 30.4687C47.9297 30.9115 47.1875 31.7448 45.8984 32.9687C44.8437 32.2396 44.3034 31.5039 44.2773 30.7617C44.2383 30.7617 44.2187 30.7227 44.2187 30.6445C44.1927 26.8685 44.1602 24.2643 44.1211 22.832C43.8216 11.8164 43.5286 6.30859 43.2422 6.30859C43.1901 5.98307 43.1641 5.70964 43.1641 5.48828L43.1445 4.80469C43.1315 4.27083 43.1706 3.73047 43.2617 3.18359C43.7174 3.43099 44.9674 3.60026 47.0117 3.69141C48.1706 3.86068 48.763 4.38802 48.7891 5.27344C48.8672 5.27344 48.9128 5.61198 48.9258 6.28906L48.7305 11.9531C48.7435 11.9141 48.7695 11.875 48.8086 11.8359C48.8737 11.7448 48.9714 11.6602 49.1016 11.582C49.2318 11.4909 49.401 11.4193 49.6094 11.3672C49.8307 11.3021 50.0977 11.263 50.4102 11.25C50.8529 11.237 51.7383 11.1133 53.0664 10.8789C54.4076 10.6445 55.8724 10.3646 57.4609 10.0391C57.5651 10.013 57.6758 9.98698 57.793 9.96094C57.7018 9.54427 57.6107 9.15365 57.5195 8.78906L56.9141 6.17187C55.7161 6.39323 54.5898 6.67318 53.5352 7.01172L52.9297 7.01172C52.1875 7.02474 51.0742 5.99609 49.5898 3.92578C60.918 2.74089 66.5755 1.88802 66.5625 1.36719C67.0182 0.950521 67.4609 0.742187 67.8906 0.742187ZM63.3203 14.7461C63.3333 14.7331 63.3529 14.7201 63.3789 14.707C63.444 14.681 63.5482 14.6875 63.6914 14.7266C63.8346 14.7526 63.9844 14.7852 64.1406 14.8242C64.3099 14.8763 64.4401 14.9089 64.5312 14.9219C64.5443 14.9219 64.5638 14.9219 64.5898 14.9219C64.9935 14.9349 65.3711 15.0391 65.7227 15.2344C66.1914 15.5859 66.4974 16.0807 66.6406 16.7187C66.6797 16.8229 66.6927 16.9336 66.6797 17.0508C66.6667 17.181 66.6146 17.2917 66.5234 17.3828C66.4323 17.4609 66.3346 17.5326 66.2305 17.5977C66.2044 17.6107 66.1849 17.6237 66.1719 17.6367C65.9115 17.8451 65.651 18.1966 65.3906 18.6914C65.1302 19.1732 64.8828 19.668 64.6484 20.1758C64.4271 20.6706 64.2318 21.0612 64.0625 21.3477C63.9583 21.5169 63.8607 21.6797 63.7695 21.8359C63.8997 21.9661 64.0365 22.0833 64.1797 22.1875C64.7786 22.6302 65.2539 22.8385 65.6055 22.8125C65.9701 22.7865 66.3477 22.5781 66.7383 22.1875L67.3242 21.582L67.3047 23.0469C67.3047 24.0365 67.2786 24.7461 67.2266 25.1758C67.1354 25.7227 66.8229 26.0482 66.2891 26.1523C65.7682 26.2565 65.1888 26.2435 64.5508 26.1133C63.9258 25.9701 63.418 25.8008 63.0273 25.6055C62.5456 25.332 62.1029 24.9284 61.6992 24.3945C61.4388 24.6549 61.1719 24.9023 60.8984 25.1367C60.612 25.4362 60.2865 25.6055 59.9219 25.6445C59.7396 25.6315 59.5703 25.5924 59.4141 25.5273C59.3229 25.4883 59.2318 25.4557 59.1406 25.4297C58.6328 25.3125 58.1641 25.4427 57.7344 25.8203C58.2682 25.0521 58.8021 24.2773 59.3359 23.4961C59.6875 22.9883 60.0391 22.4805 60.3906 21.9727C59.974 20.8789 59.6354 19.5768 59.375 18.0664C59.2187 17.2461 59.069 16.4583 58.9258 15.7031C58.9128 15.7943 58.8932 15.8854 58.8672 15.9766C58.7109 16.5885 58.4896 17.2591 58.2031 17.9883C58.1771 18.0664 58.151 18.1445 58.125 18.2227C58.1771 18.431 58.2031 18.6719 58.2031 18.9453C58.2031 19.4271 58.0078 19.8828 57.6172 20.3125C57.2266 20.7422 56.5365 20.9961 55.5469 21.0742C53.8411 21.2565 52.6302 21.582 51.9141 22.0508C51.6276 22.181 51.3867 22.2786 51.1914 22.3437C51.0091 22.3958 50.8594 22.3763 50.7422 22.2852C50.612 22.1549 50.4818 21.9531 50.3516 21.6797C50.2214 21.3932 50.1107 21.1003 50.0195 20.8008C49.9284 20.5013 49.8763 20.2604 49.8633 20.0781C49.8633 19.8828 49.9154 19.8177 50.0195 19.8828C50.0716 19.9089 50.1888 19.9023 50.3711 19.8633C50.2279 19.2253 50.1042 18.5612 50 17.8711C49.8698 17.1289 49.7656 16.4844 49.6875 15.9375L49.5508 15.1367L51.9336 15.5664C52.2982 15.4232 52.7279 15.2344 53.2227 15C53.9648 14.6354 54.6745 14.3229 55.3516 14.0625C55.7812 13.8932 56.1068 13.8086 56.3281 13.8086L56.3477 13.2422C56.4779 13.2943 56.7383 13.418 57.1289 13.6133C57.5195 13.8086 57.9036 14.0234 58.2812 14.2578C58.4505 14.349 58.5937 14.4466 58.7109 14.5508C58.5417 13.6654 58.3854 12.8451 58.2422 12.0898C57.6302 12.181 57.0052 12.3112 56.3672 12.4805C55.0651 12.832 53.9128 13.1771 52.9102 13.5156C52.2852 13.7109 51.7773 13.8672 51.3867 13.9844C50.9961 14.0885 50.7682 14.1016 50.7031 14.0234C50.5599 13.8021 50.2865 13.4896 49.8828 13.0859C49.5052 12.7083 49.1146 12.4023 48.7109 12.168L48.7109 12.4219C48.6589 19.1536 48.6849 24.3294 48.7891 27.9492L48.8086 28.457C48.8086 28.5352 48.8281 28.6068 48.8672 28.6719C48.8281 28.737 48.8086 28.8151 48.8086 28.9062L48.8281 29.1211L48.8672 29.1211C55.4167 27.6758 60.8398 26.9206 65.1367 26.8555L65.8008 26.8555C67.3633 26.8294 68.151 27.0378 68.1641 27.4805L68.1641 27.6562L68.2227 27.6562C68.2487 27.0312 68.2552 26.5625 68.2422 26.25L68.2031 24.8633C68.0078 17.6628 67.8581 11.4453 67.7539 6.21094C66.9076 5.78125 65.4167 5.57943 63.2812 5.60547L62.9297 5.625C60.9766 5.65104 59.1602 5.80078 57.4805 6.07422C57.5977 6.1263 57.7474 6.16536 57.9297 6.19141C58.138 6.23047 58.3854 6.25651 58.6719 6.26953C59.1797 6.30859 59.5378 6.4388 59.7461 6.66016C59.9674 6.86849 60.1042 7.11589 60.1562 7.40234C60.2083 7.6888 60.2279 7.94922 60.2148 8.18359C60.2148 8.28776 60.2148 8.37891 60.2148 8.45703C60.2279 8.58724 60.2669 8.90625 60.332 9.41406C60.8138 9.29687 61.2695 9.19271 61.6992 9.10156C61.9727 9.02344 62.2266 8.95833 62.4609 8.90625C62.3047 8.76302 62.1484 8.60677 61.9922 8.4375C61.6276 8.03385 61.3281 7.66927 61.0937 7.34375L60.7227 6.85547L61.0547 6.71875C61.276 6.6276 61.556 6.52995 61.8945 6.42578C62.2461 6.32161 62.6172 6.25 63.0078 6.21094C63.3984 6.15885 63.7695 6.17187 64.1211 6.25C64.5898 6.38021 64.9154 6.71224 65.0977 7.24609C65.2018 7.53255 65.2539 7.81901 65.2539 8.10547C65.5013 8.09245 65.7292 8.09896 65.9375 8.125C66.237 8.15104 66.4193 8.21615 66.4844 8.32031C66.5234 8.39844 66.5365 8.55469 66.5234 8.78906C66.5104 9.02344 66.4844 9.29687 66.4453 9.60937C66.3932 10.1823 66.3672 10.6966 66.3672 11.1523C66.3802 11.5169 65.9831 11.7448 65.1758 11.8359C64.3685 11.9141 63.2617 11.9466 61.8555 11.9336L60.7227 11.9336C60.9831 13.5612 61.4844 15.931 62.2266 19.043C62.2656 18.9648 62.3047 18.8867 62.3437 18.8086C62.4219 18.6393 62.513 18.3659 62.6172 17.9883C62.7344 17.6107 62.8451 17.2331 62.9492 16.8555C63.0534 16.4779 63.1185 16.1979 63.1445 16.0156C63.1576 15.8984 63.1641 15.7552 63.1641 15.5859C63.1641 15.4167 63.1706 15.2539 63.1836 15.0977C63.1966 14.9414 63.2422 14.8242 63.3203 14.7461ZM49.0039 23.9062C49.2122 23.7891 49.5703 23.7305 50.0781 23.7305C50.4557 23.7305 50.8919 23.6914 51.3867 23.6133C51.7122 23.5612 52.3112 23.3789 53.1836 23.0664C54.056 22.7539 54.9935 22.4089 55.9961 22.0312C57.0117 21.6406 57.8906 21.3021 58.6328 21.0156L59.7656 20.5664C59.4922 20.6836 59.2383 20.9505 59.0039 21.3672C58.7695 21.7839 58.6198 22.2135 58.5547 22.6562C58.4635 22.9297 58.0273 23.2943 57.2461 23.75C56.4779 24.2057 55.6315 24.6745 54.707 25.1562C53.6003 25.7292 52.7995 26.1849 52.3047 26.5234C51.7187 26.9401 51.2305 27.1094 50.8398 27.0312C50.4492 26.9531 50.2409 26.7122 50.2148 26.3086C50.2018 26.1003 50.1172 25.8659 49.9609 25.6055C49.8047 25.332 49.6354 25.0716 49.4531 24.8242C49.2839 24.5898 49.1536 24.3945 49.0625 24.2383C48.9714 24.069 48.9518 23.9583 49.0039 23.9062ZM56.25 16.2695C55.9635 16.4909 55.5534 16.6341 55.0195 16.6992C54.3815 16.7643 53.8672 16.888 53.4766 17.0703C53.099 17.2526 52.7995 17.4219 52.5781 17.5781C52.4219 17.6953 52.2917 17.7734 52.1875 17.8125C52.1354 17.8255 52.0898 17.832 52.0508 17.832C52.0768 18.3398 52.1224 18.8281 52.1875 19.2969C52.4089 19.2187 52.6497 19.1341 52.9102 19.043C54.043 18.6263 55.1107 18.2682 56.1133 17.9687C56.1523 17.9557 56.1979 17.9492 56.25 17.9492C56.237 17.5977 56.237 17.2396 56.25 16.875C56.25 16.6667 56.25 16.4648 56.25 16.2695Z" fill="#D7E1EC"/>
</svg>
